<svg width="106" height="36" viewBox="0 0 106 36" fill="none" xmlns="http://www.w3.org/2000/svg">
<path d="M105.885 1.07879C105.908 0.998867 107.034 0.018923 107.16 0.00884282C107.928 -0.0545182 108.474 0.225573 109.003 0.754062L116.94 14.4595C117.87 14.6431 117.34 14.093 117.585 13.5897C118.366 11.9769 120.231 9.459 121.22 7.75113C122.613 5.34629 123.892 2.86514 125.302 0.485499C126.058 -0.509557 128.46 0.279574 128.46 1.31207V19.6968C128.46 20.2613 125.516 19.8156 124.969 19.8135V9.92268C124.969 9.8658 124.741 8.80884 124.507 8.87724C124.426 9.24157 124.291 9.65916 124.106 9.98173C123.875 10.3849 123.28 11.0862 123.041 11.4952C122.207 12.9201 118.856 19.6947 117.824 19.9971C116.719 20.3211 116.086 20.0424 115.504 19.1597C113.435 16.0219 111.885 12.2627 109.898 9.17532C109.749 8.94563 109.924 8.76204 109.376 8.87508V19.6961C109.376 20.2772 106.375 19.6436 105.885 20.0453V1.07879Z" fill="white"/>
<path d="M81.2148 1.19554V4.68616H66.9011C66.1263 4.68616 66.1126 5.89723 66.0766 6.42212C65.9174 8.73408 65.844 13.0304 66.0867 15.2783C66.1371 15.7441 66.3207 16.5541 66.9011 16.5541H77.9564V12.3651H68.8798V8.87448H80.1678C80.7842 8.87448 81.3826 10.0085 81.4531 10.6147C81.613 11.9842 81.6771 17.5341 81.443 18.7595C81.3444 19.2758 80.8713 19.5933 80.512 19.9231C76.1649 19.8496 71.1762 20.4372 66.8924 20.0541C64.7596 19.8633 62.9118 18.352 62.6166 16.1848C62.3084 13.921 62.3624 7.8391 62.5993 5.50266C62.7376 4.1368 63.4476 2.69677 64.6127 1.93067C64.8143 1.79819 66.1018 1.19482 66.204 1.19482H81.2155L81.2148 1.19554Z" fill="white"/>
<path d="M58.8721 20.0452H55.3812V15.391H43.5114V20.0452H40.0205V8.99084C40.0205 6.28288 43.124 2.95138 45.5457 1.94912C47.8168 1.00951 54.8541 0.846793 57.3715 1.18304C57.7308 1.23128 58.8721 1.91961 58.8721 2.24217V20.0452ZM55.3812 4.68589H48.0501C47.6677 4.68589 45.7905 5.65215 45.3923 5.98407C43.5129 7.55154 43.3494 9.84911 43.5122 12.133H55.3819V4.68589H55.3812Z" fill="white"/>
<path d="M17.2121 1.19531V4.68593H4.7605C4.70866 4.68593 3.99362 5.23386 3.93602 5.31738C3.41684 6.07771 3.36571 7.81007 4.10955 8.4228C5.8327 9.84266 13.359 7.72871 16.5907 9.8441C19.8433 11.9732 19.6798 17.5921 16.2119 19.3943C16.0182 19.4951 14.6248 20.0445 14.5348 20.0445H0.221854V16.5539H14.3023C14.3678 16.5539 15.1743 15.7381 15.2283 15.6193C15.6178 14.7603 15.4292 13.1338 14.4844 12.6478C12.9175 11.8421 6.89265 12.6377 4.58769 12.3044C-0.816498 11.5224 -1.64027 3.78952 3.15545 1.68564C3.37435 1.58988 4.42423 1.19531 4.52648 1.19531H17.2106H17.2121Z" fill="white"/>
<path d="M102.161 1.19531V4.68593H88.4288V15.9728C88.4288 16.2587 89.3908 16.5229 89.7041 16.5597C93.4434 16.9967 97.9533 16.1975 101.778 16.5877C102.52 16.8304 102.017 19.3367 102.16 20.0459H88.5447C87.2061 20.0459 85.1611 17.7628 84.9515 16.4243C84.3208 12.3929 85.4023 6.89061 84.9249 2.69582C84.737 2.32214 85.8891 1.19531 85.9841 1.19531H102.159H102.161Z" fill="white"/>
<path d="M38.6239 1.19531V4.68593H31.1769V20.0452H27.4526V4.68593H20.0049V1.19531H38.6239Z" fill="white"/>
<path d="M100.532 8.87451H89.5938V12.3651H100.532V8.87451Z" fill="white"/>
<path d="M42.3477 29.8193L43.4055 30.2744L46.7697 34.4742V29.8201H47.4681V35.871C47.0548 35.9322 46.959 35.884 46.6631 35.6284C45.5326 34.6506 44.6181 32.3876 43.2787 31.4495V35.871C43.2787 35.9178 42.3477 35.9178 42.3477 35.871V29.8201V29.8193Z" fill="white"/>
<path d="M98.4375 29.8197C98.8839 29.7441 99.0683 29.8896 99.3844 30.1531C100.527 31.1057 101.63 33.4457 102.859 34.4739V29.8197H103.558V35.8707C103.2 35.919 103.015 35.8693 102.729 35.6526C102.153 35.2155 100.261 32.4003 99.5932 31.5744C99.3513 31.2749 99.0164 30.9142 99.3693 31.5658V35.8707C99.3693 35.9175 98.4382 35.9175 98.4382 35.8707V29.8197H98.4375Z" fill="white"/>
<path d="M20.9355 29.8197C22.5644 29.8045 25.7363 29.3848 25.8393 31.8026C25.9091 33.4384 24.6922 33.3967 24.4265 33.7804C24.3552 33.8834 25.9718 35.7605 25.8234 35.8678C24.5748 36.2594 24.6447 34.6941 23.8612 34.2247C23.2348 33.8496 22.5514 34.0346 21.8659 34.0072C21.7492 35.1211 22.4031 36.1759 20.9363 35.8699V29.8189L20.9355 29.8197ZM21.6326 33.3117C26.326 34.0627 26.3376 29.7685 21.6326 30.5166V33.3117Z" fill="white"/>
<path d="M59.5712 29.8193V30.5177H56.3129L56.3115 32.3804C56.8954 32.5208 59.3214 31.947 59.3408 32.9586L56.3115 33.0759L56.3129 35.1719H59.8038V35.8703H55.3818V29.8193H59.5712Z" fill="white"/>
<path d="M92.3867 29.8197C93.8607 29.8644 96.7144 29.3524 97.0276 31.3483C97.3409 33.3442 95.9057 33.6891 95.887 33.8892C95.8647 34.1261 97.0838 35.5143 97.2739 35.8685C95.977 36.2228 95.959 34.692 95.3117 34.2255C94.7191 33.7985 93.7779 34.0764 93.0838 34.008V35.8721L92.3867 35.8707V29.8197ZM96.0548 33.0223C96.3126 32.7638 96.4062 31.943 96.3457 31.5773C96.1052 30.1271 94.1437 30.5563 93.083 30.5167V33.3118C93.8067 33.2333 95.5493 33.5299 96.0548 33.0223Z" fill="white"/>
<path d="M61.1992 29.8188C62.8835 29.7727 65.7912 29.4329 65.879 31.7931C65.9395 33.4318 64.755 33.6356 64.6894 33.8955C64.6023 34.239 66.1721 35.5782 65.8531 35.8683C65.1964 36.4659 64.3431 34.4398 64.1069 34.2418C63.5488 33.7738 62.589 34.0849 61.8963 34.0064V35.8705L61.1992 35.8691V29.8181V29.8188ZM61.8963 33.3109C66.3528 34.0913 66.3579 29.7367 61.8963 30.5158V33.3109Z" fill="white"/>
<path d="M37.1653 29.8758C41.8544 29.0067 42.4326 35.0887 38.9201 35.8166C34.1942 36.7958 33.5627 30.544 37.1653 29.8758ZM40.4769 32.8631C40.4769 31.5023 39.3737 30.3992 38.0128 30.3992C36.6518 30.3992 35.5487 31.5023 35.5487 32.8631C35.5487 34.2239 36.6518 35.327 38.0128 35.327C39.3737 35.327 40.4769 34.2239 40.4769 32.8631Z" fill="white"/>
<path d="M80.2203 29.8743C85.6979 28.7496 85.7253 37.2544 80.0446 35.7611C77.1845 35.0094 77.425 30.4482 80.2203 29.8743ZM83.0034 34.6343C84.0346 33.5305 83.596 30.829 82.0248 30.5238C77.7015 29.6842 77.8153 35.3219 81.0931 35.3666C81.5604 35.373 82.6823 34.9778 83.0034 34.6343Z" fill="white"/>
<path d="M7.51579 35.0927C4.53251 32.1089 9.40599 27.6578 12.2201 30.738C15.0528 33.8384 10.237 37.8143 7.51579 35.0927ZM12.305 32.8599C12.305 31.4991 11.2019 30.3968 9.84164 30.3968C8.48141 30.3968 7.37825 31.4998 7.37825 32.8599C7.37825 34.22 8.48141 35.3231 9.84164 35.3231C11.2019 35.3231 12.305 34.22 12.305 32.8599Z" fill="white"/>
<path d="M109.609 29.8193V30.5177H106.118L106.117 32.3804C106.545 32.4531 109.097 32.2278 109.145 32.4971C109.224 32.9449 109.282 33.0544 108.801 33.0796C107.911 33.1256 107.005 33.0428 106.116 33.0767L106.118 35.1726H109.493C109.645 35.1726 109.939 35.6716 109.842 35.871H105.42V29.8201H109.609V29.8193Z" fill="white"/>
<path d="M14.8847 29.8193V33.6591C14.8847 33.7311 15.3758 34.8767 15.5026 34.9595C16.3191 35.4909 18.1481 35.3008 18.3692 34.1185C18.4895 33.4748 18.3253 30.1037 18.609 29.8179L19.306 29.8193V33.6591C19.306 33.8636 18.794 35.0041 18.6119 35.2273C17.9364 36.0575 16.1168 36.0928 15.2599 35.6104C14.8761 35.3944 14.1855 34.2416 14.1855 33.8917V29.8193H14.884H14.8847Z" fill="white"/>
<path d="M86.3352 29.8193V33.8917C86.3352 33.9479 86.8184 34.8407 86.8587 34.8796C87.5413 35.5391 89.8261 35.205 89.8261 34.125V29.8201H90.5246V34.3583C90.5246 35.2403 88.9015 35.8898 88.0807 35.8898C87.2598 35.8898 85.6367 35.2403 85.6367 34.3583V29.8201H86.3352V29.8193Z" fill="white"/>
<path d="M51.1281 29.8744C52.2391 29.6433 53.3841 29.832 54.2129 30.6348C53.8312 31.1986 53.7369 30.8695 53.3639 30.7932C52.785 30.6737 52.5646 30.4361 51.7725 30.5088C48.6351 30.7961 48.7324 35.6936 52.6935 35.1608C53.114 35.1039 53.603 34.6726 53.8629 34.7065C54.6032 34.8015 53.7484 35.6381 53.2984 35.767C48.3104 37.1934 47.4204 30.6456 51.1273 29.8744H51.1281Z" fill="white"/>
<path d="M31.1123 29.8743C32.2234 29.6432 33.3683 29.8326 34.1971 30.6347C33.8155 31.1984 33.7211 30.8694 33.3481 30.7931C32.7692 30.6736 32.5488 30.436 31.7568 30.5087C28.6194 30.796 28.7166 35.6935 32.6777 35.1607C32.8117 35.1427 34.8538 34.2823 33.9739 35.2931C32.8109 36.6288 29.7535 35.8864 29.0644 34.1433C28.3998 32.4613 29.2401 30.2646 31.1123 29.8751V29.8743Z" fill="white"/>
<path d="M76.7935 29.8193V34.8227C76.7935 34.8745 76.2203 35.6183 76.1663 35.6507C75.4441 36.0827 73.3357 35.8905 73.3069 35.056C73.2839 34.4 74.8054 35.367 75.4743 35.1359C76.2995 34.8508 76.2664 30.6877 76.0965 30.517C76.005 30.4249 74.1616 30.5876 73.7663 30.517V29.8208L76.7935 29.8201V29.8193Z" fill="white"/>
<path d="M3.71608 33.0766C4.3339 32.8981 5.70565 29.0892 6.50494 29.8208C6.70656 30.0058 4.36415 33.2055 4.23597 33.716C4.12076 34.1732 4.29286 35.8307 4.06171 35.871C3.62247 35.9481 3.49789 36.01 3.47845 35.5283C3.45325 34.9076 3.54038 34.4065 3.37188 33.7671C3.22642 33.2127 0.948817 30.0087 1.15476 29.82C1.44783 29.5507 1.84315 29.9828 2.05198 30.2002C2.66188 30.8345 3.30563 32.2551 3.7168 33.0759L3.71608 33.0766Z" fill="white"/>
<path d="M71.2067 29.8193L71.2082 30.5163C71.1088 30.6214 69.112 30.4126 69.112 30.517V35.8696H68.4135V30.517C68.4135 30.4119 66.4175 30.6207 66.3174 30.5163L66.3188 29.8193H71.206H71.2067Z" fill="white"/>
</svg>
