<svg width="34" height="36" viewBox="0 0 34 36" fill="none" xmlns="http://www.w3.org/2000/svg">
<path d="M24.4765 24.7998C24.5032 24.9633 24.442 25.0403 24.2749 25.0367L18.6797 24.9748L18.8827 24.856L24.4765 24.7998Z" fill="white"/>
<path d="M13.937 24.9741C13.9226 24.9943 13.6785 25.0317 13.618 25.036C12.5573 25.1109 11.4512 25.0029 10.397 24.9719C9.68121 24.9511 8.96326 25.0202 8.25684 24.8862C10.1133 24.7926 11.9762 24.7775 13.8398 24.8085C13.9075 24.8243 13.973 24.9244 13.9377 24.9734L13.937 24.9741Z" fill="white"/>
<path d="M16.9746 24.1625C17.0012 24.1848 17.2115 24.7766 17.2057 24.8141C17.1813 24.9739 16.9588 25.3548 16.7471 25.3253C16.8875 24.9523 16.9753 24.5167 16.7471 24.1553C16.8104 24.1646 16.9379 24.1315 16.9746 24.1625Z" fill="white"/>
<path d="M16.0446 24.1548C15.9841 24.3463 16.1468 24.5119 16.1619 24.6581C16.18 24.8352 16.0871 25.5185 15.8105 25.3256C16.0043 24.9324 15.8437 24.5666 15.8696 24.1548H16.0446Z" fill="white"/>
<path d="M17.9774 24.154C17.4417 24.3305 18.3965 25.0462 17.7434 25.2672C17.9522 24.9346 17.531 24.6156 17.5756 24.3744C17.6073 24.2059 17.9054 23.915 17.9774 24.154Z" fill="white"/>
<path d="M15.5763 24.2139V25.0628C15.5763 25.1297 15.3451 25.2032 15.3408 25.1204C15.4906 24.8525 15.2378 24.27 15.5763 24.2139Z" fill="white"/>
<path d="M14.9319 24.741C14.9499 24.4401 14.9744 24.1427 14.5812 24.3313C14.4732 24.0066 15.0313 24.1196 15.1083 24.2572C15.1407 24.3155 15.176 24.5229 15.1681 24.5942C15.1544 24.7158 15.0694 24.7122 15.0493 24.741C14.9816 24.8059 14.9427 24.8059 14.9319 24.741Z" fill="white"/>
<path d="M16.5138 24.2148C16.526 24.2292 16.449 24.4503 16.4497 24.536C16.4511 24.703 16.5145 24.8484 16.5159 25.0033C16.5188 25.3863 16.2358 24.9392 16.2344 24.7599C16.2344 24.7376 16.346 24.4027 16.3698 24.3307C16.3863 24.2789 16.4295 24.1147 16.5138 24.2148Z" fill="white"/>
<path d="M15.0492 24.7411C14.9498 24.8851 14.7878 25.0104 14.8152 25.2091L15.2833 25.1796C15.2112 25.3819 14.61 25.3783 14.5812 25.2372C14.5747 25.2041 14.8965 24.7548 14.9326 24.7404C14.9585 24.7296 15.0139 24.7476 15.0499 24.7404L15.0492 24.7411Z" fill="white"/>
<path d="M26.6437 30.2454C27.0455 29.7825 27.5726 29.4167 27.9903 28.9861C28.7442 28.2099 29.5867 27.0924 30.1462 26.165C30.2823 25.9396 30.9542 24.5766 31.0356 24.5334C31.1112 24.4931 31.1421 24.5169 31.2105 24.5334C31.4719 24.5946 32.604 25.1289 32.8654 25.2837C32.9374 25.3262 33.0274 25.3607 33.0173 25.4637C33.0079 25.558 32.3066 26.857 32.1964 27.0449C30.6741 29.6356 28.5786 31.6877 26.0582 33.2912L25.9056 33.3358C25.6542 33.5921 25.0105 33.7973 25.2618 33.2386C25.9171 32.9707 26.5248 32.4855 26.9288 31.8979C27.1996 31.504 27.016 31.3838 26.6451 31.1563C26.2771 31.3017 25.9056 31.4551 25.5297 31.6157C25.2992 31.8561 24.7318 32.2824 24.6533 31.7417C25.1271 31.4616 25.5563 31.139 25.9409 30.7732C26.087 30.671 26.1655 30.5875 26.2923 30.4802C26.419 30.447 26.5364 30.3693 26.6437 30.2462V30.2454Z" fill="white"/>
<path d="M2.86921 25.9123C3.61956 27.2465 4.68388 28.4446 5.73883 29.5427C5.80075 29.822 5.45727 29.6751 5.33053 29.5002C5.2146 29.3238 4.65794 28.6217 5.04031 29.1596C5.08712 29.57 5.2038 29.637 5.58689 29.7299C5.69923 29.7875 5.76617 29.8976 5.72008 30.0208C5.34059 30.3311 5.3651 30.375 5.74459 30.658C6.07008 30.8301 5.57392 31.5285 5.44358 31.5724C5.22683 31.6451 5.11451 31.36 5.17428 31.1699C5.06194 31.2066 4.9532 31.175 4.84735 31.1368L5.24052 31.6329C5.29093 31.7366 5.32116 31.8122 5.21098 31.8842C5.0144 31.7935 4.78683 31.5919 4.62481 31.4457C3.84494 30.7444 3.17814 30.0035 2.51781 29.1906C2.38099 28.8975 2.19015 28.6145 1.94531 28.3409L2.10807 28.0219C2.00078 27.5705 2.09294 27.3329 2.38602 27.3084C2.26145 26.9246 2.3637 26.7835 2.72807 26.6625C2.07062 26.4076 2.31689 25.1505 2.86921 25.9115V25.9123Z" fill="white"/>
<path d="M25.9406 30.7725C25.8535 31.2326 25.4042 31.2967 25.106 31.4738C25.0319 31.5177 24.8403 31.738 24.7121 31.7971C25.0009 32.0793 25.2839 31.6055 25.5482 31.463C25.7599 31.3492 25.9507 31.3334 26.1588 31.2542C26.3489 31.1815 26.4713 30.9215 26.8199 31.0943C26.8472 31.108 27.2181 31.5206 27.2181 31.5515C27.2181 31.607 27.1382 31.7899 27.1036 31.8475C26.9128 32.1636 26.395 32.6806 26.1149 32.9081C25.9377 33.0514 25.5172 33.2393 25.2969 33.3502C25.1975 33.456 25.4697 33.5352 25.5583 33.5259C25.7224 33.51 25.8153 33.2076 26.0573 33.2904C24.921 34.0133 23.8725 34.49 22.6022 34.9299C22.2422 35.0595 21.9642 35.0408 21.7705 34.8738C21.9894 34.3532 22.4575 34.0716 23.0112 34.3381C23.1884 33.924 23.1243 33.6713 22.8183 33.5792C22.6332 33.217 22.5173 33.1608 22.4719 33.4114C22.047 33.8312 21.8173 32.9779 22.1947 32.79C22.5641 32.7137 22.9515 32.5956 23.2467 32.3537C24.0763 31.9792 25.1881 31.2981 25.9406 30.7725Z" fill="white"/>
<path d="M5.21242 31.8851C5.1721 31.8289 5.16632 31.7202 5.12023 31.6568C4.95245 31.4293 4.71841 31.2442 4.62695 30.9483C4.79042 30.9253 4.90924 31.0714 5.06766 31.07C5.22609 31.0685 5.25274 30.9433 5.38812 30.9476C5.41117 30.9706 5.09001 31.4739 5.44646 31.4739C5.48534 31.0973 5.92171 31.1938 5.6704 30.7532C5.55446 30.5508 5.16992 30.5501 5.39604 30.1627C5.46589 30.0432 5.65959 30.0238 5.62286 29.923C5.55445 29.7365 5.17927 29.8308 5.03525 29.5737C4.96324 29.4456 4.98774 29.3253 4.93518 29.2051C4.87541 29.069 4.68099 28.9977 4.7458 28.7803C5.15626 28.781 5.32474 29.5334 5.66175 29.586C5.70063 29.5917 5.73519 29.5406 5.74023 29.5421C5.86913 29.5658 6.93488 30.5213 7.18476 30.7035L9.54672 32.1774C9.35877 32.3747 8.92957 32.2292 8.76754 32.0039C8.6372 32.145 8.48672 32.2775 8.30454 32.3898L7.92719 33.1019C7.80981 33.171 7.69389 33.2171 7.58011 33.2423C7.62188 33.382 7.59594 33.4677 7.43824 33.4662C6.90752 33.1458 5.53717 32.3358 5.21313 31.8851H5.21242Z" fill="white"/>
<path d="M21.433 33.0557C21.3228 33.1133 21.1788 33.2753 21.1622 33.2803C20.5487 33.4762 19.8531 33.541 19.2525 33.775C19.0905 33.8383 18.3056 33.8743 18.6584 34.1026C18.7679 34.1739 19.4203 34.3539 19.4426 34.4338C19.4685 34.5533 19.3331 34.6297 19.3231 34.7283C19.3072 34.8845 19.5484 34.994 19.3879 35.2409C19.2474 35.457 18.7895 35.359 18.5965 35.4008C18.3473 35.4541 18.0312 35.6499 17.7446 35.6326C17.8577 35.8544 18.3257 35.8415 18.5382 35.8105C18.6721 35.7911 18.7463 35.7003 18.8327 35.6895C18.9536 35.6737 19.0466 35.7529 19.1171 35.7507C19.1517 35.75 19.1445 35.6442 19.1898 35.6326C19.4138 35.5765 20.0108 35.6139 20.3219 35.5736C19.727 35.7731 19.0761 35.8393 18.4481 35.8667C17.4832 35.9797 16.5269 35.9797 15.5785 35.8667C14.9801 35.7608 15.1702 35.5952 15.5433 35.3079C15.5785 35.102 15.6297 35.0177 15.8111 34.9133C15.6685 34.5663 15.621 34.2387 15.67 33.9298C16.1366 33.9622 16.5946 33.9442 17.0432 33.8758C17.7446 33.785 18.4474 33.6878 19.1509 33.5827C19.915 33.4157 20.6769 33.2458 21.4344 33.0557H21.433Z" fill="white"/>
<path d="M2.86962 25.9121C2.73208 25.7883 2.55421 25.6256 2.47212 25.8949C2.29929 26.4637 2.91354 26.5047 2.86962 26.7013C2.84369 26.818 2.50957 26.8187 2.46565 26.9454C2.3994 27.1362 2.56214 27.2615 2.57655 27.4343C1.93494 27.3688 2.28273 27.669 2.22297 28.0456C2.19848 28.199 2.06744 28.2904 2.05736 28.3523C2.02783 28.5352 2.76665 28.8528 2.51821 29.1904C2.41236 29.0608 2.25248 28.9212 2.14231 28.7757C1.28826 27.646 0.593365 26.2578 0 24.9754C0.697779 24.8307 1.33795 24.4922 1.95795 24.1553C2.05445 24.1762 2.74145 25.6839 2.86891 25.9114L2.86962 25.9121Z" fill="white"/>
<path d="M11.9457 33.115C13.6171 33.4534 15.2078 33.8977 16.9548 33.8199L19.1482 33.583C18.4338 33.7385 17.7908 33.8516 17.0404 33.8761C15.8508 33.9898 14.6641 33.9236 13.4788 33.678C13.3492 33.6687 12.7515 33.6946 12.8603 33.8278C13.5127 34.1778 13.4543 34.406 12.8984 34.797C13.1584 34.9683 13.2635 35.1354 13.1152 35.4378C13.8238 35.5681 14.546 35.6668 15.282 35.7345C15.3648 35.8 15.4634 35.8439 15.5765 35.8669C16.4917 35.895 17.5337 35.9065 18.4461 35.8669L17.4826 35.9865C15.6355 36.0599 13.0158 35.8569 11.3027 35.1642C11.0967 35.0648 10.88 34.9892 10.6524 34.9367C10.2758 34.7855 10.4623 34.5406 10.7813 34.5025C10.7727 34.4535 10.7367 34.4247 10.6978 34.3945C10.103 33.9423 9.53627 33.5038 10.5473 33.079C10.7324 32.6614 10.9217 32.7024 11.2587 32.9515L11.9465 33.1143L11.9457 33.115Z" fill="white"/>
<path d="M9.5449 32.177L11.9457 33.1138C11.7304 33.0699 11.3934 33.0922 11.2256 33.0439C11.1118 33.0115 11.0549 32.8207 10.9318 32.8301C10.7323 32.8459 10.741 33.0684 10.6229 33.1663C10.4349 33.3226 10.2139 33.1865 10.1426 33.5674C10.0511 34.0534 10.818 34.1989 10.8836 34.4401C10.9491 34.6813 10.6395 34.5884 10.5422 34.7231C10.6279 34.9909 10.9325 34.9311 11.1234 35.0204C11.1975 35.055 11.2623 35.1464 11.3019 35.1623C10.1167 34.8923 9.02065 34.3429 7.96426 33.7568L7.77777 33.5804C7.82025 33.5494 7.74535 33.53 7.55453 33.5228C7.52212 33.5033 7.47964 33.4896 7.43716 33.4644C7.59486 33.1901 7.26937 33.1699 7.20312 32.9381C7.4602 32.9287 7.53651 33.2564 7.81447 33.0504C7.89873 32.9878 8.11549 32.4254 8.22927 32.2944C8.32216 32.1864 8.42296 32.1914 8.51802 32.1144C8.57202 32.0705 8.59435 31.9495 8.66636 31.9092C8.85647 31.8033 8.91481 32.0532 9.06171 32.1036C9.18917 32.1475 9.40302 32.1317 9.5456 32.1756L9.5449 32.177Z" fill="white"/>
<path d="M7.55371 33.5241C7.77406 33.5327 7.73587 33.1446 7.96271 33.1734C7.93966 33.2548 8.08007 33.3664 8.08007 33.3786C8.07935 33.4096 7.75028 33.4931 7.96415 33.7588C7.82517 33.6818 7.69267 33.6069 7.55441 33.5248L7.55371 33.5241Z" fill="white"/>
<path d="M26.6434 30.2451C26.5361 30.3682 26.4965 30.6368 26.292 30.4791C26.3978 30.3898 26.4965 30.2638 26.6434 30.2451Z" fill="white"/>
<path d="M17.0409 33.8754C16.8889 34.1231 15.8253 33.9193 15.7526 33.992C15.6251 34.3139 15.9953 34.7027 15.9197 34.9468C15.8815 35.0699 15.7418 35.0692 15.7094 35.1203C15.6749 35.1757 15.6971 35.2801 15.6388 35.3702C15.5567 35.4969 15.1708 35.6733 15.322 35.7482C15.3889 35.7813 15.5265 35.7518 15.5769 35.8655C14.8193 35.8418 14.2008 35.7014 13.4994 35.6301C12.677 35.5473 13.1487 35.3781 13.0537 35.085C13.0263 35.0015 12.7685 34.9187 12.78 34.7812C12.7908 34.6602 13.251 34.4104 13.2373 34.316C13.1991 34.0539 12.7246 34.0086 12.6504 33.7285C13.1537 33.4635 13.5592 33.5586 14.0777 33.6471C15.0419 33.812 16.0327 33.9078 17.0409 33.8754Z" fill="white"/>
<path d="M23.2482 32.3521C23.1978 32.45 23.1279 32.522 23.0292 32.5731C22.9234 32.6278 22.613 32.7661 22.5014 32.8071C22.3163 32.8748 22.2033 32.7063 22.1514 32.9799C22.1291 33.0973 22.0924 33.3493 22.2235 33.4054C22.4265 33.4926 22.3444 33.2535 22.4229 33.1974C22.721 32.985 22.8067 33.4011 22.8975 33.4926C22.9702 33.5653 23.1408 33.561 23.1797 33.6791C23.2258 33.8187 23.21 34.3494 23.0725 34.4344C22.9349 34.5193 22.6584 34.2788 22.4114 34.3537C22.2947 34.389 21.9628 34.7433 21.8432 34.8412C22.0787 34.9607 22.3495 34.9269 22.6044 34.929C21.8591 35.1868 21.1101 35.4705 20.3209 35.5727C19.5425 35.7182 18.7547 35.8053 17.9561 35.8356C17.2065 35.6815 18.1973 35.3747 18.5005 35.3042C19.2415 35.3632 19.4777 35.1674 19.2084 34.7166L19.3121 34.4812L18.6733 34.2407C18.4717 34.1622 18.3738 33.975 18.566 33.8267L21.0562 33.229L21.432 33.0548C22.0045 32.7538 22.6613 32.617 23.2474 32.3521H23.2482Z" fill="white"/>
<path d="M22.7206 33.582C22.7638 33.7203 22.614 33.7426 22.4873 33.757V33.582H22.7206Z" fill="white"/>
<path d="M11.7696 18.3002C12.2859 18.5255 12.5422 18.8676 12.5912 19.44C12.6618 20.263 12.5343 21.1839 12.589 22.0184C12.6171 22.2042 12.8411 22.2085 12.9873 22.2668C13.0758 22.3028 13.145 22.2316 13.1162 22.3986H11.4182C11.3692 22.1415 11.9129 22.2546 11.9453 22.2229C11.8977 21.1551 12.1519 19.993 11.8862 18.9439L11.7487 18.7034C11.3656 18.3808 11.3728 18.2462 11.7688 18.3002H11.7696Z" fill="white"/>
<path d="M10.5402 18.2998C10.6691 18.338 10.767 18.3963 10.8332 18.4755C10.4552 18.6123 10.1772 18.9061 10.1304 19.3244C10.0728 19.8371 10.0591 21.4665 10.1347 21.9554C10.147 22.0332 10.1794 22.1513 10.2485 22.193C10.3724 22.2672 10.6971 22.1808 10.6575 22.399H9.45712L9.01855 22.2823C9.20074 22.229 9.44125 22.247 9.48518 22.0166C9.56511 21.5968 9.46215 20.8502 9.48448 20.3764C9.52624 19.4749 9.57232 18.6303 10.5409 18.3005L10.5402 18.2998Z" fill="white"/>
<path d="M15.1075 18.2998C15.1168 18.4179 15.1168 18.5353 15.1075 18.6512C15.0484 18.7117 14.9512 18.8794 14.9203 18.9615C14.7503 19.4036 14.7661 21.1871 14.8158 21.7243C14.8237 21.8064 14.872 22.1261 14.9008 22.1664C14.9908 22.2931 15.3775 22.1772 15.3415 22.3982C15.1723 22.3874 13.7825 22.386 13.7602 22.3104C13.709 22.1318 14.1281 22.2672 14.1706 22.2233C14.1922 22.2009 14.2254 21.7041 14.2311 21.6105C14.2772 20.8898 14.1656 20.0927 14.2268 19.3813C14.275 18.8175 14.5444 18.4193 15.1075 18.2998Z" fill="white"/>
<path d="M16.4549 18.3584C16.7393 18.4801 17.0533 18.9351 17.1318 19.2332C17.1627 19.352 17.1685 19.7624 17.2268 19.8114C17.2599 19.8395 17.651 19.8841 17.7432 19.9396C17.6978 20.0886 17.499 20.0634 17.3615 20.0591C16.9042 20.0454 16.4678 19.9417 15.9868 20.0555C15.9551 19.887 16.0315 19.9604 16.1157 19.9244C16.5622 19.7315 16.6975 19.6321 16.5442 19.0582C16.4901 18.8552 16.1783 18.5909 16.1618 18.5333C15.8154 18.3094 16.2288 18.1733 16.4549 18.3577V18.3584Z" fill="white"/>
<path d="M11.7695 18.3003L11.5354 18.3874C11.7169 18.5703 11.8242 18.7007 11.8861 18.9447C11.565 18.4544 11.3482 18.5034 10.8319 18.476C10.6677 18.4674 10.402 18.5077 10.5388 18.3003C10.9788 18.1505 11.3216 18.1052 11.7687 18.3003H11.7695Z" fill="white"/>
<path d="M16.162 18.2419C16.2772 18.2505 16.386 18.2491 16.4551 18.3592C16.2391 18.2671 16.0828 18.2635 16.162 18.5349C15.83 18.4276 15.3742 18.3801 15.1078 18.6523C14.9674 18.5356 14.9256 18.3744 15.1078 18.3009C15.1265 18.2973 15.1474 18.3045 15.1661 18.3009C15.4794 18.172 15.8322 18.1872 16.1613 18.2426L16.162 18.2419Z" fill="white"/>
<path d="M6.49943 18.5348C7.12376 19.1324 6.83646 19.7955 6.97544 20.5761L7.7877 20.7013C7.73082 20.7827 7.63289 20.841 7.49463 20.877C7.32181 20.8194 7.14896 20.8072 6.9675 20.8187V22.2242C6.9675 22.253 7.48455 22.2242 7.49463 22.3999H5.94279C5.91759 22.3999 5.81462 22.3041 5.91255 22.2523C6.04001 22.1853 6.26323 22.2854 6.31508 22.1277C6.33812 22.0572 6.34535 20.9353 6.32447 20.8561C6.30863 20.7964 6.20924 20.8237 6.20636 20.8187C6.03354 20.8302 6.03858 20.6718 6.20636 20.643C6.29349 20.0079 6.23878 19.4082 6.04075 18.8429L6.08899 18.7105C5.74334 18.2194 6.1754 18.2741 6.49873 18.5348H6.49943Z" fill="white"/>
<path d="M5.91436 18.2422C5.86899 18.3487 5.75883 18.3833 5.58384 18.3459L5.62129 18.4762L5.51327 18.5835C4.51017 18.4531 4.37479 20.0775 5.13954 20.4455L5.15322 20.5837C5.11218 20.6406 5.09273 20.6989 5.09489 20.7594C3.49122 20.4527 3.73533 18.3415 5.18202 18.1824C5.38149 18.1608 5.73145 18.15 5.91436 18.2415V18.2422Z" fill="white"/>
<path d="M7.7882 20.7011C8.00855 20.722 8.7445 20.8689 8.31171 21.1367C7.81268 21.4449 7.78387 20.9733 7.49583 20.8768L7.4375 20.7011C7.55272 20.7083 7.67369 20.6896 7.7889 20.7011H7.7882Z" fill="white"/>
<path d="M5.91446 18.2421C6.24426 18.2795 6.2817 18.3256 6.49989 18.5351C6.34939 18.5538 6.26876 18.4645 6.17802 18.3601C6.02104 18.4631 6.05703 18.5466 6.09016 18.7108C5.92813 18.7547 5.67972 18.6366 5.62139 18.4768L5.15332 18.3601C5.2959 18.4185 5.33837 18.2514 5.37005 18.2442C5.47519 18.2204 5.79276 18.2284 5.91446 18.2421Z" fill="white"/>
<path d="M5.15279 20.5842C5.23056 20.5064 5.34939 20.4899 5.5107 20.5352L6.14079 20.5201L6.20703 20.6425C6.20199 20.6504 6.20199 20.8103 6.20703 20.8182C5.82394 20.8254 5.47179 20.8319 5.09446 20.7599C4.91299 20.6749 4.96916 20.618 5.15279 20.5842Z" fill="white"/>
<path d="M22.1928 18.5933C22.1993 18.7525 21.9408 18.787 21.7831 18.7107C21.7607 18.823 21.6578 18.8662 21.4727 18.841L21.4317 18.9454L21.3395 19.039C19.1403 18.3154 19.0819 22.5614 21.1746 22.1028L21.2559 22.2237C21.2761 22.3548 21.1674 22.4124 20.9297 22.3958C21.0557 22.3613 21.1256 22.3821 21.1393 22.4577C20.1751 22.7249 19.056 22.007 18.9192 21.0184C18.8069 20.2047 18.9732 19.4747 19.617 18.9447C19.6148 18.8194 19.6508 18.7438 19.725 18.7172L20.3198 18.6517C20.7655 18.6012 21.2041 18.6502 21.6376 18.6517C21.8025 18.6517 22.0056 18.5458 22.1942 18.5933H22.1928Z" fill="white"/>
<path d="M21.7834 18.7101C22.0455 18.7087 22.0498 18.7101 22.1348 18.9442C23.4403 19.9911 23.0205 22.3772 21.1396 22.4572C21.0186 22.4622 20.3605 22.4421 20.3194 22.3981C20.3137 22.3917 20.3144 22.2311 20.3201 22.2232C20.3374 22.198 20.7983 22.3376 20.9286 22.3348C21.0654 22.3319 21.1483 22.2656 21.257 22.2232L21.2923 22.0813C22.3314 21.6824 22.3242 19.6462 21.4586 19.0817L21.432 18.9442C21.1144 18.6619 21.5911 18.7339 21.7834 18.7101Z" fill="white"/>
<path d="M20.3192 18.6516C19.9786 18.6897 19.877 18.73 19.6163 18.9446C19.6228 18.7423 19.6538 18.7819 19.473 18.7689C19.113 18.7423 18.7349 18.7257 18.3842 18.6256C17.9255 18.4946 18.7414 18.2368 18.8192 18.2527C18.92 18.2728 18.9546 18.442 19.0352 18.5018C19.239 18.6523 20.0304 18.6184 20.3192 18.6523V18.6516Z" fill="white"/>
<path d="M23.0711 18.7101C23.2324 18.7345 23.4686 18.8814 23.6565 18.8865C23.7552 19.0225 23.2129 19.5907 22.8371 18.9441C22.3848 18.6906 22.7614 18.6114 23.0711 18.7101Z" fill="white"/>
<path d="M23.0712 18.7097C22.9647 18.6931 22.8321 18.7212 22.7198 18.7097C22.6989 18.8112 22.7868 18.8587 22.8365 18.9437C22.6262 18.8825 22.3835 18.7738 22.1625 18.7673C21.9896 18.7622 22.1502 18.8645 22.1337 18.9437C22.0228 18.8551 21.9025 18.7839 21.7822 18.7097C21.9255 18.6917 22.1416 18.5974 22.192 18.5923C22.3201 18.5808 22.8041 18.6391 22.9834 18.6528C23.0237 18.6557 23.0719 18.6629 23.0705 18.7097H23.0712Z" fill="white"/>
<path d="M16.1612 18.2416C15.8602 18.2185 15.4634 18.2466 15.166 18.2999C15.3864 18.1069 15.8933 18.1516 16.1612 18.2416Z" fill="white"/>
<path d="M27.7558 18.358L27.6629 18.4609C27.485 18.4098 27.3403 18.4141 27.2287 18.4753L27.1156 18.5776C26.3106 18.4696 26.1514 19.271 26.2241 19.9046L26.1161 19.9975C26.07 20.1084 26.0996 20.2372 26.2054 20.3856L26.1745 20.5245L26.0823 20.7571L26.1125 21.3166L27.8725 21.4022L27.7652 21.475L26.2868 21.4526L26.2335 21.5196C26.2277 21.5275 26.083 21.5275 26.0643 21.6103C26.0578 21.6391 26.1485 22.1576 26.1687 22.1871C26.2479 22.2994 26.68 22.1756 26.6432 22.3981H25.0036C24.9438 22.177 25.3881 22.3354 25.4637 22.2137C25.5019 22.1518 25.4637 21.7659 25.4716 21.6363C25.3074 21.5851 25.342 21.3403 25.4976 21.3086C25.4904 20.6577 25.5012 20.0054 25.53 19.353C25.6999 18.4235 26.2731 18.1067 27.2006 18.1801C27.4555 18.2003 27.5477 18.2406 27.7551 18.358H27.7558Z" fill="white"/>
<path d="M27.7554 18.3583C28.7829 18.9401 28.6915 20.2909 27.5797 20.7006C27.3139 20.7812 27.1102 20.738 27.404 20.5249C27.3399 20.3686 27.4515 20.3017 27.5797 20.4075C27.7042 20.2923 27.769 20.1584 27.8137 19.9978L27.7086 19.9208C27.759 19.4736 27.7446 18.8004 27.2643 18.6031L27.2283 18.475L27.1699 18.3583C27.3651 18.2942 27.558 18.3216 27.7554 18.3583Z" fill="white"/>
<path d="M27.8735 21.4028C27.9945 21.4107 28.7038 21.5101 28.7499 21.5813C28.8507 21.7376 28.3689 21.9896 28.2523 21.9867C28.122 21.9838 27.9686 21.7239 27.8353 21.6454C27.4134 21.3977 26.7141 21.5713 26.2338 21.5194C26.2374 21.5144 26.1647 21.4093 26.1748 21.4028C26.7343 21.428 27.3161 21.3668 27.8735 21.4028Z" fill="white"/>
<path d="M25.4723 21.6375C25.2304 21.5726 24.9675 21.4726 24.727 21.4171C24.5441 21.3746 24.2071 21.4934 24.2395 21.1989C24.2496 21.1089 24.2978 21.0722 24.3734 21.0369C24.8033 20.8361 25.0381 21.3732 25.4716 21.3444C25.4968 20.682 25.4125 19.9994 25.5306 19.3535C25.5076 19.967 25.5594 20.5884 25.535 21.2018C25.5292 21.3473 25.4838 21.4589 25.4723 21.6367V21.6375Z" fill="white"/>
<path d="M26.1157 19.9977L26.2533 20.0395C26.4189 20.4578 26.8819 20.5874 27.2852 20.4456L27.4033 20.5255L27.3449 20.7004H27.579C27.2945 20.8056 27.188 20.8589 26.8517 20.8128C26.7293 20.7962 26.2461 20.6004 26.1733 20.5255C25.9479 20.2936 26.0041 19.6024 25.9984 19.2964L26.0596 19.9077C26.056 19.9487 26.1092 19.9797 26.115 19.9991L26.1157 19.9977Z" fill="white"/>
<path d="M27.5801 20.4082L27.8141 19.9985C27.7623 20.2649 27.8249 20.2275 27.5801 20.4082Z" fill="white"/>
<path d="M19.1482 12.9138C19.4182 13.2097 20.3846 13.8981 20.5228 14.2026C20.5826 14.3344 20.5754 14.7441 20.4991 14.8651C20.4227 14.986 18.8047 15.4289 18.5879 15.4332C18.3539 15.4375 18.1602 15.2704 17.9766 15.1387C18.0147 15.0314 18.1076 15.0177 18.1955 14.9774C18.6938 14.7506 19.3167 14.6023 19.8496 14.4942C19.8841 14.446 19.6429 14.1558 19.5954 14.1054C19.3376 13.8318 18.6736 13.3681 18.503 13.0895C18.0543 12.589 18.6182 12.4191 18.9775 12.8266L19.1475 12.9138H19.1482Z" fill="white"/>
<path d="M13.527 12.9142C13.3196 13.3311 13.149 14.2405 13.0266 14.728C12.9927 14.8626 13.1634 14.7596 13.234 14.7877L13.2008 14.9238C12.8689 15.0995 13.3902 15.1341 13.5659 15.1427L13.6437 15.2557C13.1569 15.4516 12.4944 15.6042 12.3662 14.9353L12.9106 12.9718C12.9761 12.8962 13.4183 12.817 13.5263 12.9142H13.527Z" fill="white"/>
<path d="M16.513 8.05371C16.8687 8.40005 17.3072 8.76077 17.627 9.13518C17.874 9.42535 17.9827 9.5204 17.8912 9.93298C17.8408 10.1598 17.7487 10.0921 17.7422 10.1029C17.6126 10.0626 17.5053 9.94163 17.4146 9.84586C17.1726 9.59169 16.5195 8.95951 16.3949 8.69741C16.3661 8.63549 16.2984 8.40148 16.3063 8.33884C16.3301 8.14875 16.4798 8.12787 16.5122 8.05371H16.513Z" fill="white"/>
<path d="M17.684 11.5677C17.7769 11.6476 17.8849 11.721 17.9771 11.8017C18.3775 12.1545 18.7699 12.5368 19.1479 12.9141C18.798 12.9516 18.7562 12.5253 18.3868 12.7982C18.4905 12.8688 18.4826 13.0553 18.5042 13.0898C18.2687 12.9221 18.0541 12.7176 17.8604 12.5044C17.8244 12.4908 17.7905 12.4713 17.7639 12.4432C17.6861 12.3619 17.1641 11.8146 17.1583 11.7693C17.1338 11.5936 17.5299 11.3517 17.6847 11.5677H17.684Z" fill="white"/>
<path d="M14.5814 14.3774C14.7427 14.453 14.7016 14.5596 14.4589 14.6979C14.6649 14.7259 14.7837 14.7951 14.8154 14.9045C14.4489 15.0075 14.0254 15.2235 13.6445 15.2559C13.3536 15.2804 13.1865 15.1738 12.9424 15.1968C12.982 15.1421 12.9907 14.8599 13.0058 14.8505C13.0267 14.839 13.1447 14.8267 13.2347 14.7871C13.6704 14.5934 14.1313 14.5178 14.5814 14.3774Z" fill="white"/>
<path d="M16.1034 13.9092C15.9371 14.2181 15.6159 13.9401 15.5274 14.3045C15.4805 14.4953 15.7758 14.563 15.9277 14.5536C15.5662 14.6645 15.1939 14.7984 14.8152 14.905C14.6323 14.8711 14.2239 14.8402 14.3745 14.6112C14.4169 14.5471 14.6034 14.5349 14.5804 14.3779C15.0881 14.2195 15.5921 14.0589 16.1027 13.9092H16.1034Z" fill="white"/>
<path d="M16.1039 12.4451C16.011 12.5394 15.8187 12.3112 15.8115 12.2118C16.0283 12.0397 16.2033 12.3443 16.1039 12.4451Z" fill="white"/>
<path d="M18.2703 13.9092C18.0846 13.7789 17.3573 12.9976 17.9053 12.9883C18.0918 13.1136 18.2725 13.2453 18.446 13.3822C18.7406 13.4815 19.079 14.0259 19.3865 14.1684C19.4355 14.2087 19.4664 14.3383 19.4405 14.3758C19.3959 14.4406 18.1292 14.7207 17.9189 14.7869C17.6741 14.846 17.5063 14.6156 17.3335 14.5529C17.3097 14.3564 17.3248 14.4096 17.4609 14.3607C17.7454 14.2577 18.0349 14.154 18.3294 14.0842C18.3402 14.0158 18.2934 13.9661 18.2703 13.9092Z" fill="white"/>
<path d="M16.5133 7.99573C16.5082 8.01373 16.5205 8.03822 16.5133 8.05406C16.5507 8.13038 16.5205 8.22901 16.4233 8.34998C16.4895 8.51055 16.4808 8.62648 16.3959 8.69776C16.2562 8.77048 16.2324 8.97065 16.1914 9.10818C16.0344 9.63524 15.8515 10.2689 15.7521 10.806C15.6945 10.8975 15.6556 11.0148 15.6347 11.1574C15.6333 11.1768 15.6369 11.197 15.6347 11.2157C15.2574 11.0875 15.2214 10.6771 15.3417 10.32C15.4749 9.88293 15.5822 9.44516 15.6347 8.9901C15.6988 8.38239 15.8047 7.97269 16.5133 7.99501V7.99573Z" fill="white"/>
<path d="M16.1038 13.9093C16.5107 13.7905 17.2689 13.4334 17.6441 13.6285C17.7759 13.6969 17.768 13.8481 17.9178 13.8524C17.9401 13.9539 17.8925 13.9705 17.8184 14.0144C17.5346 14.1807 16.9096 14.2722 16.5719 14.378C16.3515 14.4472 16.129 14.4918 15.9281 14.5537C15.1677 14.7056 15.2843 14.0555 15.9439 14.0051L16.1038 13.91V13.9093Z" fill="white"/>
<path d="M16.6888 9.40123C16.9977 9.76196 17.352 10.0608 17.684 10.3963C17.6552 10.5669 17.7545 11.0494 17.5083 11.04C17.3635 10.8701 17.1504 10.7117 16.9812 10.513C16.6636 10.3207 16.1934 9.89084 16.4382 9.44947C16.5095 9.32058 16.5851 9.28026 16.6888 9.40051V9.40123Z" fill="white"/>
<path d="M15.6354 8.99143C15.6145 9.19087 15.6613 9.4033 15.6318 9.60275C15.5713 10.0067 15.3034 10.4128 15.4229 10.8974C15.4294 10.9226 15.644 11.0723 15.6354 11.2163C15.5915 11.5922 15.3236 12.6103 15.1846 12.9624C15.1378 13.0819 15.1378 13.0711 15.05 13.1482C14.4415 13.3844 14.6719 12.5498 14.8368 12.2129L14.8743 11.801C15.1256 10.8642 15.3236 9.9102 15.6354 8.99072V8.99143Z" fill="white"/>
<path d="M16.689 9.40111C16.3599 9.45079 16.5601 10.0463 16.6883 10.1924C16.7876 10.3062 16.8755 10.3876 16.9821 10.5136L16.6314 10.2795C16.6184 10.8095 16.4096 11.2494 16.2793 11.7434C16.2044 12.0256 15.9149 12.2438 15.791 11.896L16.1036 10.4552C16.1885 9.99945 16.2958 9.56023 16.3966 9.10877C16.5018 9.03245 16.6364 9.33991 16.689 9.40111Z" fill="white"/>
<path d="M14.0541 14.2606C13.9439 14.2908 13.334 14.5356 13.293 14.4946L13.7906 12.7975C13.8683 12.647 14.2457 12.6189 14.4048 12.6218C14.3645 12.9299 14.1636 13.2079 14.1686 13.529C14.1715 13.6961 14.3198 13.5924 14.4048 13.6169C14.3371 13.8509 14.2197 14.0654 14.0534 14.2606H14.0541Z" fill="white"/>
<path d="M15.4594 13.8512C15.0317 14.0103 14.7674 13.5452 15.2254 13.3824C15.4983 13.296 16.5288 12.918 16.7196 12.9194C16.9104 12.9209 17.0811 13.1758 17.215 13.2946C17.2165 13.4429 15.6704 13.7878 15.4594 13.8512Z" fill="white"/>
<path d="M16.2796 11.7427C16.217 11.9818 16.1795 12.2036 16.1039 12.4455C16.0089 12.3288 16.0089 12.3288 16.1039 12.4455C16.0665 12.5665 16.1133 12.7644 15.9865 12.8847C15.9181 12.9495 15.5242 13.0618 15.4004 13.0597L16.1039 10.4546C16.0154 10.9291 15.9685 11.413 15.8706 11.886C15.908 12.0675 16.24 11.8522 16.2796 11.7427Z" fill="white"/>
<path d="M17.4508 12.4453C17.7928 12.7398 18.1529 13.0364 18.446 13.382C18.3927 13.364 18.2544 13.4123 18.2177 13.3734C18.1809 13.3345 18.2724 13.2035 17.975 13.1214C17.6006 13.0177 17.9375 13.3691 17.9743 13.4288C18.0067 13.4821 17.9966 13.5793 18.0326 13.6348C18.0988 13.737 18.1752 13.6729 18.271 13.9098C17.9779 13.755 17.7568 13.485 17.5098 13.2661L17.3917 13.0883C16.8351 12.8399 16.6623 11.978 17.4515 12.446L17.4508 12.4453Z" fill="white"/>
<path d="M17.6845 11.5676C17.5174 11.4819 17.2006 11.7404 17.2791 11.8541C17.2884 11.8678 17.4022 11.8793 17.4526 11.9441C17.5815 12.1119 17.7046 12.3322 17.8602 12.5043C17.7442 12.5058 17.6974 12.4251 17.6247 12.3589C17.4799 12.2271 16.6381 11.4509 16.6288 11.3609C16.6165 11.2407 16.7383 10.8583 16.8945 10.8814C16.9665 10.8922 17.5678 11.4668 17.6838 11.5676H17.6845Z" fill="white"/>
<path d="M15.2255 13.3823C14.9598 13.5191 15.1679 13.9295 15.4595 13.8511C14.9936 13.99 14.5277 14.1304 14.0539 14.2608L13.9365 14.1729C14.2058 14.0088 14.1353 13.7243 14.4053 13.6171C14.63 13.5271 14.985 13.4586 15.2248 13.383L15.2255 13.3823Z" fill="white"/>
<path d="M17.4498 12.4454L17.0401 12.3871C17.0257 12.4022 17.0566 12.7838 17.0703 12.799C17.1582 12.8918 17.5593 13.0114 17.5081 13.2648C17.3339 13.1107 16.4373 12.3727 16.41 12.2337C16.3891 12.1272 16.4885 11.7189 16.6512 11.747C16.7038 11.7563 17.3368 12.3475 17.4498 12.4447V12.4454Z" fill="white"/>
<path d="M14.8738 11.8018C14.9127 11.9263 14.943 12.0408 14.93 12.1755C14.8875 12.6075 14.6189 12.4721 14.8126 13.0633C14.8652 13.2238 14.9185 13.1331 15.0495 13.149C14.8954 13.2843 14.6643 13.3318 14.4641 13.383C14.4605 13.28 14.4555 13.177 14.4778 13.0748C14.5577 12.6982 14.7709 12.1877 14.8738 11.8025V11.8018Z" fill="white"/>
<path d="M15.7524 10.8059C15.7294 10.9297 15.7438 11.0636 15.635 11.1573C15.6466 11.0226 15.6264 10.8822 15.635 10.7476L15.7517 10.8059H15.7524Z" fill="white"/>
<path d="M26.2341 2.84248C26.5502 2.89433 27.6498 3.76341 27.9602 4.01542C30.0629 5.71973 31.8811 8.02671 32.9685 10.513C33.1197 10.7693 33.1002 10.9248 32.9101 10.9817C32.3521 11.1956 31.817 11.4749 31.2719 11.7198L31.1524 11.7183C30.7448 10.9392 30.3668 10.1465 29.8893 9.40556C28.8279 7.75813 27.2127 6.05671 25.5903 4.95074L25.4578 4.77936C25.0394 4.62311 24.4525 4.08742 25.3447 4.19615C25.6069 3.9283 25.9648 3.76196 26.417 3.69859C26.26 3.76988 25.7746 3.03329 25.7826 2.94761C25.815 2.62647 26.0224 2.73232 26.2334 2.84321L26.2341 2.84248Z" fill="white"/>
<path d="M14.9317 0.0905645C14.9835 0.159687 14.6184 0.386497 14.5889 0.395857C13.5059 0.308013 12.5733 0.578736 11.612 1.05324L11.4298 1.08996C11.882 1.14036 11.8691 1.47015 11.6811 1.8064C12.0973 2.17722 11.9605 2.35362 11.4622 2.37666C11.3751 2.61787 11.2202 2.7806 11.0172 2.92964C11.149 2.92532 11.2239 2.97429 11.2419 3.07581C9.7066 3.64176 7.92721 4.6066 6.67424 5.65208C6.37971 5.83353 6.39127 5.41159 6.47048 5.20134C6.73547 4.93133 7.01917 4.68436 7.32233 4.46115C7.11206 4.32578 7.01052 4.12993 7.10486 3.8808C6.81898 3.69503 6.50358 3.70079 6.15793 3.89664C5.66394 3.74471 6.18168 3.34654 6.43876 3.23349L6.55831 3.07581C9.14276 1.32542 11.8064 0.354095 14.9317 0.0898438V0.0905645Z" fill="white"/>
<path d="M3.6892 5.47758C3.7929 5.4603 3.84405 5.52583 3.84117 5.67631L4.41437 5.38758C4.82194 5.26805 5.88337 6.00609 4.92923 6.07017C4.94724 6.25306 4.86731 6.38266 4.7413 6.50075C4.97677 6.7722 4.82265 6.93636 4.56342 7.0854L4.61166 7.52174C4.37042 7.77952 4.18032 8.05456 4.04134 8.3469C3.64312 8.8646 3.2593 9.42263 2.92877 9.98641C2.91221 10.0123 2.8935 10.0354 2.86973 10.0483C2.50392 10.2571 2.60977 9.25701 2.70483 9.08133C2.47295 8.9798 2.47873 8.80124 2.72213 8.54635C2.12948 9.23902 1.79463 8.45419 2.41032 8.02721C2.78765 7.92208 2.69043 7.71256 2.41823 7.95737L1.97105 8.54274C1.63116 8.88764 1.3496 8.53267 1.52387 8.17049C2.20292 7.12357 2.8222 6.3697 3.69064 5.47686L3.6892 5.47758Z" fill="white"/>
<path d="M1.52293 8.17073C1.52005 8.25714 1.61077 8.62795 1.72598 8.57898C2.07955 8.42994 2.19189 7.69407 2.75213 7.70271C2.81118 8.18801 2.70027 7.96553 2.45544 8.13689C2.24373 8.28522 1.98449 8.79716 2.41943 8.69059C2.50585 8.66971 2.65202 8.31042 2.81116 8.46379C2.9307 8.579 2.64124 8.82237 2.6362 8.84541C2.60596 8.97502 2.81117 8.93397 2.81837 9.07798C2.83565 9.42071 2.48065 9.84768 2.92927 9.98593C2.55266 10.6282 2.25813 11.3216 1.89736 11.9725C1.64532 11.8868 0.10141 11.3331 0.0301198 11.2165C-0.0721348 11.0494 0.164093 10.6196 0.244744 10.4338C0.587513 9.64463 1.05844 8.89004 1.52507 8.17145L1.52293 8.17073Z" fill="white"/>
<path d="M19.4995 0.266414C19.3994 0.323297 19.259 0.303856 19.1481 0.266414C19.115 0.378019 19.0639 0.378019 19.0307 0.266414C17.9988 0.15841 16.946 0.144732 15.9149 0.215295C15.5721 0.354981 15.2027 0.421224 14.8073 0.413304C15.0795 0.617793 14.9866 1.04981 14.7706 1.2579C15.1083 1.63088 15.0147 1.67551 14.5711 1.79504L13.9698 2.16587C13.1194 2.36819 14.106 2.23426 14.3969 2.02761C15.4194 2.00745 16.4369 2.04489 17.4494 2.14066L17.5877 2.03554C18.0773 2.07658 18.5634 2.13274 19.0444 2.23427L19.1481 2.37539C18.5569 2.38115 17.9491 2.22778 17.3644 2.19754C15.6801 2.1097 13.5544 2.34875 11.9456 2.84413C11.7901 2.86141 11.6468 2.90533 11.5359 3.01981C11.4409 3.05293 11.3163 3.0515 11.2428 3.07814C10.4875 3.03782 11.0765 2.78724 11.209 2.6058C11.425 2.31058 11.2277 2.22202 11.8283 2.22922C11.8283 2.04201 11.5553 1.8944 11.5409 1.8116C11.5251 1.71943 11.7599 1.5596 11.6727 1.33783C11.6086 1.17438 11.3516 1.2507 11.2702 1.14701C11.1312 0.968444 11.5078 0.978531 11.5906 0.938209C11.9795 0.747401 12.799 0.433462 13.2159 0.338418C13.6329 0.243373 14.2586 0.323303 14.6705 0.27218C14.754 0.2621 14.8246 0.112334 14.9312 0.0928933C16.1741 -0.0122313 17.4408 -0.0511235 18.7009 0.100083C18.953 0.130324 19.259 0.186492 19.4988 0.267856L19.4995 0.266414Z" fill="white"/>
<path d="M6.55884 3.07666C6.5286 3.42012 6.34786 3.25956 6.27513 3.3186C6.25352 3.33588 6.25927 3.45827 6.21247 3.51947C6.16566 3.58067 6.04613 3.59652 6.03677 3.6102C6.03101 3.61812 6.09438 3.78086 6.12822 3.78374C6.22688 3.7931 6.4386 3.66852 6.5567 3.62892C6.64095 3.60012 6.80799 3.62316 6.84256 3.59364C6.86488 3.5742 6.86127 3.45683 6.9088 3.39851C6.99305 3.29483 7.21414 3.05003 7.33872 3.08315C7.83919 3.21707 6.93977 3.56773 6.91168 3.60445C6.8476 3.68725 7.20118 3.84781 7.32072 3.72108C7.38985 3.88813 7.21487 3.89029 7.20479 3.93565C7.11622 4.33095 7.44099 4.29928 7.44171 4.45193C7.44243 4.66218 6.99164 4.85514 6.88074 4.94874C6.84474 4.97898 6.58476 5.23676 6.57396 5.2562C6.55236 5.29436 6.4818 5.7163 6.67695 5.65293C5.73721 6.43777 4.78813 7.37668 4.0421 8.34656C3.8736 8.19608 4.18828 8.02039 4.26893 7.89871C4.31574 7.82886 4.31283 7.73598 4.35388 7.66181C4.37188 7.62941 4.46405 7.62295 4.49646 7.5495C4.5375 7.45446 4.41653 7.17292 4.45901 7.03899C4.49214 6.93387 4.71034 6.90363 4.74058 6.7841C4.77083 6.66457 4.62826 6.5933 4.6261 6.50113C4.62394 6.39601 4.76436 6.34704 4.79245 6.25631C4.8839 5.9575 4.63113 5.90711 5.17985 5.94671C5.33539 5.75302 4.94654 5.67381 4.78812 5.59244C4.75068 5.573 4.75138 5.48877 4.70458 5.47797C4.39133 5.40669 4.05505 5.76741 3.75044 5.82862L3.69141 5.47725C3.71085 5.45709 3.7303 5.43836 3.74974 5.41892L3.96 5.33613C4.17099 5.08196 4.39351 4.83641 4.62754 4.5988C5.00055 4.07678 6.0087 3.44964 6.55958 3.07666H6.55884Z" fill="white"/>
<path d="M19.0316 0.266396C19.0704 0.266396 19.11 0.264956 19.1489 0.266396C19.19 0.281517 19.2332 0.293768 19.2771 0.295928C19.7293 0.32257 20.8764 0.468003 21.2552 0.660251C21.266 0.665291 21.2639 0.696255 21.2574 0.734416C21.1724 0.736576 20.983 0.847466 20.8477 0.793464L20.906 1.0858C20.3738 1.05412 20.5805 1.20316 20.4682 1.43789C20.4185 1.54157 20.2003 1.55453 20.1996 1.70069C20.1981 1.98582 20.6273 1.83751 20.7454 1.85623C20.8894 1.87927 21.0875 2.06432 20.8923 2.15792L20.4077 2.49202C20.5762 2.68715 20.8599 2.56186 21.0399 2.60866C21.068 2.61586 21.1796 2.78579 21.2574 2.84339C20.5481 2.72243 19.8525 2.52298 19.1497 2.37465C18.4749 2.23208 18.1307 2.20112 17.4517 2.14064L17.3055 2.1104C16.8403 2.18817 15.4195 2.0132 16.6012 1.73527C17.1096 1.83031 17.4697 1.72663 17.6814 1.42565C17.3991 1.29965 17.2767 1.13188 17.3141 0.923073C16.1137 0.516975 17.7404 0.054706 18.3093 0.193672L19.033 0.267117L19.0316 0.266396Z" fill="white"/>
<path d="M19.4991 0.26659C20.2711 0.316992 21.1172 0.534447 21.8416 0.793658C21.7012 0.770617 21.3901 0.732451 21.2562 0.735331C20.9199 0.48332 20.4583 0.553886 20.0709 0.486203C19.8988 0.455962 19.7685 0.352282 19.6432 0.328521C19.4862 0.298279 19.273 0.388996 19.1484 0.26659C19.2651 0.27091 19.3839 0.25939 19.4999 0.26659H19.4991Z" fill="white"/>
<path d="M3.74805 5.41901C4.02385 5.1382 4.26794 4.78034 4.62655 4.59961C4.58334 4.66009 4.48832 4.93875 4.47536 4.95244C4.41127 5.01868 4.29388 5.01508 4.21323 5.09356C4.05841 5.24405 4.11314 5.56086 3.74805 5.41901Z" fill="white"/>
<path d="M32.9092 10.9809C33.0734 10.8341 32.9704 10.7009 32.9675 10.5122C33.0114 10.6123 33.1771 10.7282 33.1403 10.8859C33.105 11.0061 32.9668 10.9579 32.9092 10.9802V10.9809Z" fill="white"/>
<path d="M11.9459 2.84277C11.8602 2.86941 11.6751 2.96949 11.5361 3.01845C11.6089 2.837 11.768 2.82405 11.9459 2.84277Z" fill="white"/>
<path d="M19.0315 0.266439C18.41 0.254919 17.7346 0.214604 17.1577 0.471655C16.6414 0.701345 17.3731 0.775509 17.4271 0.849672C17.4667 0.904394 17.3925 0.998721 17.4048 1.05056C17.4364 1.18953 17.9787 1.42498 18.1205 1.49986C18.2019 1.54306 18.297 1.53009 18.2703 1.67122C18.0953 1.74898 17.8815 1.47466 17.7785 1.49914C17.7094 1.5157 17.6676 1.67483 17.5992 1.73171C17.3781 1.91676 16.8438 1.82819 16.5507 1.85411C16.4866 1.85987 16.2281 1.88147 16.2216 1.96284C16.5745 2.15437 16.9345 2.04925 17.309 2.07805C17.3853 2.08381 17.4401 2.1378 17.4509 2.13924L14.4315 2.13564C14.0476 2.35885 13.6804 2.40565 13.2346 2.37325C13.0596 2.2206 13.8352 2.09172 13.8957 2.06868C14.2349 1.93907 14.4797 1.58337 14.8736 1.61217C14.9046 1.46385 14.7505 1.4833 14.6979 1.3897C14.5632 1.1492 14.7958 1.09664 14.8124 1.04264C14.8217 1.01023 14.8642 0.671825 14.8606 0.652384C14.834 0.508378 14.5928 0.540053 14.6396 0.412608C14.8146 0.162757 15.1508 0.296692 15.4245 0.25997C15.616 0.234769 15.7608 0.110914 15.9552 0.0878731C16.4622 0.0273905 17.4148 0.061234 17.947 0.0900353C18.2825 0.108036 18.7031 0.181474 19.0308 0.264998L19.0315 0.266439Z" fill="white"/>
<path d="M21.842 0.794068C22.5657 0.913593 23.6984 1.41689 24.381 1.73946C25.0068 2.03539 25.7039 2.4019 26.2339 2.84399C25.5908 2.73815 26.0236 3.11544 26.2007 3.37825C26.2605 3.46682 26.1863 3.6317 26.4319 3.5381C26.5046 3.51002 26.5608 3.31418 26.7019 3.31274C26.7293 3.4373 26.6025 3.46395 26.5579 3.55107C26.5219 3.62091 26.5428 3.73108 26.5161 3.76924C26.4636 3.84484 25.773 3.9874 25.6513 4.04644C25.4266 4.15517 25.544 4.45543 25.0047 4.2495C24.9463 4.56775 25.0867 4.43742 25.2135 4.53751C25.2725 4.58431 25.284 4.69519 25.3085 4.71103C25.3532 4.73983 25.5354 4.57063 25.5901 4.95153C24.5956 4.27326 23.3232 3.6706 22.2085 3.20978C21.9003 3.08233 21.5208 3.03768 21.2572 2.84399C21.039 2.69927 20.8583 2.66832 20.5962 2.65463C20.2023 2.55887 20.2865 2.35725 20.8496 2.05052L20.7265 1.97203C20.185 2.11316 19.7825 1.72578 20.3686 1.37872C20.3974 1.11735 20.463 0.954625 20.7611 0.963985C20.6833 0.625571 21.0253 0.678139 21.2565 0.736462L21.2774 0.673828L21.842 0.795509V0.794068Z" fill="white"/>
<path d="M25.3562 3.25306C25.3713 3.23218 25.8221 3.42228 25.8228 3.45828C25.65 3.79021 25.2172 3.44531 25.3562 3.25306Z" fill="white"/>
</svg>
