<svg width="25" height="36" viewBox="0 0 25 36" fill="none" xmlns="http://www.w3.org/2000/svg">
<path d="M23.2683 9.69318C23.4058 9.59381 23.5498 10.2022 23.57 10.2771C24.5277 13.8139 23.3317 20.2019 21.5444 23.4046C21.1203 24.1649 20.7278 24.6833 19.9573 25.1153C18.3745 26.0031 16.1782 26.3293 16.3424 23.8085C16.4324 22.421 17.1245 20.9594 16.5448 19.5287C16.1451 18.543 15.4027 18.8087 14.9916 19.6129C14.3312 20.9039 14.6164 23.3124 15.0887 24.6531C15.3653 25.4379 16.1955 26.2875 14.9836 26.7764C14.0972 27.1343 12.7477 27.0443 11.8346 26.7944C8.7368 25.947 7.68547 22.2619 6.42603 19.7073L6.28778 19.7087C6.24025 20.2789 6.36267 20.8204 6.50525 21.3662C6.78032 22.4203 7.46081 23.4758 5.84996 23.7019C4.7799 23.8517 3.50028 23.5839 2.72114 22.8019C1.6806 21.7579 0.534234 18.7597 0.435582 17.2973C0.400297 16.7703 0.503995 16.249 0.475911 15.732C0.434146 14.9645 0.144671 14.1631 0.0647407 13.3819C-0.298186 9.83718 0.851783 6.53876 3.84305 4.50757C4.12893 4.31389 4.59268 4.005 4.90016 3.87467C5.01753 3.82499 5.12627 3.78467 5.25732 3.79979C5.27172 3.87251 5.21989 3.90131 5.17596 3.94451C4.67982 4.42405 4.0922 4.75526 3.58813 5.32408C0.735845 8.54042 1.19025 13.9442 4.51564 16.6392C4.63157 16.7328 5.23139 17.2203 5.34013 17.113C5.26164 16.4556 4.97144 15.8278 4.92607 15.1567C4.87495 14.3935 5.05643 13.6807 5.0946 12.9311C5.145 11.9296 5.03697 10.9806 5.18243 9.96894C5.53455 7.52159 6.98698 5.50841 9.05005 4.21165C8.25362 3.2677 8.12043 2.13438 8.92765 1.14291C9.86881 -0.0127265 11.7446 -0.575784 12.7355 0.8369C12.9638 1.16235 13.3145 1.91909 13.367 2.30718C13.5269 3.4765 12.675 3.43617 11.8973 3.90707C11.4948 4.15116 10.7855 4.8611 10.4125 4.93598C10.0394 5.01087 9.83712 4.79702 9.52964 4.67245C7.61779 6.92756 6.76593 10.5788 8.45527 13.1939C8.94853 13.9572 9.73055 14.6081 10.5752 14.9486C10.9324 15.0926 11.4163 15.1445 11.7065 15.3835C12.037 15.6542 12.1407 16.1539 12.4115 16.4916C13.0653 17.3074 13.6342 16.6587 14.4234 16.7472C14.8878 16.7991 15.2904 17.1814 15.7923 17.2325C16.8018 17.3362 16.768 16.2893 17.6019 16.2072C17.8957 16.1784 18.1916 16.2022 18.5027 16.1597C21.031 15.8162 22.7146 13.7858 23.1329 11.3514C23.2294 10.7883 23.2078 10.2512 23.269 9.69461L23.2683 9.69318ZM15.7664 17.5241C14.8338 17.5105 13.91 17.3665 13.0055 17.1533C13.0862 18.3788 15.3725 18.6985 15.7664 17.5241Z" fill="white"/>
<path d="M12.3869 32.4437L13.0695 30.7566C13.0407 30.3412 12.6116 29.7832 13.1408 29.5096C13.3482 29.403 14.2843 29.4066 14.5508 29.4354C14.761 29.4577 14.9583 29.5672 15.0455 29.7652C15.2277 30.1792 15.3868 30.8438 15.5301 31.3003C15.6489 31.6768 15.7872 32.0556 15.8491 32.4444C15.9153 32.4379 15.9096 32.3803 15.9276 32.3378C16.3056 31.4544 16.5894 30.5212 16.984 29.6435C17.1654 29.4131 17.5082 29.3548 17.7429 29.5405C18.054 29.7861 17.8769 30.1389 17.7753 30.4355C17.1748 32.1974 16.3215 33.937 15.7044 35.7003C15.5402 36.0755 14.985 36.0971 14.7956 35.7435L13.6024 32.1967L12.1982 35.7392C12.0376 36.0553 11.566 36.0913 11.3557 35.804C10.7544 34.0371 10.0833 32.2809 9.531 30.4989C9.47555 30.3203 9.35745 30.0143 9.39489 29.8458C9.44242 29.6341 9.64332 29.4692 9.85575 29.4397C10.1135 29.403 10.8243 29.4066 11.0886 29.4361C11.3276 29.4628 11.5048 29.5744 11.5818 29.8084L12.3869 32.4451V32.4437Z" fill="white"/>
<path d="M3.36183 32.4437L4.05456 30.7638C3.94511 30.2706 3.56635 29.5211 4.37069 29.4347C4.64001 29.4059 5.30176 29.4023 5.56676 29.434C5.7079 29.4513 5.84833 29.5312 5.93834 29.6399C6.11332 29.8516 6.5115 31.2967 6.62816 31.6704C6.70593 31.9195 6.80605 32.1888 6.82334 32.4437C6.93207 32.4559 6.88814 32.4415 6.90614 32.3832C7.05736 31.882 7.25681 31.3932 7.45124 30.9086C7.56645 30.6227 7.84226 29.7918 7.99852 29.6017C8.21382 29.3389 8.70061 29.3915 8.85039 29.6946C8.96201 29.92 8.89936 30.0179 8.83095 30.2289C8.25127 32.0347 7.31081 33.8355 6.70593 35.6463C6.5612 36.0668 5.98586 36.1287 5.76911 35.7443L4.59608 32.1981L3.14798 35.7983C2.96579 36.0575 2.50925 36.0704 2.32922 35.8047C1.76251 33.9651 0.927917 32.0916 0.433213 30.2411C0.401529 30.1237 0.34751 30.0158 0.367673 29.889C0.400797 29.686 0.626196 29.47 0.827822 29.439C1.06905 29.4016 1.81004 29.4081 2.06207 29.4361C2.33643 29.4671 2.5013 29.6032 2.57763 29.8681L3.36038 32.4444L3.36183 32.4437Z" fill="white"/>
<path d="M20.7539 30.4248V31.9498C20.8302 31.9383 20.8994 31.9088 20.9786 31.9066C21.3977 31.8937 21.9773 31.8714 22.3835 31.9066C22.6571 31.9311 22.9617 32.1011 22.9372 32.4186C22.9257 32.564 22.7313 32.8564 22.588 32.8564H20.7539V35.5557C20.7539 35.7487 20.5084 35.9258 20.3219 35.9481C20.0641 35.9791 19.21 35.9841 18.963 35.9445C18.8169 35.9215 18.6959 35.7861 18.6289 35.6608L18.6419 29.6926C18.7254 29.5687 18.8392 29.4391 19.0012 29.4341L23.3686 29.4377C23.7445 29.496 23.8892 29.9763 23.658 30.2578C23.6242 30.2988 23.442 30.4241 23.4125 30.4241H20.7539V30.4248Z" fill="white"/>
<path d="M21.1563 1.37823C22.7383 1.19966 24.2383 2.76284 23.9905 4.33681C23.8991 4.91571 23.1315 5.83373 22.6094 6.0879C21.5545 6.60128 21.234 5.65228 20.5665 5.07771C20.4225 4.95314 20.2331 4.80914 20.074 4.70474C19.5728 4.37569 18.983 4.30873 19.0738 3.5419C19.1897 2.56483 20.1589 1.49127 21.1563 1.37895V1.37823Z" fill="white"/>
<path d="M18.0632 9.57848C18.9604 9.42512 19.7735 10.2323 20.0874 10.9962C20.5187 12.046 20.4273 13.7013 19.1679 14.1045C17.8321 14.5315 17.5491 13.1275 17.1199 12.2332C17.0515 12.0914 16.6777 11.4937 16.6727 11.4405C16.6497 11.218 17.1149 10.3511 17.2733 10.1495C17.4504 9.92338 17.7723 9.62816 18.0625 9.57848H18.0632Z" fill="white"/>
<path d="M12.1291 8.75573C13.3677 8.58725 13.8465 10.0273 13.7788 11.0238C13.7486 11.1563 13.5931 11.2139 13.5002 11.3219C12.8067 12.1262 12.0852 13.726 10.7501 12.9571C9.08886 12.0002 10.3627 8.99622 12.1291 8.75573Z" fill="white"/>
<path d="M13.0599 15.3663C12.7049 14.9919 13.1708 14.6089 13.5654 14.5606C14.0543 14.5016 15.7754 14.6456 16.0958 15.0294C16.2809 15.2511 16.3096 15.5571 16.0425 15.7184C15.8185 15.8531 15.4614 15.8351 15.1892 15.9366C14.9192 16.0374 14.7514 16.2188 14.5145 16.3657C14.2927 16.1375 14.1739 15.8833 13.8829 15.7162C13.6576 15.5866 13.2118 15.5262 13.0592 15.3649L13.0599 15.3663Z" fill="white"/>
<path d="M5.80751 25.3746C5.80751 25.9362 5.35238 26.3913 4.79143 26.3913C4.23048 26.3913 3.77539 25.9362 3.77539 25.3746C3.77539 24.813 4.23048 24.3579 4.79143 24.3579C5.35238 24.3579 5.80751 24.813 5.80751 25.3746ZM5.63684 25.3739C5.63684 24.9087 5.2595 24.5314 4.79432 24.5314C4.32914 24.5314 3.95183 24.9087 3.95183 25.3739C3.95183 25.839 4.32914 26.2163 4.79432 26.2163C5.2595 26.2163 5.63684 25.839 5.63684 25.3739Z" fill="white"/>
<path d="M23.6108 27.7887C23.6108 28.3496 23.1564 28.8039 22.5954 28.8039C22.0345 28.8039 21.5801 28.3496 21.5801 27.7887C21.5801 27.2278 22.0345 26.7734 22.5954 26.7734C23.1564 26.7734 23.6108 27.2278 23.6108 27.7887ZM23.4379 27.7916C23.4379 27.3257 23.0606 26.9477 22.5947 26.9477C22.1288 26.9477 21.7515 27.3257 21.7515 27.7916C21.7515 28.2574 22.1288 28.6354 22.5947 28.6354C23.0606 28.6354 23.4379 28.2574 23.4379 27.7916Z" fill="white"/>
<path d="M5.21471 25.231C5.12901 25.3203 5.02243 25.0359 4.86545 25.0215C4.30522 24.9704 4.4449 25.8733 4.93961 25.7178C5.05338 25.6818 5.05052 25.4715 5.21471 25.5198C5.19022 26.0094 4.48237 25.9971 4.3686 25.5622C4.31387 25.3534 4.32393 25.1288 4.49099 24.9819C4.88632 24.6341 5.33422 25.1065 5.21397 25.231H5.21471Z" fill="white"/>
<path d="M22.2781 27.292C22.4992 27.287 22.9651 27.2589 22.9831 27.5599C22.9924 27.7183 22.8887 27.8277 22.731 27.8285L22.978 28.2813C22.6972 28.3202 22.7087 27.7572 22.4415 27.8933L22.4228 28.241L22.2773 28.2813V27.292H22.2781ZM22.443 27.7457C22.9463 27.791 22.9485 27.382 22.443 27.4159V27.7457Z" fill="white"/>
</svg>
