<svg width="73" height="36" viewBox="0 0 73 36" fill="none" xmlns="http://www.w3.org/2000/svg">
<path d="M65.5673 4.56423C65.7728 3.43127 69.4858 3.44915 69.7615 4.38589L69.4858 21.4225C68.367 21.7255 66.0593 22.1594 66.0092 20.5159C59.9935 25.1322 53.8347 18.1461 57.2246 12.0638C59.0445 8.79883 62.4094 8.40351 65.5665 10.0306C65.7728 8.39563 65.2865 6.10896 65.5665 4.56492L65.5673 4.56423ZM63.034 12.5637C59.1384 12.7191 59.3446 19.3901 63.8433 18.4555C67.206 17.7572 66.8636 12.4111 63.034 12.5637Z" fill="white"/>
<path d="M35.4452 4.00686V13.8232C37.5624 12.4826 38.1362 9.61363 40.9116 9.36082C42.0976 9.25268 43.0359 9.79483 44.146 9.36156C44.2098 9.70245 44.1131 9.88076 43.9355 10.1529C43.202 11.278 41.5576 12.5312 40.6859 13.5969C39.7591 14.7298 39.411 14.7714 40.1724 16.1256C41.2338 18.0134 43.2328 19.6026 44.1475 21.6322H39.3501C39.0543 21.6322 36.4623 17.4333 35.9566 16.7823C35.8127 16.5976 35.9645 16.377 35.446 16.5002V21.297C35.446 21.7396 32.6699 21.7238 32.2079 21.6343C31.6915 21.5347 31.6421 21.2189 31.5282 20.752C30.9795 18.4983 31.241 8.4549 31.4193 5.67049C31.4465 5.24867 31.463 4.52318 31.6521 4.17226C32.0066 3.51411 34.7032 3.75475 35.446 4.00612L35.4452 4.00686Z" fill="white"/>
<path d="M47.6055 16.7231C46.6744 16.9902 48.2888 18.4655 48.8202 18.6309C51.0635 19.3292 51.7217 17.4987 52.6879 17.6505C53.0718 17.7107 55.126 19.3499 55.0637 19.7037C54.9641 20.2666 53.1936 21.2993 52.6227 21.5163C47.3813 23.5072 42.526 19.8326 43.2737 14.1764C44.0057 8.63838 52.5962 7.06569 55.0536 12.1762C55.4182 12.9346 56.3987 16.7231 55.1918 16.7231H47.6055ZM51.7332 14.0461C51.5828 11.2867 47.3441 11.3455 47.2703 14.0461H51.7332Z" fill="white"/>
<path d="M18.2646 9.58372C18.968 9.22707 19.4973 9.59015 20.1627 9.60232C21.2277 9.62166 22.0707 8.86972 21.8365 10.6995C24.4479 8.21229 29.2889 8.51594 29.8475 12.6152C29.9714 13.5262 30.0216 21.0608 29.7695 21.4225C29.536 21.7577 26.4884 21.7691 26.1833 21.4103C25.3868 20.4757 26.1654 15.3394 25.803 13.7589C25.4692 12.3008 23.4058 12.3595 22.6251 13.6092C21.4132 15.5493 22.5541 20.5703 21.9604 21.4225C21.7054 21.7885 18.2646 21.7741 18.2646 21.2964V9.58372Z" fill="white"/>
<path d="M3.98439 3.98682V17.2808C3.98439 17.3202 4.50295 17.8387 4.54234 17.8387H10.9018V21.7697V21.6315H0.191963L0 3.98682H3.98513H3.98439Z" fill="white"/>
<path d="M16.4926 9.36963H12.4502V21.6317H16.4926V9.36963Z" fill="white"/>
<path d="M14.5043 8.23812C15.8184 8.23812 16.8836 7.17295 16.8836 5.85903C16.8836 4.54511 15.8184 3.47998 14.5043 3.47998C13.1903 3.47998 12.125 4.54511 12.125 5.85903C12.125 7.17295 13.1903 8.23812 14.5043 8.23812Z" fill="white"/>
</svg>
