<svg width="61" height="36" viewBox="0 0 61 36" fill="none" xmlns="http://www.w3.org/2000/svg">
<path d="M5.99914 10.3135C5.01694 11.2769 4.09378 12.5442 3.79854 13.9194C3.66821 13.9367 3.733 13.7632 3.74524 13.6861C3.77692 13.4831 3.86841 13.2131 3.94186 13.0172C4.77212 10.7988 7.05262 8.84255 9.04223 7.65957C19.6283 1.36662 39.5827 1.35798 50.2969 7.34492C52.6999 8.68775 55.8287 11.2035 56.2147 14.1203C56.2276 14.2168 56.3111 14.548 56.1635 14.5689C56.0346 12.9359 55.0128 11.4447 53.8909 10.3143H50.5007C50.495 10.3143 50.3308 10.1407 50.3934 10.3488C50.4676 10.5936 50.9234 11.1639 51.0789 11.467C51.5319 12.3483 51.992 13.4391 52.0151 14.4263C51.8509 13.7034 51.6342 12.9812 51.3209 12.3066C51.1078 11.8479 50.6203 10.9558 50.3085 10.5778C50.2487 10.5051 50.0716 10.3143 49.9952 10.3143H46.569C46.7368 10.7981 47.0594 11.2114 47.2524 11.6859C47.4792 12.2446 47.5843 13.0554 47.9077 13.5551C48.0574 13.7869 48.3981 14.0224 48.4441 14.3521L47.9682 13.7833C47.5512 13.514 47.2747 13.1562 47.2221 12.65C47.2013 12.4506 47.2906 12.2641 47.2589 12.115C47.2315 11.9869 46.8895 11.2611 46.8031 11.1279C46.5798 10.783 46.5755 11.503 46.5215 11.6722C46.3055 12.3483 45.4472 11.7493 45.3471 12.0884C45.2585 12.3858 45.8439 12.6795 45.9058 12.8891C45.9476 13.0302 45.9433 13.5774 45.9238 13.743C45.8677 14.2283 45.3759 13.869 45.0547 13.9201L45.2678 14.7525L46.7354 14.7712C47.0313 14.6833 46.9248 14.1124 47.3201 14.1354C47.7745 14.162 47.6837 14.7301 48.1165 14.7892C49.2557 14.9433 50.9493 14.7395 52.1468 14.7409C53.5258 14.7424 54.9387 14.8914 56.3061 14.7143V15.147L52.2397 15.142L52.1224 15.795L52.0511 15.1463H48.0121C48.1698 15.579 48.0906 15.5236 47.9754 15.867C47.9135 16.0521 47.9682 16.2487 47.7594 16.3718C47.7291 16.1745 47.5152 16.2127 47.4519 16.1392C47.3885 16.0658 47.4115 15.8022 47.2546 15.7245C46.8852 16.1227 46.8045 15.8476 46.4898 15.6942C46.1406 15.5243 45.9872 15.7353 46.0643 15.1463H44.9827C45.1894 15.4732 45.4327 15.7022 45.4176 16.119C45.414 16.222 45.4371 16.2523 45.3067 16.2292C44.9481 16.1666 44.6133 15.1917 44.3699 15.1456C44.1265 15.0995 43.7953 15.178 43.5396 15.1456L43.4316 15.8678L43.3956 15.1456L39.2428 15.1398L39.1039 15.291L38.8785 15.0995L36.7088 15.1261C36.6008 15.1715 35.6453 16.1205 35.6193 16.2076C35.5178 16.546 35.9477 17.2941 35.8073 17.9083C35.7093 18.3345 34.7336 18.961 34.6681 19.5449L35.9671 19.583L35.7857 19.0308L36.3257 18.0134L37.192 17.4547C37.5002 18.1049 36.626 18.9149 36.5547 19.3822C36.5411 19.4736 36.5771 19.6176 36.6512 19.6176H38.3823L38.6711 18.6794C38.8489 18.6794 38.4082 19.6176 38.6711 19.6176H42.3493C42.7245 19.1302 42.8051 18.4613 42.9981 17.886C43.2163 17.8874 42.5704 19.4592 42.6013 19.6176H45.7028C45.6898 18.9869 46.1643 19.0416 46.5942 18.8141C47.5224 18.323 48.4478 17.8241 49.3803 17.3402C49.6647 17.23 49.8476 17.7816 50.0118 18.012C50.0478 18.0624 49.9959 18.1351 50.1364 18.1013C50.5799 17.8788 50.4071 17.2344 50.9313 17.2365L51.1135 18.6794L51.619 17.7074L51.0408 19.6176H54.395C54.7161 19.6176 56.0872 17.1501 56.0188 16.6612C56.147 16.6432 56.0894 16.8232 56.0735 16.8959C55.3527 20.2361 51.2201 22.8354 48.3008 24.0904C48.2533 24.3964 48.7595 24.1609 48.9172 24.1588C49.5718 24.1501 50.5425 24.5872 50.6635 25.2957C50.8046 26.1201 50.3567 26.5557 49.8094 27.0756L45.7258 29.8066C45.571 30.0708 45.5508 30.3523 45.9094 30.3955C46.6655 30.4863 48.3808 29.3062 49.0879 28.8785C50.1421 28.2413 51.6522 27.3736 52.5487 26.5687C53.9824 25.2813 54.5512 21.0303 55.4607 19.1676C55.9201 18.2265 57.3596 17.688 58.3562 17.8204C59.2757 17.9429 60.353 18.9084 60.0232 19.9085L56.237 31.1948C55.8906 31.827 55.2728 32.2143 54.7003 32.6146C53.4531 33.488 51.493 34.7459 50.1537 35.4249C48.7408 36.1413 45.823 35.8202 44.151 35.841C42.4789 35.8619 40.7384 35.9642 39.0297 35.9188C38.1936 35.8972 36.4964 35.9346 35.8296 35.5127C35.4998 35.3039 35.4278 35.0577 35.4948 34.6869C35.6359 33.9056 36.469 31.6282 36.9033 30.9744C38.0619 29.2306 42.0807 27.036 43.9969 26.0236L45.5595 25.2431C44.6615 25.4318 43.7837 25.7658 42.8915 25.9998C35.1585 28.0317 25.5071 28.1001 17.7453 26.1892C16.6082 25.9091 15.5007 25.5268 14.3666 25.2388C14.1786 25.2496 14.1642 25.246 14.3558 25.3223C15.0514 25.5988 15.8089 26.0207 16.4692 26.3836C18.5071 27.5032 22.3387 29.5927 23.3576 31.6844C23.6018 32.1855 24.3355 34.3132 24.3571 34.8013C24.3852 35.4522 23.7148 35.7258 23.1654 35.8439C19.3914 35.7813 15.3099 36.1636 11.5532 35.9152C9.78897 35.7986 7.87713 34.3873 6.40166 33.4218C5.37481 32.75 4.01458 32.0509 3.52636 30.8873C2.52832 27.6177 1.37617 24.3877 0.388204 21.116C0.175057 20.4103 -0.178519 19.7091 0.106637 18.9898C0.561014 17.8428 2.04874 17.6332 3.09431 17.9774C4.13988 18.3216 4.54454 18.9235 4.90171 19.9207C5.45402 21.4637 6.18421 25.0516 7.07928 26.182C7.9225 27.2476 11.7289 29.5596 13.0553 30.2314C13.6515 30.5338 13.7862 30.6749 14.4048 30.2523C14.4422 30.0348 13.9237 29.6763 13.7466 29.5402C12.616 28.6682 10.9894 27.8856 9.96755 26.9719C9.30795 26.3822 8.94864 25.3057 9.74938 24.6657C10.373 24.1674 11.0182 24.2898 11.7325 24.1249C10.2938 23.5986 8.93928 22.8512 7.70145 21.9533C6.13381 20.8157 3.58252 18.1819 3.58252 16.1198V14.3528L3.65452 14.7863H11.95L12.058 13.6314L12.0177 14.6661C12.0342 14.7366 12.1595 14.7561 12.2178 14.7669C13.0625 14.9166 15.0204 14.8216 15.9565 14.7885C16.1466 14.782 16.4419 14.8043 16.565 14.6783V12.8394C15.7729 12.6896 14.6381 11.9286 14.2701 11.2035C14.1261 10.9198 14.1174 10.5814 13.9885 10.333C13.8683 10.1011 13.4924 10.3359 13.4024 10.5065L12.238 12.9834C12.2539 12.596 12.4396 12.2108 12.5851 11.8529C12.6751 11.6326 13.3765 10.3107 13.3189 10.243C13.2396 10.2149 13.1604 10.315 13.1388 10.315H9.8934C9.4707 10.315 7.98516 13.2095 8.01828 13.7776C8.01036 12.9812 8.45106 12.1179 8.83559 11.4202C8.93784 11.2345 9.5967 10.3589 9.49661 10.243C9.4174 10.2149 9.33819 10.315 9.31659 10.315H5.9984L5.99914 10.3135ZM29.8377 5.84224V3.35386C29.8377 3.32722 29.7427 3.24514 29.765 3.17314C29.3589 3.23002 29.1421 3.43378 28.7914 3.60443L28.6741 3.32866C28.2665 3.25378 27.9057 3.50363 27.5298 3.60731L27.5666 3.75131C27.9115 3.60947 28.1678 3.40643 28.5596 3.54827L29.0413 4.1394C28.6092 4.58221 27.3585 4.97246 27.3412 5.69248C27.339 5.78032 27.352 5.78608 27.4218 5.84152H29.8377V5.84224ZM30.1258 5.84224C30.8955 6.02153 30.7926 5.44047 31.2059 5.08263C31.4594 4.86302 31.7604 4.8623 32.0016 4.65062C32.0283 4.53109 30.5629 2.92617 30.1258 3.24586V5.84224ZM34.6695 5.12006C34.7401 5.02286 34.4485 4.79102 34.375 4.73054C33.5332 4.0314 32.2047 3.45179 31.1361 3.24658C31.0482 3.32938 31.594 3.80171 31.6704 3.90108C31.805 4.07748 32.0059 4.51165 32.1111 4.61389C32.2839 4.78238 32.9276 4.90406 33.1804 5.05886C33.3316 5.15175 33.4843 5.40015 33.5901 5.44768C33.8011 5.54272 34.3808 5.1143 34.6695 5.12006ZM27.1684 3.39059C26.9127 3.46691 26.6247 3.47483 26.3755 3.57419C26.2596 3.62027 26.1991 3.56627 26.2315 3.75059C26.4893 3.76499 26.7925 3.67715 27.025 3.56771C27.1323 3.51731 27.2036 3.57923 27.1684 3.39059ZM36.1846 4.47277L32.7231 3.39059L35.0318 4.94654C35.2103 5.03222 36.3769 4.73414 36.1853 4.47277H36.1846ZM25.3653 3.53459L21.5459 4.54765L21.5509 4.78814L21.6611 4.8947L22.4834 4.94654C23.228 4.23588 24.3226 4.13148 25.2212 3.71171C25.2688 3.68939 25.4999 3.64475 25.3645 3.53459H25.3653ZM36.8334 4.11204L34.5263 3.53459C34.4888 3.73907 34.5738 3.65339 34.684 3.69731C35.2348 3.91548 35.808 4.07172 36.3265 4.37269C36.4554 4.45981 36.9594 4.24668 36.8334 4.11204ZM23.1294 3.75203L20.8215 4.18404L20.8301 4.42813L20.9878 4.53325C21.6042 4.22509 22.2941 4.1106 22.9328 3.87732C23.0084 3.84996 23.1467 3.85212 23.1301 3.75131L23.1294 3.75203ZM39.43 4.47277C38.6106 3.99468 37.6154 3.92052 36.6901 3.75131L38.4774 4.37917C38.7078 4.42237 38.9577 4.51021 39.1874 4.53541C39.2666 4.54405 39.4473 4.60021 39.43 4.47277ZM38.8533 3.89603L41.9525 4.80326C42.2953 4.8659 42.2204 4.43605 41.8841 4.43461L38.8533 3.89603ZM19.9559 4.11204C19.3359 4.1574 18.5986 4.32157 17.9944 4.49509C17.9188 4.51669 17.7337 4.52317 17.7928 4.65062C17.9353 4.95878 18.3386 4.52461 18.4762 4.50517C18.7779 4.46197 19.2632 4.34677 19.4958 4.32805C19.6341 4.31724 19.8011 4.41301 19.8105 4.40005C19.8234 4.38277 19.7903 4.28917 19.8141 4.24093C19.8645 4.14012 19.979 4.2258 19.9552 4.11204H19.9559ZM25.654 4.11204C25.3948 4.01052 23.8523 4.24885 23.9236 4.57861C23.9488 4.69382 24.6639 5.10566 24.7971 5.08838C24.9807 4.85222 25.2831 4.68734 25.4769 4.47493C25.5265 4.42093 25.7138 4.16533 25.6533 4.11132L25.654 4.11204ZM24.3557 5.84224H25.3653C25.3242 5.62624 25.3271 5.36271 25.2918 5.15679C25.2738 5.05238 25.3429 5.04159 25.1838 5.04735C24.877 5.05887 24.9217 5.29863 24.764 5.45775C24.6416 5.5816 24.337 5.614 24.355 5.84224H24.3557ZM27.3124 5.26551C27.2656 5.21655 26.4915 5.56432 26.4195 5.62048C26.3359 5.68672 26.382 5.75728 26.3741 5.84152L27.1561 5.82928L27.3116 5.26479L27.3124 5.26551ZM13.5363 5.98697C12.9444 6.02297 12.3676 6.25049 11.829 6.47874C10.1973 7.16995 7.84184 8.50631 6.57448 9.73466C6.49023 9.81602 6.37359 9.89018 6.39663 10.0248C7.55166 10.0227 8.70813 10.0651 9.85451 9.91322C10.4327 9.39193 10.9555 8.7936 11.5554 8.29606C12.2049 7.75677 12.9343 7.32044 13.6083 6.81499C13.1784 6.76027 12.8105 6.85459 12.8868 6.27425C13.1179 6.28433 13.5176 6.30161 13.5363 5.98625V5.98697ZM53.4221 10.0255C53.4538 9.86282 53.3732 9.80306 53.2824 9.69721C53.0822 9.46465 52.391 8.98872 52.1044 8.78351C51.0674 8.03973 49.7936 7.31396 48.6393 6.76746C48.3693 6.6393 46.9823 6.00425 46.8095 6.00137C46.7022 5.99921 46.6123 6.08777 46.5834 6.18353C46.4207 6.73074 47.3078 6.79194 47.5455 7.14115C47.6132 7.18435 47.5001 7.27148 47.4677 7.28084C47.1487 7.36868 46.5604 6.81931 46.263 6.69258C46.1485 6.64362 46.0477 6.6213 45.9231 6.63714L48.3368 8.2975L50.1039 9.99746C51.1999 9.96218 52.342 9.87506 53.4229 10.0263L53.4221 10.0255ZM29.8377 7.46516C29.9097 7.13971 29.7852 6.59466 29.8377 6.23897L29.7297 6.13097H27.2051C26.9847 6.13097 26.5001 8.11966 26.4468 8.43863C26.3165 8.45591 26.3813 8.28238 26.3935 8.20534C26.49 7.58253 26.8112 6.94243 26.9235 6.34985C26.9394 6.26633 26.9775 6.23321 26.8825 6.16481L24.139 6.23825C23.8171 6.77683 23.5211 7.24124 23.8516 7.86117L22.7672 7.89141C22.7196 8.2687 22.4597 8.37815 22.32 8.60207C22.2393 8.73167 21.7799 9.90314 21.8325 9.95282C22.5648 9.88154 23.3195 10.0299 24.0352 10.0284C24.2052 10.0284 24.3636 9.95354 24.5343 9.95066C24.8828 9.94418 25.7051 10.0241 25.9694 9.95426C26.0429 9.93482 25.9874 9.8117 26.0515 9.80954C26.5073 10.0075 28.0908 10.0306 28.6165 9.92114C28.7036 9.90314 29.0442 9.77138 29.0442 9.70081C28.6913 9.40993 28.4681 8.98944 28.6604 8.52791C28.7763 8.24998 29.7297 7.96125 29.8385 7.46516H29.8377ZM32.0016 6.20369C31.4997 6.07049 31.2361 6.23393 31.2808 6.78042C31.5328 6.6105 32.034 6.62202 32.0016 6.20369ZM10.2189 9.95354H13.5731C13.622 9.95354 13.9295 9.55465 13.9525 9.46681C14.0238 9.1968 13.8884 9.03768 13.9 8.83895C13.928 8.35366 14.8246 8.11822 15.0535 7.82805C15.1882 7.65741 15.2753 7.26356 15.4237 7.04467C15.5619 6.84091 16.0703 6.52482 15.886 6.27065C15.8068 6.18929 15.6973 6.19721 15.5929 6.19793C14.6402 6.20153 11.6583 8.43863 10.9022 9.15936C10.8137 9.24361 10.1332 9.87866 10.2189 9.95426V9.95354ZM30.1719 6.42978C29.9717 6.49746 30.012 7.39892 30.1632 7.42988C30.3144 7.46084 31.0684 6.88267 30.8351 6.61194C30.7695 6.42114 30.3404 6.37289 30.1719 6.42978ZM48.9209 9.11832C48.3023 8.54807 47.4893 7.92813 46.7815 7.47092C46.5381 7.31396 45.1829 6.43986 44.9841 6.63642C44.9265 6.98563 45.3355 6.96979 45.5638 7.10155C45.836 7.25924 46.6915 7.85613 46.7548 8.14414C46.8103 8.39614 46.1737 8.71655 46.2212 8.96928C46.2601 9.17448 47.0198 9.45097 46.9305 9.80882C46.6943 9.92546 46.1442 9.43585 46.0398 9.45601C46.016 9.46033 45.6488 9.69217 45.7049 9.80882C46.1629 9.66697 46.0138 9.86426 46.1852 9.93986C46.6346 10.1371 47.2359 9.95642 47.6845 9.94994C48.3318 9.9413 49.0497 9.9053 49.6704 10.0255C49.7914 9.87722 49.0462 9.23496 48.9194 9.11832H48.9209ZM21.579 8.29534C21.3558 8.77559 20.7343 8.89511 20.4225 9.1572C20.2238 9.32497 20.0013 9.75193 19.7406 9.91682C19.809 10.0219 19.8789 10.0169 19.9883 10.0284C20.5363 10.0882 21.1383 9.92978 21.6913 9.92114L22.2624 8.54663C22.0456 8.3011 21.7799 8.66759 21.5783 8.29534H21.579ZM33.8105 9.87578C33.7608 9.83978 33.7867 9.48553 33.4979 9.35881C33.0745 9.17304 33.0846 9.45025 32.8873 9.51073C32.6266 9.59065 32.4387 9.26449 32.2342 9.17376C32.0887 9.10896 31.9505 9.16512 31.8619 9.12192C31.6661 9.02616 31.4003 8.54303 31.1605 8.52287C30.7292 8.77631 30.0113 8.9772 30.0552 9.59209C30.3692 9.62954 30.5657 9.33505 30.7976 9.21768C31.3629 8.93184 31.7359 9.58345 31.9757 10.0162L34.5983 10.0248C34.4845 9.60937 33.9235 9.95786 33.8105 9.8765V9.87578ZM28.2146 10.3135C27.5205 10.3452 26.8184 10.2898 26.1228 10.3135C25.8924 10.3135 25.8362 12.4261 25.762 12.6939C25.623 12.6939 25.8859 10.657 25.9283 10.4756L25.834 10.3128H21.723L21.3623 11.251L21.4703 10.3128H19.0904C19.0299 10.6088 18.7188 11.4051 18.3012 11.0667C18.1341 10.9313 17.9505 10.2329 17.5436 10.6779C16.9884 11.2841 17.7309 11.4872 17.7575 11.6737C17.7856 11.8681 17.5515 12.0805 17.6819 12.3332L18.1507 12.5845C17.8151 12.879 17.9166 13.3448 18.2983 13.5227C18.6432 13.684 18.7008 13.2671 18.9096 13.2671L19.2697 13.5659C19.5656 13.5572 19.642 13.1727 20.2756 13.2743C20.4895 13.3081 21.5956 13.8265 21.8224 13.9626C22.1227 14.1433 22.3452 14.4313 22.6303 14.5969C23.2842 14.9757 24.7647 14.733 25.5568 14.7388C26.9315 14.7489 28.3147 14.8245 29.6916 14.7834C29.7384 14.5257 29.5511 14.7143 29.3877 14.6934C28.8519 14.6236 28.1376 14.5077 27.7833 14.0605C27.6177 13.851 27.6083 13.5507 27.4866 13.347C27.411 13.2195 27.2209 13.1331 27.1813 13.0021C27.0827 12.6781 27.501 12.1604 27.635 11.8263C27.8388 11.3187 27.8755 10.7304 28.3212 10.3481C28.3385 10.1278 28.2463 10.3114 28.2139 10.3128L28.2146 10.3135ZM17.1944 10.6131C16.7313 10.639 16.4894 10.9868 16.488 11.4317C16.4866 11.9285 16.9675 11.7442 17.1044 11.5369C17.18 11.4224 17.5011 10.5965 17.1944 10.6131ZM35.0598 11.2942C34.941 11.1552 34.8193 10.7657 34.5975 10.8543C35.2175 11.5873 35.5228 12.5701 36.4726 12.9812C36.2689 12.7263 36.3992 12.3944 36.1861 12.1503C36.0442 11.9883 35.7252 11.9206 35.5394 11.7867C35.3889 11.6787 35.1866 11.4411 35.0591 11.2935L35.0598 11.2942ZM43.0183 12.4952C42.9967 12.4729 42.5977 12.2641 42.5682 12.2634C42.3831 12.2569 41.8402 12.7148 41.748 12.884C41.64 13.0813 41.5241 14.0317 41.1338 13.9158C40.9026 13.8467 40.3583 12.1006 40.0457 11.8263C39.7015 11.5239 38.957 11.6917 38.5652 11.3957C38.6776 11.7997 38.7244 12.1698 38.383 12.4772C38.2577 12.5902 37.5715 13.0129 37.4289 13.0403C37.1265 13.0986 36.8435 12.897 36.5454 13.0187C36.8262 13.3362 37.3209 13.2685 37.6975 13.4175C37.8235 13.5918 37.0797 14.5379 36.9068 14.6776L37.0235 14.7762L44.6601 14.7863L44.8387 14.6776C44.6889 14.4472 44.3526 14.3622 44.2014 14.1628C43.8903 13.7531 43.8997 12.8819 43.289 12.5506C43.1148 12.5089 43.1731 12.7832 43.1788 12.8775C43.2084 13.3787 43.361 13.8985 43.397 14.391C43.4028 14.4709 43.4511 14.6589 43.3265 14.6416C43.2285 14.3132 43.1443 12.6255 43.019 12.4959L43.0183 12.4952ZM16.6385 14.7129C16.709 14.6891 16.7947 14.7849 16.8185 14.7849H18.1888C18.2155 14.7849 18.3408 14.6416 18.3566 14.589C18.4567 14.2571 18.2183 14.242 18.1226 14.0584C18.0362 13.892 18.0542 13.7423 17.8936 13.5666C17.697 13.3513 17.0929 13.0496 16.8063 12.9927C16.6918 12.9704 16.6385 13.2001 16.6385 13.2347V14.7129ZM31.0633 14.7849C30.9539 14.1311 30.4512 14.2024 30.0537 14.6056C29.9817 14.8965 30.8941 14.7553 31.0633 14.7849ZM5.49434 19.6176H8.95654L9.0545 19.4498C8.21055 18.143 7.85121 16.6778 7.61502 15.1535C6.76459 15.1233 5.90985 15.1657 5.0587 15.1485C4.70874 15.1413 4.50928 15.0959 4.11179 15.1189C3.97137 15.1269 3.73591 14.9771 3.66606 15.1924C3.57821 15.4631 3.74238 16.4287 3.82087 16.7469C4.07362 17.7701 4.79081 18.8501 5.49434 19.6169V19.6176ZM13.0316 19.6176C12.9149 19.3087 12.7168 19.033 12.5858 18.7291C12.1069 17.6167 11.9183 16.4006 11.8671 15.1931L11.7642 15.0822L7.76625 15.1456C7.8613 16.7239 8.43017 18.3677 9.38933 19.6176H13.0316ZM17.2873 19.4009C17.1 19.164 17.0705 19.0301 16.9798 18.7349C16.7443 17.9688 16.5657 16.9895 16.4945 16.191C16.4743 15.9671 16.5607 15.2046 16.4239 15.1045L12.0212 15.1456C11.9896 16.6699 12.3395 18.2813 13.2065 19.5499L17.2189 19.5838C17.2837 19.5442 17.283 19.4671 17.2866 19.4009C17.409 19.5564 17.4709 19.596 17.6819 19.6176C18.4675 19.6968 19.3719 19.5593 20.1712 19.6176L19.6996 18.323C19.5066 18.0854 19.135 18.0804 18.8981 17.8622C18.5021 17.4957 18.3804 16.9147 18.1665 16.4661C18.0218 16.1622 17.6459 15.8987 17.7179 15.4754C17.7416 15.3364 17.8835 15.291 17.8626 15.147H16.7443C16.7285 15.147 16.6197 15.0131 16.5729 15.1917C16.4584 15.628 16.7105 17.1616 16.8142 17.6736C16.8963 18.0768 17.3002 19.1251 17.2858 19.4016L17.2873 19.4009ZM25.726 17.742C25.5157 17.3892 25.6562 15.929 25.577 15.4026C25.4956 14.8633 24.7561 15.1463 24.3917 15.1456C24.1461 15.1456 23.7429 14.9685 23.4887 15.1081C23.3656 15.1996 23.4628 15.2125 23.5254 15.2903C23.8912 15.7432 24.9707 15.8908 24.9865 16.42C24.9937 16.6627 24.4082 17.4648 24.3305 17.8305C24.2743 18.0912 24.4363 18.3122 24.3031 18.5909C24.1922 18.822 23.9186 18.7457 23.7465 18.899C23.6176 19.0135 23.3807 19.4304 23.4189 19.6169H25.6907C25.7174 19.6169 25.8009 19.5247 25.8715 19.5427C25.7094 18.9516 25.7519 18.3446 25.7267 17.7412L25.8016 17.783L25.9435 19.6162H29.7304L29.8385 19.5082V15.1809L29.59 15.0693L25.7253 15.1031C25.5237 15.2428 25.7238 16.6094 25.7303 16.9089C25.7368 17.1861 25.7159 17.4655 25.7274 17.7412L25.726 17.742ZM31.1361 15.1456H30.1265V19.5089L30.2345 19.6169H31.8576C31.949 19.1316 31.3982 18.5066 31.3759 18.1286C31.3557 17.7895 31.6416 17.5216 31.697 17.2567C31.8641 16.4582 31.1937 15.9074 31.1368 15.1456H31.1361ZM9.38933 19.9776H5.89113C5.92137 20.1843 6.17196 20.3758 6.32318 20.5198C7.33707 21.4889 8.77363 22.4437 10.01 23.1075C10.2462 23.2343 11.6375 23.9442 11.77 23.9442H14.0058C14.0195 23.9442 14.1347 23.8276 14.1138 23.8009C13.6141 23.6627 13.154 23.3502 12.7212 23.0651C11.4574 22.2313 10.3355 21.152 9.39004 19.9776H9.38933ZM13.2123 19.9776H9.8941L9.81706 20.1245C10.625 21.1095 11.6252 22.0182 12.6772 22.7475C12.899 22.9009 14.4696 23.9442 14.5819 23.9442H16.8898C16.8999 23.9442 17.1368 23.8621 17.0352 23.7995C15.4345 22.9074 14.2341 21.4659 13.2116 19.9776H13.2123ZM17.3233 19.9776H13.6451L13.568 20.1245C14.6136 21.6315 15.999 22.9542 17.54 23.9442H20.2447C20.249 23.8441 20.267 23.806 20.1957 23.7246C20.0323 23.5374 19.688 23.3077 19.4864 23.0795C18.9327 22.4552 18.3948 21.6481 17.9505 20.9374C17.8079 20.7092 17.5443 20.0251 17.3233 19.9776ZM19.9919 19.9776H17.7561L17.6538 20.1504C18.5323 21.5221 19.4015 22.9376 20.7135 23.9442H23.4181L21.9398 21.4933C21.7475 21.4832 21.9239 22.2464 21.9506 22.3465C22.0572 22.7504 22.2984 23.1075 22.4086 23.51C21.4969 23.7159 21.3997 22.7439 21.0246 22.1182C20.7941 21.7345 19.9473 20.8042 19.9595 20.4528C19.9631 20.3427 20.0243 20.2246 20.0726 20.1259L19.9927 19.9769L19.9919 19.9776ZM26.8083 23.9442L25.8765 20.0806C25.8124 19.9891 25.7203 19.9877 25.6216 19.9747C25.1917 19.9171 23.8149 19.92 23.3792 19.9726C23.2259 19.9913 23.2295 20.1893 23.0955 20.3405C22.7657 20.712 22.2861 20.8906 22.0471 21.3111C22.3315 21.8237 22.5735 22.358 22.8838 22.857C23.007 23.0543 23.5722 23.9449 23.7436 23.9449H26.809L26.8083 23.9442ZM29.8377 23.9442V20.0856L29.7297 19.9776H26.1235C26.0788 19.9776 26.0234 20.0849 26.0191 20.1504C26.0069 20.3247 26.2769 21.5062 26.3374 21.7827C26.4944 22.4998 26.6981 23.2825 26.989 23.9442H29.8377ZM30.1258 19.9776V23.8362C30.1891 23.9392 30.2698 23.9356 30.3742 23.9478C31.0122 24.0227 31.9382 23.9442 32.6166 23.9478C33.6737 23.9528 34.8719 24.0457 35.9347 23.9478C36.0391 23.9384 36.1436 23.9428 36.2401 23.8924C37.0127 22.9189 37.7306 21.7035 38.1346 20.522C38.1879 20.3672 38.3226 20.0719 38.1677 19.9776H34.4895C34.2922 20.2361 33.3244 21.0404 33.0493 21.054C32.9428 21.0591 32.2716 20.7826 32.1788 20.7012C31.957 20.5054 31.9915 20.1886 31.8209 19.9776H30.1258ZM42.1715 19.9776H38.4205L37.4498 22.3609L36.4726 23.9442H39.1773C40.1883 22.9887 41.1914 21.9641 41.8676 20.7207C41.9352 20.5961 42.265 20.0748 42.1707 19.9776H42.1715ZM45.4889 19.9776H42.4955C41.6933 21.1376 40.9638 22.7087 39.8664 23.6245C39.7764 23.6994 39.6943 23.7296 39.5784 23.7325L39.5748 23.9442H42.3515C42.9275 23.5136 43.5821 23.0838 44.1193 22.6107C44.4196 22.3465 45.4644 21.3565 45.6358 21.08C45.6934 20.9864 45.7114 20.8798 45.7057 20.7711L45.2671 20.6537L45.4889 19.9776ZM54.0724 19.9776H50.9349C50.8737 19.9776 50.7787 20.2131 50.7009 20.2678C50.3754 20.4953 49.9671 20.6501 49.6381 20.9165C49.0332 21.4076 48.5399 22.0196 47.8616 22.5301C47.2409 22.9974 46.5611 23.3372 45.9303 23.7721C45.8691 23.8139 45.7863 23.8643 45.7777 23.9442H48.1216C48.2929 23.9442 50.8341 22.5754 51.1646 22.3717C51.7652 22.0009 52.5076 21.3953 53.0578 20.9468C53.4192 20.6516 53.788 20.352 54.0724 19.9776ZM42.8202 23.9442H45.2362C45.3852 23.9442 47.3381 22.6294 47.6146 22.4278C47.8825 22.2334 48.1878 22.011 48.4427 21.8137C48.6638 21.643 48.8603 21.3997 49.0944 21.2391C48.7322 21.1714 48.6904 21.6725 48.2807 21.5509C47.9682 21.458 47.5851 20.424 47.1127 20.4168C47.0097 20.4154 46.0967 20.8114 45.9987 20.8841C45.7561 21.0627 45.1944 21.877 44.9035 22.1694C44.5326 22.5423 43.9889 23.0485 43.5749 23.3653C43.477 23.4402 42.6957 23.8362 42.8188 23.9435L42.8202 23.9442ZM14.8714 24.3049C14.2607 24.2142 13.4499 24.3719 12.8155 24.3049C12.7774 24.5123 12.8717 24.4209 12.9732 24.4684C13.9929 24.9443 15.5288 25.341 16.6377 25.6391C17.787 25.948 19.4029 26.4103 20.5666 26.4722C20.6249 26.4751 20.8308 26.4931 20.712 26.3973C20.1453 26.3066 19.5808 26.1518 19.0349 25.9833C18.2543 25.7421 17.3175 25.4397 16.5672 25.1337C16.1517 24.9637 15.181 24.3517 14.8706 24.3056L14.8714 24.3049ZM17.7561 24.3049H15.7362C15.6361 24.3049 15.608 24.4259 15.7448 24.513C15.927 24.6289 16.3864 24.7715 16.6197 24.8637C17.6682 25.2784 18.8988 25.7694 20.0272 25.7471C20.0488 25.6406 19.997 25.5909 19.9207 25.5297C19.6391 25.3036 18.8873 25.0415 18.5208 24.8385C18.3422 24.7391 17.8562 24.3272 17.7561 24.3056V24.3049ZM18.2968 24.3049C18.3264 24.418 18.4445 24.477 18.5352 24.5353C19.5829 25.21 21.049 25.7061 22.2998 25.6816C22.387 25.6802 22.5663 25.6643 22.5173 25.5311C21.8843 25.1905 21.3256 24.7729 20.7848 24.3056H18.2961L18.2968 24.3049ZM23.6709 24.3049H21.1823C21.4163 24.5677 22.4187 25.3274 22.7348 25.3086C22.8298 25.3029 22.9191 25.2006 23.0285 25.1769C23.3972 25.0962 23.7645 24.9961 24.1397 24.9537C24.2131 24.8824 23.8351 24.3409 23.6709 24.3049ZM26.9523 24.3049H23.9949C24.0936 24.7758 24.5732 24.7895 24.8878 24.963C25.7901 25.4591 26.3978 26.0358 27.4571 25.3857L26.9523 24.3049ZM29.729 24.3049H27.0964L27.5716 25.2453C28.332 25.0415 29.0463 24.8154 29.8377 24.9544C29.8262 24.7996 29.8989 24.3575 29.729 24.3049ZM32.7224 24.3049H30.1258V24.8824C30.6334 24.8903 30.928 24.4705 31.4601 24.5188C31.9418 24.5627 32.2896 25.179 32.7217 24.6664L32.6504 25.0264C32.7051 25.1034 33.8774 25.1142 34.0603 25.102C34.6847 25.0624 35.5949 24.9781 35.8239 24.3049H32.9752C32.8895 24.3049 32.8024 24.5965 32.7592 24.5944L32.7231 24.3049H32.7224ZM38.6372 24.3049H36.2213C36.1688 24.3049 35.5531 24.9544 35.6071 25.1337C36.6491 25.4829 37.9143 25.1229 38.6372 24.3049ZM41.5939 24.3049H39.0333L38.0604 25.1351C38.0302 25.2935 38.1332 25.241 38.2419 25.2453C38.5213 25.2546 38.7316 25.1193 38.9605 25.1121C39.2176 25.1041 39.6201 25.2575 39.8801 25.2294C40.2992 25.1841 41.2605 24.5915 41.5946 24.3049H41.5939ZM44.3346 24.3049H42.1347C42.0778 24.3049 41.2555 24.9385 41.2339 24.9911C41.1993 25.143 41.2972 25.0876 41.3801 25.1286C41.5082 25.192 41.7156 25.3129 41.846 25.3209C42.152 25.3403 43.7665 24.6642 44.1171 24.4842C44.2007 24.4417 44.3173 24.4172 44.3346 24.3049ZM47.148 24.3049H45.0201C44.7868 24.3049 42.1916 25.683 41.6861 25.8753C40.8011 26.2108 39.6461 26.303 38.7093 26.4693L38.9634 26.5442C41.3512 26.1438 43.7758 25.5635 46.0628 24.7715C46.4092 24.6513 46.8773 24.5289 47.1473 24.3056L47.148 24.3049Z" fill="white"/>
<path d="M16.0613 1.65964C16.0858 2.01029 15.6969 1.81804 15.6393 1.99301C15.5392 2.29686 15.8287 2.61582 15.7012 2.95711C15.8201 2.95711 15.9511 2.97799 16.0627 2.92255C16.1887 2.85991 16.1513 2.67127 16.2766 2.66911L16.404 2.99383C15.3462 3.71673 15.3138 2.92399 15.2677 2.01893C14.2611 2.07221 14.7068 2.74543 14.8544 3.33656C14.9199 3.59793 14.5404 3.57705 14.4807 3.52664C14.4144 3.47048 14.2841 2.2875 13.9471 2.31918C13.101 2.39982 13.9946 3.36752 13.8981 3.82185L13.4034 3.81105C13.3595 3.72321 13.353 3.61377 13.2817 3.53745C13.1759 3.42584 12.6761 3.08023 12.8029 3.43664C12.8814 3.65769 13.0852 3.84705 13.0319 4.10986C12.6877 4.21138 12.5689 3.74697 12.4753 3.47768C12.3103 3.00463 12.1001 2.58414 12.8065 2.67847C12.8648 2.92471 12.9916 3.06007 13.2133 3.17096C13.4078 3.1652 13.1442 2.4783 13.1766 2.45166L16.0613 1.6582V1.65964Z" fill="white"/>
<path d="M44.1906 1.80252C44.0387 1.82412 43.436 1.7298 43.3978 1.91268C43.3387 2.19205 44.0344 1.99188 43.9739 2.27125C43.9134 2.55062 43.4396 2.20645 43.3978 2.23669C43.1213 2.83574 43.7096 2.76158 44.0804 3.03015C44.1798 3.00855 44.5197 1.96596 44.3347 1.80468C44.4347 1.809 44.5543 1.78452 44.6479 1.81476C44.9633 1.91628 44.5053 2.67086 44.4844 2.91567L45.2247 3.23967L45.9347 2.24965C46.8535 2.17189 46.1882 3.29152 46.4258 3.82217L45.916 3.63136L46.209 2.5967C46.0492 2.42461 45.6675 3.58744 45.3817 3.46864L42.6756 2.81198C42.6612 2.6759 42.8563 2.77382 42.9312 2.6723C43.0464 2.5175 43.0061 1.75788 43.1897 1.52459C43.3351 1.43171 44.092 1.55484 44.1892 1.8018L44.1906 1.80252Z" fill="white"/>
<path d="M5.33442 7.84018C5.46692 7.94674 5.62244 7.89346 5.74629 7.96906C5.61596 8.22755 5.23938 8.32475 5.09392 8.47092C4.92758 8.63796 4.72952 9.13693 4.44725 9.26653C4.02888 9.45878 3.32825 8.90005 3.38729 8.46228C3.44994 7.99571 4.43359 7.172 4.84548 6.92432C4.80227 7.41321 4.92467 7.38513 5.20767 7.6465C5.2696 7.70338 5.29338 7.80778 5.33442 7.84018ZM4.574 8.7798C4.63233 8.71932 4.63377 8.58972 4.70434 8.51484C4.81524 8.39747 5.00606 8.34923 5.07951 8.18651C4.98662 7.9957 4.49192 7.44489 4.2795 7.50681C4.23917 7.51833 3.85609 8.12099 3.81576 8.20451C3.55365 8.75244 4.23628 9.13045 4.574 8.7798Z" fill="white"/>
<path d="M48.9503 3.38869C48.4794 3.51541 48.5161 4.11879 48.4434 4.50688C48.4261 4.5976 48.4959 4.63792 48.3404 4.61416L47.7261 4.29159C47.9955 4.18215 48.4671 3.41173 48.3087 3.20652C47.4482 2.51747 47.5238 3.50605 47.2228 4.08207L46.8613 3.93158L47.2199 2.98476L46.9319 2.52539C47.4612 2.69315 48.3238 2.88468 48.7854 3.159C48.8826 3.21733 48.9798 3.24397 48.951 3.38869H48.9503Z" fill="white"/>
<path d="M22.4806 1.8756C22.6362 1.46015 22.4958 1.0807 22.4698 0.660928C21.9622 0.487404 21.6655 0.630688 21.6871 1.1887C21.6986 1.49183 22.032 2.20681 21.4689 1.97352L21.3235 0.942457C21.0916 0.943897 20.895 0.977014 20.751 0.758849C20.7488 0.618446 22.7068 0.411804 22.9437 0.365723L23.0229 0.505406C22.7874 0.68253 22.8428 1.14334 22.9307 1.39103C22.9761 1.51919 23.1798 1.59839 23.1302 1.76687C23.0805 1.93536 22.6355 1.86552 22.4814 1.87632L22.4806 1.8756Z" fill="white"/>
<path d="M10.3535 3.76063C10.4118 3.79807 10.4809 4.36473 10.5745 4.49505C10.661 4.61457 11.0102 4.62897 11.0124 4.86802C10.7618 5.06746 10.3743 5.07682 10.3535 4.69809L10.0028 4.68873L10.1439 5.22227L9.90125 5.33099L9.20996 4.0796C9.23948 3.95144 10.172 3.65191 10.3535 3.76063Z" fill="white"/>
<path d="M51.6921 4.90404C51.4645 4.46195 52.0305 4.41587 51.9628 4.78596C51.9067 5.09197 51.3709 5.51894 51.4753 5.91495C50.6789 5.93727 51.1484 5.12941 51.0418 4.61603C50.689 4.82844 50.6962 5.5931 50.2497 5.48077C50.1626 5.39725 50.7711 4.15955 50.8345 4.11994C51.3299 3.80818 51.3536 5.18629 51.6914 4.90332L51.6921 4.90404Z" fill="white"/>
<path d="M19.4522 2.37891C19.0728 2.79868 18.3793 1.34569 18.2259 1.51561L18.5867 2.48691C18.1006 3.08165 17.8897 1.33057 17.9681 1.22185C18.2432 0.839518 18.7905 1.55953 18.9107 1.8029C19.1361 1.59409 18.995 1.29097 18.8042 1.11816C19.4278 0.653754 19.3147 2.03906 19.4522 2.37891Z" fill="white"/>
<path d="M3.14968 9.59207C3.34483 9.43511 2.42239 9.24358 2.64562 9.01606C2.80044 8.85837 3.85174 9.64103 4.08721 9.70151C3.89782 10.2739 3.15903 9.62447 2.79034 9.9888C2.79322 10.0802 3.51259 10.3164 3.51331 10.5648C3.51331 10.6347 3.44633 10.7398 3.40312 10.7441C3.33255 10.7506 2.23874 10.0471 2.22074 9.97512C2.2157 9.41854 2.7601 9.62303 3.14894 9.59207H3.14968Z" fill="white"/>
<path d="M49.501 3.48142C49.7487 3.45261 50.2758 3.75286 50.3219 4.00559C50.3874 4.36848 50.1239 5.09569 49.7033 5.11946C49.5658 5.12738 48.9746 4.86529 48.9162 4.75873C48.724 4.4088 49.0977 3.5275 49.501 3.4807V3.48142ZM49.5802 3.83278C49.2734 3.91631 48.9472 4.67953 49.4945 4.76161C49.9194 4.80481 50.0843 4.23024 49.8949 3.92423L49.7645 3.83206C49.7019 3.80974 49.6421 3.8155 49.5795 3.83206L49.5802 3.83278Z" fill="white"/>
<path d="M8.46689 4.41493C9.40949 4.19749 9.81921 5.87513 8.66059 5.98601C8.30414 6.01985 7.85984 5.40135 7.8584 5.07015C7.8584 4.85198 8.26092 4.46173 8.46615 4.41421L8.46689 4.41493ZM8.46759 4.69862C8.38982 4.7195 8.22997 4.87934 8.20909 4.95711C8.15364 5.25015 8.61738 5.81321 8.92486 5.59432C9.13368 5.44672 8.90757 4.57838 8.46759 4.69862Z" fill="white"/>
<path d="M2.55487 13.4695C2.20275 13.8331 1.27815 13.7971 1.14637 13.2204C0.874174 12.0302 2.53111 12.1497 2.64344 12.7322C2.6744 12.8906 2.66432 13.3572 2.55487 13.4702V13.4695ZM2.34675 13.2607C2.61607 12.4485 1.21046 12.4852 1.47329 13.1066C1.62019 13.4544 2.0544 13.3737 2.34675 13.2607Z" fill="white"/>
<path d="M26.2207 0.0837884C26.4021 0.191791 26.2063 1.28046 26.3755 1.51446C25.718 1.70743 25.8613 0.843406 25.2939 0.722443L25.4329 1.58214L25.0844 1.57998L25.0059 0.144988C25.5546 0.00242465 25.4855 0.714522 25.9427 0.793724V0.0722656L26.2207 0.0830676V0.0837884Z" fill="white"/>
<path d="M49.8691 15.5199C50.4185 15.3565 51.5606 16.1629 51.3698 16.8066C51.2452 16.9967 51.0321 16.6439 50.8477 16.6028C50.6879 16.5676 50.4293 16.6295 50.3184 16.5553C50.2335 16.4992 50.2241 16.227 50.1103 16.1139C49.9663 15.9714 49.6977 16.0362 49.6034 15.8223C49.5883 15.7287 49.782 15.5451 49.8684 15.5199H49.8691Z" fill="white"/>
<path d="M17.8637 2.74089C17.508 2.78769 17.4216 2.6876 17.3143 2.37656L16.9989 2.3816L17.0709 2.95833H16.7101L16.4502 1.58526C16.6684 1.51038 17.2473 1.29293 17.4324 1.40598C17.6412 1.53342 17.6016 2.13535 17.6628 2.33047C17.7046 2.46368 17.9249 2.53136 17.8637 2.74161V2.74089ZM17.3589 2.01871L17.2163 1.69326C16.955 1.5327 16.718 1.81134 16.9225 2.05975L17.3589 2.01799V2.01871Z" fill="white"/>
<path d="M58.3073 10.8399C58.3663 10.8889 58.5794 11.2856 58.5996 11.3756C58.7825 12.1864 57.953 12.2814 57.3171 12.154C57.1486 11.8904 56.9794 11.632 57.0478 11.3065C57.122 10.9559 58.0113 10.5959 58.3073 10.8407V10.8399ZM58.3159 11.6737C58.5297 10.6736 56.9938 11.1798 57.3841 11.7803C57.5605 12.0517 58.0876 11.7666 58.3159 11.6737Z" fill="white"/>
<path d="M57.7266 13.8221C57.6481 13.8833 57.5689 13.9359 57.4623 13.9193C57.4529 13.8005 57.463 13.6853 57.5149 13.5759C57.6589 13.2735 58.2918 13.2979 57.8583 12.912C57.5667 13.1907 57.3824 13.0826 57.3888 12.6938L58.8362 12.5801C58.9348 12.6506 58.9392 13.4585 58.8701 13.5615C58.7088 13.8019 58.173 13.5831 57.9282 13.6291C57.7625 13.6608 57.7877 13.7731 57.7258 13.8214L57.7266 13.8221ZM58.4366 12.8386L58.2119 13.1935C58.4034 13.6486 58.9133 13.0438 58.4366 12.8386Z" fill="white"/>
<path d="M55.5143 7.21062C55.1924 7.32439 54.6948 7.8392 54.936 8.18769C55.1204 8.32017 55.7879 7.71535 55.8109 7.50655C55.875 7.46119 56.2617 7.63975 56.13 7.79096C55.6929 8.17977 55.2867 8.89186 54.6516 8.39937C54.0165 7.90688 54.9368 7.32942 55.1549 6.85205C55.2536 6.87653 55.5985 7.09038 55.5136 7.21134L55.5143 7.21062Z" fill="white"/>
<path d="M52.8241 5.35981C52.7046 5.26045 52.5145 5.21077 52.4144 5.37349C52.575 5.6939 53.0164 5.85878 52.8097 6.27639C52.544 6.81281 51.8635 6.33184 51.5791 6.06183L51.6374 5.86095L51.8009 5.79254C52.009 5.93799 52.1033 6.19864 52.4122 6.13167C52.4619 5.81271 51.973 5.67158 51.9809 5.37277C51.9838 5.27917 52.2718 4.96885 52.3424 4.93933C52.5354 4.85796 53.5003 5.33821 53.0963 5.62694C52.9429 5.66006 52.8961 5.42174 52.8241 5.36125V5.35981Z" fill="white"/>
<path d="M36.3279 1.08235L36.3618 0.35801C36.4071 0.244967 36.675 0.348648 36.6873 0.365208C36.7283 0.420649 36.4359 1.52155 36.5454 1.7318L36.1191 1.7246C36.1378 1.29979 35.7785 1.10107 35.7511 0.721617C35.5762 0.699297 35.6366 0.721618 35.5999 0.821701C35.5005 1.08811 35.5423 1.38259 35.5351 1.6598H35.2471C35.2723 1.38907 35.3169 0.358008 35.5358 0.248566C35.8851 0.0728813 36.0428 1.00458 36.3279 1.08306V1.08235Z" fill="white"/>
<path d="M42.6042 2.74035L42.1808 2.65899C42.3313 1.9397 41.604 1.87273 41.7387 2.52435H41.3779L41.6609 1.18584C41.8186 1.07208 42.5581 1.25928 42.669 1.41336C42.9124 1.75033 42.152 2.31266 42.6035 2.74035H42.6042ZM41.8827 1.4436C41.7927 1.84609 42.2003 1.92745 42.4581 1.69561C42.4559 1.62649 41.9453 1.37808 41.8827 1.4436Z" fill="white"/>
<path d="M29.9814 0.000488281L30.8513 0.0321692C31.1862 0.971072 31.2193 1.84733 29.9814 1.33468V0.000488281ZM30.5525 0.149532C30.1233 -0.115434 30.4618 0.782426 30.4596 0.827787C30.456 0.901229 30.2709 1.06756 30.3429 1.22596C31.2049 1.17916 30.5597 0.867389 30.5561 0.823467C30.5496 0.738505 30.726 0.256095 30.5525 0.149532Z" fill="white"/>
<path d="M23.6872 0.305355C24.2287 0.186552 24.6197 0.298157 24.7586 0.866251C24.8479 1.23058 24.5297 1.71875 24.1574 1.79003C23.2947 1.95491 23.0808 0.437838 23.6872 0.305355ZM23.9025 0.517761C23.5532 0.620723 23.6375 1.57043 24.0868 1.50563C24.6218 1.42858 24.511 0.337756 23.9025 0.517761Z" fill="white"/>
<path d="M54.0729 6.41956C54.1147 6.86237 54.7908 7.08629 54.3264 7.50246C54.0931 7.71127 53.8461 7.66087 53.6034 7.50174C53.4738 7.41678 52.9258 6.80909 53.3751 6.93653C53.6408 7.01213 53.715 7.3203 54.0001 7.2843C54.0621 6.88973 53.4615 6.6874 53.8137 6.26835C54.1658 5.8493 54.7469 6.31155 54.919 6.67228L54.7584 6.85013C54.5518 6.61612 54.4488 6.36268 54.0736 6.41884L54.0729 6.41956Z" fill="white"/>
<path d="M27.8457 1.3493C27.8659 1.38387 27.9934 1.33202 27.9624 1.44291C27.4965 1.58475 27.5433 1.15562 27.1357 1.22762C26.9103 1.26722 26.8578 1.57539 26.5928 1.51563L26.8916 0.0849544C27.6261 -0.261374 27.6167 0.949696 27.8457 1.35003V1.3493Z" fill="white"/>
<path d="M32.2904 1.15493V0.109467C32.2904 -0.0186956 32.5971 -0.00573656 32.6533 0.121707C32.708 0.342752 32.569 1.29677 32.3991 1.44438C32.1816 1.63302 31.4248 1.50198 31.4248 1.19165V0.00146484L31.7755 0.119549L31.818 1.15853C31.9195 1.3083 32.1514 1.17653 32.2904 1.15493Z" fill="white"/>
<path d="M1.90012 10.6095C2.19968 10.5216 3.21357 10.9573 3.10483 11.4512C2.95649 12.1251 2.25873 12.0538 1.73954 11.8342C1.58328 11.768 1.29095 11.444 1.53002 11.3957C1.73453 11.354 2.62022 11.889 2.9349 11.503C2.88449 11.1041 1.90661 11.0307 1.81299 10.8953C1.74027 10.7895 1.77771 10.6455 1.90012 10.6095Z" fill="white"/>
<path d="M56.6471 8.17332C56.7235 8.23885 57.2088 8.96174 57.1728 9.01358C56.9208 9.06254 56.9071 9.28431 56.6342 9.31023C56.2 9.35199 56.1978 9.03303 55.9803 9.01142C55.7477 8.9891 55.6181 9.37215 55.4784 9.16046C55.4014 9.04814 55.4345 8.93222 55.5108 8.82998C55.5447 8.78462 56.3317 8.13372 56.3836 8.1114C56.483 8.06748 56.573 8.10924 56.6478 8.17332H56.6471ZM56.6911 8.77814C56.6119 8.67373 56.6082 8.52109 56.4887 8.43973L56.2367 8.83286C56.264 8.95886 56.7868 9.05751 56.8855 8.90774C56.8452 8.84078 56.7292 8.82782 56.6918 8.77814H56.6911Z" fill="white"/>
<path d="M34.0099 0.15536L34.02 0.433285L33.2999 0.361284C33.4706 0.854496 34.3556 0.626249 33.9141 1.44491C33.7716 1.58675 32.7346 1.62851 32.8671 1.15474L33.804 1.22603C33.9818 1.08346 33.2236 0.910656 33.1753 0.882576C32.8369 0.684571 32.9694 0.432563 33.1177 0.142396C33.261 -0.0044879 33.8198 0.066077 34.0106 0.154639L34.0099 0.15536Z" fill="white"/>
<path d="M57.8771 10.3691C57.7979 10.4469 57.4249 10.5412 57.2996 10.5189C57.0368 10.4728 56.9762 10.1848 56.9064 10.1668C56.7343 10.1236 56.1151 10.3965 56.2389 9.99181C56.2605 9.92197 57.4868 9.36035 57.5595 9.38195C57.7295 9.57492 58.1011 10.1481 57.8771 10.3684V10.3691ZM57.7511 9.95437C57.5048 9.89173 57.1815 9.62532 57.175 10.0609C57.3457 10.2697 57.6589 10.1905 57.7511 9.95437Z" fill="white"/>
<path d="M40.7243 0.942635L40.7279 1.22632L39.8631 1.01103C40.0215 1.64609 40.9332 1.39192 40.4442 2.2761C40.2303 2.42587 39.1049 2.1897 39.5376 1.80521C39.7537 1.9449 39.9423 2.13426 40.2232 2.09178C40.2577 1.49273 39.4001 1.69793 39.5895 1.06216C39.7364 0.566784 40.3845 0.941195 40.7243 0.942635Z" fill="white"/>
<path d="M2.55775 13.9371C2.62904 14.0206 2.69748 14.4699 2.69172 14.5945C2.64563 15.632 0.765457 15.3217 1.14278 14.1481L1.41932 14.0645C1.47333 14.4793 1.4121 14.8882 1.95144 14.8551C2.67009 14.8112 2.22943 14.2445 2.28631 13.9594C2.3108 13.8348 2.49367 13.8622 2.55775 13.9378V13.9371Z" fill="white"/>
<path d="M39.3582 0.938037L38.5654 0.794749C38.7036 1.38444 39.6448 1.21956 39.0723 2.05838C38.8678 2.19879 38.0267 2.06126 38.1333 1.66021C38.4235 1.66237 38.7324 1.98422 38.9967 1.69621L38.2089 1.22028L38.4177 0.611146C38.5553 0.519704 39.4007 0.603949 39.3582 0.938037Z" fill="white"/>
<path d="M20.9653 2.09126C20.3979 2.21294 20.2697 1.71829 20.1732 1.27476L19.9557 1.22652L20.0169 2.1899L19.667 2.30798C19.7563 1.9739 19.6612 0.265295 20.3561 0.934911C20.426 1.00259 21.0143 2.04878 20.9646 2.09198L20.9653 2.09126Z" fill="white"/>
<path d="M37.9882 0.648358L37.3855 0.573478L37.3466 0.930604L37.8442 0.937807V1.22581L37.3718 1.17253C37.042 1.60814 37.4352 1.72478 37.8435 1.65926L37.8111 1.87815C37.7052 2.02863 37.0975 1.83783 36.916 1.79319L37.0499 0.360352C37.3502 0.407873 37.8406 0.340911 37.9875 0.648358H37.9882Z" fill="white"/>
<path d="M7.54985 4.97754C7.57649 5.26915 7.15668 5.43187 7.11635 5.66156C7.08755 5.82356 7.25031 5.79548 7.35545 5.7566C7.52683 5.69252 7.59161 5.41963 7.83789 5.48299C7.91349 5.75156 7.53619 5.86172 7.48723 6.03957C7.42818 6.25413 7.69893 6.4291 7.6226 6.67174C7.60747 6.77543 7.36265 6.71062 7.26976 6.59182C7.18335 6.48093 6.67495 5.6558 6.68071 5.5946C6.69439 5.43475 7.47568 4.90698 7.54985 4.97826V4.97754Z" fill="white"/>
<path d="M11.9501 2.95678L12.0178 3.64655L12.4549 4.32625L11.7341 4.54298C11.809 4.00008 11.549 3.59039 11.3027 3.1411L11.9501 2.95605V2.95678Z" fill="white"/>
<path d="M6.75698 7.06885C6.61801 7.47782 6.17081 7.57142 5.89214 7.86087C5.89934 7.5095 5.0266 6.87588 5.09789 6.60156L5.27936 6.48779L6.01312 7.27477C6.34797 7.37413 6.39044 6.84996 6.75624 7.06813L6.75698 7.06885Z" fill="white"/>
<path d="M58.4354 14.4963C58.4491 14.4963 58.4966 14.5799 58.5463 14.5403L58.7256 14.2091C58.8149 14.1817 58.9474 14.2271 58.9675 14.3214C58.9769 14.3639 58.853 15.0616 58.83 15.1782C58.7774 15.4417 58.6658 15.3337 58.4714 15.2884C58.5369 15.1595 58.6104 14.9096 58.4728 14.816C58.408 14.7721 57.2364 14.9795 57.3898 14.4956C57.7376 14.4956 58.0869 14.4956 58.4354 14.4956V14.4963Z" fill="white"/>
<path d="M34.9589 0.145483C34.7738 0.592613 34.7472 1.12398 34.8869 1.58695L34.4296 1.57688L34.3115 1.41199C34.4707 1.01742 34.5247 0.59765 34.3843 0.18292L34.5311 0.101562L34.9596 0.146203L34.9589 0.145483Z" fill="white"/>
<path d="M28.1069 0.108723L28.287 0L28.4605 0.120242C28.4224 0.48529 28.3115 0.861862 28.4764 1.21683L29.0705 1.22043L29.1165 1.4422H28.0349C28.0155 1.38964 28.1069 1.35579 28.1069 1.33419V0.108003V0.108723Z" fill="white"/>
<path d="M46.7157 16.4443C46.5558 16.7928 46.0914 16.8641 45.8516 16.5516C45.8487 16.3803 46.5767 16.4573 46.7157 16.4443Z" fill="white"/>
<path d="M38.7804 18.6071L38.7178 18.3644L38.9964 16.6602C39.036 17.3175 38.8481 17.9576 38.7797 18.6064L38.7804 18.6071Z" fill="white"/>
<path d="M51.4025 21.781C51.4335 21.9293 51.3291 21.948 51.2362 22.0107C51.108 22.0971 50.092 22.5564 50.0322 22.501L50.182 22.2548L51.4018 21.7803L51.4025 21.781Z" fill="white"/>
</svg>
