<svg width="38" height="36" viewBox="0 0 38 36" fill="none" xmlns="http://www.w3.org/2000/svg">
<path d="M22.9256 5.2899L23.7947 6.9603L25.7389 6.46781L31.0639 11.7965L30.5519 13.7182C30.9407 13.8579 31.3281 14.0746 31.6839 14.2863C31.8257 14.3713 32.2426 14.5779 32.27 14.7248L32.2628 22.1696L30.5533 23.1661L31.0632 25.064L25.7562 30.3697C25.659 30.4143 24.9656 30.217 24.8064 30.1731C24.4853 30.0838 24.1706 29.973 23.8567 29.8621C23.6262 30.217 23.4664 30.6102 23.2504 30.9752C23.1769 31.0998 22.9328 31.5577 22.8284 31.5778L15.2986 31.5793L14.3452 29.8628C14.1184 29.9204 13.906 30.0248 13.682 30.091C13.3861 30.1789 12.8619 30.3517 12.576 30.3819C12.517 30.3884 12.4702 30.3999 12.4219 30.351L7.13874 25.0633L7.64926 23.1438C7.36627 23.0178 7.0761 22.8881 6.80535 22.7369C6.63614 22.6426 6.12633 22.3669 6.01616 22.2567C5.97871 22.22 5.93262 22.2006 5.93262 22.135L5.93838 14.647C6.48276 14.2949 7.03648 13.9385 7.64926 13.7153L7.12721 11.7613L12.4882 6.44981L14.3423 6.95741L15.3 5.28125L22.9242 5.28846L22.9256 5.2899ZM22.5965 5.82485L15.6622 5.81621C15.5686 5.83421 15.3735 6.20933 15.3072 6.32165C15.1431 6.59957 15.0005 6.89477 14.8687 7.18925L15.3562 7.43693C15.4145 7.40885 15.7465 6.62118 15.8682 6.47358C15.9027 6.43182 15.9294 6.39366 15.9906 6.39078L22.1767 6.3879L22.2977 6.43037C23.7235 8.89925 24.2498 12.3639 21.6345 14.246C21.551 14.3065 21.1636 14.516 21.1485 14.5397C21.0765 14.6528 21.317 14.9156 21.3595 15.0351C22.8644 14.3648 23.9352 12.6742 24.0403 11.0405C24.1562 9.23117 23.5557 7.33758 22.5965 5.82557V5.82485ZM21.0657 8.69981C21.2054 8.57525 21.3739 8.43054 21.5207 8.31534C21.6302 8.22966 22.2991 7.80054 22.3143 7.75446C22.3431 7.6659 22.0392 6.96245 21.8887 6.92141L16.319 6.92286C16.1253 6.9603 15.9798 7.53125 15.8531 7.68821C15.8408 7.73789 15.8812 7.75445 15.9078 7.78253C16.0525 7.93517 16.5004 8.17781 16.7035 8.33837C18.001 9.36941 18.9206 10.6748 19.0833 12.3689L19.4318 11.0189C19.7739 10.1117 20.347 9.33989 21.0657 8.70053V8.69981ZM18.3438 14.4152C18.6599 13.3172 18.6304 12.1249 18.2012 11.0585C17.4603 9.21893 15.2648 7.78325 13.4207 7.23821C13.2608 7.19069 12.8396 7.05822 12.702 7.05102C12.6567 7.04886 12.6235 7.04381 12.5897 7.08197C11.1388 8.54933 9.67771 9.98717 8.24909 11.4675C8.13819 11.582 7.76664 11.8441 7.74503 11.9881C7.69607 12.3193 8.11444 13.1069 8.14684 13.4749L8.63936 13.3323C8.73729 13.238 8.53713 12.8427 8.49464 12.6958C8.46008 12.5749 8.33191 12.2098 8.37007 12.1241L12.8691 7.6659C14.7413 8.16702 16.9519 9.43854 17.6972 11.3163C18.068 12.2516 18.063 13.3049 17.8095 14.2669L18.3438 14.4145V14.4152ZM25.6237 7.09781C25.5784 7.05389 25.5287 7.05605 25.4711 7.06253C25.0275 7.11293 24.5127 7.35773 24.0777 7.47581L24.0482 7.51397L24.203 8.02806C24.2498 8.06262 25.111 7.69181 25.3083 7.67525C25.3487 7.67165 25.3782 7.65798 25.412 7.69686L29.7937 12.086C29.8714 12.176 29.8189 12.3027 29.7944 12.4107C29.7281 12.7045 29.5856 13.0249 29.4869 13.3107L30.0212 13.4583C30.112 13.3935 30.4943 12.0593 30.4511 11.9614L25.6252 7.09781H25.6237ZM13.834 8.56518C13.8109 8.52918 13.1053 8.28798 13.0297 8.27934C12.9836 8.2743 12.9497 8.27502 12.9152 8.3103L8.98428 12.2883L9.21471 13.1422C9.71156 13.1206 10.2041 12.9694 10.7038 12.9399C12.2109 12.8513 13.6561 13.1905 14.8219 14.1704L14.1594 13.0925C13.4531 11.6799 13.52 10.0729 13.8347 8.56446L13.834 8.56518ZM28.0367 16.4895C28.4875 16.0582 28.8734 15.5139 29.2392 15.0106C29.2385 14.9516 28.7611 14.7709 28.6466 14.8681C28.5321 14.9653 28.337 15.3159 28.2145 15.4599C24.8136 19.4782 19.0358 16.2821 20.3715 11.6727C20.7157 10.4854 21.6216 9.55806 22.6261 8.88918L22.6865 8.78478L22.5433 8.27358C21.1017 9.15918 19.8012 10.6287 19.6558 12.3898C19.2727 17.0439 24.6675 19.7101 28.036 16.4895H28.0367ZM23.3836 14.1711C24.9548 12.8463 26.981 12.7426 28.926 13.1422C28.998 13.1192 29.2046 12.5165 29.2241 12.4107C29.2349 12.3538 29.2529 12.3135 29.2025 12.2653L25.201 8.28293L24.3694 8.58678C24.6783 10.0844 24.7323 11.6209 24.0677 13.0328L23.3836 14.1711ZM19.7379 15.5629L19.493 15.0502C17.7994 15.1676 16.1346 14.3439 15.2936 12.8614C14.7427 11.8901 14.6476 10.9081 14.742 9.81007C14.7614 9.58614 14.8406 9.34782 14.8579 9.12102L14.3928 8.80709C14.3085 8.81213 14.176 9.84389 14.1681 9.97349C14.0925 11.1701 14.2523 12.2422 14.8882 13.2668C15.9013 14.899 17.8181 15.8357 19.7386 15.5636L19.7379 15.5629ZM15.3555 9.46086C15.2403 10.2169 15.1999 11.0139 15.4167 11.7541C15.7054 12.7419 16.373 13.5382 17.2601 14.0465C17.6482 13.04 17.4372 11.7857 16.8633 10.8807C16.5846 10.4401 15.9402 9.77766 15.5002 9.49974C15.4498 9.46806 15.4203 9.44718 15.3555 9.46014V9.46086ZM22.85 9.46086C22.7859 9.3939 22.1969 9.89503 22.1127 9.97206C20.9533 11.0391 20.4903 12.4532 20.8849 14.0069C21.0117 14.1171 21.8318 13.3827 21.9506 13.2502C22.9098 12.1861 23.079 10.8397 22.8507 9.46086H22.85ZM14.7643 14.8436C13.4336 13.5749 11.8473 13.3157 10.0622 13.5685C8.79491 13.7485 7.59311 14.2431 6.51588 14.9163L6.5137 21.9457C7.76591 22.6973 9.11462 23.2107 10.5829 23.3439C12.2959 23.4994 13.924 23.0034 15.066 21.6843C15.1704 21.5634 15.6471 20.924 15.6745 20.8153C15.7263 20.6093 15.3994 20.5208 15.2496 20.4452C14.5713 21.6793 13.3818 22.5692 11.969 22.765C10.7326 22.9364 9.21471 22.6174 8.07627 22.1228C7.92362 22.0566 7.14738 21.6836 7.08041 21.6037C7.04801 21.5648 7.03145 21.536 7.03649 21.4834L7.05952 15.2756C8.60048 14.2841 10.9544 13.6793 12.7431 14.2618C14.6577 14.8853 15.8768 16.8135 15.7278 18.8129L16.2549 19.0434C16.4478 17.5184 15.8703 15.8969 14.7636 14.8421L14.7643 14.8436ZM31.6889 14.9163C29.0124 13.2128 24.9526 12.5929 22.8572 15.5089C22.778 15.6183 22.482 16.0525 22.4806 16.1554L22.9465 16.3794C23.375 15.6637 23.9366 15.0322 24.666 14.6146C26.6038 13.5037 29.2565 14.1538 31.084 15.2151L31.1265 15.3361L31.1165 21.5561C31.0797 21.6764 30.3928 21.9997 30.238 22.0702C28.7272 22.7578 26.6844 23.1265 25.1168 22.4518C23.3749 21.7023 22.3373 19.9448 22.4756 18.0483L21.9694 17.7761C21.5452 20.4322 23.5434 23.0026 26.1933 23.341C26.7643 23.4138 27.4131 23.3713 27.9848 23.2993C29.2889 23.1351 30.5303 22.6484 31.6385 21.9558L31.6997 21.7714L31.6889 14.917V14.9163ZM19.2871 14.4987L19.0826 13.5159L18.9184 14.4987H19.2871ZM14.0709 15.7004C13.0289 14.6427 11.6716 14.4641 10.2545 14.6614C10.194 14.6701 10.1522 14.6607 10.1126 14.7233C11.1279 16.2598 12.8489 17.1641 14.6995 16.6277C14.7657 16.532 14.1796 15.8113 14.0709 15.7004ZM23.5067 16.627C25.3551 17.1814 27.0711 16.2418 28.0929 14.7233C28.0929 14.6679 27.74 14.6305 27.6637 14.6211C26.4187 14.4685 25.0973 14.7471 24.1807 15.6428C24.0597 15.7609 23.4289 16.5125 23.5074 16.6263L23.5067 16.627ZM9.53084 14.8335C9.46171 14.7932 8.97132 14.9429 8.96627 15.0099C9.54953 15.866 10.2206 16.7026 11.1351 17.2225C12.1936 17.8244 13.3789 18.0137 14.5785 17.797C14.6556 17.7833 15.0689 17.6833 15.0927 17.653L14.922 17.1238C12.7452 17.8273 10.6671 16.6818 9.53084 14.8328V14.8335ZM16.3643 15.6305C16.3874 15.6068 16.463 15.5096 16.4421 15.4808L15.6421 14.9487C15.5917 15.0099 16.1353 15.6111 16.1339 15.7674C16.1663 15.7904 16.3348 15.6608 16.3643 15.6298V15.6305ZM22.6045 14.9494L21.829 15.4225L21.7476 15.5607C21.8837 15.5816 21.8909 15.8113 22.0673 15.763L22.6045 14.9494ZM8.46873 15.2C8.39888 15.1561 7.71841 15.4707 7.65432 15.5427C7.62048 15.5809 7.60821 15.6125 7.61181 15.6637L7.61326 21.2681L8.40752 21.6598C9.39617 20.1917 10.5368 19.003 12.3161 18.5653C12.499 18.5206 12.702 18.5156 12.877 18.4709C12.9339 18.4565 13.0045 18.4709 13.0203 18.3896C11.0358 18.224 9.43651 16.8574 8.46873 15.2ZM30.5829 21.289L30.5915 15.6248C30.5915 15.5722 30.562 15.5549 30.526 15.5269C30.4468 15.4657 29.8326 15.177 29.7591 15.1921C28.7474 16.8402 27.1863 18.2089 25.1852 18.4097C25.4034 18.5249 25.69 18.512 25.924 18.5725C27.6601 19.0196 28.8187 20.1946 29.7728 21.6483L30.5829 21.289ZM17.1305 16.3966C17.2659 16.257 17.4156 16.123 17.5251 15.9524C17.5251 15.9157 17.1067 15.771 17.0498 15.7688C16.8993 15.7623 16.5544 16.2102 16.4284 16.3268L16.5847 16.8329C16.6776 16.897 17.0513 16.4794 17.1312 16.3966H17.1305ZM20.2455 16.3246C20.1749 16.244 20.1555 16.1165 20.0446 16.0957C19.4109 16.1425 18.7658 16.1799 18.1371 16.0777C17.7346 16.5853 17.2867 17.0597 16.7654 17.4478C16.7186 17.5421 16.823 17.859 16.8302 17.9986C16.8561 18.4616 16.8259 18.931 16.751 19.3861C17.2795 19.7749 17.7339 20.2321 18.1263 20.7591C18.778 20.672 19.4261 20.6475 20.0763 20.7663C20.4378 20.2544 20.8763 19.7857 21.407 19.4451C21.3738 18.7755 21.3501 18.1037 21.4164 17.4349C20.9642 17.1296 20.5998 16.7314 20.2448 16.3246H20.2455ZM15.1906 18.2254L14.2077 18.4097L15.1906 18.6351V18.2254ZM23.9971 18.3896L23.0142 18.2254V18.6344C23.2893 18.5537 23.573 18.5235 23.8531 18.4702C23.9128 18.4587 23.9798 18.4702 23.9971 18.3889V18.3896ZM17.5258 20.9283C17.5546 20.8974 17.376 20.6814 17.3422 20.641C16.6495 19.8231 15.4405 19.1672 14.3812 19.0145C12.0223 18.6754 10.1544 19.9045 8.96627 21.8499L9.49698 22.0155C9.98807 21.4035 10.4525 20.7541 11.107 20.3048C12.9944 19.0088 15.5045 19.3681 16.9814 21.086L17.5258 20.9276V20.9283ZM28.3153 20.6655C27.2489 19.5049 25.8721 18.8662 24.2621 18.9605C24.0914 18.9706 23.1337 19.0973 23.1028 19.2327L23.246 19.7029C24.0842 19.5056 24.9195 19.4487 25.7591 19.6798C27.0559 20.0362 27.9488 20.9629 28.6941 22.0306L29.2399 21.8506C28.9714 21.4251 28.6538 21.0341 28.3161 20.6662L28.3153 20.6655ZM21.7353 20.5928C21.7944 20.492 21.6021 19.9873 21.5604 19.9873C21.4336 20.0672 20.6106 20.8354 20.6797 20.9276L21.2147 21.0766C21.3595 20.9485 21.4826 20.7958 21.6216 20.6605C21.6532 20.6295 21.726 20.6086 21.7353 20.5928ZM14.2725 20.911C14.4331 20.7188 14.6088 20.4869 14.6988 20.2544C14.6808 20.1694 14.019 20.0766 13.9002 20.0686C12.2779 19.9599 10.9537 20.8297 10.1119 22.1566C10.9443 22.2927 11.7688 22.328 12.5782 22.0638C13.2248 21.8521 13.839 21.4309 14.2725 20.911ZM28.0525 22.1566C28.0878 22.1062 27.8876 21.8636 27.8466 21.8103C26.9667 20.6525 25.7238 19.9491 24.2282 20.0737C24.113 20.083 23.5333 20.1709 23.5074 20.2565C23.4592 20.4164 24.1562 21.1673 24.3038 21.2984C25.3486 22.2236 26.7074 22.431 28.0525 22.1566ZM22.6045 21.9111L22.0104 21.0521L21.744 21.3581L22.6045 21.9111ZM16.4608 21.3783C16.4774 21.3546 16.2613 21.0457 16.1591 21.0954L15.6421 21.8708L16.4608 21.3783ZM19.0336 21.2264C16.9764 21.2523 15.1071 22.5908 14.4244 24.524C13.857 26.1325 14.2531 28.2781 14.9378 29.8023C15.0264 29.9989 15.524 30.9932 15.6702 31.0357H22.5353C22.6181 31.0112 23.0502 30.2415 23.1186 30.104C23.8307 28.6798 24.2765 26.6502 23.9208 25.0798C23.4117 22.8327 21.3515 21.1961 19.0336 21.2257V21.2264ZM14.7809 22.7305C14.5641 22.8385 14.3877 23.0098 14.1796 23.1322C12.9742 23.8414 11.7278 24.0214 10.3424 23.8724C9.98448 23.8342 9.62874 23.7406 9.27519 23.678L8.97134 24.5442L13.0023 28.5474C13.1067 28.5618 13.8088 28.327 13.8354 28.2327C13.5294 26.8122 13.4523 25.2778 14.0788 23.9314L14.7816 22.7305H14.7809ZM28.9505 23.6737C27.3425 24.0445 25.6093 24.0675 24.149 23.2143L23.3836 22.7312C23.6716 23.12 23.9323 23.5268 24.1281 23.9725C24.6163 25.087 24.666 26.1339 24.5256 27.3327C24.4975 27.5739 24.3701 27.9627 24.3687 28.1629C24.3687 28.2097 24.3672 28.2478 24.4039 28.2831C24.6034 28.363 25.1067 28.615 25.291 28.507L29.2039 24.5945C29.3033 24.4246 28.9994 23.8745 28.9519 23.6729L28.9505 23.6737ZM8.6768 23.5102L8.14902 23.3893L7.73638 24.8394L12.6113 29.7548C12.8266 29.8542 13.8405 29.4272 14.1206 29.361L13.9773 28.8303C13.6907 28.8836 13.4242 29.0319 13.1427 29.1003C13.0239 29.1291 12.8532 29.1939 12.7517 29.1234L8.38807 24.7602C8.34991 24.7263 8.35567 24.6925 8.35783 24.6478C8.36576 24.4649 8.72649 23.5685 8.6768 23.5117V23.5102ZM24.0864 29.3588C24.1238 29.42 25.3184 29.7641 25.4574 29.7735C25.5056 29.7764 25.5503 29.7829 25.5935 29.7548L30.4302 24.9243C30.4777 24.8768 30.4698 24.8293 30.4619 24.7695C30.4417 24.6147 30.3265 24.2612 30.2747 24.092C30.243 23.989 30.0659 23.4361 30.0198 23.4037C29.9413 23.3482 29.4948 23.5311 29.4912 23.5685L29.8412 24.6428C29.8448 24.7278 29.7137 24.8509 29.6511 24.9222C29.2551 25.3664 28.7474 25.8258 28.319 26.2534L25.4711 29.0974C25.4156 29.145 25.3696 29.1529 25.299 29.1507C25.0714 29.1442 24.3146 28.8073 24.2268 28.8346C24.149 28.9225 24.0324 29.271 24.0857 29.3581L24.0864 29.3588Z" fill="white"/>
<path d="M1.71497 13.9669L3.45682 15.2362C3.53243 15.3579 3.29983 15.8518 3.26527 16.0081L0.0328546 16.0765C-0.0175505 16.0426 0.00334425 16.016 0.0098249 15.9721C0.0213461 15.8921 0.188403 15.3658 0.225847 15.3565L2.4516 15.3169L0.645655 13.987L0.811996 13.37L3.06655 13.3102C3.08239 13.2339 3.02837 13.2109 2.98157 13.1705C2.47752 12.7313 1.76105 12.3973 1.24116 11.9588L1.4075 11.3446C1.4471 11.2856 1.61847 11.4173 1.67032 11.4505C2.32414 11.8724 3.44385 12.5974 4.00479 13.0885C4.04079 13.1201 4.10848 13.1583 4.11568 13.2065L3.86007 13.9193L1.71497 13.9661V13.9669Z" fill="white"/>
<path d="M29.0355 5.07895L31.0266 4.21856C31.1461 4.19552 31.5356 4.45904 31.5349 4.56632L29.8125 7.08488L29.2509 6.69681L30.2647 5.20209C30.0077 5.22585 28.7648 5.92496 28.6287 5.87816C28.5639 5.85584 28.3875 5.71041 28.3839 5.63481L28.4832 4.01409L27.4183 5.44544L26.9229 5.03576L28.7288 2.53809C28.8411 2.62377 29.132 2.75624 29.158 2.888L29.0363 5.07823L29.0355 5.07895Z" fill="white"/>
<path d="M34.3191 10.8936C34.4214 10.9706 35.7023 10.0663 35.9328 9.99577C36.0055 10.0793 36.3195 10.5293 36.2676 10.6078L33.6077 12.1666L33.3362 11.6561L34.1139 9.41977L32.5355 10.3219C32.4671 10.3334 32.4843 10.3011 32.4627 10.2701C32.3497 10.1117 32.2791 9.91873 32.1553 9.76681L34.8246 8.15186L35.1278 8.65441L34.3184 10.8936H34.3191Z" fill="white"/>
<path d="M4.33566 9.0111L4.36157 9.1371L5.76427 10.2121L5.3459 10.7283L2.89984 8.9031C2.86887 8.76126 3.1497 8.53518 3.2181 8.39694C3.63718 8.36238 4.06131 8.37821 4.48111 8.35805C4.57832 8.35373 4.66762 8.31774 4.76411 8.31342C4.91749 8.30694 5.55401 8.36382 5.60514 8.25294L4.18946 7.16933L4.1909 7.08726L4.56536 6.59766L7.07049 8.45742L6.69171 8.92903L4.33636 9.0111H4.33566Z" fill="white"/>
<path d="M13.9929 0.665968C16.4282 0.357088 16.565 3.64389 14.4696 3.88653C12.0732 4.16445 11.8954 0.932369 13.9929 0.665968ZM15.2466 2.273C15.2466 1.71788 14.7965 1.2686 14.2421 1.2686C13.6876 1.2686 13.2376 1.7186 13.2376 2.273C13.2376 2.8274 13.6876 3.27739 14.2421 3.27739C14.7965 3.27739 15.2466 2.8274 15.2466 2.273Z" fill="white"/>
<path d="M26.4958 4.87354L25.8211 4.58554C25.6548 4.32418 25.7145 3.66753 25.4596 3.51345C25.4028 3.47961 24.9678 3.30969 24.9376 3.33417L24.5848 4.09161L23.959 3.82449L25.1291 0.97905C25.2011 0.96393 25.955 1.27426 26.0854 1.33114C26.4627 1.49602 26.8559 1.64217 27.11 1.98561C27.6112 2.66313 27.1064 3.64594 26.2892 3.70498L26.2546 3.74961L26.4958 4.87282V4.87354ZM25.6144 1.77105C25.5216 1.77825 25.2314 2.61417 25.1882 2.75817C25.5424 3.01521 26.3914 3.33201 26.5585 2.70417C26.727 2.06769 26.0407 1.98273 25.6144 1.77105Z" fill="white"/>
<path d="M32.5654 8.22475L31.6365 7.20954L31.1425 7.65954L31.1634 7.76322L32.2262 8.91666C32.2593 9.0441 31.9317 9.24714 31.841 9.32994L30.2266 7.59259L32.497 5.4873L34.0754 7.18866L33.6851 7.57747C33.6066 7.57747 32.8224 6.56657 32.6215 6.42905C32.5783 6.39953 32.5776 6.37795 32.5186 6.40891C32.4509 6.44419 32.1016 6.77034 32.1139 6.85242C32.1391 7.01946 33.0111 7.76969 33.0111 7.88561C32.9564 7.99937 32.7007 8.30395 32.5661 8.22619L32.5654 8.22475Z" fill="white"/>
<path d="M9.00496 5.97989L9.33332 6.4083L7.51444 7.9851L5.47949 5.63572L7.18246 4.13525C7.2559 4.13525 7.58643 4.47149 7.55258 4.54709L6.38679 5.6667L6.81307 6.10302L7.88453 5.20444C7.95509 5.19148 8.27483 5.55509 8.24963 5.61053L7.20264 6.53358C7.19616 6.55878 7.446 6.85685 7.48849 6.90221C7.54825 6.96557 7.65413 7.10885 7.73478 7.06709L9.00426 5.97989H9.00496Z" fill="white"/>
<path d="M35.4962 16.0024C35.5394 15.9534 35.5279 15.9153 35.5214 15.8584C35.5041 15.7115 35.2514 14.6589 35.1988 14.5825C35.0966 14.4349 34.6573 14.5062 34.4838 14.3961L34.3203 13.7207L37.6593 14.3334L37.8242 15.0304L35.2067 17.045L35.1182 17.0385L34.9734 16.4041C34.995 16.2601 35.4083 16.1032 35.4969 16.0024H35.4962ZM35.9988 15.5639L37.0213 14.8475C36.9824 14.7806 36.9342 14.7978 36.8788 14.7856C36.5403 14.7121 36.1738 14.715 35.8339 14.6409C35.7821 14.6783 35.7943 14.7021 35.8008 14.7554C35.8332 15.0009 35.9808 15.304 35.9981 15.5639H35.9988Z" fill="white"/>
<path d="M23.751 3.72667L23.0231 3.5949C22.9474 3.44514 22.9417 2.99298 22.8265 2.9109C22.6141 2.76042 21.7528 2.75681 21.4677 2.62937L21.0198 3.2313L20.3105 3.1125L22.2634 0.292969C22.4319 0.346249 22.8848 0.324656 22.964 0.480176L23.751 3.72667ZM22.7271 2.29313L22.4614 1.06481L21.7853 2.10809C21.8011 2.18225 22.5917 2.29241 22.7271 2.29313Z" fill="white"/>
<path d="M10.2348 3.03027C9.918 3.01875 9.12592 3.27795 9.02439 3.60123C8.77236 4.40259 10.0764 3.76755 10.3824 3.73083C10.7936 3.68187 11.1587 3.75603 11.3365 4.16067C11.7002 4.98795 10.772 5.677 10.0714 5.87644C9.94825 5.91172 9.54214 6.00677 9.44205 5.97365C9.34196 5.94053 9.36067 5.52292 9.33475 5.40628C9.75671 5.37316 10.3983 5.23708 10.6619 4.86988C10.7691 4.72084 10.7958 4.489 10.6028 4.4026C10.1239 4.18732 9.02153 5.22988 8.46563 4.32772C7.86941 3.36076 9.25842 2.437 10.1146 2.47372L10.2348 3.02955V3.03027Z" fill="white"/>
<path d="M18.8768 0L18.8789 0.555118L17.2768 0.721425L17.32 1.51559L18.7947 1.43352L18.8185 1.96847L17.4021 2.08872L17.4431 3.23496L16.7468 3.27672L16.5186 0.202307L18.8768 0Z" fill="white"/>
<path d="M14.9798 33.3857L15.2325 34.8121C15.3089 34.8301 15.3118 34.7861 15.3485 34.7437C15.5011 34.5665 15.9929 33.7054 16.093 33.6442C16.2126 33.5708 16.7447 33.7709 16.9118 33.7882C16.9067 33.866 16.7807 33.812 16.7065 33.8487C16.659 33.8717 16.6424 33.9257 16.623 33.9697C16.5308 34.177 16.3364 35.1605 16.3091 35.4169C16.2997 35.5054 16.2752 35.648 16.3033 35.7279C16.3335 35.815 16.4812 35.7776 16.5028 35.8762L15.4788 35.6718C15.4954 35.5947 15.6235 35.6386 15.7006 35.5875C15.7359 35.5637 15.7575 35.5321 15.7683 35.4918L16.0923 33.871L14.8639 35.509L14.4549 33.5434L14.1258 35.0799C14.1258 35.1469 14.1481 35.2102 14.1884 35.2628C14.2388 35.329 14.3238 35.319 14.331 35.3852L13.7168 35.2419C13.9544 35.2052 13.9782 35.1735 14.0401 34.951C14.1337 34.6112 14.3051 33.8962 14.3303 33.5629C14.3346 33.5045 14.3461 33.3361 14.3252 33.3029C14.3029 33.2677 14.1596 33.2914 14.1675 33.2158L14.9798 33.3857Z" fill="white"/>
<path d="M28.093 31.3315C27.9785 31.4683 27.9922 31.5576 28.0563 31.716C28.1448 31.9371 28.6583 32.8961 28.7951 33.066C28.8217 33.0992 28.8404 33.1243 28.8808 33.1438C28.9492 33.1762 29.0716 33.1423 29.0759 33.2143L28.2982 33.583C28.507 33.2863 28.0851 32.9415 28.008 32.6441C27.9619 32.6103 27.4528 32.8824 27.3816 32.9335C27.3441 32.9602 27.3132 32.9667 27.3189 33.0235C27.3254 33.0905 27.725 33.7493 27.8042 33.7709C27.8763 33.7903 28.003 33.7011 28.0109 33.7875L27.1101 34.2382C27.3326 34.0207 27.2462 33.9444 27.1317 33.7054C26.925 33.2748 26.6464 32.8673 26.4325 32.4389L26.1279 32.3554L26.9877 31.9047C26.9927 32.0285 26.8516 32.0278 26.871 32.161C26.8768 32.1999 27.1799 32.7687 27.2138 32.8061C27.2757 32.8752 27.4975 32.7399 27.589 32.6895C27.6919 32.6326 27.9022 32.5462 27.8842 32.4252C27.8791 32.3907 27.5673 31.8449 27.5407 31.8233C27.4068 31.7117 27.2448 31.8348 27.234 31.8233V31.7419L28.0937 31.3323L28.093 31.3315Z" fill="white"/>
<path d="M32.1073 29.4469C32.5192 29.4779 32.9253 29.6355 33.3358 29.5902L32.867 30.0445C32.5415 30.0322 32.1455 29.8703 31.8344 29.8595C31.6853 29.8544 31.6018 29.8897 31.6954 30.0423C31.7163 30.0762 32.1203 30.4772 32.1491 30.4909C32.2628 30.5435 32.3248 30.4815 32.4349 30.4707C32.4846 30.5118 31.995 30.9272 31.9604 30.9596C31.9057 31.0115 31.91 31.149 31.8207 31.064L31.7826 30.8163L30.6153 29.6492C30.4756 29.5376 30.3935 29.6658 30.2646 29.6917C30.6528 29.349 31.3275 28.3035 31.9179 28.6326C32.2549 28.8205 32.2218 29.1294 32.1073 29.4462V29.4469ZM31.2785 28.9227C31.0999 28.9487 31.0013 29.1092 30.8796 29.2222L31.5492 29.8544C32.054 29.5887 31.7905 28.8493 31.2792 28.9235L31.2785 28.9227Z" fill="white"/>
<path d="M6.89327 28.6517C7.44485 29.1896 7.92225 29.7577 7.22522 30.4726C6.44898 31.2689 5.60144 30.4668 5.07291 29.8361C5.03402 29.79 4.97355 29.7699 4.99155 29.6928C5.08732 29.7447 5.18527 29.875 5.29976 29.7778L6.54906 28.4832L6.50732 28.3004C6.53685 28.2651 6.85295 28.6129 6.89327 28.6517ZM6.2373 29.5467C6.15953 29.628 5.64827 30.1544 5.65259 30.1983C6.11776 31.0544 7.37501 29.772 7.19427 29.1492C7.17267 29.0751 7.01065 28.8706 6.91416 28.8901C6.86807 28.8994 6.32298 29.4581 6.2373 29.5474V29.5467Z" fill="white"/>
<path d="M36.7514 11.6043L33.835 12.7974L34.1114 13.4731L37.0279 12.2801L36.7514 11.6043Z" fill="white"/>
<path d="M2.31561 9.87559L1.96875 10.5229L4.75771 12.017L5.10457 11.3696L2.31561 9.87559Z" fill="white"/>
<path d="M12.6058 33.2349C12.6058 33.8584 12.1003 34.3639 11.4767 34.3639C10.8532 34.3639 10.3477 33.8584 10.3477 33.2349C10.3477 32.6114 10.8532 32.106 11.4767 32.106C12.1003 32.106 12.6058 32.6114 12.6058 33.2349ZM11.6164 32.2816C11.0929 32.3853 10.4895 33.6856 10.9511 34.0751C11.5833 34.6094 12.2811 33.1687 12.1831 32.6805C12.132 32.4256 11.8786 32.2298 11.6172 32.2816H11.6164Z" fill="white"/>
<path d="M36.2438 20.847L35.8866 20.9601C34.6157 21.6815 35.9953 22.7183 36.9509 22.4742C37.2115 22.408 37.4772 21.9234 37.3397 21.675C37.1827 21.6405 36.8112 21.4821 36.6801 21.58C36.6283 21.6189 36.6621 21.7326 36.5721 21.747L36.8176 20.7642C36.94 20.8024 36.8644 20.9665 36.9393 21.0313C37.0553 21.1314 37.4815 21.1005 37.5139 21.2754C37.5751 21.6009 37.4672 22.1639 37.3015 22.4562C36.6297 23.6435 34.7208 22.7673 35.3638 21.297C35.4214 21.1653 35.6065 20.9709 35.6238 20.8967C35.6454 20.8053 35.5215 20.7419 35.5482 20.6411L36.2438 20.8463V20.847Z" fill="white"/>
<path d="M5.6474 28.1774C5.68772 27.9801 5.83031 27.9405 5.80871 27.7115C5.79791 27.6006 5.56027 27.147 5.46306 27.1492L4.78908 27.6295C4.92805 27.9405 5.17502 27.849 5.42129 27.7266L5.44217 27.8087L4.64362 28.3826L4.58315 28.3624C4.78261 28.1817 4.85677 27.9693 4.70483 27.7281C4.66739 27.7022 4.06036 28.1543 4.03012 28.2198C3.96459 28.361 4.20148 28.6238 4.31741 28.7102C4.55287 28.8851 4.76819 28.8902 5.0339 28.7922C5.05694 28.9017 5.00508 28.8628 4.95324 28.8938C4.82867 28.9679 4.57666 29.1522 4.44848 29.1213L3.4375 27.7274C3.54119 27.8058 3.59374 27.8347 3.72623 27.7915C3.80184 27.767 4.34551 27.3407 4.45784 27.2529C4.57953 27.1579 5.1052 26.7856 5.11888 26.6805C5.12968 26.5948 5.05047 26.5214 5.09655 26.458L6.0953 27.7562C6.13274 27.8951 5.76476 28.1111 5.64954 28.1774H5.6474Z" fill="white"/>
<path d="M36.4891 18.5525C35.9858 18.5525 35.8986 18.9917 35.9159 19.4122L36.7757 19.495L36.7123 19.2099L36.366 18.9629L37.3899 19.1062C37.1379 19.1587 36.8715 19.2207 36.8974 19.536L37.7521 19.6123C37.9552 19.1148 37.8162 18.7548 37.3892 18.4711L37.9976 18.6403L37.7982 20.436C37.7096 20.3892 37.7816 20.2539 37.6736 20.1725C37.4605 20.0112 36.2565 20.035 35.9325 19.9111C35.8914 19.9111 35.8288 19.9255 35.8014 19.9543C35.7373 20.0206 35.805 20.1775 35.6689 20.1487L35.9195 18.4337C35.9447 18.4179 36.4711 18.4553 36.4876 18.5511L36.4891 18.5525Z" fill="white"/>
<path d="M29.8905 30.0237L30.1814 30.5118C29.8372 30.1864 29.4325 30.3786 29.1654 30.6954L29.6737 31.3701C29.7565 31.3873 29.8422 31.2167 29.8523 31.1433C29.8775 30.9654 29.7839 30.8711 29.7918 30.7163L30.4269 31.5148C30.2916 31.5493 30.2159 31.3924 30.0762 31.3722C29.9661 31.3564 29.8746 31.3852 29.7724 31.4125C29.7227 31.4853 30.2131 32.1498 30.3247 32.1498C30.3758 32.1498 30.6271 31.9619 30.6739 31.9122C30.9195 31.6502 30.9022 31.4183 30.8381 31.0842L31.1621 31.6739L29.7321 32.7222C29.8703 32.5451 29.8696 32.5278 29.7652 32.3406C29.6809 32.1901 28.8003 31.0331 28.7189 31.0108C28.6599 30.9942 28.5677 31.0741 28.5439 30.9625L29.8912 30.0229L29.8905 30.0237Z" fill="white"/>
<path d="M21.5676 33.9652C22.0155 34.5009 21.2912 35.0185 20.7612 34.935L20.8432 35.7645L21.0888 35.876L20.1066 35.9992L20.3126 35.8494C20.3054 35.6881 20.3183 35.5261 20.3104 35.3649C20.2917 34.9883 20.2384 34.472 20.1844 34.0969C20.1772 34.0465 20.1649 33.9767 20.1196 33.9479C20.0361 33.8953 19.8884 33.9508 19.8604 33.8694C20.2852 33.8672 21.2645 33.6016 21.5676 33.9637V33.9652ZM21.0773 34.0048C20.9973 33.9104 20.6733 33.8507 20.6438 33.976L20.7209 34.8126C21.199 34.9408 21.2947 34.2618 21.0773 34.0055V34.0048Z" fill="white"/>
<path d="M1.83784 22.6895C1.89472 22.6975 1.948 22.6838 2.00344 22.6715C2.13449 22.6413 2.80705 22.4469 2.87762 22.3987C3.01371 22.3043 2.97193 22.0761 3.00578 22.0754L3.18942 22.7313C3.0742 22.6435 3.06627 22.5232 2.88697 22.529C2.30803 22.6298 1.69814 22.9307 1.13 23.0287C1.0796 23.0373 1.07815 23.0834 1.01911 22.9984L2.28788 21.135C1.91921 21.2891 1.22936 21.346 0.906772 21.5354C0.756277 21.6239 0.76635 21.7564 0.77211 21.9127L0.568359 21.2164C0.726775 21.3676 0.688595 21.449 0.947101 21.4115C1.39499 21.3475 1.94585 21.0667 2.40957 20.9889L2.6155 20.6426L2.77175 21.3482L1.83784 22.6895Z" fill="white"/>
<path d="M2.37025 19.1674C2.29105 19.1552 2.3299 19.0227 2.26942 18.9615C2.23053 18.9219 2.19671 18.9248 2.14703 18.919C1.75747 18.8729 1.10722 19.1134 0.68814 19.1033C0.258977 19.1847 0.325943 19.8975 0.68814 20.0098C0.811272 20.048 1.06619 20.0357 1.20372 20.03C1.36934 20.0228 2.30544 19.9133 2.36016 19.8147C2.40409 19.7355 2.30254 19.5857 2.45088 19.6189L2.49194 20.233C2.41994 20.2193 2.42354 20.1135 2.35225 20.0667C2.1888 19.9594 1.52127 20.1373 1.28364 20.1509C0.900563 20.174 0.544862 20.2128 0.3274 19.8377C0.159624 19.5483 0.142347 19.0133 0.387172 18.7628C0.693923 18.4481 1.70491 18.5367 2.13479 18.3905L2.2068 18.145C2.27232 18.145 2.27229 18.2854 2.28165 18.3358C2.33134 18.6022 2.35295 18.8974 2.36952 19.1689L2.37025 19.1674Z" fill="white"/>
<path d="M34.4005 25.3521C34.0736 25.2218 33.8338 25.3341 33.7078 25.6545L35.2099 26.6135C35.3726 26.6826 35.4122 26.5134 35.5476 26.4998L35.0356 27.3184L34.9744 27.0527L33.4723 26.1369C33.1476 26.3162 33.2261 26.6798 33.4587 26.9087L32.9697 26.6596L33.9505 25.0418C34.0066 25.0122 34.456 25.2873 34.4005 25.3521Z" fill="white"/>
<path d="M3.96635 24.4522L4.82541 26.1032L4.37825 26.3753C4.33937 26.3336 4.54315 26.1197 4.56403 26.0492C4.62812 25.8339 4.51361 25.7468 4.45817 25.5574L4.36672 25.5639L2.88336 26.4157C2.7271 26.5481 2.80848 26.5726 2.802 26.7433L2.29004 25.8425C2.36277 25.7705 2.39084 26.0413 2.60831 25.9801L4.15572 25.106C4.04843 24.7539 3.82811 24.6517 3.47816 24.7366C3.45584 24.6293 3.50047 24.6733 3.53719 24.6509C3.60488 24.6106 3.92315 24.4213 3.96779 24.4515L3.96635 24.4522Z" fill="white"/>
<path d="M10.316 32.068C10.2159 32.0191 10.321 31.8283 10.3153 31.7253C10.3038 31.5345 10.1172 31.3581 9.93363 31.3336L8.95435 32.8183C8.88811 32.9299 9.0026 33.0026 9.04725 33.0919L8.22852 32.5799C8.33869 32.5454 8.44596 32.6419 8.53237 32.5159L9.49223 31.0298C9.36406 30.8635 9.17612 30.803 8.97162 30.8671C8.86073 30.9023 8.82688 30.9967 8.71959 31.0031L9.02636 30.5625L10.545 31.5762L10.316 32.0673V32.068Z" fill="white"/>
<path d="M36.6732 23.7951C36.6984 23.7894 36.9468 23.5698 36.8979 23.7332L36.5292 24.5734H36.4478C36.6199 24.1818 36.2455 24.3013 35.9841 24.2854C35.9301 24.4309 35.6385 24.9111 35.6889 25.0227C35.709 25.0674 35.9034 25.2387 35.956 25.2539C36.1274 25.3035 36.1418 25.1869 36.2433 25.1063C36.1929 25.3064 36.1094 25.5793 35.9575 25.7204L35.8523 25.3547L34.5029 23.8779L34.544 23.7959H36.6739L36.6732 23.7951ZM35.8336 24.2869H35.0963C35.0782 24.3589 35.1265 24.369 35.1575 24.41C35.2043 24.4726 35.5369 24.86 35.5672 24.8593C35.6356 24.806 35.8567 24.3078 35.8336 24.2869Z" fill="white"/>
<path d="M24.014 33.2382C24.4201 33.6183 24.9782 34.5421 25.3743 34.8071C25.4376 34.8496 25.55 34.8229 25.5536 34.8935L24.6527 35.139L24.8104 34.9619L24.5289 34.5839L23.7908 34.7991C23.7455 34.9251 23.708 35.2456 23.86 35.296C23.9291 35.319 24.0724 35.2621 24.0781 35.3435L23.4229 35.5076C23.533 35.3867 23.5676 35.3413 23.6086 35.1822C23.7692 34.5623 23.7476 33.8351 23.8823 33.2029L23.9348 33.1338C23.9694 33.1619 23.9816 33.2079 24.0133 33.2382H24.014ZM23.9154 33.9114L23.8117 34.6076C23.8527 34.6688 23.87 34.6357 23.9161 34.6307C23.9701 34.6242 24.3338 34.5256 24.3662 34.5054C24.4317 34.4651 24.3719 34.4082 24.3424 34.3643C24.2437 34.2181 24.0544 34.0259 23.9154 33.9107V33.9114Z" fill="white"/>
<path d="M18.4675 36.0002L18.6742 35.8151L18.4797 35.3939C18.2781 35.3824 17.9929 35.2953 17.7992 35.3529C17.6912 35.3853 17.5847 35.6646 17.6127 35.7662C17.6459 35.8886 17.8151 35.8691 17.8525 35.9584L17.1973 35.8972C17.3492 35.8518 17.4104 35.7489 17.4925 35.6186C17.8331 35.0742 18.0434 34.373 18.4063 33.8301C18.708 34.3737 18.8527 35.0138 19.1163 35.5768C19.1566 35.6625 19.2156 35.8072 19.2675 35.8763C19.3193 35.9454 19.4021 35.9332 19.41 36.0002H18.4682H18.4675ZM17.8532 35.2629H18.4265L18.201 34.5659C18.0923 34.5659 17.8028 35.2111 17.8532 35.2629Z" fill="white"/>
<path d="M34.3598 28.2596L33.7053 29.1192C33.6938 29.0199 33.8011 28.9803 33.7708 28.8723C33.7024 28.6289 32.5992 27.9622 32.3825 27.7152C32.3436 27.6893 32.304 27.69 32.2594 27.6929C32.1283 27.7015 32.1766 27.8592 32.0664 27.7879L32.6799 27.0298C32.6453 27.1659 32.6201 27.2227 32.7209 27.3379C32.8218 27.4531 33.8507 28.2588 33.984 28.3265C34.1755 28.423 34.205 28.3913 34.3591 28.2588L34.3598 28.2596Z" fill="white"/>
<path d="M3.76318 24.0819C3.57812 23.8688 3.58675 23.8343 3.3016 23.9279C3.09926 23.9941 2.03066 24.4398 1.90537 24.5384C1.7556 24.6565 1.84203 24.7098 1.81754 24.8603L1.42871 23.9185C1.5252 23.9855 1.52375 24.0956 1.68432 24.0747L3.21806 23.4347C3.424 23.3504 3.32538 23.2194 3.33258 23.0581L3.76244 24.0819H3.76318Z" fill="white"/>
<path d="M18.9501 21.8006C21.0721 21.7236 23.0214 23.2565 23.4044 25.3502C23.6673 26.7888 23.2467 28.6392 22.5706 29.9251C22.5087 30.0432 22.3114 30.432 22.207 30.4622L15.9553 30.4644C15.2842 29.4478 14.8637 28.1849 14.7412 26.9688C14.4705 24.2861 16.1583 21.9014 18.9508 21.8006H18.9501ZM19.2864 22.3615H18.8766L19.0819 23.3436L19.2864 22.3615ZM18.3416 22.4465C18.2905 22.4026 17.8203 22.535 17.8088 22.5934C18.073 23.5805 18.0586 24.6122 17.677 25.5648C17.2658 26.593 16.4378 27.3619 15.5384 27.9725C15.4678 28.0891 15.5852 28.4297 15.6622 28.5456C15.8055 28.5766 17.0167 27.516 17.1809 27.3425C18.4043 26.0422 18.8694 24.1694 18.3416 22.4465ZM20.3902 22.5689L19.8574 22.4602C19.4117 23.8454 19.637 25.4266 20.4414 26.6333C20.8302 27.2165 21.4675 27.822 22.0342 28.2346C22.1155 28.2936 22.508 28.583 22.5627 28.5449C22.5814 28.4182 22.7384 28.0834 22.6779 27.9804C22.6534 27.9379 22.0133 27.5066 21.8887 27.3979C20.4457 26.1329 19.8466 24.4582 20.3909 22.5689H20.3902ZM15.354 27.3986C15.3843 27.4303 15.5175 27.3187 15.5542 27.2921C16.8266 26.3899 17.5841 25.0932 17.4372 23.4926C17.4286 23.399 17.3227 22.8166 17.2586 22.813C15.5852 23.7238 14.9811 25.5792 15.354 27.3986ZM22.8493 27.3994C22.9429 26.6534 22.9983 25.9075 22.8039 25.1717C22.544 24.1882 21.8275 23.3047 20.944 22.8137C20.5587 23.7713 20.7604 24.9982 21.2752 25.8809C21.5359 26.328 22.2675 27.0833 22.7038 27.3605C22.7542 27.3929 22.7838 27.4123 22.8486 27.4001L22.8493 27.3994ZM20.6977 27.7903C20.0511 27.1193 19.5593 26.346 19.2979 25.4424L19.0819 24.451C18.9343 25.9255 18.2041 27.1834 17.116 28.1575C16.7596 28.4765 16.2743 28.7393 15.9488 29.0388C15.9121 29.0726 15.848 29.1036 15.8624 29.1626L16.2556 29.9179L21.8282 29.9208C22.0277 29.9294 22.3539 29.1828 22.2991 29.0791C22.2732 29.0294 21.5272 28.5269 21.3969 28.4225C21.1643 28.2353 20.9036 28.0042 20.6977 27.7911V27.7903Z" fill="white"/>
</svg>
