<svg width="111" height="36" viewBox="0 0 111 36" fill="none" xmlns="http://www.w3.org/2000/svg">
<path d="M17.6853 8.45097L18.1455 6.35719C20.1862 -0.450459 29.2095 -2.31023 33.6343 3.46349C37.9951 9.15297 34.2543 17.3697 27.2271 17.9939L28.9546 18.3654C35.5793 20.2029 37.7215 28.7486 32.7386 33.5561C27.2717 38.8309 18.1275 34.9911 17.7969 27.5333L17.3368 29.627C15.358 36.0214 7.47678 38.1814 2.62418 33.3883C-2.82466 28.007 0.755576 18.4432 8.36969 18.1048C8.39849 17.9356 8.15653 17.9637 8.03123 17.9356C6.2296 17.5281 5.22941 17.3949 3.67764 16.2681C-2.03618 12.1208 -0.849478 3.04085 5.76084 0.560429C11.3724 -1.54559 17.3952 2.5462 17.6868 8.45169L17.6853 8.45097ZM12.6585 8.98233C12.6585 6.87704 10.9519 5.1699 8.84565 5.1699C6.73942 5.1699 5.03285 6.87632 5.03285 8.98233C5.03285 11.0883 6.73942 12.7948 8.84565 12.7948C10.9519 12.7948 12.6585 11.0883 12.6585 8.98233ZM30.443 8.98521C30.443 6.87848 28.7349 5.17062 26.628 5.17062C24.521 5.17062 22.813 6.87848 22.813 8.98521C22.813 11.0919 24.521 12.7998 26.628 12.7998C28.7349 12.7998 30.443 11.0919 30.443 8.98521ZM19.3185 14.0886C18.8684 13.4132 18.5919 12.65 18.2477 11.92L17.6853 9.4741C17.478 13.9712 13.8696 17.6426 9.39291 17.9939L11.322 18.3906C14.9138 19.4699 17.4751 22.7611 17.6853 26.5101L18.0094 24.9621C18.8886 21.2599 22.1268 18.2956 25.9763 18.1048C25.6681 17.7686 24.9732 17.8355 24.4987 17.7095C22.4832 17.1724 20.4785 15.8289 19.3185 14.0886ZM12.6635 27.0264C12.6635 24.9196 10.9555 23.2118 8.84853 23.2118C6.74158 23.2118 5.03356 24.9196 5.03356 27.0264C5.03356 29.1331 6.74158 30.841 8.84853 30.841C10.9555 30.841 12.6635 29.1331 12.6635 27.0264ZM30.4422 27.0235C30.4422 24.9175 28.7349 23.2104 26.6287 23.2104C24.5225 23.2104 22.8152 24.9175 22.8152 27.0235C22.8152 29.1295 24.5225 30.8366 26.6287 30.8366C28.7349 30.8366 30.4422 29.1295 30.4422 27.0235Z" fill="white"/>
<path d="M74.5944 16.7433H69.8232L67.0415 11.4038L65.5063 11.2915V16.5727L65.3357 16.7433H61.1325L60.9619 16.5727V0.387695H69.3112C69.6856 0.387695 70.9155 0.826178 71.2972 1.0141C75.0999 2.88899 75.1309 8.70232 71.4145 10.6744L74.593 16.7426L74.5944 16.7433ZM65.507 7.88367H67.3814C67.7191 7.88367 68.6927 7.55103 68.9728 7.31703C69.618 6.77702 69.6576 5.37085 69.1938 4.70845C68.9951 4.42476 68.0309 3.90852 67.722 3.90852H65.507V7.88367Z" fill="white"/>
<path d="M44.1514 35.0295V18.6738H51.8188C52.649 18.6738 54.5932 19.4716 55.3205 19.9432C59.021 22.3408 59.5639 28.3997 57.1934 31.8852C54.2901 36.1534 48.5669 34.8055 44.1514 35.0295ZM48.5813 31.1681H51.4782C51.6971 31.1681 52.7851 30.605 53.0026 30.4207C54.4816 29.1686 54.4701 24.9336 53.2359 23.5036C52.819 23.0212 51.6359 22.4222 51.0231 22.4222H48.5806V31.1681H48.5813Z" fill="white"/>
<path d="M48.5813 0.387695V6.74822H54.4881V0.387695H58.918V16.7433H54.4881V10.439L54.3174 10.269H48.7512L48.5813 10.439V16.7433H44.1514V0.387695H48.5813Z" fill="white"/>
<path d="M96.1769 35.0295H91.747V27.5897C91.747 27.5479 91.5497 27.0014 91.505 26.9229C90.9916 26.0273 89.5464 25.9077 88.8004 26.5737C88.6262 26.7293 88.2258 27.4147 88.2258 27.5897V35.0295H83.7959V22.7628H87.999V25.0344C88.3583 24.7845 88.421 24.3021 88.6809 23.9558C90.8109 21.1154 96.1776 22.9089 96.1776 26.4542V35.0295H96.1769Z" fill="white"/>
<path d="M80.3472 33.513C77.4575 36.4866 71.2763 35.6356 69.7368 31.538C67.6342 25.9436 72.0403 21.368 77.7758 22.8188C82.2856 23.96 83.3628 30.4098 80.3479 33.513H80.3472ZM75.1331 25.8572C73.263 26.336 73.2285 32.3185 75.8906 31.9585C78.1696 31.6504 78.2301 25.0645 75.1331 25.8572Z" fill="white"/>
<path d="M110.262 29.9189H102.197C102.244 31.495 103.202 32.2424 104.754 32.0768C105.762 31.9695 106.136 31.0544 106.23 31.0544H110.262C109.442 36.039 101.371 36.5624 98.9231 32.7946C97.1121 30.0075 97.5895 25.4894 100.458 23.5793C104.301 21.0189 110.262 23.3201 110.262 28.2715V29.9182V29.9189ZM106.173 27.4198C105.935 25.0999 102.493 25.1093 102.197 27.4198H106.173Z" fill="white"/>
<path d="M69.0285 26.5112C68.042 26.2657 66.7264 26.0648 65.8868 26.7776C65.719 26.9202 65.166 27.7417 65.166 27.9311V34.8597L64.9953 35.0303H60.7354V22.7636H65.0522C64.96 23.1805 65.0558 23.6226 65.0508 24.069C65.0472 24.3851 64.7548 24.7602 65.1091 25.0345C65.4302 23.2345 67.3197 21.9514 69.0278 22.8205V26.512L69.0285 26.5112Z" fill="white"/>
</svg>
