<svg width="37" height="36" viewBox="0 0 37 36" fill="none" xmlns="http://www.w3.org/2000/svg">
<path d="M36.2786 16.8046V19.0157L36.1353 20.4442C35.066 28.1461 29.0073 34.4159 21.3435 35.7601L19.8155 35.9783C18.7152 35.9271 17.5538 36.0467 16.4607 35.9783C13.1138 35.7687 9.35641 34.1286 6.76054 32.0391C-3.38749 23.8714 -1.85085 7.97448 9.62428 1.8739C10.9687 1.15894 13.4529 0.155976 14.955 0.0472557C17.0338 -0.102505 19.2913 0.161736 21.3889 0.0494159C29.4458 1.41742 35.9193 8.62033 36.2786 16.8046ZM35.7933 17.9012C35.7933 8.166 27.8926 0.274056 18.1471 0.274056C8.40158 0.274056 0.500905 8.166 0.500905 17.9012C0.500905 27.6363 8.40158 35.5283 18.1471 35.5283C27.8926 35.5283 35.7933 27.6363 35.7933 17.9012Z" fill="white"/>
<path d="M18.7097 5.47344C18.9034 5.43312 19.0344 5.58144 19.2137 5.6088C19.3002 5.62176 19.4125 5.59368 19.4809 5.61096C19.5169 5.62032 19.514 5.69376 19.5608 5.71032C19.6436 5.73912 19.7675 5.69448 19.8611 5.72256C19.9324 5.74344 19.9727 5.86296 20.0735 5.87232C20.2557 5.8896 20.4235 5.7528 20.6114 5.81904C20.597 5.38488 20.4098 5.63616 20.2485 5.64984C20.1189 5.66064 19.959 5.57928 19.8157 5.6124L19.8179 5.5116C20.1837 5.47128 20.5718 5.34384 20.9383 5.33448C21.2501 5.32728 21.59 5.43888 21.8802 5.42664C22.0314 5.42016 22.156 5.33592 22.323 5.33304C22.5268 5.32944 22.7832 5.4072 22.9805 5.4072C23.1612 5.4072 23.3578 5.29128 23.5378 5.26968C23.748 5.2452 24.4537 5.27472 24.6726 5.30352C24.8757 5.33016 25.0888 5.49072 25.2984 5.50872C25.4964 5.52528 25.6253 5.4324 25.8176 5.43672C26.0098 5.44104 26.2475 5.49144 26.4397 5.508C26.5549 5.51736 26.7609 5.46912 26.8393 5.55768C26.8861 5.61096 27.0359 6.18408 27.064 6.30072C27.244 7.04736 27.3564 7.89624 27.8114 8.56009C27.967 8.78689 28.1931 8.93665 28.3371 9.20953C28.6518 9.80353 29.0709 11.4163 29.1508 12.0939C29.2019 12.5287 29.0946 12.9924 29.1126 13.4302L28.6417 13.8168C28.7389 13.9435 28.826 14.0789 28.8793 14.2301C28.9535 14.4403 29.1335 15.1906 29.1551 15.4059C29.194 15.7968 29.0248 17.2887 28.9449 17.7185C28.9305 17.7963 28.8563 18.0461 28.826 18.1181C28.7785 18.2319 28.6345 18.3816 28.6158 18.4961C28.5934 18.6344 28.6871 18.8309 28.7007 18.9684C28.7346 19.2996 28.4876 19.898 28.2723 20.1572C28.0253 20.4552 27.6638 20.7274 27.4536 21.0665C27.2764 21.3516 27.0381 21.9298 26.9142 22.2553C26.8134 22.5202 26.758 22.9825 26.5607 23.1805C26.4102 23.3309 26.179 23.4217 26.0242 23.5426C25.909 23.6326 25.7167 23.9163 25.5734 23.9091C25.531 23.9069 25.1608 23.6953 25.0737 23.6621C24.9866 23.629 24.8613 23.6297 24.7381 23.5829C24.3939 23.4526 23.1281 22.6837 22.8832 22.7463C22.8681 22.7499 22.745 22.9162 22.6211 22.8903L22.6845 23.1769L22.5484 23.318C22.606 23.4173 22.7313 23.4166 22.8091 23.4728C22.8919 23.5325 22.9855 23.7039 23.123 23.7471L23.1691 23.75L23.2224 23.6477L23.4427 23.7701C23.442 24.0581 23.3441 24.0459 23.1864 24.1978C23.1346 24.2482 23.0734 24.3699 23.033 24.3901C22.9315 24.4405 22.8595 24.3793 22.7731 24.3793C22.5319 24.3793 22.5751 24.3634 22.3713 24.3253C22.0256 24.2605 21.6973 24.2475 21.4078 24.0099C21.4064 23.9782 21.8233 23.8904 21.8737 23.8889C21.9529 23.8868 22.2258 23.8825 22.2856 23.8889C22.4037 23.9026 22.6154 24.1208 22.6521 23.8889C22.5844 23.8796 22.5038 23.8321 22.5139 23.75L22.7335 23.7817C22.9754 23.5405 22.3655 23.5117 22.2683 23.39C22.1891 23.2906 22.2539 23.1747 22.3749 23.1617C22.3245 22.9025 21.9126 23.0415 21.7693 23.1617C21.6785 23.2373 21.6282 23.4476 21.4784 23.2791C21.5043 23.1603 21.5252 23.0732 21.4755 22.9551C21.3567 22.9328 21.3178 23.0617 21.2098 23.0861C21.0247 23.1279 20.8713 23.0278 20.8857 23.3518C20.8922 23.4865 21.0614 23.6197 20.9577 23.7327C20.9261 23.7665 20.5775 23.9343 20.4897 23.9905C19.8776 24.3836 19.2065 24.8357 18.629 25.2757C18.2157 25.591 17.8478 25.9388 17.4647 26.288C17.4632 26.3341 17.9716 26.8777 17.9817 27.0497C17.9875 27.1462 17.9313 27.4097 17.8744 27.4918C17.8175 27.5739 17.7448 27.5883 17.6879 27.6509C17.4668 27.8936 17.2782 28.1341 16.9116 28.1701L16.9354 28.0664C17.132 28.0182 17.5791 27.5105 17.5568 27.3226C17.5532 27.2945 17.4834 27.2456 17.4625 27.1873C17.4172 27.0577 17.3156 26.5249 17.0852 26.6314C16.9808 26.6797 16.3817 27.4767 16.2816 27.6265C16.1253 27.8605 16.0123 28.1139 15.8646 28.353C15.8114 28.4494 15.9561 28.5099 15.9734 28.574C15.9928 28.6482 15.9115 28.705 15.9107 28.7734C15.91 28.8512 16.0022 28.9333 16.0144 29.0132C15.8351 29.0283 15.8603 29.5892 15.6364 29.3559C15.4304 29.1421 15.2648 28.363 15.1482 28.047C15.0042 27.6574 14.8205 27.3176 14.6974 26.9079C14.6319 26.689 14.6276 26.4579 14.5246 26.2513C14.4699 26.1987 13.9025 26.1202 13.7757 26.1015C12.8007 25.9561 11.0272 25.7998 10.3049 25.1122C10.2164 25.028 9.77139 24.4361 9.78651 24.3519C9.81531 24.1985 10.1293 24.4981 10.1912 24.5341C10.8256 24.9027 12.3989 24.6514 12.9181 24.128C13.3149 23.7284 13.1874 23.1754 13.4229 22.6973C13.6267 22.2855 13.9363 22.135 14.2135 21.8283C14.4908 21.5216 14.8537 20.2169 15.0719 19.7496C15.29 19.2824 15.6169 18.7265 16.0115 18.373C16.5941 17.851 18.1401 17.4629 17.7081 16.4031C17.5856 16.1028 17.2501 16.123 17.2998 15.8256C17.3408 15.5772 17.4596 15.4865 17.4316 15.1589C17.4193 15.0135 17.2055 14.5728 17.2393 14.521C17.2731 14.4691 17.3142 14.4893 17.3617 14.5023C17.4301 14.5203 18.1012 15.0912 18.174 15.1776C18.2632 15.2835 18.336 15.4051 18.3633 15.5434L18.2258 15.7126L18.2949 15.7824L18.4116 15.7975C18.6607 15.408 18.1833 14.9004 17.9147 14.6261C18.4929 14.8407 19.0013 14.9775 19.5983 14.7355C20.211 14.4871 20.5754 13.9723 20.9412 13.4511L21.0103 13.6577C21.2573 13.2351 21.5727 12.9485 21.9961 12.7073C22.0372 12.5395 21.4899 12.6468 21.3841 12.6843C20.7151 12.9226 20.4515 13.7002 19.9734 14.1423C19.7149 14.382 19.2713 14.6679 18.9092 14.5851C18.8465 14.5707 18.8062 14.5109 18.7515 14.4972C18.4778 14.4288 18.2071 14.3863 17.9709 14.2063C17.9133 14.1624 17.9039 14.1509 17.9147 14.0731C17.9939 14.0623 18.0105 14.1423 18.0789 14.1675C18.3215 14.2575 18.8753 14.2524 19.1331 14.202C19.9136 14.0501 20.4912 13.1278 21.0615 12.6223C20.4919 12.7858 20.1167 13.3013 19.5983 13.5612C18.9552 13.8831 18.3748 13.8586 17.7333 13.5454C17.6051 13.4827 17.4438 13.2689 17.3437 13.2783C17.2472 13.3481 17.5172 13.7211 17.3783 13.7268C17.2573 13.7319 17.0837 13.2293 17.0211 13.117C16.7539 12.6439 16.5019 12.4863 16.1189 12.1529C16.0793 12.1183 16.0339 12.0996 16.0468 12.0348C16.1081 12.0377 16.1743 12.0262 16.2348 12.037C16.458 12.0773 16.5502 12.3819 16.6596 12.4099C16.7323 12.4287 16.795 12.3783 16.8613 12.3783C17.0182 12.3768 17.1694 12.6972 17.3242 12.7455C17.4128 12.7728 17.7592 12.8009 17.8636 12.7973C18.0227 12.7923 18.2568 12.7109 18.408 12.649C18.5326 12.5979 18.7752 12.4294 18.8652 12.415C18.9797 12.3963 18.8595 12.5323 18.8832 12.5532C19.249 12.5431 19.3671 12.1471 19.6436 12.001C19.6904 12.06 19.3448 12.4625 19.2814 12.5201C19.0049 12.7728 18.3986 13.0212 18.0256 13.0277C17.9025 13.0299 17.6684 12.9406 17.5835 13.0003C17.5288 13.0392 17.5381 13.1119 17.5936 13.1415C17.7563 13.2271 18.138 13.1386 18.336 13.2034C19.5435 12.9269 20.0562 11.785 21.1075 11.2011C21.199 11.1507 21.6389 10.9923 21.649 10.9469C21.6807 10.8094 21.4028 10.8238 21.3243 10.831C20.9218 10.867 20.3644 11.0463 20.013 11.2479C19.7221 11.4149 19.0661 12.0039 18.7968 12.0363C17.7678 12.1608 16.4076 11.1823 15.6652 10.5336C15.5968 10.4739 15.5399 10.3435 15.46 10.3212C15.3801 10.2989 15.3484 10.3644 15.303 10.3651C15.2425 10.3659 14.9869 10.2118 14.8184 10.2118C14.6816 10.2118 14.5232 10.3075 14.4036 10.309C13.7714 10.3147 13.2587 9.87481 12.6747 9.68617C12.4256 9.60553 12.2384 9.55009 11.9654 9.58321C11.9798 9.44497 12.1779 9.40537 12.2888 9.41329C12.5653 9.43201 13.0924 9.76969 13.3293 9.75529C13.4207 9.74953 13.5014 9.66169 13.5842 9.62857C13.6411 9.60625 13.7087 9.61489 13.7779 9.58033C14.027 9.45721 14.3057 9.12745 14.6067 9.20881C14.6492 9.22033 14.6816 9.25993 14.629 9.29089C14.5635 9.33049 14.4015 9.34561 14.2928 9.40393C14.1343 9.48889 14.0018 9.66025 13.8506 9.75673C13.7815 9.80065 13.6915 9.78769 13.6425 9.86041L13.6792 9.92881C13.7714 9.88849 14.2402 9.80929 14.2769 9.78481C14.3035 9.76753 14.2985 9.64657 14.3756 9.62209C14.4454 9.60049 14.5116 9.64585 14.5728 9.64225C14.7442 9.63145 14.7313 9.46657 14.9926 9.65233C15.3613 9.91513 15.6674 10.4501 16.0922 10.6956C16.2823 10.8058 17.227 11.0441 17.4481 11.0369C18.1703 11.0124 18.8018 9.83233 19.4737 9.43057C20.1261 9.04105 20.6157 9.11017 21.3387 9.23761C21.3848 9.19441 21.1313 8.97985 21.0824 8.95825C20.9967 8.92081 20.885 8.93809 20.8339 8.89561C20.7885 8.85817 20.7907 8.76097 20.7518 8.73577C20.7093 8.70769 20.6308 8.72785 20.5776 8.70193C20.5293 8.67889 20.5229 8.60113 20.4854 8.57881C20.4271 8.54425 20.3277 8.55217 20.2471 8.51473C20.1369 8.46361 19.9979 8.30377 19.8755 8.22961C19.6278 8.07841 19.3614 7.97905 19.1014 7.86312C19.0085 7.82208 18.8717 7.70184 18.7889 7.69032C18.6953 7.67736 18.5865 7.75224 18.485 7.75224C18.4108 7.75224 18.3223 7.69896 18.2495 7.71552C18.2193 7.72272 18.202 7.80336 18.1567 7.83792C18.0069 7.95096 17.4589 8.02728 17.2753 7.99272C17.1428 7.96752 17.0348 7.70328 16.9448 7.59672C16.5754 7.15752 15.8236 6.87384 15.2893 7.15104C15.1684 7.21368 15.0877 7.34832 14.9394 7.3368C14.8551 7.25328 15.2238 7.00704 15.2836 6.9732C16.2449 6.42528 16.728 7.1496 17.5151 7.4412C17.631 7.4844 18.3756 7.6932 18.1055 7.3692C17.9997 7.24248 17.3084 6.8688 17.1183 6.76584C16.3327 6.34032 15.4989 5.99832 14.6787 5.64408L14.5937 5.55768C14.6765 5.43744 14.8213 5.4072 14.9523 5.37048L15.0934 5.64336L15.2324 5.436C15.393 5.6088 15.5054 5.49216 15.64 5.5116C15.7415 5.52672 15.8042 5.68728 15.941 5.64336L15.7682 5.45328C15.9007 5.41224 16.0821 5.53752 16.206 5.60304C17.0564 6.05088 18.0141 6.61608 18.8292 7.128C18.9624 7.21152 19.6544 7.72632 19.7271 7.71624C19.82 7.70328 19.7207 7.56432 19.7178 7.51824C19.7128 7.44696 19.7718 7.35912 19.7308 7.30008C19.7077 7.26696 19.5932 7.25256 19.5392 7.21368C19.4283 7.1352 19.3405 7.00272 19.2173 6.91344C18.5743 6.44472 17.7721 5.97168 17.0629 5.6448C16.754 5.50296 16.3514 5.21928 16.0195 5.16672C15.9597 5.15736 15.8985 5.20992 15.8373 5.17896C15.753 5.1372 15.7833 4.98455 15.7156 4.95215C15.5118 4.85495 15.8035 5.25888 15.7329 5.3316C15.3779 5.3676 15.2361 4.97232 14.9034 5.08968C14.9639 4.93199 15.092 4.86719 15.056 4.67423C15.2612 4.54679 15.3916 4.71383 15.5507 4.77143C15.7674 4.84919 16.0548 4.88519 16.2513 4.96944C16.3874 5.02776 16.6279 5.28624 16.8209 5.3676C17.1644 5.51232 17.5662 5.5188 17.9118 5.62536C18.5037 5.80752 18.9898 5.99544 19.5622 6.22296C19.6544 6.25968 19.8611 6.4476 19.8841 6.21144C19.9165 5.88744 19.0517 5.742 18.8213 5.61528C18.7658 5.58504 18.6974 5.54544 18.7075 5.47056L18.7097 5.47344ZM23.3088 5.64552C23.45 5.63904 23.63 5.75928 23.7488 5.77728C23.8676 5.79528 23.9029 5.71392 23.7826 5.63832C23.6624 5.56272 23.2735 5.38776 23.3081 5.64552H23.3088ZM21.8413 5.54472C21.8254 5.54904 21.7714 5.59152 21.8038 5.61168C21.8485 5.6376 22.1099 5.85 22.1329 5.73192C22.0912 5.61456 21.9709 5.50872 21.8413 5.54472ZM21.5079 5.98824L21.459 5.99184C21.3524 5.77512 21.2523 5.87304 21.078 5.88168C21.0067 5.88528 20.911 5.8032 20.8613 5.904C20.8735 6.36408 21.3725 6.3 21.6663 6.47424C21.8111 6.33096 21.6541 6.34464 21.6116 6.2892C21.4964 6.1416 21.7045 6.09696 21.6829 5.958L21.531 5.91984L21.5079 5.98824ZM20.7497 6.57864C20.7655 6.5052 20.7122 6.50016 20.6697 6.4692C20.5754 6.40152 20.2247 6.17472 20.129 6.21504C20.049 6.24816 19.9893 6.33456 20.0807 6.40152C20.2643 6.53472 20.5236 6.61032 20.7497 6.57936V6.57864ZM22.4706 6.79464C22.4418 6.76512 22.3677 6.7608 22.323 6.7176C22.2467 6.64416 22.1977 6.46344 22.0516 6.51168C21.9054 6.55992 22.0552 6.87456 22.1193 6.95592L23.4161 8.63137C23.4931 8.70697 23.6429 8.69113 23.725 8.63281C23.8071 8.57449 23.5896 8.40745 23.5882 8.32321C23.5868 8.25769 23.6761 8.20297 23.6408 8.13385C23.5839 8.02296 23.3722 7.86024 23.2951 7.7508C23.2239 7.64928 23.2001 7.5168 23.1374 7.42464C23.0985 7.36776 22.7212 6.94728 22.6888 6.93864C22.6427 6.9264 22.583 6.96456 22.5491 6.94368C22.503 6.91488 22.5045 6.82848 22.4713 6.79464H22.4706ZM24.6928 9.30817C24.6611 8.75305 24.5617 8.13384 24.3731 7.6068C24.255 7.27704 24.0678 6.82848 23.7085 6.71688C23.5234 7.01712 23.9144 7.37064 24.0548 7.64784C24.3104 8.15257 24.3176 8.75161 24.5135 9.15841C24.5531 9.24121 24.5747 9.33265 24.6928 9.30745V9.30817ZM24.6136 6.93504C24.5113 6.8508 24.3825 6.8832 24.4307 7.03008C24.4588 7.11576 24.5452 7.12872 24.5855 7.18776C24.9592 7.73352 25.0982 8.15977 25.2574 8.79769C25.2689 8.84305 25.266 8.91073 25.3329 8.89345C25.4726 8.82433 25.3077 8.14032 25.2494 8.01072C25.212 7.9272 25.1443 7.89624 25.1133 7.83576C24.9916 7.596 24.8116 7.09776 24.6143 6.93576L24.6136 6.93504ZM22.0984 7.33896C22.1207 7.182 21.9659 7.16904 21.873 7.09776C21.7923 7.03584 21.7664 6.8472 21.5806 7.01064L22.0991 7.33824L22.0984 7.33896ZM26.9747 9.44641C27.0179 9.40465 27.095 8.60545 27.0719 8.50393C27.051 8.41249 26.9539 8.35345 26.915 8.24545C26.8617 8.09713 26.9178 8.03737 26.9049 7.91352C26.897 7.84008 26.6276 7.1208 26.5254 7.236C26.5096 7.47216 26.6752 7.67376 26.7241 7.88328C26.7652 8.05753 26.8487 8.43625 26.8667 8.60401C26.8948 8.86105 26.866 9.12313 26.9056 9.39457C26.9128 9.44137 26.9193 9.49897 26.9733 9.44641H26.9747ZM18.5707 7.58016C18.5225 7.47504 18.3921 7.47072 18.2942 7.4772C18.2935 7.62768 18.4735 7.5744 18.5707 7.58016ZM15.3887 10.2751C15.46 10.1988 15.0654 9.86617 14.9826 9.83089C14.8897 9.81289 14.7702 9.94033 14.7327 10.0159C14.8033 10.0987 14.912 10.0563 15.0099 10.0836C15.0769 10.1023 15.3534 10.3133 15.3887 10.2751ZM23.136 11.9679C22.7738 12.0147 22.5311 11.6539 22.2381 11.4999C21.9183 11.3314 21.5043 11.2846 21.168 11.4358C20.9952 11.5135 20.8966 11.8239 21.1119 11.8318C21.4157 11.8433 21.8478 11.5913 22.1819 11.7987C22.2236 11.8246 22.2316 11.8915 22.2805 11.911C22.3511 11.9391 22.4159 11.8923 22.4872 11.9038C22.6247 11.9268 22.9034 12.1356 23.0676 12.1911C23.3902 12.2991 23.7121 12.2559 24.0426 12.1997C24.1088 12.1889 24.3363 12.1493 24.3659 12.1075C24.3932 11.8678 24.0426 11.7331 23.8409 11.7274C23.7236 11.7245 23.478 11.8951 23.3606 11.8959C23.2937 11.8959 23.1533 11.7936 23.118 11.7958C23.0056 11.8015 23.167 11.9391 23.1353 11.9671L23.136 11.9679ZM23.3088 12.798C22.8242 12.8779 22.3137 12.7491 21.8679 12.9996C21.68 13.1055 21.4172 13.4316 21.2695 13.6109C21.1111 13.8031 20.9707 14.017 20.8188 14.2143C21.4697 14.0256 21.7139 13.2963 22.3742 13.1249C22.6816 13.045 22.9632 13.0875 23.244 12.8873C23.2843 12.8585 23.329 12.8873 23.3088 12.798ZM25.2113 12.9355C24.7598 12.8038 24.2817 12.8455 23.8352 12.9946C22.799 13.3409 22.9574 14.125 22.2877 14.6621C21.8924 14.9789 21.5525 14.9904 21.1032 15.1373C20.9131 15.1992 20.5898 15.2935 20.5761 15.5261C20.8094 15.5743 21.0334 15.4649 21.2609 15.4325C21.4496 15.4059 21.7297 15.3547 21.909 15.3526C22.3058 15.3483 22.7356 15.4973 23.0834 15.1805C23.1698 15.1013 23.3873 14.7291 23.4989 14.7399C23.5507 14.7449 23.5565 14.8788 23.7135 14.8097C23.7898 14.7766 23.913 14.5836 23.9994 14.5066C24.3997 14.1495 24.8476 14.1106 25.3617 14.1826C25.5684 14.2114 25.7772 14.274 25.9709 14.3511C26.0941 14.1862 25.5058 14.0739 25.4194 14.0559C24.2233 13.8183 24.021 14.1063 23.1864 14.7989C22.9099 15.0286 22.5016 15.3461 22.1329 15.1625C22.8559 14.7427 23.0827 13.8723 23.7618 13.4035C23.9634 13.2646 24.4357 13.0327 24.6755 13.0349C24.8404 13.0363 25.109 13.2192 25.2113 12.9348V12.9355ZM21.6836 15.8379C20.7936 15.7255 20.2312 16.3865 19.3232 16.002C19.0978 15.907 18.9574 15.7126 18.7097 15.6996C18.7342 15.9754 19.1223 16.2584 19.3678 16.3376C19.9576 16.5276 20.5322 16.1576 21.0694 15.966L21.6843 15.8379H21.6836ZM24.1398 16.5629C24.1679 16.5924 24.4609 16.4002 24.4509 16.339C24.4372 16.2612 24.3724 16.3109 24.3378 16.3282C24.2492 16.3721 24.1175 16.4456 24.1405 16.5622L24.1398 16.5629ZM18.3864 16.568C18.1667 16.7076 18.4087 16.7328 18.4497 16.8048C18.4836 16.8632 18.4454 17.1144 18.6218 17.0813C18.7831 17.0511 18.5282 16.8243 18.5196 16.8041C18.4901 16.7372 18.5131 16.663 18.4858 16.596L18.3864 16.5672V16.568ZM23.7243 16.6673C23.5825 16.6349 23.4701 16.7746 23.3534 16.7976C23.2368 16.8207 23.2296 16.748 23.0697 16.8596C22.8487 17.0136 22.7601 17.3772 22.498 17.6004C22.4008 17.6832 21.9299 17.9288 21.927 17.9626C21.9227 18.0281 22.0264 17.9957 22.058 17.9914C22.5463 17.9187 22.7918 17.7264 23.0503 17.324L23.0676 17.5306C23.105 17.5335 23.1381 17.5342 23.172 17.5148C23.3117 17.4341 23.5313 16.9193 23.7063 16.8048L23.7243 16.6673ZM22.7904 16.8048C22.732 16.7976 22.7292 16.7732 22.6701 16.802C22.6291 16.8221 22.2373 17.072 22.2381 17.0986C22.395 17.3888 22.8537 16.8876 22.7904 16.8048ZM20.5077 17.3578C20.5221 17.2916 20.4739 17.275 20.4357 17.2404C20.3478 17.1605 19.7826 16.7048 19.8258 17.0244C19.8474 17.1872 19.9993 17.1375 20.1124 17.1828C20.2571 17.2419 20.35 17.3693 20.5077 17.3578ZM19.7091 16.9452C19.6796 16.9251 19.5255 16.9992 19.5407 17.0619C19.7444 17.3254 19.91 17.2412 19.7091 16.9452ZM19.1619 17.2368C19.1619 17.1879 19.1216 17.1476 19.0726 17.1476C19.0236 17.1476 18.9833 17.1872 18.9833 17.2368C18.9833 17.2865 19.0236 17.3261 19.0726 17.3261C19.1216 17.3261 19.1619 17.2865 19.1619 17.2368ZM22.0984 17.185C22.0652 17.1519 21.2868 17.3996 21.199 17.4435C21.145 17.4708 21.0823 17.4852 21.0953 17.5644C21.2343 17.6213 21.3689 17.586 21.5093 17.5464C21.5792 17.527 22.0228 17.3362 22.0624 17.3045C22.1106 17.2656 22.1013 17.2412 22.0984 17.185ZM19.712 17.91C19.7192 17.8229 19.6098 17.7819 19.55 17.7444C19.4996 17.7128 19.2303 17.5673 19.1936 17.5997C19.195 17.7142 19.3599 17.7272 19.4478 17.7776C19.5356 17.828 19.5716 17.946 19.712 17.91ZM17.464 17.8071C17.3819 17.7264 17.2904 17.9446 17.3257 17.9792C17.4078 18.0598 17.4993 17.8416 17.464 17.8071ZM17.3156 18.2254C17.1968 18.26 17.0765 18.6653 17.0902 18.782C17.1104 18.9627 17.3826 19.2687 17.5777 19.2176C17.7729 19.1664 17.5475 18.9713 17.5071 18.8856C17.4287 18.7208 17.541 18.5177 17.6325 18.3759C17.6289 18.324 17.3833 18.206 17.3163 18.2247L17.3156 18.2254ZM19.8856 19.4307C20.1952 19.1448 20.224 18.5372 19.9367 18.2218C19.8582 18.2074 19.8884 18.2556 19.8848 18.3075C19.8316 19.0829 19.442 19.2917 18.9538 19.7619C18.8861 19.8267 18.8105 19.9397 18.966 19.9131C19.2317 19.867 19.6357 19.4444 19.833 19.2586L19.8848 19.4314L19.8856 19.4307ZM19.1079 18.7402C19.0337 18.756 18.7385 19.2788 18.7493 19.34C18.7644 19.422 18.8753 19.471 18.9466 19.3745C18.9898 19.3169 19.3686 18.684 19.1072 18.7402H19.1079ZM17.7757 19.1888C17.9795 19.2298 18.1523 19.322 18.3655 19.2773C18.4908 19.2507 18.8501 19.0066 18.8112 18.8648C18.7651 18.6912 18.5801 18.9346 18.534 18.9627C18.408 19.0404 18.2812 19.0923 18.1343 19.1168C18.0177 19.1362 17.8384 19.0692 17.775 19.1895L17.7757 19.1888ZM22.547 19.5675C22.5981 19.494 22.3641 19.2773 22.2877 19.2572C21.9191 19.4062 21.5713 19.3392 21.5137 19.8317C21.4993 19.9541 21.5648 20.1118 21.5288 20.1896C21.4791 20.299 21.0579 20.5517 21.0319 20.6288C21.0017 20.7173 21.0694 20.9686 21.145 21.0226C21.2127 21.0716 21.3085 21.0608 21.3869 21.0514C21.8622 20.9952 22.5153 20.466 22.8257 20.1053C22.8645 20.06 23.033 19.8634 23.033 19.8281L22.9826 19.7388C22.7795 19.5812 22.6067 20.1096 22.3943 20.1932C22.2877 20.2349 21.8154 20.2644 21.7866 20.1377C21.7751 20.0873 21.9687 19.9282 22.0091 19.8778C22.0544 19.8209 22.0782 19.6978 22.1214 19.6697C22.1826 19.6301 22.4433 19.6654 22.5462 19.5675H22.547ZM17.7585 19.7417C17.662 19.7669 17.7664 19.8929 17.8269 19.8792C17.9133 19.8598 17.8809 19.71 17.7585 19.7417ZM18.467 19.9829C18.539 19.9217 18.2229 19.7547 18.1567 19.8965C18.2351 19.9779 18.3612 19.9858 18.467 19.9829ZM23.2397 22.3323C23.1987 22.1257 22.8811 22.2826 22.7068 22.261C22.5599 22.2423 22.4483 22.112 22.2877 22.1221C22.1552 22.1307 22.1351 22.2509 22.0307 22.2826C21.904 22.3215 21.7189 22.243 21.6829 22.418C21.6951 22.4749 22.1977 22.5346 22.2978 22.5641C22.4512 22.6095 22.5852 22.7276 22.7551 22.7117L22.7284 22.526C22.7479 22.4151 23.1346 22.3856 23.2397 22.3316V22.3323ZM19.1244 22.6786C19.0272 22.6613 19.0028 22.796 18.93 22.8097C18.8674 22.8219 18.7644 22.7276 18.6967 22.7492C18.5599 23.0588 18.6146 22.9047 18.4591 22.8939C18.1797 22.8752 18.2215 23.1351 18.0998 23.156C18.0321 23.1675 17.9515 23.03 17.8211 23.1373C17.7088 23.2301 17.7916 23.3295 17.7606 23.4015C17.7505 23.4238 17.474 23.7615 17.4481 23.7838C17.3862 23.8371 17.2299 23.8774 17.2033 23.9213C17.1601 23.9926 17.2523 24.1157 17.1536 24.1834L16.9829 24.1647L16.8807 24.3944C16.8569 24.4606 16.9772 24.4563 16.9836 24.4966C16.9937 24.5614 16.9073 24.781 16.9217 24.8667C16.9289 24.9113 17.0341 25.046 17.0672 25.0957L17.0845 24.9236C17.1803 24.8869 17.2285 25.0114 17.2796 25.0215C17.361 25.0381 17.505 24.8861 17.5785 24.8465C17.6303 24.8185 17.6958 24.8242 17.7592 24.7853C18.071 24.5924 18.5981 23.9869 18.5649 23.6031C18.5505 23.4339 18.4001 23.3079 18.6507 23.1877C18.7003 23.1639 18.7896 23.1711 18.8083 23.1553C18.8235 23.1423 18.8242 23.053 18.8523 23.0098C18.9142 22.9141 19.1511 22.8457 19.1252 22.6779L19.1244 22.6786ZM22.9977 23.8868C22.9725 23.8306 22.9221 23.7723 22.8595 23.7838C22.8847 23.84 22.9351 23.8983 22.9977 23.8868ZM17.5331 26.5825C17.4431 26.5529 17.3963 26.5364 17.3948 26.6509L17.5331 26.6854V26.5825Z" fill="white"/>
<path d="M16.0428 15.5925C15.5474 15.6588 14.9894 15.8928 14.5026 15.9367C14.1548 15.9684 14.1735 15.846 13.9374 15.7848C13.6464 15.7092 13.2302 16.0519 12.8119 16.0101C12.4497 15.9741 12.1825 15.5054 12.1156 15.4939C12.0724 15.4867 11.937 15.6804 11.7562 15.5789C11.6576 15.4853 12.0673 15.2621 11.8779 15.2153C11.8124 15.1994 11.7008 15.3117 11.5993 15.3168C11.4977 15.3218 11.376 15.2549 11.2572 15.2484C10.7503 15.2217 10.3888 15.7531 10.1958 16.1599C10.0331 16.5005 9.74722 17.1535 9.78683 17.5135C9.81275 17.7475 10.0396 18.042 9.7357 18.2213C9.49448 17.8519 9.51464 18.366 9.32022 18.3811L9.24318 18.3509C9.2223 18.3192 9.20644 18.2825 9.19276 18.2465C8.79096 17.1794 9.75876 15.2743 9.88046 14.1518C10.2556 13.2367 11.2745 13.2525 12.0875 13.5225C12.9437 13.8069 14.3975 14.1914 15.0902 14.7386C15.2997 14.9042 15.3941 15.0763 15.6562 15.2441C15.8052 15.3398 16.0868 15.3758 16.0443 15.594L16.0428 15.5925ZM11.5057 13.6334C11.2817 13.6831 11.2861 13.8753 11.3969 14.0388C11.5914 14.3253 11.672 14.1367 11.8794 14.2116C12.2733 14.3534 12.8932 14.6803 13.2922 14.8747C13.4333 14.9438 13.7566 15.2405 13.8841 14.9741C14.0036 14.7249 13.6954 14.4038 13.4974 14.2893C13.2475 14.1446 13.0322 14.1353 12.8004 14.0525C12.5246 13.9538 11.7419 13.5816 11.505 13.6341L11.5057 13.6334ZM13.6249 15.4572C13.681 15.4039 13.3526 15.1944 13.3109 15.1663C13.0617 14.9993 12.6902 14.7696 12.4259 14.6342C12.3172 14.5781 11.955 14.3952 11.8621 14.4377C11.7692 14.4801 11.6497 14.7285 11.7793 14.7638C11.8376 14.7703 11.8909 14.7293 11.9485 14.7314C12.0522 14.735 12.7017 15.0173 12.8421 15.0821C13.1078 15.2052 13.3282 15.4075 13.6249 15.4572ZM13.9014 15.5601C13.8625 15.468 13.7473 15.4514 13.6594 15.4572C13.6983 15.5493 13.8135 15.5659 13.9014 15.5601Z" fill="white"/>
<path d="M20.9227 25.5107L20.9076 25.6158L20.8658 25.6439C20.7902 25.677 20.6951 25.6137 20.6339 25.6238C20.6209 25.6259 20.4143 25.7462 20.4078 25.7577C20.3855 25.7973 20.438 25.865 20.4359 25.9103C20.4323 25.9794 20.3027 26.0637 20.4035 26.1515C20.6512 26.2221 20.5374 25.9046 20.5936 25.8218L20.7153 25.7879C20.7707 26.0212 20.7563 26.1789 20.6116 26.3747L20.7815 26.3783C20.8319 26.5454 20.7931 26.6152 20.6116 26.6174C20.6764 26.8427 20.6245 27.0681 20.7686 27.2726C20.8226 27.3496 20.9587 27.395 20.9767 27.4778C21.004 27.6023 20.8046 27.7096 20.7311 27.7902C20.6879 27.8378 20.6836 27.9148 20.6454 27.9465C20.3423 28.1985 19.7734 28.3612 19.4242 28.5923C19.0015 28.8724 18.7235 29.3447 18.2576 29.6039C17.9991 29.7479 17.7025 29.8034 17.4533 29.9755C17.1012 30.2188 16.9752 30.6148 16.5756 30.8258C16.0326 31.1131 15.1469 31.049 14.7523 31.5609C14.6378 31.7092 14.5608 32.1297 14.3707 32.1124C14.2684 32.1031 14.0085 31.6775 13.943 31.5688C13.7932 31.319 13.4929 30.7343 13.4583 30.4607C13.4504 30.3959 13.4634 30.3419 13.4915 30.2843C13.6592 30.1778 14.0769 30.6919 14.2512 30.7775C14.7113 31.0043 15.0101 30.6904 15.3882 30.5039C15.5884 30.4053 15.8073 30.3203 16.0002 30.2167C16.1932 30.113 16.4222 29.8732 16.6512 29.8624C16.7678 29.8566 16.8614 29.9027 16.963 29.9027C17.1365 29.9027 18.0949 29.4196 18.2576 29.2929C18.5874 29.0358 18.4391 28.881 18.5536 28.5866C18.689 28.2374 19.1376 28.3482 19.4206 28.2438C19.759 28.1193 19.7576 27.7485 19.8901 27.4691C19.9916 27.2553 20.2609 27.0378 20.1234 26.7779C20.0744 26.685 19.9506 26.657 19.911 26.5756C19.7331 26.207 20.4129 26.4755 20.577 26.4107L20.307 26.2494C20.1299 25.7584 20.4136 25.4416 20.9227 25.5136V25.5107Z" fill="white"/>
<path d="M15.5799 8.65149C15.6555 8.66301 15.7714 8.72853 15.8362 8.77533C15.9493 8.85669 16.1092 9.18573 16.2042 8.99637C16.2431 8.91861 15.9234 8.52044 15.8528 8.44772C15.793 8.3858 15.6814 8.29868 15.5972 8.2706V8.2022C15.6922 8.25476 15.8017 8.22092 15.8996 8.26268C16.0249 8.31524 16.3878 8.89341 16.5304 9.01437L16.2705 9.13389C16.197 9.24549 16.4569 9.31965 16.5491 9.31101C16.6636 9.30021 16.6895 9.21309 16.7263 9.20733C16.7666 9.20085 16.8062 9.26781 16.8587 9.27141C16.9113 9.27501 16.9811 9.22029 17.0409 9.21165C17.1165 9.20085 17.4557 9.13821 17.4139 9.23829C17.3419 9.34053 17.1655 9.36069 17.1893 9.51477C17.2937 9.62061 17.7898 9.08421 17.8604 8.99349C17.9648 8.86101 18.0361 8.64645 18.1743 8.54708C18.3126 8.44772 18.4919 8.49236 18.5725 8.34044C18.2125 8.13452 17.9475 8.60828 17.6436 8.77605C17.3563 8.93445 16.9308 9.00429 16.6348 8.84085C16.5873 8.81492 16.5491 8.84445 16.5671 8.75444C16.7428 8.74436 16.8739 8.81997 17.0524 8.77245C17.1677 8.74148 17.5018 8.46284 17.6206 8.37356C17.6847 8.32532 17.7552 8.21444 17.8136 8.18636C18.2658 7.97036 18.875 8.0222 19.3329 8.2202C19.5093 8.29652 19.6865 8.45492 19.8636 8.55356C20.0134 8.63637 20.2575 8.63277 20.2719 8.85309L20.5434 8.85885C20.5232 9.06621 20.3497 8.90637 20.2841 8.90565C20.2237 8.90565 19.9385 9.01005 19.8305 9.02733C19.7225 9.04461 19.5922 9.00933 19.4957 9.03813C19.4179 9.06117 19.3437 9.21309 19.253 9.24837C19.1731 9.27933 19.1047 9.23181 19.0132 9.24477C18.5848 9.30381 17.9777 9.98205 17.6177 9.99645C17.5363 10 17.2238 9.97485 17.1381 9.96189C16.9264 9.93021 16.2949 9.60189 16.1041 9.47445C15.8787 9.32397 15.747 9.01653 15.5727 8.83005C15.2775 8.82429 14.9765 8.75661 14.6798 8.78901C14.5206 8.80629 14.1938 8.96037 14.0605 8.92581C14.0281 8.91717 13.9835 8.86893 14.0425 8.84301C14.4638 8.61693 14.6647 8.2814 15.1997 8.34044C15.3358 8.35556 15.4301 8.43332 15.5626 8.44412C15.6152 8.49164 15.559 8.50676 15.5115 8.51324C15.3682 8.53124 15.2076 8.48228 15.0643 8.54493L15.0441 8.65149C15.2119 8.66877 15.4193 8.62773 15.5799 8.65149ZM19.1594 8.44412C19.168 8.24324 18.9988 8.249 18.8483 8.3066C18.7821 8.39804 19.101 8.47148 19.1594 8.44412ZM19.2933 8.5514L19.1299 8.55356L19.0895 8.68604C19.1961 8.73213 19.3783 8.70909 19.2933 8.5514ZM19.0211 8.68676C18.993 8.66228 18.6237 8.75301 18.7101 8.82429C18.723 8.83509 19.0046 8.74076 19.0211 8.68676Z" fill="white"/>
<path d="M14.2814 4.71336C14.1222 4.8192 14.2072 4.8228 14.1971 4.93872C14.1834 5.09064 14.0329 5.05752 13.9789 5.10216C13.9437 5.13096 13.948 5.22816 13.8644 5.28216C13.7708 5.34192 13.5922 5.30376 13.6239 5.47368C13.8594 5.55288 13.9494 5.3592 14.1071 5.31744C14.3354 5.25696 14.3051 5.35848 14.5391 5.19576C14.6421 5.12376 14.7573 5.22096 14.7293 5.31456C14.7235 5.334 14.4887 5.47657 14.4355 5.57881C14.3908 5.66449 14.5291 5.71345 14.4542 5.76817C14.3527 5.84233 13.9796 5.74585 13.8147 5.75161C12.8981 5.78185 12.8038 6.29089 12.1478 6.74665C11.8288 6.96841 11.4608 7.11529 11.1368 7.32553C10.9056 7.47601 10.8106 7.52929 10.7206 7.80865C10.3138 9.0773 10.1438 10.5274 9.74058 11.8047C9.64697 12.1013 9.45111 12.39 9.41367 12.6874C9.34526 13.226 9.53607 13.7552 9.35101 14.2836C9.33013 14.3427 9.31213 14.4485 9.2322 14.4226C9.22788 14.1756 9.1386 13.9287 9.12708 13.6817C9.07451 12.5837 9.71463 11.076 9.97601 9.96722C10.1316 9.30842 10.2007 8.65322 10.3138 7.99009C10.4959 6.92089 11.7755 6.35209 12.564 5.81569C12.7606 5.68177 12.9384 5.48304 13.1242 5.33904C13.2135 5.26992 13.5959 4.96968 13.6607 4.94016C13.755 4.89624 13.8428 4.97328 13.9357 4.95816C13.9292 4.85736 13.9573 4.7616 14.0394 4.69824L14.2814 4.71624V4.71336ZM14.2814 5.4384C14.097 5.42256 14.0985 5.59248 14.2814 5.57592V5.4384Z" fill="white"/>
<path d="M8.71287 16.0796C8.76975 16.2466 8.63003 16.297 8.59979 16.3647C8.52778 16.5238 8.49681 16.7427 8.42768 16.917C8.29447 17.2568 7.90349 17.9487 7.85668 18.2468C7.82572 18.4441 7.84515 18.6651 7.98628 18.817C8.25415 19.1058 8.643 18.7774 8.9656 18.8509C9.12977 18.8883 9.36666 19.1828 9.54668 19.2721C9.924 19.4593 10.2711 19.4082 10.5973 19.154C10.6657 19.1007 10.8428 18.8581 10.9249 18.9142C11.0538 19.2159 11.1834 19.5594 11.0906 19.8884C10.9602 20.3485 10.5238 20.2801 10.158 20.4421C9.96146 20.5292 9.76705 20.6991 9.55463 20.7726C9.50206 20.7776 9.29466 20.5609 9.28242 20.5047C9.25722 20.3888 9.5359 20.3226 9.39764 19.9734C9.13913 19.3182 7.63563 19.9806 7.5413 18.9603C7.48081 18.3066 8.29087 17.0293 8.55802 16.3561C8.59402 16.2654 8.56163 16.0817 8.71357 16.0796H8.71287Z" fill="white"/>
<path d="M15.9422 7.40724L15.8392 7.287C15.8889 7.21428 15.9472 7.23228 16.0207 7.24308C16.0941 7.25388 16.6601 7.52964 16.7213 7.58076C16.7825 7.63188 16.8077 7.701 16.8574 7.75572C16.897 7.79892 17.0007 7.83924 17.0093 7.87812C17.018 7.917 16.9676 7.97748 16.9848 8.04084C16.9985 8.09196 17.085 8.12148 17.0857 8.18628C17.0871 8.32884 16.91 8.23668 16.8264 8.23668C16.7429 8.23668 16.542 8.27124 16.4952 8.25828C16.3901 8.22948 16.2151 8.0178 16.0711 7.95588C15.94 7.899 15.693 7.86156 15.5476 7.85724C15.1702 7.84572 14.7188 8.00052 14.3393 8.06892C14.0304 8.12508 13.8907 8.25036 13.643 7.96308C13.5847 7.8954 13.4399 7.65204 13.6149 7.71396C13.6991 7.74348 13.7834 7.81332 13.8691 7.84068C13.9893 7.87956 14.3105 7.90476 14.4365 7.89036C14.6929 7.86084 14.8008 7.65996 14.9866 7.54044C15.3207 7.3266 15.5649 7.32012 15.9443 7.40868L15.9422 7.40724Z" fill="white"/>
<path d="M11.1948 23.2211C11.1315 23.2996 10.9615 23.3061 10.8672 23.273C10.6216 23.188 9.82812 22.6797 9.64594 22.4889C9.46376 22.2981 9.38241 21.9438 9.57756 21.7451C9.67837 21.9222 9.60563 22.1404 9.73525 22.2966C10.0564 22.6833 10.9334 22.1375 11.1696 22.2808C11.3072 22.3643 11.3288 22.7906 11.3057 22.9353C11.3014 22.9626 11.2042 23.2096 11.1948 23.2218V23.2211Z" fill="white"/>
<path d="M21.6831 25.7874C21.7904 25.7687 21.8804 25.8407 21.9798 25.8537C22.612 25.9329 23.2335 25.3475 23.2054 24.7168C23.358 24.8334 23.3588 25.1394 23.3444 25.3223C23.3091 25.7802 22.9512 26.1165 22.522 26.2281C22.4587 26.2446 22.2909 26.2144 22.2707 26.2893C22.2477 26.3764 22.4097 26.4362 22.2873 26.5132C22.1116 26.349 21.7249 26.3771 21.578 26.2202C21.5377 26.177 21.5262 26.1064 21.4902 26.0661C21.3296 25.8839 21.1301 25.7284 21.0293 25.4987L21.2151 25.3382C21.3145 25.6038 21.3411 25.7608 21.578 25.9437C21.6327 25.9862 21.6975 26.0654 21.7523 25.9768L21.6831 25.7874Z" fill="white"/>
<path d="M18.9514 9.41162C18.2529 10.1619 17.9534 10.8912 16.7645 10.6803C16.6263 10.6558 15.9955 10.4679 15.943 10.3613C15.9156 10.3051 15.9984 10.2915 16.0301 10.2922C16.1647 10.2943 16.3599 10.3923 16.5176 10.4095C17.0526 10.4664 17.4954 10.3577 17.9455 10.0827C18.2919 9.87098 18.5604 9.54194 18.9514 9.41234V9.41162Z" fill="white"/>
<path d="M9.44047 21.1579C9.64065 21.2292 9.7969 21.1147 9.97476 21.1219C10.1346 21.1284 10.2707 21.2429 10.3643 21.2544C10.4299 21.2623 10.4918 21.2126 10.5573 21.2299C10.6228 21.2472 10.6408 21.3386 10.6876 21.379C10.8676 21.533 11.0729 21.415 11.2515 21.5064C11.3191 21.541 11.5992 21.8203 11.5805 21.8923C11.5575 21.9377 11.5265 21.9773 11.4704 21.978C11.1636 21.9794 10.6732 21.649 10.3182 21.6439C10.1994 21.6418 10.0612 21.7375 9.94884 21.7044C9.86532 21.6792 9.86242 21.5669 9.80409 21.5014C9.77529 21.469 9.36702 21.222 9.44047 21.1565V21.1579Z" fill="white"/>
<path d="M15.8035 11.4506C15.7149 11.5895 15.5205 11.4534 15.3887 11.4851C15.4665 11.5852 15.6444 11.5902 15.7351 11.6738C15.7833 11.7184 15.8287 11.8278 15.8683 11.8869C15.8906 12.1302 15.3643 11.7731 15.3326 11.7702C15.2829 11.7652 15.2238 11.8026 15.1648 11.7969C14.9869 11.7789 14.8055 11.74 14.6269 11.7263C14.6146 11.5845 14.871 11.6673 14.9034 11.5197C14.7788 11.5168 14.6579 11.475 14.5347 11.4628C14.4555 11.4549 14.3281 11.542 14.2812 11.416C14.6089 11.4527 14.8703 11.2353 15.1979 11.2403C15.4384 11.2439 15.5975 11.3512 15.8028 11.4506H15.8035Z" fill="white"/>
<path d="M12.4149 8.41027V8.54851L12.6727 8.55067L12.6921 8.47147C12.7728 8.37499 12.7994 8.51611 12.8779 8.55211C12.9269 8.57515 13.2243 8.63995 13.2451 8.61763C13.2552 8.56507 13.2077 8.46067 13.297 8.47867C13.5123 8.62771 13.6613 8.58955 13.886 8.61691C13.9343 8.62267 13.9847 8.63563 13.9371 8.68531C13.8522 8.68963 13.747 8.78107 13.6714 8.78179C13.6016 8.78323 13.5541 8.68459 13.4756 8.69251C13.423 8.69755 13.3762 8.76667 13.3237 8.78179C13.14 8.83291 13.0075 8.71123 12.8448 8.68891C12.4199 8.63203 12.1038 8.83579 11.7236 8.96179C11.7488 8.85667 12.3739 8.36131 12.4149 8.40955V8.41027Z" fill="white"/>
<path d="M13.7976 6.71648C13.8207 6.69488 14.3391 6.6884 14.4291 6.67328C14.7042 6.6272 15.0016 6.30464 15.2839 6.49112C15.281 6.57392 14.7719 6.69992 14.6977 6.73448C14.6437 6.75968 14.607 6.8432 14.5328 6.88064C14.3441 6.9764 13.8034 7.00736 13.7969 6.71576L13.7976 6.71648Z" fill="white"/>
<path d="M12.9674 7.06254C12.1494 7.09638 12.9775 7.2447 13.1733 7.35774C13.2453 7.3995 13.2727 7.51182 13.313 7.58022C12.9343 7.5111 12.6239 7.27566 12.2754 7.13094L12.5958 6.95094C12.7111 6.8991 12.9508 6.89766 12.9667 7.06182L12.9674 7.06254Z" fill="white"/>
<path d="M11.999 8.41016C12.0451 8.45264 11.5915 8.92424 11.5166 8.94728C11.3013 9.01424 11.1047 8.9516 11.0312 8.73776C11.1069 8.62544 11.212 8.7392 11.2977 8.74856C11.4798 8.768 11.7787 8.41448 11.9983 8.41016H11.999Z" fill="white"/>
<path d="M9.16392 14.8362C9.22729 15.0832 9.1034 15.2077 9.0422 15.3884C8.97379 15.5922 8.94212 15.8708 8.74914 16.0105C8.74554 15.8125 8.82692 15.6246 8.88668 15.4396C8.93205 15.2999 9.02564 14.9917 9.08685 14.8794C9.10917 14.8391 9.08615 14.8211 9.16392 14.8355V14.8362Z" fill="white"/>
<path d="M11.8262 7.61523C11.8774 7.66491 11.6232 7.981 11.5267 7.99036C11.441 7.99828 11.3293 7.73763 11.2725 7.66779L11.8262 7.61595V7.61523Z" fill="white"/>
<path d="M12.553 7.85647C12.2348 7.86367 12.0598 8.15599 11.7235 8.09839C11.6328 8.00983 12.0245 7.81903 12.1016 7.80319C12.2146 7.77943 12.4861 7.74343 12.553 7.85647Z" fill="white"/>
<path d="M15.3896 9.34229C15.6582 9.37109 15.656 9.55397 15.7554 9.71885C15.7669 9.73757 16.0348 10.0227 15.8915 10.032C15.7367 10.0061 15.7483 9.90389 15.682 9.82757C15.5546 9.68285 15.3882 9.55901 15.3904 9.34229H15.3896Z" fill="white"/>
<path d="M13.9361 10.6902C13.8749 10.7816 13.8512 10.8904 13.7201 10.8565C13.6856 10.8479 13.1757 10.534 13.116 10.4908C13.0749 10.4605 13.0173 10.4324 13.0029 10.3799C13.3111 10.5232 13.5718 10.7248 13.9368 10.6909L13.9361 10.6902Z" fill="white"/>
<path d="M16.8751 12.0375C16.7563 11.9756 16.7268 11.8237 16.6627 11.715C16.6289 11.6581 16.5691 11.625 16.5374 11.5623C16.4625 11.4097 16.5892 11.3132 16.6756 11.4946C16.6994 11.5443 16.6966 11.607 16.7225 11.6552C16.7844 11.7697 16.9234 11.8438 16.8751 12.0375Z" fill="white"/>
<path d="M13.3072 9.31801C13.3691 9.31369 13.7378 9.31801 13.5311 9.40369C13.444 9.43969 12.9709 9.49153 12.9688 9.39433C13.0429 9.33025 13.2093 9.32521 13.3065 9.31801H13.3072Z" fill="white"/>
<path d="M14.835 7.44248C14.8466 7.5116 14.7926 7.544 14.7407 7.5728C14.6579 7.61816 14.2359 7.77512 14.3713 7.57784C14.5297 7.54472 14.6665 7.43168 14.835 7.4432V7.44248Z" fill="white"/>
<path d="M23.828 24.3358C23.7942 24.3747 23.4435 24.0615 23.5169 23.9564C23.5565 23.9118 23.8835 24.2314 23.828 24.3358Z" fill="white"/>
<path d="M13.8671 5.8878L13.9708 6.26796C13.7807 6.26796 13.718 6.09588 13.7893 5.931C13.8102 5.88204 13.7972 5.87916 13.8671 5.88852V5.8878Z" fill="white"/>
<path d="M21.5378 25.1723C21.5623 25.2141 21.5523 25.4265 21.4767 25.4416L21.2686 24.9585L21.5378 25.1723Z" fill="white"/>
<path d="M14.489 10.7935L14.4696 10.9007L14.075 10.9663L14.0742 10.8633L14.489 10.7935Z" fill="white"/>
<path d="M20.1961 25.1315L20.2169 25.3057L19.9894 25.3381C19.9743 25.2539 20.1183 25.0782 20.1961 25.1315Z" fill="white"/>
<path d="M14.0049 8.58218C14.02 8.51666 14.3872 8.24306 14.3844 8.39282C14.3836 8.43098 14.0769 8.62106 14.0049 8.58218Z" fill="white"/>
<path d="M22.2361 25.1308C22.2426 25.3209 22.1 25.3252 21.9596 25.2683C21.9365 25.2381 22.1727 25.0876 22.2361 25.1308Z" fill="white"/>
<path d="M13.6931 7.37309C13.5397 7.29965 13.5261 7.12541 13.4512 6.99365C13.5887 7.02605 13.683 7.24853 13.6931 7.37309Z" fill="white"/>
<path d="M11.2729 7.37364L11.1872 7.58028C11.0879 7.49748 11.1491 7.3326 11.2729 7.37364Z" fill="white"/>
<path d="M14.7316 4.60986C14.7337 4.77402 14.5544 4.64946 14.4551 4.67826L14.7316 4.60986Z" fill="white"/>
<path d="M11.1347 8.37527C11.1678 8.34143 11.2837 8.41559 11.3068 8.46167L11.1865 8.51279C11.1419 8.50055 11.1145 8.39543 11.1347 8.37527Z" fill="white"/>
<path d="M14.3747 7.06803C14.6627 6.99171 14.2846 7.33083 14.2832 7.14867C14.2832 7.14003 14.3523 7.07379 14.3747 7.06803Z" fill="white"/>
<path d="M16.1846 11.8992C16.0932 11.8581 15.9916 11.8135 16.0125 11.6918C16.055 11.6436 16.2127 11.8682 16.1846 11.8992Z" fill="white"/>
<path d="M21.1293 25.0617C21.0379 25.0236 21.0206 24.9084 21.0264 24.8198C21.1092 24.8544 21.1257 24.9825 21.1293 25.0617Z" fill="white"/>
<path d="M17.0147 13.9028L17.1523 13.9892L17.1004 14.0411C17.0198 14.0382 17.0039 13.972 17.0147 13.9028Z" fill="white"/>
<path d="M16.2184 10.1366H16.0801V10.0682C16.1449 10.0596 16.1996 10.0682 16.2184 10.1366Z" fill="white"/>
<path d="M16.4259 8.44378C16.3733 8.49562 16.2782 8.34082 16.374 8.34082C16.397 8.34082 16.4453 8.42362 16.4259 8.44378Z" fill="white"/>
<path d="M24.2077 11.9339C24.1321 12.0469 23.9312 11.9886 23.8116 12.0045C23.6863 12.021 23.5711 12.165 23.4473 11.9857C23.6777 11.8605 23.9629 11.841 24.207 11.9346L24.2077 11.9339Z" fill="white"/>
</svg>
