<svg width="34" height="36" viewBox="0 0 34 36" fill="none" xmlns="http://www.w3.org/2000/svg">
<path d="M33.48 0.0863965L0 0V36H33.48V0.0863965ZM0.117561 34.0459C0.139914 34.3476 0.164431 34.6493 0.189668 34.951C0.158662 34.7033 0.134867 34.3951 0.117561 34.0459ZM23.447 26.7538C19.0896 28.5394 9.54121 29.4538 6.41537 23.5411C4.82758 20.5373 5.20398 16.9661 5.46429 14.3849C5.5811 13.2235 7.92745 4.71312 8.6478 4.71312H15.3069C15.0048 5.69664 13.8207 8.14321 13.8207 8.14321C11.2321 12.7368 8.00029 19.0397 13.9758 22.4323C17.7383 24.5686 24.246 20.3112 19.947 17.0734C18.3188 15.8472 15.3098 17.0057 13.9801 18.275C12.6361 18.7884 11.7376 15.6715 12.145 14.7701C13.1963 12.4402 17.9482 10.2319 21.493 10.6042C23.9677 10.8641 25.8778 12.5784 26.6926 13.932C29.0973 17.9258 28.245 24.7882 23.447 26.7538Z" fill="white"/>
</svg>
