<svg width="31" height="36" viewBox="0 0 31 36" fill="none" xmlns="http://www.w3.org/2000/svg">
<path d="M0 17.1834C0.0151216 17.1344 0.102224 17.1099 0.15263 17.1143H23.082C27.8634 17.3007 31.1462 21.8583 29.7406 26.4814C28.9305 29.1453 26.3353 31.2837 23.5674 31.4817C20.826 31.6776 17.8385 31.2888 15.0964 31.4803C14.8293 31.499 14.5333 31.5523 14.3216 31.7251L10.0371 35.9997C9.9536 36.0141 9.67999 35.7203 9.60582 35.644C8.42561 34.4294 7.22667 33.1031 5.95646 31.9994C5.71523 31.7899 5.5273 31.4817 5.1219 31.4817H0.0007032V17.1834H0Z" fill="white"/>
<path d="M0 0.113026C0.00432046 0.0892665 0.043905 0.0439112 0.0518258 0.00935148L20.3774 0C25.1638 0.308157 28.3544 5.09755 26.6695 9.66519C25.7305 12.2111 23.2973 14.0175 20.5985 14.2803C13.9176 14.3394 7.23244 14.1968 0.552293 14.276C0.362193 14.2782 0.204502 14.3437 0 14.2782V0.112306V0.113026Z" fill="white"/>
</svg>
