<svg width="122" height="36" viewBox="0 0 122 36" fill="none" xmlns="http://www.w3.org/2000/svg">
<path d="M44.048 0.196777C44.8141 0.410614 47.5741 5.33895 48.4778 6.2123C48.7932 6.51685 49.0034 6.79838 49.5125 6.74366L54.234 0.196777H60.1104C60.0254 0.453094 60.3718 0.763414 60.3718 0.849813V13.3848L59.9801 13.7765H55.2788L54.8871 13.3848V6.98701C54.275 6.82861 54.4493 7.13245 54.288 7.31893C53.3137 8.44788 52.0054 11.1946 51.0952 11.9441C50.6344 12.3243 47.8016 12.3725 47.3149 12.0766C46.8159 11.7735 44.6348 8.14116 43.9932 7.31605C43.8247 7.09933 44.0019 6.84157 43.3949 6.98629V13.3841L43.0032 13.7758H38.3019L37.9102 13.3841V0.588465L38.3019 0.196777H44.0472H44.048Z" fill="white"/>
<path d="M67.8136 0.196777L72.5329 6.74294C72.9779 6.80558 73.1485 6.60541 73.4337 6.33758C74.9386 4.92567 76.198 1.77428 77.7375 0.196777H83.8746V13.7758H78.6513V6.98629C78.1631 6.87685 78.1451 7.14829 77.9111 7.42116C77.0535 8.42195 75.5672 11.3559 74.863 11.9463C74.3914 12.3416 71.635 12.3524 71.0762 12.0802C70.6334 11.8649 68.3493 8.06844 67.7582 7.31677C67.5911 7.10437 67.7689 6.83941 67.1605 6.98629V13.3841L66.7688 13.7758H62.0675L61.6758 13.3841V0.588465L62.0675 0.196777H67.8129H67.8136Z" fill="white"/>
<path d="M121.483 13.7758H115.868C114.366 12.7311 113.577 10.0722 111.696 9.85329C111.169 9.79209 108.687 9.77841 108.409 9.9728L108.164 13.7758H102.94V0.588465L103.332 0.196777H115.868C116.16 0.196777 118.353 1.01542 118.75 1.23285C122.444 3.26034 121.566 7.54644 118.093 9.20602L121.483 13.7758ZM108.555 4.11353C107.92 4.37345 108.103 5.94158 108.555 5.94158H114.301C114.374 5.94158 115.308 5.50744 115.359 5.43328C116.006 4.50017 114.167 4.11353 113.517 4.11353H108.555Z" fill="white"/>
<path d="M101.635 4.11398H91.0584L90.6717 4.50565L91.0584 4.89732H100.33V8.81408H91.0584L90.6681 9.20935L91.0584 9.85806H101.635V13.7748H85.4434V0.587471L85.8351 0.195801H101.244C102.057 1.17715 101.462 2.8756 101.635 4.11254V4.11398Z" fill="white"/>
<path d="M0.303254 9.07521C3.92301 9.57848 7.6335 10.3611 11.2705 9.59432C11.3339 9.22641 10.8075 9.21489 10.5461 9.15153C7.85239 8.49634 0.458792 8.61155 0.0375553 5.03392C-0.354879 1.70612 2.39505 0.676532 5.16297 0.223658C6.69527 -0.0268987 15.174 -0.270262 15.8588 0.703165L15.7212 4.78623C12.7243 4.22391 9.76416 3.98201 6.70102 4.11305C6.29922 4.13033 5.66702 3.86752 5.79159 4.50111C8.49326 5.89645 14.7967 5.01663 16.6199 7.77707C18.4942 10.6167 15.7637 12.7832 13.1549 13.4369C9.05057 14.4665 4.41265 13.9639 0.304696 13.2533V9.07521H0.303254Z" fill="white"/>
<path d="M36.6046 0.196777V9.98936C36.6046 10.1622 35.793 11.33 35.572 11.5683C32.6125 14.7586 22.7448 14.6542 19.4937 11.9521C19.228 11.731 18.0615 10.1542 18.0615 9.98936V0.196777H22.8931L23.2848 0.588465V8.68403C25.0936 10.4286 29.5969 10.4156 31.3812 8.68403V0.588465L31.7729 0.196777H36.6046Z" fill="white"/>
<path d="M121.484 27.8779V34.0144C121.484 34.7229 120.015 35.6301 119.27 35.7179C111.622 36.6143 102.272 35.026 94.4411 35.7236C91.3923 34.9957 91.5378 31.0293 94.4677 30.2431L119.005 30.2301C119.897 30.0588 120.44 27.9866 121.484 27.8779ZM101.634 32.0575L99.2835 32.0546V33.8855L101.635 33.8812L100.065 33.2311L101.333 33.0604L101.634 32.0575ZM104.77 32.0568C103.526 32.0791 101.687 31.5873 102.175 33.473C102.38 34.265 102.991 33.2908 103.578 33.3462C104.064 33.3923 104.241 33.9871 104.768 33.8819L104.77 32.0568ZM107.902 32.0575L105.551 32.0553L105.666 33.64L107.903 33.8812L106.594 33.2311L107.788 32.8552L107.901 32.0575H107.902ZM109.206 32.0553C108.057 31.8919 109.12 33.3477 109.248 33.8402C110.624 34.2124 111.152 33.2606 111.297 32.0575C110.332 31.9307 110.905 33.1936 109.866 33.3693C109.23 33.4766 109.297 32.4765 109.206 32.0553ZM111.561 33.8826L114.426 33.4931C113.454 31.2705 112.026 31.6248 111.561 33.8826ZM117.04 33.1C116.31 32.6406 115.995 31.8213 114.956 32.0553V33.8826L115.61 32.8372C116.279 32.861 116.776 34.2923 117.827 33.8848V32.0575L117.041 33.1H117.04Z" fill="white"/>
<path d="M77.0164 17.2324L89.3554 17.3066C93.2192 19.9756 90.4024 26.8551 86.2944 27.5542C84.261 27.8998 78.0619 27.8393 75.8974 27.6298C70.2565 27.0833 72.7385 18.2418 77.0164 17.2324ZM80.6794 19.5897C77.2879 20.1081 76.3403 24.5202 79.3199 24.991C81.8876 25.3964 86.2627 25.2473 86.2476 21.7395C86.2368 19.1166 82.5897 19.2974 80.6786 19.5897H80.6794Z" fill="white"/>
<path d="M26.4191 17.1706C26.2837 18.1779 26.7928 19.5459 26.0274 20.304H18.0621V20.826H25.2439C25.9871 21.5143 25.5183 22.7657 25.6357 23.6988H18.4538L18.0621 24.4821H26.0274C26.7935 25.2403 26.2837 26.6083 26.4191 27.6155H13.8828V17.1699H26.4191V17.1706Z" fill="white"/>
<path d="M39.7407 20.5669C39.3432 20.9601 32.9073 19.1896 31.9057 20.4366C34.184 21.4777 41.3025 20.8168 40.779 24.8516C40.2865 28.6459 30.2618 28.2349 27.5803 27.1095L27.4658 23.9603C30.3122 24.5974 33.1744 24.5204 36.0828 24.4801C35.9755 23.9595 35.5456 24.0366 35.1661 23.9631C33.0491 23.5535 27.7322 23.5563 27.2613 20.8931C26.5095 16.6437 34.0666 16.7179 36.7474 16.8986C40.0755 17.1232 39.8905 17.1549 39.7414 20.5669H39.7407Z" fill="white"/>
<path d="M121.484 17.1709C121.704 17.3768 120.441 21.3173 120.448 22.0416C120.453 22.663 120.928 22.8495 120.914 23.4895C120.884 24.8503 120.328 25.4839 119.65 26.4473C119.461 26.7165 119.45 27.1435 119.326 27.2832C118.787 27.8923 116.012 27.5489 115.121 27.5805L114.302 26.0506H106.075C106.044 22.2008 110.23 19.8673 112.474 17.1716H121.484V17.1709ZM116.521 18.739C116.243 18.4453 114.298 20.5253 114.037 20.8234C113.704 21.2029 113.305 21.7263 113.001 22.1381C112.797 22.4146 112.395 22.4398 112.861 22.7897L115.612 22.6594L116.521 18.739Z" fill="white"/>
<path d="M91.1887 27.6167C91.0044 26.4985 91.4516 26.0463 92.2523 25.4156C93.4504 24.471 100.943 21.1612 101.095 20.6759C101.356 19.8444 100.22 19.6276 99.6516 19.5463C97.5959 19.2532 95.3305 19.6852 93.2776 19.7824C93.2733 19.1719 93.3792 17.405 93.9646 17.2049C95.8864 17.4475 104.417 16.631 105.48 17.5087C106.643 18.4706 106.349 20.5939 105.517 21.7048C104.301 23.3291 101.703 23.7093 100.33 25.0053H104.64C105.486 25.0053 104.689 27.6167 104.117 27.6167H91.1895H91.1887Z" fill="white"/>
<path d="M66.1168 25.005H70.4264C71.0795 25.6595 70.6013 27.4227 69.6357 27.6092C68.5196 27.8245 60.5896 27.8216 59.4649 27.6092C58.2047 27.3709 58.3668 25.7365 58.8708 24.8085C59.9667 23.9416 66.7001 21.3417 66.8974 20.428C67.0299 19.8139 65.8907 19.564 65.4695 19.5158C63.2733 19.2616 60.9921 19.7261 58.8046 19.7793L59.5779 17.291C60.0099 17.0066 68.7962 17.0441 69.9202 17.1542C71.5043 17.3098 71.981 18.3833 71.8679 19.9068C71.6433 22.9386 67.8651 23.3526 66.1175 25.0043L66.1168 25.005Z" fill="white"/>
<path d="M13.1007 17.1706C12.9653 18.1779 13.4744 19.5459 12.709 20.304H4.48225C4.46209 20.4732 4.8286 20.826 4.87396 20.826H12.0559V23.6988H4.87396C4.06101 24.6802 4.65579 26.3779 4.48225 27.6155H0.303711V17.1699H13.1007V17.1706Z" fill="white"/>
<path d="M54.6253 17.1706L53.1456 20.0635L49.9248 20.3039V27.2245L49.492 27.5751C48.242 27.5046 46.4793 28.0093 45.4848 27.2245V20.3039H41.1753C40.4696 20.3039 40.1657 17.771 40.9052 17.1338C41.2141 16.8682 41.3502 17.1698 41.4359 17.1698H54.6246L54.6253 17.1706Z" fill="white"/>
<path d="M58.2804 17.1722L57.2414 20.1781L54.3633 20.3034C54.5786 17.872 55.7415 16.6804 58.2804 17.1722Z" fill="white"/>
</svg>
