<svg width="144" height="36" viewBox="0 0 144 36" fill="none" xmlns="http://www.w3.org/2000/svg">
<path d="M50.4109 0.400391C50.4361 0.679756 50.5506 0.936081 50.6903 1.17513C52.2104 3.76862 54.8949 7.90941 55.9397 10.5483C56.2169 11.2488 56.3055 11.9883 56.4726 12.7112L56.9413 11.0652L62.818 0.400391H68.3V22.327H64.6448V5.11288C64.6448 4.5131 65.2533 3.51589 65.4081 2.98956C65.532 2.56835 65.1201 2.71091 64.845 2.71307L58.4881 14.5364L54.5852 14.6372C52.3163 10.9241 50.4397 6.96979 48.3018 3.18179C48.1534 2.91899 48.1412 2.62308 47.7178 2.7102L48.3018 4.91343L48.2938 22.3277H44.6387V0.689837L44.9274 0.401111H50.4095L50.4109 0.400391Z" fill="white"/>
<path d="M81.148 0.0723069C89.1251 -0.748509 97.1958 5.51418 95.0917 14.0147C92.503 24.4736 76.3126 25.7624 71.2216 16.4238C67.084 8.83416 73.2753 0.881601 81.148 0.0715862V0.0723069ZM80.9485 3.33469C70.7874 4.62568 71.3743 19.2348 82.2382 19.6416C95.0989 20.1232 94.8894 1.56274 80.9485 3.33469Z" fill="white"/>
<path d="M107.309 0.0726391C115.286 -0.748176 123.354 5.53035 121.253 14.015C119.362 21.6543 109.792 24.579 103.049 21.5305C91.6375 16.3723 95.2567 1.3125 107.309 0.0726391ZM114.965 5.28841C110.582 1.79995 102.994 2.78638 100.515 8.08928C96.5139 16.6502 108.12 23.1383 115.046 17.425C118.911 14.2367 118.878 8.40175 114.965 5.28769V5.28841Z" fill="white"/>
<path d="M140.05 0.400391H143.416L143.705 0.689117V22.327H139.858L127.5 5.92794C127.005 5.46713 126.98 4.1243 126.588 3.76285C125.701 2.9442 126.777 5.57657 126.777 5.68961V22.327H123.122V0.400391H126.681L139.363 16.9549L140.338 19.246L140.049 0.400391H140.05Z" fill="white"/>
<path d="M-3.64174 0.400623C-3.42211 0.623827 -3.75908 5.74312 -3.65179 6.66114C-3.61867 6.94122 -3.62805 7.15578 -3.3537 7.32427H9.63017V0.399902H13.2853V22.3265H9.63017V10.4016H-3.3537C-3.62805 10.5701 -3.61939 10.7846 -3.65179 11.0647C-3.96935 13.7691 -3.71372 18.221 -3.65179 21.0845C-3.64099 21.5733 -3.26296 22.0169 -3.73822 22.3265H-7.29688L-7.00814 0.399902H-3.64174V0.400623Z" fill="white"/>
<path d="M31.7529 3.66997H19.4415V7.32476H27.5209V10.4021H19.4415V19.0574H31.4641L31.7529 19.3454V22.327H15.7871V0.400391H31.4641L31.7529 0.689117V3.66997Z" fill="white"/>
<path d="M55.6046 26.5588V34.0599H54.2573L54.1623 31.9424C53.458 35.3459 48.8581 34.7065 48.8574 31.2713C48.8567 28.8398 52.11 27.4524 53.9527 28.6929C54.2372 28.8845 54.1479 29.2668 54.4489 29.2509L54.2573 26.5581H55.6046V26.5588ZM54.2588 31.5593C54.4193 28.3272 49.2902 28.8391 50.3048 32.1468C50.7995 33.7597 52.9122 33.1498 52.9324 31.5809L54.2588 31.5593Z" fill="white"/>
<path d="M28.4822 28.4818L29.6372 28.4803L29.7322 29.2536C30.6518 27.6811 33.4889 28.1657 34.5338 29.4509C36.5399 31.9184 33.6668 35.6639 30.8815 33.6796L29.8302 31.945L29.8006 35.6675C29.6422 36.1478 28.8962 35.9591 28.4814 35.9829V28.4818H28.4822ZM31.1559 31.5793C31.2192 31.6347 31.2703 32.5808 31.8356 32.9163C33.8122 34.0914 34.8686 30.1954 32.7249 29.5287C31.7831 29.2356 30.5733 29.4322 30.0152 30.302C28.8739 32.0811 30.9139 31.3676 31.1551 31.5793H31.1559Z" fill="white"/>
<path d="M80.3522 29.1264C83.8223 32.3232 77.6281 36.4259 75.1431 32.8921C72.9375 29.7564 77.734 26.7136 80.3522 29.1264ZM77.2854 29.4849C74.9465 30.0228 75.6227 33.6495 78.5484 33.0533C81.0219 32.5493 80.3731 28.775 77.2854 29.4849Z" fill="white"/>
<path d="M44.5899 28.336C48.3754 27.7297 50.2512 32.4206 46.6983 33.906C41.986 35.876 39.9158 29.0848 44.5899 28.336ZM43.5464 30.0806C41.703 32.1665 45.6815 34.3899 47.0345 32.3191C48.5143 30.0539 45.0651 28.3619 43.5464 30.0806Z" fill="white"/>
<path d="M87.7284 34.0601H86.5741V30.5018C86.5741 30.3801 85.9771 29.6227 85.8022 29.5435C84.9568 29.1597 83.1112 29.8675 83.1112 30.694V34.0601H81.7646V28.4822L83.1105 28.4836L83.014 29.2504C83.8947 27.4799 87.7277 28.4303 87.7277 30.1166V34.0594L87.7284 34.0601Z" fill="white"/>
<path d="M57.5282 28.4819V32.0402C57.5282 32.1619 58.1244 32.9179 58.2994 32.9986C59.2153 33.4176 60.9904 32.5954 60.9904 31.6557V28.4819L62.1173 28.5078L62.1295 34.044L61.0012 34.0426L60.9889 33.4817C59.8476 34.4156 58.0013 34.574 56.9492 33.3888C56.785 33.2038 56.1816 31.997 56.1816 31.848V28.4819H57.5282Z" fill="white"/>
<path d="M69.0691 30.0196C67.662 30.304 67.1069 29.2831 65.7005 29.4386C63.7657 29.6524 63.3855 32.3258 65.2742 32.9494C66.8764 33.4779 67.5115 32.2358 69.0698 32.5231C68.151 34.3059 65.8446 34.6947 64.1956 33.6442C60.9552 31.5799 63.6793 27.3505 67.2545 28.4709C67.5526 28.5645 69.473 29.6719 69.0691 30.0203V30.0196Z" fill="white"/>
<path d="M35.792 28.482L36.9362 28.4986L37.0413 29.0581C38.8869 27.3905 41.6153 28.5353 41.7543 30.9812L40.4164 30.974C40.6267 29.2856 38.5355 28.999 37.5332 29.9343C37.4187 30.0416 36.9463 30.83 36.9463 30.8862V34.06H35.792V28.482Z" fill="white"/>
<path d="M70.9932 32.81C71.305 33.2463 71.8724 33.0843 72.3412 33.0973V34.2536C71.2913 34.3069 70.0434 34.088 69.7381 32.9115C69.5703 30.7774 69.5171 28.6843 69.646 26.5581H70.9947L70.9925 28.4834L72.1511 28.5936L72.1475 29.4453L70.9003 29.2495C70.6281 29.2841 70.9939 29.4965 70.9939 29.5404V32.81H70.9932Z" fill="white"/>
<path d="M74.0713 28.4819H72.917V34.0599H74.0713V28.4819Z" fill="white"/>
<path d="M74.0732 26.9419H72.916V28.099H74.0732V26.9419Z" fill="white"/>
</svg>
