<svg width="109" height="36" viewBox="0 0 109 36" fill="none" xmlns="http://www.w3.org/2000/svg">
<path d="M88.3003 2.39573C88.5127 2.53829 88.2895 3.70324 87.7091 3.58876C87.1035 3.15821 87.7818 2.04726 88.3003 2.39573Z" fill="white"/>
<path d="M108.382 2.39281C108.212 2.51233 107.487 2.20849 107.646 1.85857C107.996 1.08746 108.768 2.12209 108.382 2.39281Z" fill="white"/>
<path d="M13.3052 23.6665V25.7271C13.3052 25.7415 13.1201 25.9266 13.1057 25.9266H8.65137V23.6665H13.3052Z" fill="white"/>
<path d="M8.91763 17.0188C8.42654 15.1663 9.62328 13.7537 10.141 16.3233C10.0805 15.8402 10.0402 14.6069 10.6465 15.2901C10.6638 15.6689 10.5939 16.1354 10.6465 16.4868C10.792 16.7366 11.2802 16.8979 11.3032 16.7589C11.3162 16.6805 11.4508 15.9014 11.4976 15.9036C11.6697 15.9115 11.8893 16.0613 11.8425 16.2348C12.0449 15.9756 12.204 15.9072 12.3754 16.2211C12.6397 16.4932 12.559 16.8316 12.2422 17.0188C11.5034 17.0239 10.8877 17.1218 10.1878 17.1578C9.92786 17.1715 8.9889 17.2327 8.91833 17.0188H8.91763Z" fill="white"/>
<path d="M10.6453 16.4866L11.3092 16.7516V14.624L12.9055 14.6255C12.9423 14.6622 12.8177 15.4174 12.7724 15.5557C13.1418 15.7342 12.727 16.3513 12.3734 16.2202C11.7491 16.2274 12.2784 17.1015 11.5763 16.8855L11.5742 15.9546L11.4424 16.8855C10.9851 16.8891 10.7209 16.9957 10.6445 16.4859L10.6453 16.4866Z" fill="white"/>
<path d="M12.773 15.5559C14.144 15.1037 13.8502 15.9713 13.8214 17.0038C13.249 17.2774 12.7823 17.0146 12.2409 17.0182C12.1926 16.71 12.2646 16.4976 12.3741 16.2204C12.4482 16.0318 12.7334 15.6768 12.773 15.5559Z" fill="white"/>
<path d="M8.91779 17.0189C8.69025 16.6409 8.7068 15.0325 8.94947 14.7898C9.23965 14.4997 10.2334 14.6696 10.6474 14.6242C10.6553 14.8446 10.6366 15.0692 10.6474 15.2895C10.242 15.2154 10.3954 15.4933 10.3817 15.7489C10.3695 15.9785 10.5329 16.6805 10.1815 16.6208C9.51039 16.5063 9.91362 15.4515 9.45278 15.2161C8.81407 14.8899 8.8177 16.7108 8.91923 17.0182L8.91779 17.0189Z" fill="white"/>
<path d="M12.3748 19.2789C12.935 19.3422 12.7082 20.027 12.3064 20.1472L12.2416 20.6087C13.1028 21.328 11.8023 21.5454 11.3105 21.1408C11.2803 20.5245 11.3321 19.8959 11.3105 19.2789C11.6641 19.2839 12.0212 19.2724 12.3748 19.2789Z" fill="white"/>
<path d="M12.2414 20.6086C12.2076 19.754 12.6065 19.6654 13.4382 20.3429C13.4324 20.6216 13.6016 21.0464 13.5613 21.1911C13.4454 21.608 11.7244 21.3265 11.3096 21.4064C11.3032 21.3185 11.3147 21.2293 11.3104 21.1407L12.2414 21.2746C12.2659 21.0629 12.2068 20.8095 12.2414 20.6093V20.6086Z" fill="white"/>
<path d="M12.3741 19.279C12.6132 19.2841 13.4521 19.2639 13.5601 19.4238C13.6537 19.5613 13.4427 20.0991 13.4377 20.3425C12.8177 20.8378 12.4627 19.2978 12.2409 20.6081C12.0523 20.0746 12.6269 19.6729 12.3741 19.2783V19.279Z" fill="white"/>
<path d="M15.1673 4.7867C14.3183 4.14014 13.4729 3.39928 12.7096 2.65697C12.5786 2.52953 12.4598 2.48345 12.508 2.26025H21.4175C21.478 2.51801 21.3239 2.51585 21.1935 2.63465C19.8204 3.88671 18.4645 5.19133 17.1626 6.51467C16.534 6.96322 16.0205 5.86452 16.6175 5.48293L17.7358 4.35254C17.3678 4.68661 17.0438 4.7867 16.7637 4.6535C16.5073 4.02639 14.4378 3.75279 15.3977 4.57501L15.168 4.7867H15.1673Z" fill="white"/>
<path d="M15.9648 7.04658C16.3169 7.50018 16.8087 7.75937 16.6093 8.42104C15.882 9.16911 15.0302 9.89846 14.5023 10.7696C13.3293 12.0743 13.6714 9.57231 13.968 8.94448C14.0314 8.81056 15.3722 6.87378 15.4989 6.8457L15.9648 7.04658Z" fill="white"/>
<path d="M13.3064 5.71772C13.5706 5.02437 13.6664 3.66071 14.2374 4.91998C14.1443 5.14653 14.1443 5.14653 14.2374 4.91998C14.8163 5.07261 15.2491 6.25196 15.5652 6.68179C15.6588 6.80923 15.8266 6.86827 15.9656 7.04755C15.4889 6.95539 15.6495 7.12458 15.5206 7.32978C14.7911 8.48896 13.2228 9.62655 13.9753 11.0341L14.5031 10.7706C14.2353 11.212 14.3245 11.3948 13.5721 11.3034C13.3776 11.1155 13.7917 9.47679 13.7722 9.10384C13.76 8.87344 13.5879 8.65241 13.5828 8.43281C13.567 7.79202 13.6981 6.29372 13.4396 5.85093C13.3107 6.04244 13.266 5.9978 13.3064 5.71772Z" fill="white"/>
<path d="M12.9071 12.8969C13.2607 12.8688 13.2809 13.0589 13.0403 13.2957C12.254 13.4066 11.5685 13.5254 10.7793 13.2943C11.0083 12.593 11.1638 11.8716 11.3777 11.1631C11.4194 11.0263 11.5656 10.9378 11.5771 10.9018C12.1215 11.0119 12.5521 10.0666 12.5831 9.56836C12.5637 9.17885 12.7545 7.19095 13.1051 7.15711C13.1707 7.15063 13.2376 7.16215 13.306 7.17871C13.1952 8.89373 12.4837 10.5 12.3772 11.9004C12.3412 12.3727 12.2339 12.9581 12.9071 12.8962V12.8969Z" fill="white"/>
<path d="M13.4385 5.84977C13.2528 6.28968 13.3341 6.73319 13.3053 7.17959C12.6825 8.0227 13.0497 9.37556 12.7026 10.2331C12.5918 10.5059 11.6412 11.8523 11.5771 10.9027C12.1309 9.1574 12.6501 7.4359 13.3061 5.71729C13.3493 5.75904 13.409 5.79865 13.4393 5.85049L13.4385 5.84977Z" fill="white"/>
<path d="M16.7628 4.65308C17.1034 4.373 18.6198 3.68756 17.0299 3.98924L16.896 3.32397C17.4951 3.12381 18.4528 3.79053 18.0985 4.32764C17.8616 4.68763 16.6108 5.7345 16.523 6.06857C16.4207 6.45665 16.8499 6.61649 17.1617 6.51425C16.5352 7.15072 16.5914 6.48977 16.2349 6.08225C16.0088 5.82378 15.9131 5.72442 15.6992 5.4501L16.4971 4.91803C16.2818 4.61347 16.4171 4.51556 16.7628 4.65236V4.65308Z" fill="white"/>
<path d="M16.763 4.65335C16.6737 4.72679 16.5744 4.83191 16.4973 4.91902C16.0912 5.47054 15.7636 5.31934 15.3006 4.91902C15.2689 4.87366 15.2048 4.83695 15.1674 4.78583C15.1422 4.75127 15.1631 4.61879 15.0939 4.52735C14.9442 4.33224 14.327 4.18824 14.9038 3.92328C15.3121 3.73608 17.1223 3.77856 16.763 4.65191V4.65335Z" fill="white"/>
<path d="M12.9077 12.8974C12.9408 12.7145 13.3477 12.1666 13.5709 12.0996C13.5363 12.3098 13.6234 13.2444 13.573 13.297C13.5435 13.3279 13.172 13.2775 13.0409 13.2962C12.9898 13.1882 12.8883 13.0075 12.9077 12.8974Z" fill="white"/>
<path d="M16.4975 4.91992C16.3327 5.10784 16.2513 5.83647 15.6997 5.452C15.5607 5.27344 15.4311 5.1064 15.3008 4.91992C15.7263 4.99768 16.0799 5.11504 16.4975 4.91992Z" fill="white"/>
<path d="M14.2362 4.91948L15.3019 6.58338C15.304 6.85194 14.751 7.20689 14.5739 7.45097C14.4594 7.60937 14.1707 8.62239 13.838 8.37544C13.6962 8.27032 13.9295 5.3882 13.838 4.91876C13.9626 4.93748 14.1303 4.8914 14.2362 4.91948Z" fill="white"/>
<path d="M3.59817 2.39312C3.68673 2.34704 3.75803 2.31464 3.77316 2.3312C3.93805 2.52272 5.04047 3.96774 5.02751 4.07429C5.01959 4.13765 4.97852 4.19669 4.92812 4.25429C4.98356 4.35365 5.07071 4.46957 5.05919 4.58549C5.03039 4.88572 3.47648 6.04995 3.15821 5.96715C2.90691 5.90163 -0.183654 2.03672 0.00860514 1.86177C1.11823 2.03168 2.87305 1.40673 3.59817 2.39312Z" fill="white"/>
<path d="M9.31603 10.3706C9.38588 10.6471 9.94249 12.9158 9.8712 13.0325C9.78911 13.1657 9.51114 13.1966 9.34264 13.1512C8.96173 12.7848 8.57145 12.4399 8.11997 12.2318C8.00691 12.2916 7.87442 12.2772 7.72393 12.1901C7.49422 11.6904 7.27172 11.2166 7.05642 10.7695C6.72231 10.3829 6.30682 9.68162 5.99287 9.30723C5.85678 9.05739 6.04617 8.76868 6.56102 8.4418L6.52431 8.2438C6.28597 7.98821 6.69638 7.17317 7.05642 7.31285L7.45896 7.39349C8.16535 8.12788 9.17418 9.40226 9.31747 10.3706H9.31603Z" fill="white"/>
<path d="M8.91698 6.64749C9.07468 7.54819 9.133 8.43163 9.09123 9.29849C8.84785 9.32225 6.80573 6.56541 6.4853 6.05349C6.45866 6.01029 6.48312 5.9347 6.52345 5.84974C6.31463 5.59918 5.85739 5.26798 6.05037 4.91735C6.22751 4.59623 7.81452 3.66169 8.18608 3.32617C8.38122 3.33625 8.84857 6.24717 8.91698 6.64676V6.64749Z" fill="white"/>
<path d="M5.99169 1.86129C6.78161 1.83177 7.56433 1.92537 8.34992 1.90017C8.45145 1.89657 8.79352 1.77705 8.65022 2.05857C8.42556 2.50064 6.12205 3.70519 5.72529 4.3215C5.19316 4.56846 5.3127 4.14654 5.19388 3.98814C5.11252 4.04502 5.0477 4.08822 5.04122 4.0803C4.85112 3.86142 3.45563 2.09816 3.80486 1.92825L5.99169 1.86057V1.86129Z" fill="white"/>
<path d="M5.45947 8.77525C4.88701 8.09702 4.29438 7.42239 3.73633 6.72832C3.75721 6.6304 5.14191 5.57489 5.32048 5.51009C5.78205 5.34234 5.85189 5.50074 6.1248 5.84994C6.57772 6.07313 7.32085 6.81976 7.05586 7.31223C6.89961 7.59951 6.74766 8.01062 6.52372 8.24318C6.59573 8.69965 5.85693 9.15685 5.46017 8.77525H5.45947Z" fill="white"/>
<path d="M6.52392 5.84961C6.59953 5.94033 6.79323 6.02097 6.91996 6.1808C7.6854 7.14415 8.31186 8.23637 9.11762 9.17308L8.91745 6.64736C9.13276 7.9023 9.24074 9.16156 9.44956 10.3704C9.41212 10.4863 9.3675 10.4849 9.31638 10.3704C8.7756 9.217 7.82222 8.30837 7.05606 7.31263C6.75651 6.92311 6.41447 6.22112 6.125 5.85033L6.44545 5.97128L6.52392 5.85033V5.84961Z" fill="white"/>
<path d="M9.4486 10.3706C9.65886 11.5903 9.9577 12.82 10.2464 14.0253C10.1485 14.1218 10.1536 14.2125 9.98219 14.1599C9.33484 13.9626 9.03312 12.4967 7.98614 12.3657C7.80972 12.1785 7.88389 12.1101 8.11936 12.2325C8.14528 12.2512 8.41673 12.2491 8.58811 12.3556C8.97046 12.5947 9.20666 12.9979 9.71431 12.8963L9.31612 10.3706H9.44931H9.4486Z" fill="white"/>
<path d="M7.05582 10.7695C7.07886 10.7962 7.34028 10.7954 7.46269 10.9553C7.64127 11.1878 7.75645 11.9698 8.11937 12.2318L7.98618 12.365C7.51237 12.3053 7.11991 12.5508 6.80668 12.0166C6.49345 11.4823 6.75987 11.2073 7.05582 10.7695Z" fill="white"/>
<path d="M5.99115 1.86097C5.97387 1.86097 5.84068 1.98913 5.6693 1.99921C5.07236 2.03593 4.46104 1.96177 3.8641 1.99417C3.70784 2.13672 5.01621 3.75166 5.19334 3.98782L4.92761 4.25349C4.70079 3.8503 3.91881 2.82864 3.59766 2.39232L3.73158 1.86097C4.53014 1.92577 5.20772 1.58881 5.99115 1.86025V1.86097Z" fill="white"/>
<path d="M6.52421 8.24291C7.24572 8.21555 6.24553 9.02914 5.99207 9.30633C5.82501 9.1069 5.60758 8.94922 5.45996 8.77426C5.76959 8.78794 6.31685 8.45674 6.52351 8.24219L6.52421 8.24291Z" fill="white"/>
<path d="M15.1673 15.157H14.5012C14.3565 14.054 15.3171 14.0705 15.1673 15.157Z" fill="white"/>
<path d="M107.317 5.98291C108.244 6.22267 107.372 7.19537 107.052 6.11611C107.082 6.11827 107.312 5.99731 107.317 5.98291Z" fill="white"/>
<path d="M47.8454 2.75923C47.6329 2.94283 46.573 2.94283 46.4311 2.77651C46.2216 2.53028 46.3339 1.52589 47.0101 1.45389C48.0391 1.34445 48.3653 2.30996 47.8454 2.75923Z" fill="white"/>
<path d="M50.2706 0.000149936L50.8034 1.9938C50.524 2.29835 49.1314 -0.0214498 50.2706 0.000149936Z" fill="white"/>
<path d="M57.4542 18.7474C57.4808 19.0541 57.7422 19.1938 57.8603 19.4717C58.0547 19.9275 58.0309 20.3739 58.1598 20.7677C58.5811 22.0608 59.4869 24.0969 59.7073 25.3375C59.8268 26.0114 59.4768 26.5183 59.1607 25.8739C58.6271 24.7852 58.3866 23.027 58.028 21.8297C57.7458 20.8887 57.1035 19.885 57.1884 18.8799C57.0516 18.5595 57.1957 18.512 57.4542 18.7467V18.7474Z" fill="white"/>
<path d="M57.8519 26.0591C57.6445 26.026 56.7005 26.1081 56.6551 26.0605C56.6249 26.0296 56.6832 25.5198 56.6451 25.3391C56.537 24.825 55.9927 23.9517 56.9576 24.0892C57.6546 24.1886 57.6366 25.5061 57.8519 26.0584V26.0591Z" fill="white"/>
<path d="M55.1561 16.1118C56.2448 15.7943 56.9649 17.9024 55.1302 17.5467C54.3964 17.4049 54.5534 16.2882 55.1561 16.1118Z" fill="white"/>
<path d="M57.187 18.8803C56.5713 18.9991 55.9557 19.1265 55.3263 19.1452C55.2889 18.9422 55.4322 18.7687 55.5978 18.6866C56.0925 18.4411 57.6233 18.3136 58.2815 18.179C58.463 18.1423 58.7178 17.9248 58.8467 17.9486C59.0008 17.9767 59.124 18.3647 59.0484 18.4792C58.9972 18.557 57.717 18.6887 57.4534 18.7471C57.3677 18.7658 57.2676 18.8644 57.1877 18.8803H57.187Z" fill="white"/>
<path d="M54.9272 21.9381C55.3909 21.4866 56.4746 23.1685 55.8611 23.6092C55.779 23.6682 55.2224 23.5091 55.1259 23.4011C54.9582 23.2139 54.8394 22.0237 54.9272 21.9381Z" fill="white"/>
<path d="M57.5672 23.1153C55.7815 23.8518 56.6347 21.5687 57.3231 21.9942C57.542 22.1296 57.6918 22.918 57.5672 23.1153Z" fill="white"/>
<path d="M55.9909 5.71759C56.3545 5.18047 57.2582 6.2619 57.5613 6.64421C60.0024 9.14042 58.5507 13.6605 55.201 14.3999C54.9691 13.2372 54.5673 12.1161 53.997 11.0361C53.6391 11.0081 53.2733 10.2017 53.5981 9.97273C53.2258 10.008 53.1819 9.83089 53.4649 9.44066C54.1244 8.69475 55.4314 6.63629 55.9916 5.71759H55.9909Z" fill="white"/>
<path d="M52.7998 3.39039C52.9352 2.95264 55.7283 3.34503 55.9624 3.74967C56.0704 3.93614 55.994 4.30838 55.9184 4.51574C55.6297 5.30412 54.4056 6.91978 53.8828 7.66353C53.5811 8.09264 53.5451 8.72408 52.8005 8.90767V3.38967L52.7998 3.39039Z" fill="white"/>
<path d="M61.3103 8.1106C61.6019 9.24962 60.9474 10.3188 60.7955 8.58866L60.6435 8.46987C60.5197 7.13645 60.0768 5.99742 59.3157 5.05279C58.6136 4.3292 57.9699 3.64234 57.0554 3.19162C55.6448 2.27363 53.8749 2.02668 52.2461 2.42988C51.6945 2.55443 51.5245 2.40971 51.737 1.995C52.295 1.10581 55.1746 1.563 56.0984 1.8222C59.1091 2.66603 60.8437 5.15287 61.311 8.11131L61.3103 8.1106Z" fill="white"/>
<path d="M59.3155 5.05225C59.561 5.30496 59.9873 5.52312 60.145 5.88456C60.4481 6.57935 60.4784 7.60461 60.6642 8.16189C60.7246 8.34188 61.0098 8.32461 61.0458 8.47077C61.1128 8.74292 60.9097 9.19723 61.3086 9.30667L61.3101 8.11005C61.7277 10.7539 61.0206 13.2537 58.9165 15.0241C57.7738 15.284 58.2174 14.2112 58.869 13.7648L59.0491 13.4286C59.3681 12.8548 59.8887 12.2874 60.1184 11.6394C60.9033 9.42978 60.5432 7.00558 59.3148 5.05225H59.3155Z" fill="white"/>
<path d="M51.2035 10.2378C51.7436 10.0679 52.3917 10.0657 52.9533 10.0931C53.0261 10.0967 53.3594 11.2285 53.3717 11.4301C53.4444 12.6606 52.3672 13.4965 51.2035 13.0306C50.1472 12.3186 50.0464 10.8865 51.2035 10.2385V10.2378Z" fill="white"/>
<path d="M53.9962 11.4351L54.1251 11.4258C54.6205 12.2991 54.9568 13.2445 55.2427 14.2057C55.7172 14.7097 56.8693 13.6786 57.3035 13.269L57.5858 13.2963C57.6952 13.2862 57.6952 13.3748 57.5858 13.562C57.5426 13.616 57.539 13.8089 57.3957 13.9645C56.5626 14.863 55.2527 15.5448 54.0783 15.8328C53.9509 15.8062 53.3532 13.7751 53.1977 13.4288C53.0752 13.0796 53.1768 12.6966 53.5015 12.2804C53.5793 11.8448 53.7442 11.5626 53.9955 11.4344L53.9962 11.4351Z" fill="white"/>
<path d="M56.3897 4.91967C57.4633 5.64614 58.3656 6.7758 58.745 8.09698L58.9157 8.11067C59.1324 9.11289 59.0698 9.77096 58.9157 10.7696C58.681 11.8064 58.2374 12.648 57.5857 13.296C56.9665 14.0585 55.504 14.7886 54.5283 14.8908C54.4297 14.4682 55.1548 14.5027 55.1771 14.2968C55.1994 14.0909 54.2345 11.7725 53.9955 11.4341C53.6693 11.2808 53.6671 11.1843 53.9955 11.0353C54.6889 11.9669 55.0216 13.1168 55.3269 14.2263C57.2898 13.8475 59.0698 10.766 58.5866 8.90337C58.3188 7.87162 57.1119 5.89382 55.9901 5.7167C56.088 5.55542 56.2054 5.22134 56.389 4.91895L56.3897 4.91967Z" fill="white"/>
<path d="M58.9162 8.11101L58.7844 8.77484C58.5547 7.79493 57.9189 6.74086 57.2564 5.98055C56.9316 5.60832 56.3333 5.4924 56.3894 4.92001C56.4974 4.74217 56.4542 4.28282 56.7199 4.38938C57.5941 4.73857 58.7189 7.19806 58.9162 8.11101Z" fill="white"/>
<path d="M53.5971 9.97196C53.7332 10.3233 53.9463 10.6545 53.996 11.0354C54.0111 11.1513 54.0046 11.314 53.996 11.4343C53.9297 12.3357 53.3587 12.6186 53.1981 13.4286C53.1002 13.2112 53.0592 12.9498 52.7992 13.0298L52.7373 12.8879C53.538 12.2061 53.5812 11.0131 52.8532 10.2434C52.8467 10.1563 53.5272 9.62421 53.5971 9.97124V9.97196Z" fill="white"/>
<path d="M51.7359 1.99476C51.7308 2.36843 51.6279 2.42603 52.0642 2.39291C52.6324 2.34971 53.2609 2.01276 53.8039 1.98972C54.6694 1.953 55.8057 2.44907 56.574 2.80907C56.7663 2.89907 56.9664 2.97538 57.0557 3.19138C55.2462 2.29931 53.5584 2.40515 51.6034 2.52611C51.5508 2.26835 51.6156 2.18843 51.7366 1.99476H51.7359Z" fill="white"/>
<path d="M58.9166 15.0252C58.5789 15.3096 58.2721 15.4759 57.8077 15.4327C57.0775 14.6184 58.563 14.0244 59.0498 13.4297C59.0231 13.4772 59.0584 13.6702 58.9807 13.8214C58.8366 14.1014 57.9279 14.7307 58.9166 15.0252Z" fill="white"/>
<path d="M53.5967 9.97204C52.6872 10.3133 53.2539 10.4422 53.4044 10.8951C53.5967 11.4747 53.2993 12.6713 52.7988 13.0306C52.2782 13.4042 51.7173 13.3769 51.2031 13.0306C52.4805 13.1285 53.4282 12.6101 53.2654 11.2342C53.2546 11.1442 52.8665 10.3414 52.8017 10.3025C52.4863 10.1103 51.61 10.3068 51.2031 10.2392C51.35 10.1571 51.3911 9.99364 51.6769 9.97276C52.5929 9.90436 52.5799 10.4415 53.4641 9.44141C53.4411 9.64372 53.5282 9.79636 53.5974 9.97348L53.5967 9.97204Z" fill="white"/>
<path d="M52.5315 13.9613C52.6042 14.0347 53.1486 15.8743 53.0658 15.9549C52.9167 15.9319 52.4437 15.9974 52.4019 15.9549C52.3393 15.8901 52.2385 14.3796 52.268 14.1586C52.2925 13.9757 52.3385 13.7683 52.5315 13.962V13.9613Z" fill="white"/>
<path d="M56.4874 15.447C57.3774 15.2742 57.0476 16.3787 56.7049 16.4788C56.2779 16.6033 55.5535 15.6285 56.4874 15.447Z" fill="white"/>
<path d="M58.9159 10.77C58.697 12.1891 58.4392 12.503 57.5859 13.5621V13.2964C58.0633 12.7082 58.6833 11.4604 58.7769 10.6958L58.9159 10.77Z" fill="white"/>
<path d="M51.327 14.349C51.229 14.488 50.7092 14.4347 50.5399 14.357C50.5025 13.0235 51.6726 13.858 51.327 14.349Z" fill="white"/>
<path d="M48.5439 13.1625C48.6973 13.3217 48.6339 13.4203 48.4107 13.4282C48.4928 13.9833 47.507 14.6162 47.0735 14.28C46.8157 14.0798 46.9554 10.3035 47.1326 9.77859C46.8928 8.89804 46.8315 7.98654 46.9475 7.04623C46.9633 6.81872 46.8762 6.71144 47.0807 6.51416C47.9556 6.51704 48.8254 6.55375 49.6888 6.62575C50.0316 6.92311 49.8011 11.8903 49.7572 12.7529C49.5786 13.2065 49.4771 13.218 49.0278 13.0747L48.5432 13.1618L48.5439 13.1625Z" fill="white"/>
<path d="M44.8872 5.45093C44.5883 5.37461 44.8497 4.95198 44.8331 4.72158C44.7863 4.06351 44.5883 3.42632 44.6877 2.72289C44.7136 2.53857 44.6135 2.49537 44.8886 2.52345L48.4637 4.00231C48.9685 4.32919 49.7275 4.59127 49.6086 5.31774C49.3221 5.18886 48.8886 5.45093 48.7439 5.45093C47.8762 5.45093 45.5431 5.61797 44.8879 5.45093H44.8872Z" fill="white"/>
<path d="M47.0811 6.51534C47.3735 6.23311 47.5225 6.5067 47.8134 6.48942C48.1245 6.4707 50.0068 6.16686 50.0068 6.5823V14.5598C50.0068 14.8327 49.6813 15.1581 49.4084 15.1581H46.8154L46.9486 7.04742C46.9162 7.50389 46.873 8.57308 46.9508 8.97339C47.0127 9.29379 47.3432 9.35858 47.3634 9.77402C47.3821 10.1607 47.1243 10.3435 47.0747 10.697C47.025 11.0506 47.0214 13.6303 47.1013 13.8751C47.3245 14.5576 48.1281 13.6454 48.4111 13.4301L48.6898 13.528C48.8554 14.5375 49.8189 13.276 48.7215 13.3956L48.5443 13.1644C49.1672 12.8678 49.4156 13.2544 49.5755 12.4005C49.8477 10.9411 49.551 8.69763 49.7159 7.15181C49.52 6.21007 47.8192 7.0179 47.0819 6.51678L47.0811 6.51534Z" fill="white"/>
<path d="M50.0062 24.0654V26.4587H46.2165C45.7924 26.4587 46.1524 24.6457 46.151 24.3325L50.0062 24.0654Z" fill="white"/>
<path d="M46.9481 16.7523C48.1593 16.6494 49.379 16.6285 50.6075 16.689L50.6104 17.2822C50.8646 17.5918 51.1404 18.1203 50.6716 18.3485C50.6716 18.5811 50.5412 18.7856 50.5384 18.8806L50.2921 19.1139C49.0975 18.8849 47.9836 18.8964 46.9481 19.1463C46.9452 18.9252 46.9459 18.7028 46.9481 18.4817C46.5621 18.1347 46.5506 17.4939 46.9481 17.1519C46.9524 17.0187 46.9452 16.8855 46.9481 16.753V16.7523Z" fill="white"/>
<path d="M50.539 18.8803C50.521 19.4981 50.552 20.1245 50.539 20.7422L46.9473 20.8754C46.943 20.3009 46.9545 19.7213 46.9473 19.1467C47.1086 18.984 46.9783 18.7759 47.2713 18.7371C48.1728 18.6168 49.6303 18.7435 50.5376 18.8811L50.539 18.8803Z" fill="white"/>
<path d="M50.8045 21.4072C50.6648 21.8126 51.0926 22.8393 50.919 23.1179C50.7664 23.3634 48.0229 23.3742 47.5505 23.542C47.0422 23.6219 47.1775 21.6599 47.2352 21.5627C47.2438 21.5476 47.5289 21.4072 47.547 21.4072H50.8045Z" fill="white"/>
<path d="M51.7351 15.4233V16.0886C50.5088 16.1736 49.2948 16.031 48.0836 15.9496C47.8172 15.9316 46.6046 16.008 46.5499 15.9547C46.4699 15.8769 46.6082 15.4233 46.7486 15.4233H51.7351Z" fill="white"/>
<path d="M44.0222 7.97847L44.0409 7.19872C44.527 7.1008 45.0029 6.96473 45.4818 6.84161C45.6452 6.79985 45.6856 6.72569 45.8217 6.91001C46.3884 7.82511 44.6177 8.00223 44.0215 7.97919L44.0222 7.97847Z" fill="white"/>
<path d="M46.9486 18.481C46.6202 18.4435 45.7676 18.661 45.7583 18.1613C45.7403 17.19 46.235 17.3484 46.9486 17.1519C46.9349 17.5932 46.9536 18.0396 46.9486 18.4817V18.481Z" fill="white"/>
<path d="M46.9482 16.7521C47.0865 16.5318 47.453 16.6189 47.6777 16.6168C48.0795 16.6124 50.568 16.5102 50.6724 16.6182C50.8568 16.8097 50.2123 17.3922 51.2428 17.5528C51.6568 17.6176 51.0836 18.4247 50.6717 18.3476C50.6732 17.8019 50.4766 17.3022 50.5392 16.7514H46.9482V16.7521Z" fill="white"/>
<path d="M48.4111 13.4291C48.4111 13.3189 48.4176 13.1979 48.5444 13.1634C49.7123 12.8416 49.8729 14.1735 48.7604 14.2189C48.5688 14.1599 48.4104 13.6112 48.4111 13.4291Z" fill="white"/>
<path d="M79.3526 18.506C79.8934 18.4923 80.2297 19.9546 79.4866 20.1029C75.0574 21.8143 70.7305 23.7597 66.2632 25.3725C65.3544 25.5136 66.1264 23.8108 66.4886 23.4609C66.9329 23.0304 68.5876 22.6689 69.2839 22.3997C71.9496 21.3694 74.5944 20.2102 77.2695 19.2152C77.6813 19.0618 79.0451 18.5132 79.3533 18.506H79.3526Z" fill="white"/>
<path d="M83.6484 23.9314C84.0459 24.0164 83.1451 24.6089 83.1235 24.6809C83.0061 25.0676 84.177 26.0367 83.3157 26.1907C79.1588 26.0597 74.8931 26.3686 70.7505 26.1907L70.3041 26.0496C70.1507 25.7595 72.2072 24.943 72.6126 25.1273C73.5861 24.7148 74.5899 24.4138 75.6232 24.2245L75.9372 24.4628L76.5579 24.1366C78.0607 23.9062 79.706 23.6859 81.2146 23.6528C82.1067 23.6333 82.7757 23.6945 83.6491 23.9307L83.6484 23.9314Z" fill="white"/>
<path d="M82.585 23.5327C82.9566 23.8689 83.0113 23.8077 83.56 23.8243L83.6486 23.9316C82.2344 23.7912 80.8835 23.9381 79.47 24.0749C78.3179 24.1864 77.1233 24.3636 75.9359 24.4636C75.5211 24.2613 75.6536 23.9949 76.3348 23.6659C76.2995 23.4218 76.6207 23.3016 76.7337 23.5327C77.1024 23.4269 77.4574 23.2944 77.7973 23.1338C77.7713 22.8516 78.0457 22.7609 78.1962 23.0006C79.0415 22.8293 80.0151 22.7976 80.7647 23.2461C81.5611 22.7184 82.1414 22.4218 82.5843 23.5327H82.585Z" fill="white"/>
<path d="M70.2183 25.6599C69.5745 25.8932 68.9185 26.1783 68.2237 26.1905C68.2208 26.0681 68.3483 26.0019 68.4404 25.9436C69.2376 25.4425 71.8248 24.5655 72.8819 24.135C76.1308 22.8116 79.4309 21.5257 82.718 20.3428C82.8966 20.4789 81.6422 21.0858 81.5213 21.1391C81.4341 21.2824 81.3376 21.4069 81.2109 21.4688C80.2114 21.9584 79.0795 22.4192 78.0404 22.8426C75.6411 23.8189 73.1051 24.7966 70.6633 25.6613C70.5315 25.7081 70.3782 25.6923 70.219 25.6592L70.2183 25.6599Z" fill="white"/>
<path d="M81.5214 21.1392L81.3882 21.4041C81.6013 21.4005 81.7525 21.3588 81.9203 21.538C81.6474 21.8419 81.2384 22.0435 80.6933 22.1421C79.8876 22.6115 79.0559 22.8981 78.1975 23.0003C78.0629 23.0536 77.9318 23.086 77.7986 23.1335C77.4638 23.2998 77.1095 23.4323 76.7351 23.5324C76.5918 23.5691 76.4694 23.6267 76.3361 23.6656L75.8638 24.0573C74.77 24.3806 73.6863 24.7377 72.6127 25.1279C71.8695 25.336 71.1214 25.6456 70.4172 25.9249L70.7506 26.1913C70.5302 26.182 70.3063 26.1992 70.0866 26.1913C70.0348 25.9631 70.2055 25.8803 70.3502 25.7262L70.2192 25.6607C73.8555 24.3417 77.9844 22.7001 81.5221 21.1399L81.5214 21.1392Z" fill="white"/>
<path d="M81.9208 21.5386C82.121 21.7531 82.5631 23.1427 82.5854 23.533C81.3944 22.4558 81.5658 23.4012 80.7643 23.507C80.6139 23.5272 80.4389 23.3134 80.2459 23.2788C79.5633 23.1571 78.8777 23.1226 78.1973 23.0009C79.3832 22.5293 80.6153 21.6855 81.9208 21.5386Z" fill="white"/>
<path d="M81.2136 17.8374C81.6017 17.8028 82.3427 18.7438 81.354 19.1765C80.3056 19.6352 80.0924 17.9367 81.2136 17.8374Z" fill="white"/>
<path d="M79.9257 15.8214L67.8926 20.875L69.4205 15.5558C72.4974 15.3657 75.5944 15.321 78.7109 15.4218C79.1206 15.19 79.9559 15.3052 79.9257 15.8214Z" fill="white"/>
<path d="M72.7442 5.4497C73.5204 6.23017 74.6797 6.4872 75.1974 7.05168C75.3811 7.25111 76.2927 9.581 76.4043 9.97052C76.4554 10.1469 76.4907 10.3176 76.4669 10.5026C75.749 10.7495 70.7359 10.9828 70.6387 10.6718L70.7489 10.1037C71.3271 8.56726 71.9506 6.86664 72.4777 5.31722C72.6952 5.02995 72.801 5.0969 72.7434 5.45042L72.7442 5.4497Z" fill="white"/>
<path d="M76.0682 12.896C76.7774 12.482 78.1866 12.4331 78.8606 12.896C78.9045 12.8989 78.9492 12.8931 78.9938 12.896C79.5403 12.9623 79.8442 13.6549 79.3927 13.9594L79.2725 14.2273C76.1013 14.3259 72.9503 14.2806 69.8187 14.0926C69.8237 14.0487 69.8115 14.0026 69.8187 13.9594C69.432 13.7982 69.6948 13.0919 70.0844 13.1617C70.0988 13.1041 70.1161 13.0479 70.1456 12.999C70.1564 12.9803 70.3645 12.7484 70.3846 12.7412C71.5029 12.3431 74.4624 12.531 75.7693 12.6246L76.0682 12.896Z" fill="white"/>
<path d="M69.8193 14.2261C72.8263 14.2398 75.8779 14.2462 78.9735 14.2455C79.3645 14.2714 79.497 15.2384 79.1212 15.4263L68.2236 15.4227C67.3552 15.5113 67.4582 14.6689 67.7116 14.5112C67.8434 14.4291 68.5203 14.5162 68.8061 14.4759C69.1064 14.4334 69.6083 14.234 69.82 14.2261H69.8193Z" fill="white"/>
<path d="M75.4044 11.3007C75.6881 11.3043 75.9545 11.4325 76.069 11.4339C76.154 11.6204 76.4442 12.6485 76.3779 12.7688C76.3268 12.8609 76.1857 12.8811 76.069 12.8969C74.4914 12.8768 72.1634 12.7133 70.675 12.8869C70.4287 12.9157 70.4777 13.3009 70.0852 13.1633C69.7785 12.0114 70.0348 10.8284 71.3691 11.2482C72.7315 11.1776 74.0766 11.1949 75.4044 11.3014V11.3007Z" fill="white"/>
<path d="M80.0577 15.8212C80.0174 15.8241 79.9634 15.8284 79.9245 15.8212C79.7078 15.7795 79.5227 15.5879 79.0648 15.5505C75.9396 15.2956 72.5373 15.5483 69.4194 15.5555C69.166 15.5555 68.5985 15.287 68.2227 15.4223C69.7319 15.269 70.4952 15.2855 72.0066 15.2949C72.9053 15.3007 78.6795 15.4576 78.9747 15.2726C79.1108 15.1869 79.1289 14.5403 78.9049 14.4856C77.05 14.4712 75.1915 14.5223 73.3366 14.4971C72.3047 14.4827 70.7998 14.1904 69.8183 14.2257V14.0925L79.3924 13.9593C79.6624 13.8268 79.7503 13.8945 79.6552 14.1624C80.4531 14.6188 81.1314 15.1401 80.0577 15.8205V15.8212Z" fill="white"/>
<path d="M75.2712 11.1675C75.3339 11.1769 75.3901 11.2366 75.4045 11.3007C74.6829 11.2913 70.7269 11.1999 70.4281 11.4181C70.3092 11.9976 70.2315 12.5859 70.0853 13.1619C70.0198 13.4211 69.87 13.6543 69.8196 13.9596H68.2239C68.0547 13.7854 69.2846 11.2093 69.6511 11.0602C69.7994 11.0005 70.0061 11.0653 70.0853 11.0343C70.3438 11.0062 70.531 10.9047 70.6477 10.6592C70.9962 10.8341 71.2309 10.9241 71.6248 10.9479L75.0271 10.8723L75.2712 11.1675Z" fill="white"/>
<path d="M78.8615 12.8963C77.952 12.8445 76.9879 12.9086 76.069 12.8963C76.2915 12.4327 75.6831 12.0439 76.069 11.434C77.6604 11.4549 78.4438 10.6406 78.8615 12.8963Z" fill="white"/>
<path d="M70.7496 10.1037C70.733 10.5689 70.6675 10.4709 71.0758 10.5026C72.8133 10.6394 74.7129 10.4011 76.4677 10.5026C76.3517 10.8209 75.0297 10.4364 75.2709 11.1672C74.0569 10.9908 72.4144 11.3465 71.2076 11.1751C70.9411 11.1369 70.6409 10.8792 70.553 10.8993C70.342 10.9483 70.414 11.6553 70.085 11.034C70.6826 10.8014 70.5552 10.62 70.7496 10.103V10.1037Z" fill="white"/>
<path d="M78.9941 12.896C79.208 12.9111 80.4278 13.0465 80.471 13.1069C80.5272 13.1847 80.6338 13.6246 80.5877 13.6901L79.6616 14.0264C79.918 14.4296 80.6554 14.4577 80.7274 14.9645C80.7857 15.3735 80.4775 15.7889 80.0577 15.8213C81.2343 14.5808 79.6732 14.6477 79.3931 13.9601C79.2908 13.7096 79.3823 13.184 78.9941 12.8967V12.896Z" fill="white"/>
<path d="M72.7442 5.45004C72.6909 5.39604 72.5512 5.3694 72.4785 5.31684C72.719 4.61053 72.8457 3.75734 73.141 2.98767C73.2187 2.78392 73.3231 2.32384 73.5413 2.25977L72.7449 5.45004H72.7442Z" fill="white"/>
<path d="M78.3294 10.3692L77.2666 10.1712C77.5942 9.67009 78.2546 9.72049 78.3294 10.3692Z" fill="white"/>
<path d="M76.3348 23.666C76.1613 23.9346 75.8754 24.103 75.9359 24.4638C74.603 24.5761 73.8585 24.7798 72.6113 25.1283C73.7894 24.5235 75.0653 24.0375 76.3348 23.666Z" fill="white"/>
<path d="M77.7979 23.1338C77.5027 23.6061 77.0807 23.4434 76.7344 23.5327C77.0202 23.1806 77.5164 23.2346 77.7979 23.1338Z" fill="white"/>
<path d="M69.0219 31.9089C68.7353 32.1271 67.5457 30.9715 67.0611 31.5461C66.0595 32.7326 68.8908 33.2157 69.1277 33.9991C69.7383 36.0172 66.2042 36.9179 66.0977 34.57C66.3158 34.3144 67.3081 36.1511 68.2269 35.1698C69.4949 33.8162 67.1713 33.5548 66.6255 32.9104C65.2617 31.3013 68.2687 30.0622 69.0219 31.9089Z" fill="white"/>
<path d="M62.3725 31.5113C62.8622 31.6884 62.5526 31.9087 62.1068 31.777C61.2435 31.4854 60.9432 31.0937 59.9855 31.7165C58.4129 32.7403 59.048 35.6815 61.2262 35.4936C61.7389 35.4496 62.3243 35.0753 62.77 34.8341C62.4611 36.3057 60.0561 36.2344 59.1783 35.2646C57.1787 33.0542 59.8984 29.6847 62.3718 31.5099L62.3725 31.5113Z" fill="white"/>
<path d="M57.8519 31.5112H55.9905C55.9163 31.5112 55.7485 32.7416 55.9156 32.9821C56.2576 33.4739 57.7201 32.5537 57.7187 33.3716L55.858 33.5055V35.3667C56.429 35.7123 57.1361 35.2335 57.6315 35.3854C57.9347 35.4783 57.903 35.7397 57.6531 35.8988H55.6585C55.2819 35.8988 55.269 35.3048 55.207 35.0204L55.4591 31.1123H57.6531C57.7395 31.1123 57.908 31.3974 57.8526 31.5112H57.8519Z" fill="white"/>
<path d="M62.3721 31.5107C62.4233 31.4834 62.6631 31.5482 62.8128 31.487C63.0116 31.4063 62.9979 31.1436 63.1304 31.109C63.3392 31.0543 65.2352 31.0651 65.4965 31.1126C65.7248 31.1544 65.8702 31.2544 65.8292 31.51C65.6297 31.4445 64.6332 31.6382 64.6332 31.8434V35.7659C64.6332 35.7925 64.101 35.7925 64.101 35.7659V31.9766C64.101 31.4431 63.5452 31.3869 63.1189 31.5316C62.7891 31.6439 63.1736 32.1371 62.1064 31.7771C62.4298 31.8794 62.352 31.5223 62.3721 31.5115V31.5107Z" fill="white"/>
<path d="M54.128 31.3113C54.2208 31.001 54.7033 31.1536 54.9164 31.2631C54.6313 32.3337 55.139 35.0257 54.2713 35.709C53.8695 36.0258 52.7699 36.02 52.6641 35.4332C52.5734 34.93 53.292 35.673 53.7312 35.4383C53.8515 35.3742 54.1287 34.8637 54.1287 34.768C54.1287 34.0624 53.9868 31.7865 54.1287 31.3113H54.128Z" fill="white"/>
<path d="M49.0838 30.9326C47.6847 30.9326 46.5498 32.0666 46.5498 33.4663C46.5498 34.8659 47.6839 35.9999 49.0838 35.9999C50.4836 35.9999 51.6177 34.8659 51.6177 33.4663C51.6177 32.0666 50.4836 30.9326 49.0838 30.9326ZM50.0501 35.2115C47.3513 36.8855 45.8535 31.8024 48.7792 31.4042C50.9372 31.1104 51.9424 34.0379 50.0501 35.2115Z" fill="white"/>
<path d="M44.687 33.6397C46.1322 33.6109 46.4202 31.4315 44.9887 31.1428C44.7035 31.0852 43.8236 31.0521 43.5788 31.1342C42.7773 31.402 43.555 34.994 43.3577 35.7666H43.8884C44.0504 35.6103 43.28 32.9845 44.3197 34.2056C44.8065 34.7773 45.096 35.619 45.8823 35.8991C46.0673 35.3317 44.4494 33.9133 44.687 33.6404V33.6397ZM43.9208 31.6756C44.9044 30.6928 46.3359 33.2783 44.4652 33.338C43.7156 33.3618 43.5428 32.0536 43.9208 31.6756Z" fill="white"/>
<path d="M39.7859 31.1311C39.5692 31.2665 39.6023 33.9275 39.6282 34.3754C39.6419 34.6079 39.7146 35.8427 39.7672 35.8981C39.8435 35.9781 40.2986 35.8405 40.2986 35.6994V33.6388C41.1598 33.5006 42.4667 33.7094 42.556 32.502C42.6611 31.0857 40.776 30.9489 39.7859 31.1311ZM40.3173 33.088C40.2532 32.9858 40.2691 31.7611 40.3569 31.6365C40.6903 31.1635 41.8972 31.6927 41.8799 32.512C41.8619 33.3299 40.5132 33.3991 40.3181 33.088H40.3173Z" fill="white"/>
<path d="M93.4887 1.72838C93.9308 1.72982 94.3766 1.72262 94.8187 1.72838C97.1064 1.86877 99.4113 1.95733 101.734 1.99405C101.929 1.65565 102.07 1.65709 102.266 1.99405C102.482 2.20285 102.397 2.39508 102.011 2.57076C101.969 3.05531 100.929 3.43907 100.507 3.48514C97.2093 3.22163 93.8992 3.0546 90.5768 2.98548C89.6075 3.033 89.2 2.49804 89.357 1.57861L93.4895 1.72766L93.4887 1.72838Z" fill="white"/>
<path d="M94.6855 14.3592C94.9793 14.0431 95.1845 13.6025 95.3026 13.0359C95.6317 12.5103 97.5104 12.1956 97.1345 13.2785C95.7613 15.1354 94.3982 16.9944 93.0452 18.8555C93.0301 19.6101 92.1315 20.4078 91.5122 20.9111C89.9518 22.1797 89.6364 21.0249 90.6971 19.8103C91.3646 18.4855 92.6434 16.6308 93.5125 15.3787C93.7185 15.0828 94.1577 14.8301 94.1548 14.4917C94.1988 14.1403 94.4494 14.1158 94.687 14.3585L94.6855 14.3592Z" fill="white"/>
<path d="M94.9513 13.5618C95.1227 13.1133 95.2422 12.7165 95.7758 12.5913C96.6816 12.4977 102.119 10.8057 102.53 11.1693C102.58 11.391 102.459 11.4386 102.328 11.5653C100.479 13.3602 98.3594 14.9312 96.4138 16.6203C96.0811 16.4691 96.2028 16.2538 96.4245 16.0278C97.7999 14.9341 99.1579 13.8203 100.455 12.6409C100.961 12.1809 101.643 11.458 100.53 12.0801C99.5547 12.2305 98.8829 12.3717 98.1981 13.1327C97.069 14.3884 95.9608 15.7563 95.1407 17.197C95.5583 16.7816 95.9817 16.5894 96.4123 16.6203C95.3596 17.534 94.26 18.4268 93.2195 19.3448C92.282 20.172 91.5806 21.2362 90.4285 21.8064C90.2629 22.1614 89.6372 21.7589 89.7639 21.4075C89.7351 20.8193 90.2543 20.1648 90.695 19.812C90.5329 20.1332 89.9072 21.2974 90.6302 21.2808C90.677 21.2801 91.3876 20.8791 91.4488 20.8323C91.5648 20.7423 92.7248 19.6292 92.7601 19.5435C92.8393 19.3512 92.6802 19.1626 92.7212 18.9805C92.9229 18.0855 95.1263 15.6527 95.806 14.7512C95.9875 14.5108 96.8501 13.3249 96.8933 13.1665C97.1014 12.4033 95.7758 12.7374 95.4798 12.9621C95.307 13.0931 95.1651 13.9938 95.0125 14.2285C94.9023 14.3977 94.7619 14.3243 94.6841 14.361C94.3997 14.0737 94.6395 13.7339 94.9498 13.5632L94.9513 13.5618Z" fill="white"/>
<path d="M98.5411 7.04611C98.8615 6.93739 101.354 6.81787 101.487 6.97699C101.397 7.27578 101.257 7.56522 101.068 7.84386C101.115 7.90794 101.154 7.97346 101.168 8.04402C101.204 8.23265 99.6255 10.2119 99.3389 10.5028C98.531 10.749 97.8088 11.0601 96.9454 11.3005C96.2217 11.5525 96 11.464 96.2808 11.0349C96.9814 9.67912 97.8195 8.39033 98.5411 7.04611Z" fill="white"/>
<path d="M106.121 7.17908C104.683 9.69976 102.417 9.6004 99.8718 10.3701C99.7753 10.3895 99.6334 10.4032 99.5917 10.3319C99.4772 10.1332 102.006 6.91628 102.531 6.9134C102.557 6.76076 102.662 6.68301 102.791 6.61245C102.993 6.50301 105.961 6.60885 106.124 6.75933C106.257 6.88245 106.267 7.06388 106.121 7.17908Z" fill="white"/>
<path d="M93.489 1.72838C92.118 1.72478 90.7168 1.82125 89.3674 1.5959C89.6676 3.42251 90.8061 2.60316 92.0993 2.7846C93.7425 3.015 94.832 2.9898 96.486 3.05172C97.538 3.09132 100.697 3.56867 101.462 2.98476C101.642 2.84724 101.664 2.57509 101.808 2.40013C101.936 2.24461 102.198 2.21509 102.265 1.99333C102.154 1.96093 102.157 1.9163 102.265 1.86014C103.122 2.11573 104.042 1.94725 104.925 1.99261C105.083 2.82924 104.412 3.1698 103.993 3.85451C102.903 3.50027 101.649 3.52403 100.536 3.72131C98.14 3.195 95.6125 3.35196 93.1506 3.3282C92.4478 3.06396 89.7274 3.34044 89.3529 2.87028C89.1592 2.62693 89.1132 1.59014 89.4509 1.47998L93.4883 1.72766L93.489 1.72838Z" fill="white"/>
<path d="M98.5413 5.98291C99.6358 5.94619 98.9726 6.80442 98.2756 6.91385C96.5813 6.94985 93.9703 7.10681 92.3681 6.90018C91.6941 6.81306 91.9037 6.57834 91.8922 5.98363C91.9203 5.90443 91.9498 5.84323 91.9836 5.84035C92.8455 5.77556 98.2245 5.43644 98.5147 5.7878C98.5507 5.831 98.5507 5.90299 98.5413 5.98363V5.98291Z" fill="white"/>
<path d="M99.7382 4.91943C99.9031 5.23839 99.6115 5.3471 99.3033 5.39318L99.3393 5.5847C99.4797 5.6927 99.4351 5.73662 99.2061 5.7179C96.7931 5.59766 94.3068 5.67039 91.8664 5.84102L88.9674 5.7179C88.5757 5.56094 88.5174 5.61278 88.5685 5.05335H97.8099C98.319 5.05335 99.1067 4.93023 99.7382 4.92015V4.91943Z" fill="white"/>
<path d="M105.323 5.0519C105.965 5.15846 106.089 5.32334 105.456 5.58397C104.754 5.89357 103.909 5.84317 103.196 5.58397C102.938 5.80573 102.913 5.78845 102.93 5.45078C102.658 5.65381 102.421 5.80861 102.083 5.86261C101.475 5.95981 99.9394 5.71429 99.3395 5.58397C99.31 5.58037 98.7563 5.43854 98.8081 5.31974C99.0688 5.28446 99.5311 5.05766 99.7385 4.91942C100.304 4.50975 102.823 4.44279 103.319 4.75671C103.372 5.0051 103.508 5.0591 103.728 4.91942C104.757 3.98704 104.225 4.63287 104.797 4.98567C105 5.11094 105.199 5.01374 105.324 5.05262L105.323 5.0519Z" fill="white"/>
<path d="M105.456 5.84975C105.574 5.63375 106.243 5.68127 106.254 5.98294C106.162 6.29254 106.426 6.70941 106.37 6.96285C106.336 7.1162 106.14 7.14645 106.121 7.17956C106.027 6.87429 105.777 6.92252 105.53 6.90597C104.948 6.86709 102.994 6.80805 102.531 6.91388C102.415 6.87644 102.416 6.83181 102.531 6.78069C102.18 6.55821 102.653 5.82094 103.063 5.98294L103.24 5.76334C104.03 5.72446 104.769 5.75327 105.456 5.84975Z" fill="white"/>
<path d="M103.993 3.85541C103.83 4.12252 103.848 4.53076 103.461 4.65316C102.484 4.60636 101.466 4.56388 100.469 4.6294L100.27 4.38748C100.383 4.18948 100.418 3.90581 100.535 3.72293C100.967 3.04974 102.768 3.36005 103.532 3.45149C103.834 3.48749 103.993 3.48821 103.992 3.85613L103.993 3.85541Z" fill="white"/>
<path d="M94.0202 19.811C94.4803 19.4266 94.5833 19.577 94.2859 20.0767C93.846 20.7722 93.033 22.5743 92.4929 23.0056C92.2647 23.1878 92.403 23.0985 92.2265 22.9999C92.0343 22.8919 91.5454 22.4851 91.541 22.2698C91.5353 22.002 93.2836 20.3179 93.6177 20.0011C93.7668 19.86 93.9878 19.842 94.0202 19.811Z" fill="white"/>
<path d="M102.397 5.98274C102.755 6.3449 102.154 6.97344 101.732 6.91368C101.547 7.12896 101.357 7.21465 101.28 6.92953C100.351 6.93961 99.439 6.93456 98.5411 6.91368C98.4525 6.91584 98.364 6.91152 98.2754 6.91368L98.9393 6.18146C98.9444 6.15698 98.6167 6.0101 98.5411 5.98346C98.6109 5.78763 98.8327 5.69906 99.2057 5.71778C100.228 5.76026 101.257 5.79986 102.293 5.83658L102.397 5.98346V5.98274Z" fill="white"/>
<path d="M102.664 12.763C102.435 12.5276 104.267 10.3014 104.799 10.6931C104.985 10.8313 104.988 11.7831 104.862 11.9696C104.736 12.1561 102.764 12.8638 102.664 12.763Z" fill="white"/>
<path d="M99.2065 5.71718C99.0041 5.87126 98.8176 6.0131 98.5418 5.98286C97.1967 5.49399 93.5186 5.99582 91.8934 5.98286C91.8272 5.98286 91.6292 5.85326 91.4348 5.84894C90.6729 5.83166 89.6259 5.9807 88.9678 5.71647C89.7858 5.68767 90.6146 5.7539 91.4333 5.72222C93.2969 5.65022 97.6036 5.23623 99.2065 5.71647V5.71718Z" fill="white"/>
<path d="M100.27 4.38763C100.615 4.30843 102.715 4.32571 103.132 4.37827C103.348 4.40491 103.352 4.50139 103.462 4.65403C103.505 4.71379 103.349 5.0097 103.727 4.9197C103.154 5.43954 103.48 4.94778 103.139 4.90746C102.215 4.79946 100.704 4.90458 99.7383 4.9197C99.8614 4.83762 99.9982 4.45027 100.27 4.38763Z" fill="white"/>
<path d="M102.531 6.78073V6.91393C102.321 6.96217 100.364 9.48214 100.006 9.90621C99.9454 9.97821 99.6221 10.3274 99.872 10.3706C99.6668 10.4325 99.486 10.4592 99.3398 10.5038C99.7748 9.59806 100.651 8.74991 101.069 7.84488C101.28 7.23865 101.502 7.01689 101.733 7.18033C101.859 6.90457 102.304 6.5093 102.531 6.78145V6.78073Z" fill="white"/>
<path d="M107.583 5.45124C107.022 5.96243 106.1 5.90123 105.455 5.58444C105.708 5.6586 105.709 5.77524 105.455 5.85012C105.393 5.84868 105.185 5.99195 104.992 5.99051C104.373 5.98619 103.753 5.81556 103.062 5.98332C102.785 5.86452 102.921 5.59092 103.195 5.58444C103.945 5.5974 104.706 5.59524 105.455 5.58444C105.512 5.1546 105.683 5.44764 105.72 5.187C105.54 5.24172 105.414 5.08116 105.322 5.05236C105.956 5.14092 106.917 4.91989 107.498 5.07108C107.734 5.133 107.718 5.27844 107.583 5.45124Z" fill="white"/>
<path d="M101.732 1.72826C102.082 1.7693 102.067 1.89457 101.732 1.99393C100.107 2.03857 98.4662 1.86289 96.8792 1.99393L94.8184 1.72754C95.6932 1.73906 101.5 1.98458 101.733 1.72754L101.732 1.72826Z" fill="white"/>
<path d="M101.732 6.91432C101.943 6.88192 101.943 6.97048 101.732 7.18C101.438 7.40607 101.336 7.62855 101.068 7.84455C101.146 7.67463 101.105 7.26568 101.333 7.04824L98.541 7.0468V6.9136C99.5498 6.8884 100.747 6.59033 101.732 6.9136V6.91432Z" fill="white"/>
<path d="M107.583 5.45092C107.502 5.55459 107.329 5.61364 107.261 5.7166C107.188 5.82892 107.322 5.97003 107.317 5.98227C107.506 6.31562 107.296 6.41066 107.052 6.11547C106.884 6.10467 106.587 5.99739 106.254 5.98227C105.956 5.96859 105.671 5.85339 105.456 5.84907C105.464 5.76195 105.444 5.66907 105.456 5.58339C106.172 5.57331 106.879 5.63523 107.584 5.4502L107.583 5.45092Z" fill="white"/>
<path d="M94.9509 13.5615C94.8695 13.7746 94.9019 14.1318 94.6852 14.3593C94.5095 14.4421 94.3554 14.5112 94.153 14.4925C94.1523 14.3866 93.8989 13.9849 94.0278 13.8351C94.0594 13.7984 94.7953 13.6558 94.9509 13.5615Z" fill="white"/>
<path d="M94.0195 19.8112C94.3508 19.5016 94.6179 18.8645 95.0824 18.7485C95.0997 19.3173 94.4869 19.758 94.2853 20.0776C94.317 19.7954 94.3018 19.7796 94.0195 19.812V19.8112Z" fill="white"/>
<path d="M101.732 1.72869C101.763 1.69485 101.617 1.32981 102.065 1.46013C102.124 1.4774 102.261 1.80573 102.265 1.86189C102.267 1.90292 102.274 1.9634 102.265 1.99508C102.087 1.99868 101.91 1.99004 101.732 1.99508V1.72941V1.72869Z" fill="white"/>
<path d="M96.2814 11.0354C96.1835 11.4652 96.5947 11.2672 96.9461 11.3011C96.7264 11.3623 96.388 11.6935 96.0157 11.566C95.9365 11.3011 96.1979 11.1959 96.2807 11.0347L96.2814 11.0354Z" fill="white"/>
<path d="M96.4133 16.6201C95.8632 17.0319 95.1769 17.4754 94.5778 17.9413C94.4626 18.0313 94.1516 18.3394 94.0205 18.1501C95.2785 16.5841 96.3615 14.6826 97.7397 13.2261C98.8788 12.0222 98.9717 12.1274 100.46 11.8242C100.66 11.7832 101.831 11.0524 101.4 11.9661C101.375 12.0194 100.724 12.7501 100.622 12.8502C99.4859 13.9669 97.8635 15.1722 96.607 16.2205C96.4385 16.3609 96.432 16.6071 96.414 16.6201H96.4133Z" fill="white"/>
<path d="M102.93 5.45059C103.181 5.68314 102.711 6.25554 102.397 5.98266C101.83 6.06042 101.296 5.86602 100.741 5.84082C99.9513 5.80554 100.018 5.95962 99.2061 5.71627C99.2557 5.67883 99.2961 5.62842 99.3393 5.58306C99.9211 5.65218 101.51 5.74003 102.072 5.72347C102.401 5.71411 102.554 5.43403 102.93 5.44987V5.45059Z" fill="white"/>
<path d="M103.195 5.58437C103.105 5.68517 103.112 5.90765 103.062 5.98325C102.918 6.20212 102.588 6.42532 102.53 6.78099C102.287 6.85299 101.927 7.03083 101.732 7.17987C101.749 7.10211 101.706 6.95955 101.732 6.91419C101.758 6.86883 102.027 6.74283 102.133 6.58516C102.264 6.39004 102.294 6.12796 102.397 5.98325C102.487 5.85653 102.872 5.71181 102.929 5.45117C103.055 5.45621 103.174 5.58365 103.195 5.58437H103.195Z" fill="white"/>
<path d="M93.6212 23.268C93.9704 22.9951 94.3715 22.7964 94.7812 22.633C98.2915 21.2319 102.042 20.3333 105.549 18.9056L105.854 18.8804C105.894 19.3937 105.749 20.1404 105.988 20.6083C106.011 20.7099 106.032 20.8675 105.965 20.8985C105.529 21.1001 102.188 22.3162 102.009 22.2082C101.953 22.175 101.908 22.1254 101.866 22.0706L101.571 22.0073C101.277 21.1743 100.833 21.5933 100.91 22.2953L100.669 22.4695C99.7216 23.021 98.6732 23.4235 97.5239 23.6769C96.4719 24.1233 95.3925 24.4301 94.2858 24.5971C93.4239 24.6374 92.5583 24.6554 91.6899 24.6525C91.3558 25.1551 89.1301 25.2948 89.632 24.3314C90.6004 24.0571 91.5272 23.6546 92.4244 23.4005C92.8197 23.5301 93.2187 23.4854 93.6212 23.2673V23.268Z" fill="white"/>
<path d="M105.19 23.0019C105.622 22.6361 106.094 22.6361 106.52 23.0019C106.535 23.4425 106.618 24.2971 106.386 24.5974C106.123 24.6658 105.895 24.7817 105.701 24.9458L101.838 24.8637L101.599 24.7306C101.099 24.6802 101.257 24.359 101.465 24.0199C100.755 23.3007 101.929 22.9911 102.556 22.9313C103.402 22.8499 104.345 22.9025 105.189 23.0019H105.19Z" fill="white"/>
<path d="M89.7648 21.4066C89.8029 21.4152 90.4028 21.7774 90.4294 21.8055C91.1423 22.5607 90.3718 24.2038 89.3112 24.0626C87.2589 23.789 87.8912 20.9919 89.7648 21.4066Z" fill="white"/>
<path d="M106.254 20.8746C106.796 21.5722 106.859 22.2447 105.787 22.2965L105.722 22.4701C105.548 22.5874 105.354 22.7156 105.137 22.717C104.001 22.7242 102.648 22.7249 101.599 22.4701C101.429 22.1669 101.567 22.0899 101.865 22.0712L105.987 20.6089C106.031 20.6953 106.179 20.7925 106.253 20.8746H106.254Z" fill="white"/>
<path d="M105.987 25.2623C105.978 25.3926 105.983 25.5121 105.862 25.5992C104.196 25.7303 102.483 25.6388 100.801 25.6611C99.5894 25.6021 98.3487 25.5582 97.0778 25.5279C96.6976 25.5193 96.7142 25.2191 97.0778 25.1291C97.9332 24.7705 99.2848 24.8044 100.203 24.9959C100.214 24.9224 100.226 24.8648 100.243 24.8634C101.232 24.7691 102.822 24.8144 103.836 24.8728C103.868 24.8749 103.898 24.9282 103.926 24.9959C104.412 24.7835 105.47 24.8382 105.909 25.1377C105.946 25.1629 105.969 25.209 105.987 25.2616L105.987 25.2623Z" fill="white"/>
<path d="M94.2864 24.598C94.8185 24.4129 95.0403 24.4568 94.951 24.7312C94.9496 24.8449 94.91 24.9328 94.8135 24.9328C93.868 24.9133 92.9327 24.9076 91.9865 24.9112C91.8972 24.9112 91.872 25.0098 91.8922 25.13C92.0045 25.3647 91.9656 25.503 91.7589 25.6621C91.1548 25.6319 90.3145 25.58 89.714 25.5131C89.4698 25.4857 87.9757 25.2517 87.8994 25.2006C87.751 25.1012 87.7201 24.7823 87.7705 24.7326C87.8094 24.6937 88.6115 24.7542 88.87 24.7024C89.1285 24.6505 89.3834 24.4036 89.6319 24.333C89.7816 25.1264 91.157 24.6066 91.6877 24.5936C92.5474 24.572 93.4274 24.5821 94.2864 24.5994V24.598Z" fill="white"/>
<path d="M106.387 24.5976C106.212 24.8244 105.999 24.8561 105.723 24.8647C105.713 25.1153 106.017 24.8518 105.988 25.2622C105.386 25.1448 104.524 24.9965 103.927 24.9965H100.203C99.2269 24.9965 98.1029 25.1117 97.0782 25.1297C97.0537 25.2485 97.0084 25.2434 96.945 25.1297C96.5648 25.121 96.5814 24.8208 96.945 24.7308C98.4874 24.3629 100.056 24.3687 101.599 24.7308C103.189 24.7258 104.817 24.8309 106.386 24.5976H106.387Z" fill="white"/>
<path d="M96.9462 25.1294C96.9908 25.1286 97.0347 25.1301 97.0794 25.1294V25.5282C95.4902 25.7773 93.7721 25.7881 92.1592 25.6614C92.0267 25.6564 91.8927 25.6679 91.7602 25.6614C91.6047 25.5073 91.6962 25.1877 91.8935 25.1294C93.487 24.765 95.339 24.8327 96.9462 25.1294Z" fill="white"/>
<path d="M106.254 20.8747C106.403 21.0389 106.462 21.1447 106.546 21.2383C106.645 21.3478 107.117 21.301 107.254 21.5357C107.464 21.8964 107.047 22.3262 107.716 22.4695C107.271 22.8158 106.695 22.8158 105.988 22.4695C105.913 22.7237 105.797 22.7237 105.722 22.4695L105.19 22.2053C106.278 22.0598 106.615 22.0361 106.253 20.874L106.254 20.8747Z" fill="white"/>
<path d="M107.717 22.4702C107.866 22.4853 108.092 22.4565 108.189 22.5947C108.72 23.3471 106.927 23.0087 106.52 23.0022C106.18 22.8784 106.002 22.7013 105.988 22.4702C106.544 22.4802 107.181 22.4162 107.717 22.4702Z" fill="white"/>
<path d="M100.802 25.6605C98.1358 25.6965 95.5586 25.824 92.8886 25.7959C92.6639 25.7937 92.2974 25.8808 92.1592 25.6605C93.8117 25.7268 95.4736 25.5691 97.0794 25.5273C98.0709 25.5021 99.0798 25.5129 100.073 25.5252C100.298 25.528 100.665 25.4402 100.803 25.6605H100.802Z" fill="white"/>
<path d="M93.6216 23.2679C93.3875 23.4507 93.3285 23.8158 92.8914 23.9346C92.5134 24.0375 93.0808 23.3867 92.4248 23.4003C92.8403 23.283 93.1398 23.2059 93.6216 23.2671V23.2679Z" fill="white"/>
<path d="M101.599 22.4702L101.81 22.6552C102.911 22.6452 104.002 22.6516 105.108 22.6992C105.181 22.702 105.204 22.8813 105.19 23.0016C104.37 23.0001 103.223 22.8993 102.457 22.9922C102.254 23.0167 101.962 23.5963 101.468 23.4012C101.407 23.6676 101.728 23.7561 101.732 23.9966C101.735 24.2479 101.377 24.4459 101.6 24.7303C100.051 24.7346 98.4952 24.7267 96.9463 24.7303C96.3098 25.0197 95.589 25.0168 94.9517 24.7303C94.8401 24.5179 94.5003 24.6014 94.2871 24.5971C96.3544 23.7273 98.5045 23.0491 100.67 22.4695C100.884 22.0829 101.379 22.0951 101.601 22.4695L101.599 22.4702Z" fill="white"/>
<path d="M101.866 22.071C101.907 22.3129 101.678 22.3626 101.601 22.4699C101.292 22.4843 100.979 22.4598 100.67 22.4699C100.425 21.2243 101.533 20.7397 101.866 22.071Z" fill="white"/>
<path d="M105.722 22.4701C105.81 22.4716 105.899 22.4687 105.987 22.4701C106.488 22.7639 106.498 22.3737 106.52 23.0022C106.077 22.995 105.632 23.0029 105.19 23.0022C104.626 22.6429 101.741 23.09 101.467 22.7344C101.484 22.6516 101.55 22.5385 101.599 22.4701C102.929 22.4089 104.382 22.4521 105.722 22.4701Z" fill="white"/>
<path d="M94.9514 24.7303C95.6146 24.7267 96.2829 24.7317 96.9461 24.7303V25.1292C95.2647 25.158 93.5747 25.1083 91.8933 25.1292C91.8069 25.0982 91.4526 24.8671 91.6283 24.731C91.7594 24.6288 94.4906 24.7332 94.9522 24.731L94.9514 24.7303Z" fill="white"/>
<path d="M105.674 1.88084C106.758 1.51292 107.247 2.43163 107.053 3.39209C106.983 3.73625 106.243 3.886 105.924 3.85648C105.132 3.78304 105.199 2.04211 105.674 1.88084Z" fill="white"/>
<path d="M106.908 3.44689C106.858 3.50593 105.874 3.65568 105.74 3.57145C105.541 3.44617 105.286 1.84851 106.313 1.99035C106.822 2.06091 107.051 3.27913 106.908 3.44617V3.44689Z" fill="white"/>
<path d="M26.7356 8.64155C26.9069 9.80721 27.0718 10.9794 27.2288 12.1573L27.0013 12.3646C26.5807 12.3164 25.9032 12.5734 25.8038 12.0327C25.5921 10.4423 25.3141 8.83811 25.1406 7.24406C24.9988 5.938 24.7813 4.40297 24.7352 3.11707C24.6963 2.04645 26.0169 2.08317 26.1761 2.61884C26.3827 4.61106 26.4627 6.66158 26.7349 8.64155H26.7356Z" fill="white"/>
<path d="M33.6504 12.2321C33.752 12.4359 33.752 12.5691 33.6504 12.631C33.1147 13.3488 31.0632 13.4151 30.4591 12.7642C30.3755 11.2674 30.3359 9.74386 30.4591 8.2434C30.4641 7.35853 30.454 6.46934 30.4605 5.58447L30.6564 5.71983C31.7948 7.81428 32.5941 10.1067 33.6504 12.2321Z" fill="white"/>
<path d="M38.3042 24.0649C38.338 24.0016 38.3827 24.0066 38.4374 24.0649C38.2718 24.4833 38.8003 25.7908 38.3532 25.9153C38.176 25.965 37.1016 25.69 36.7733 25.6619C34.2732 25.4495 31.7631 25.3552 29.2623 25.1284C29.057 25.0355 29.0966 23.8972 29.1622 23.8871C29.4416 23.8468 29.7224 23.8158 30.0039 23.8022C32.7186 23.669 35.6212 23.7431 38.3042 24.0649Z" fill="white"/>
<path d="M29.661 10.1044C29.661 10.149 29.661 10.193 29.661 10.2376C29.7244 11.0015 29.6797 11.7993 29.5278 12.6308C29.5883 13.0715 28.578 13.4005 28.4642 12.8965C28.0272 12.8231 28.0603 11.6358 28.331 11.4342C28.2857 9.17778 28.2857 6.91773 28.331 4.65336C28.596 4.48633 29.265 4.3884 29.3766 4.73832C29.4277 4.89744 29.517 6.02711 29.5328 6.31006C29.5991 7.44261 29.6574 9.0093 29.6603 10.1051L29.661 10.1044Z" fill="white"/>
<path d="M29.2622 22.6025C29.623 22.7681 29.6215 22.9683 29.2622 23.1346L29.5884 23.3326C32.4795 23.1368 35.336 23.2189 38.1587 23.5781L38.4374 23.7999C38.6908 23.9561 38.5684 24.0051 38.3041 24.0656C35.2928 24.1066 32.2728 24.0353 29.2615 24.0656V25.1297C29.1888 25.1232 29.0692 25.003 28.9965 24.9965C28.7459 24.9447 28.6559 24.7229 28.7272 24.3312L27.0062 24.3464C27.0444 24.6286 26.9544 24.8007 26.7362 24.864C26.4172 24.6257 26.6894 24.1383 26.6865 23.8438C26.6844 23.5644 26.5792 23.3096 26.603 23.0021C26.9688 23.1735 28.5465 23.5032 28.738 23.1879C28.6732 22.8538 28.7596 22.6587 28.9965 22.6033C29.0851 22.6018 29.1737 22.6047 29.2622 22.6033V22.6025Z" fill="white"/>
<path d="M30.3259 15.4228C30.251 14.8691 32.844 14.9404 32.9679 15.0095C33.2005 15.0253 33.2508 15.2075 33.1184 15.556C32.898 16.222 32.6834 16.8887 32.4537 17.5504C32.0138 18.6455 31.6228 18.7895 31.28 17.9809C31.0827 17.9543 30.8976 17.8995 30.7248 17.816C30.5347 18.171 30.3929 18.0709 30.3259 17.6828C30.0163 17.0262 29.9983 16.0737 30.3259 15.4228Z" fill="white"/>
<path d="M33.6507 12.2324C33.691 12.3131 33.9739 12.7623 34.0056 12.7703L37.3748 12.7638C37.3266 13.1806 37.5498 14.0799 37.1091 14.2945C36.7441 14.4716 34.7675 14.3542 34.1828 14.36C33.9531 14.3513 33.776 14.3074 33.6507 14.2268L33.3525 14.041C33.5254 13.5493 33.6247 13.0791 33.6507 12.6313C33.6168 12.5471 33.6737 12.3476 33.6507 12.2324Z" fill="white"/>
<path d="M35.9111 1.86053C36.2035 1.62582 38.4379 1.64382 38.4379 1.92678V4.91833C37.6761 4.83913 36.7565 5.08897 36.0444 4.78513C36.1567 4.55042 36.4137 4.46114 36.8155 4.51586C36.629 3.92619 36.534 3.32068 36.5318 2.6986C36.2244 2.51501 35.9256 2.22269 35.9119 1.86053H35.9111Z" fill="white"/>
<path d="M38.437 22.6027C38.6387 22.7309 38.6948 22.8339 38.437 22.8684C38.4284 22.9735 38.3974 23.1298 38.3211 23.1377C35.6676 23.4156 32.1349 23.3818 29.4282 23.3335C29.3389 23.3321 29.2885 23.2363 29.2619 23.1341C29.2554 22.957 29.2662 22.7791 29.2619 22.602C29.5118 22.5984 30.0287 22.4724 30.4586 22.4688C30.455 22.1088 30.8079 22.0131 30.9908 22.3356C31.0145 22.3356 31.201 22.4789 31.4408 22.4782C33.1236 22.471 37.0365 22.1952 38.4377 22.602L38.437 22.6027Z" fill="white"/>
<path d="M30.459 12.7635L30.711 12.9089C30.3114 13.9378 30.5742 14.3676 31.4995 14.197L33.3976 13.9745L33.6504 14.2265C33.9326 14.2244 34.1551 14.3597 34.1825 14.3597C33.9319 14.2856 33.7044 14.4612 33.5179 14.4929C33.0383 15.043 31.2568 15.0128 30.5476 14.809L30.3265 14.4929C30.2862 14.863 30.0126 14.8616 29.9276 14.4929C29.8642 14.5584 29.8203 14.5145 29.7944 14.3597C29.7109 14.7125 29.5625 14.6772 29.3955 14.3597C29.4343 14.5707 28.3579 14.6146 28.2426 14.498C28.2059 14.4605 27.9265 13.5879 27.9251 13.5346C27.9164 13.1998 28.1123 12.5389 28.4644 12.8974C28.8453 13.0011 29.2464 12.667 29.528 12.6318C29.5633 12.2732 29.6691 12.2991 29.7937 12.6318L30.0443 12.4402C29.9845 11.793 30.0781 11.1918 30.3251 10.6374C30.3316 9.87348 30.2077 8.95405 30.4583 8.24414C30.4497 9.74532 30.5101 11.2659 30.4583 12.765L30.459 12.7635Z" fill="white"/>
<path d="M28.5309 18.2155C28.5964 18.2242 28.9874 18.3725 29.0039 18.4315C29.045 18.5798 29.0183 19.4388 28.9384 19.554C28.8117 19.7354 27.1116 19.7347 26.8293 19.6519C26.29 19.4942 26.5024 18.6583 26.47 18.2162C27.1224 18.2767 27.8979 18.1327 28.5309 18.2162V18.2155Z" fill="white"/>
<path d="M24.3308 6.65993C24.4971 6.77657 25.1351 10.136 25.1387 10.6357L23.1477 7.36696C22.9569 7.0156 24.1421 6.52745 24.3308 6.65993Z" fill="white"/>
<path d="M27.6667 10.3701C28.1952 10.5198 28.2211 11.9519 28.1765 12.4724C28.1369 12.934 27.923 14.1162 27.401 13.5611C27.0971 13.6583 26.9156 13.2824 26.8688 13.029C27.0323 12.8368 27.4319 13.0031 27.2685 12.4508C27.2281 12.3148 27.0093 12.376 27.0021 12.3644C26.9394 12.2579 26.7616 10.2433 26.7378 9.90423C26.7083 9.4852 26.7536 9.0604 26.7364 8.64209C26.74 8.66945 26.8408 8.74505 26.8595 8.85305C26.9963 9.6292 26.547 10.1346 27.6674 10.3708L27.6667 10.3701Z" fill="white"/>
<path d="M30.7244 17.816C30.9534 17.8657 31.042 17.9543 30.9902 18.0817C31.3538 19.3064 31.3977 20.5916 31.1234 21.9373C31.091 22.0654 31.1659 22.2433 30.9902 22.3361C30.9052 22.3361 30.6784 22.4672 30.458 22.4693C30.4336 21.7393 30.4919 20.9998 30.4587 20.2683C30.4501 20.0732 30.3277 19.8846 30.3248 19.8097C29.9886 19.2596 30.0354 18.2516 30.3248 17.6821C30.448 17.7527 30.5819 17.8016 30.7237 17.8153L30.7244 17.816Z" fill="white"/>
<path d="M35.9105 1.86084L36.7451 2.55347C36.905 2.94154 36.8113 3.35698 36.8718 3.75873C37.0187 4.72928 37.6661 4.87184 36.0437 4.78616C35.8076 4.70912 35.9177 3.87897 35.9105 3.58954L35.7773 1.99404C35.7917 1.92636 35.8637 1.89828 35.9105 1.86084Z" fill="white"/>
<path d="M28.997 22.6022C28.979 22.8305 29.064 23.2272 28.9387 23.4086C28.7925 23.6203 26.6352 23.7355 26.6035 23.0011C26.6129 22.8744 26.5776 22.7059 26.6611 22.5979C26.839 22.3704 28.1495 22.4705 28.5384 22.4683C28.7313 22.4676 28.9365 22.603 28.997 22.6022Z" fill="white"/>
<path d="M30.3256 14.4926C30.816 14.6474 30.7764 15.25 30.3256 15.4235C30.3062 16.1716 30.3155 16.9348 30.3256 17.6836C30.335 18.3899 30.2997 19.1055 30.3256 19.8111C30.0462 19.8716 29.599 20.1013 29.3945 19.8111C29.4694 19.5562 29.5853 19.5562 29.6602 19.8111C29.6955 19.6988 29.7402 19.701 29.7935 19.8111C29.8417 18.027 29.8856 16.2544 29.9267 14.4926C30.0412 14.5192 30.2111 14.4659 30.3256 14.4926Z" fill="white"/>
<path d="M30.3262 14.4922C31.2342 14.7053 32.4244 14.6779 33.5175 14.4922C33.4498 14.8587 33.223 15.2388 33.1186 15.5556C33.1928 15.1539 32.9155 15.2979 32.6592 15.2899C31.9175 15.2655 31.0246 15.2057 30.3262 15.4231C30.3334 15.1402 30.4824 14.8335 30.3262 14.4922Z" fill="white"/>
<path d="M26.7352 24.8629C26.6761 24.6793 26.7748 24.2905 26.7352 24.0645H28.9969V24.9961C28.5822 24.9608 26.8194 25.1221 26.7366 24.8629H26.7352Z" fill="white"/>
<path d="M27.6004 17.0187C27.9734 17.0446 28.5185 17.2772 28.9974 17.1519V17.5494C27.9713 17.3694 26.6852 17.7488 25.7361 17.6934C24.8159 17.6401 25.1644 17.018 25.3401 17.018C26.0724 17.018 26.8818 16.9676 27.6004 17.018V17.0187Z" fill="white"/>
<path d="M27.9326 10.3706C28.4295 10.4088 28.1213 10.6147 28.1926 11.1122C28.2163 11.2785 28.3287 11.4132 28.3316 11.434C28.3561 11.668 28.4828 12.8251 28.4648 12.8963C28.4576 12.9237 28.225 12.9532 28.1876 13.355C28.1717 13.5263 28.2819 14.4393 28.3366 14.4875C28.4136 14.5538 29.146 14.3594 29.3951 14.3594C29.7105 14.3795 29.7537 14.7107 29.5283 14.8914C29.4909 15.0073 29.4462 15.0059 29.3951 14.8914C29.4794 14.3327 28.5116 14.805 28.1883 14.5689C27.9305 14.3795 28.3812 13.823 27.4005 13.828C27.0412 13.774 27.075 13.7027 27.4005 13.5623C27.8066 13.5659 27.7397 13.3809 27.8009 13.0979C27.965 12.3347 28.1199 11.0179 27.6669 10.3713C27.7426 10.3872 27.8455 10.3649 27.9326 10.3713V10.3706Z" fill="white"/>
<path d="M31.6562 19.8106C31.4445 20.5155 31.3034 21.2261 31.1241 21.9382C31.1011 21.4356 31.2055 20.7682 30.9866 20.306C30.9211 20.167 30.7475 20.2628 30.7238 20.1418C30.6647 19.8366 30.9527 20.0057 30.9931 19.8574C31.1097 19.4247 30.9074 18.5795 30.9909 18.0819C30.8793 17.9171 31.006 17.8631 31.1817 17.9185C31.7887 18.1107 31.7333 19.2771 31.6562 19.8106Z" fill="white"/>
<path d="M38.4372 22.6025C38.9499 22.7516 39.6124 23.2822 39.6383 23.864C39.6541 24.2211 38.744 24.0591 38.4372 24.0656C38.3926 24.0663 38.3486 24.0656 38.304 24.0656C38.3306 23.9799 38.4271 23.874 38.4372 23.7999C38.0707 23.712 38.052 22.9417 38.4372 22.8689V22.6033V22.6025Z" fill="white"/>
<path d="M30.3256 10.6357C30.3199 11.3427 30.3307 12.0555 30.3256 12.7625C30.129 12.8288 29.9173 12.6416 29.7942 12.6301C29.72 12.6185 29.6624 12.6063 29.661 12.5897C29.6135 11.8834 29.6034 10.8639 29.7942 10.2368L30.3263 10.6357H30.3256Z" fill="white"/>
<path d="M31.6557 19.8106C31.4317 19.2461 31.539 18.6241 31.1812 18.0718C31.0775 17.9113 30.999 18.0862 30.9903 18.0826C30.8579 18.02 30.77 17.966 30.7246 17.817C30.9089 17.835 31.1207 17.7687 31.3028 17.8371C31.5448 17.9271 31.4109 18.3065 31.8515 18.2223C32.2922 18.1381 32.1028 17.6881 32.4528 17.5513C32.1936 18.2979 31.8818 19.0582 31.655 19.8113L31.6557 19.8106Z" fill="white"/>
<path d="M40.1661 24.5979C40.161 25.6779 39.9587 25.5828 38.9686 25.5288C38.8188 24.4452 39.2732 24.5583 40.1661 24.5979Z" fill="white"/>
<path d="M27.5149 5.06837C27.9988 5.85244 25.8631 6.31107 26.8056 4.78613C26.9295 4.83581 27.4919 5.03165 27.5149 5.06837Z" fill="white"/>
<path d="M29.7949 10.2368V12.6301C29.7819 12.6286 29.5422 12.6286 29.5292 12.6301C29.5335 11.941 29.5256 11.2491 29.5234 10.5579C29.5234 10.3837 29.6617 10.2541 29.6617 10.2368H29.7949Z" fill="white"/>
<path d="M29.6612 19.8103C29.5727 19.8089 29.4834 19.811 29.3955 19.8103V14.8906H29.5287L29.6655 15.0749C29.6605 16.6596 29.6591 18.2379 29.6619 19.8103H29.6612Z" fill="white"/>
<path d="M32.2864 5.55068C31.7168 6.08131 31.0666 4.88397 31.9386 4.98621C32.2713 5.02509 32.6263 5.23389 32.2864 5.55068Z" fill="white"/>
<path d="M27.4006 13.561C27.4179 13.638 27.3891 13.7424 27.4006 13.8267C27.2638 13.8267 26.9427 14.0102 26.8707 13.9606C26.7497 13.8749 26.7014 13.2247 26.8685 13.0289C27.1543 13.0073 27.3452 13.3162 27.4006 13.561Z" fill="white"/>
<path d="M24.4105 21.8051C24.6899 21.7331 25.2055 21.9801 25.1392 22.2681C25.0161 22.8059 23.8417 21.952 24.4105 21.8051Z" fill="white"/>
<path d="M35.9109 3.58915C35.7266 3.2918 35.7035 2.34717 35.7777 1.99365C36.0312 2.39469 35.8979 3.08084 35.9109 3.58915Z" fill="white"/>
<path d="M33.6505 14.2264C32.929 14.2321 31.0179 14.721 30.4563 14.2955C30.0955 14.0219 30.4469 13.1104 30.4592 12.7641C31.5069 12.9851 32.6316 12.9628 33.6505 12.6309C33.693 12.7367 33.9177 12.8181 33.9098 13.0931C33.9018 13.3912 33.4979 13.8116 33.6505 14.2264Z" fill="white"/>
<path d="M38.4373 23.7994C35.4123 23.3148 32.3188 23.615 29.2614 23.5337C29.2557 23.4012 29.2672 23.2673 29.2622 23.1348L38.4373 22.8691C38.4373 23.1615 38.4733 23.5258 38.4373 23.8001V23.7994Z" fill="white"/>
<path d="M29.7942 14.3592C29.8878 16.1411 29.931 18.0081 29.7942 19.8102C29.7726 19.8217 29.7056 19.8102 29.661 19.8102C29.3585 18.2126 29.6091 16.5177 29.5278 14.8905C29.5184 14.699 29.5061 14.5226 29.3945 14.3585C29.5241 14.3585 29.6674 14.3441 29.7935 14.3585L29.7942 14.3592Z" fill="white"/>
<path d="M29.9272 14.4919C29.8372 15.1715 30.1014 19.6513 29.7939 19.8104V14.3594C29.8314 14.3637 29.8883 14.4832 29.9272 14.4926V14.4919Z" fill="white"/>
<path d="M35.2465 4.52005C35.1176 4.88869 32.0983 4.40846 31.5885 4.3883C30.9916 4.36526 30.3896 4.40198 29.7941 4.38614L29.6616 10.1043L29.3937 9.8235C29.3606 8.15241 29.3224 6.46619 29.1316 4.82318C28.7953 4.83038 28.5289 4.7735 28.3316 4.65254C27.5943 3.72951 27.0024 2.75033 28.7471 2.58401C30.8015 2.32697 32.858 2.13905 34.9174 2.01953C35.1572 2.16425 35.3797 4.11758 35.2465 4.51933V4.52005Z" fill="white"/>
<path d="M27.9323 10.3701C28.1851 10.2434 28.1887 10.1858 28.2074 9.91727C28.2945 8.65801 28.3593 5.90477 28.2045 4.71318C28.0914 3.84056 27.38 4.22503 27.2677 4.12063C27.2051 4.06303 27.2267 2.56545 27.3923 2.45025L35.2468 1.85986C35.0697 2.73537 35.5816 3.72319 35.2468 4.5195C35.3404 4.25167 35.0329 2.23642 34.7643 2.14282C34.6398 2.0989 32.4457 2.23425 32.1332 2.26953C31.4607 2.34513 30.6715 2.69433 30.1192 2.78289C29.6317 2.86137 27.8431 2.59209 27.8582 3.38624C27.8661 3.81607 28.2722 3.98384 28.332 4.65271C28.5249 6.81412 28.1887 9.24264 28.332 11.4336C28.2225 11.507 28.1376 11.512 28.1167 11.4055L27.9331 10.3701H27.9323Z" fill="white"/>
<path d="M34.5684 3.97523C34.2372 4.20491 33.4515 3.64116 33.9153 3.12277C34.5043 2.4647 34.9868 3.68508 34.5684 3.97523Z" fill="white"/>
</svg>
