<svg width="30" height="36" viewBox="0 0 30 36" fill="none" xmlns="http://www.w3.org/2000/svg">
<path d="M29.534 10.4297L29.4203 16.0372L28.7484 15.3085V11.1029L18.0925 11.2145L17.9751 14.5287L18.0954 20.021L17.3076 20.9722V10.4297H29.534Z" fill="white"/>
<path d="M25.6073 14.8036L21.906 18.5045L21.8059 16.5921L21.2803 15.8678L22.5786 15.9246L22.634 16.8218L25.271 14.2427L25.6073 14.8036Z" fill="white"/>
<path d="M22.5798 15.9248L21.347 15.9262L21.5414 16.0623L21.5968 16.4576L21.8899 16.6671L21.9072 18.5046L21.7941 18.1129L21.7956 16.5973L21.002 16.6469L20.8746 19.5472L19.7757 20.6359L19.5518 19.9626L20.2243 19.1217V15.8132L22.4177 15.8096L22.5798 15.9248Z" fill="white"/>
<path d="M27.5146 15.252L29.3631 17.0484L29.42 18.0557L27.4023 16.0368L27.5146 15.252Z" fill="white"/>
<path d="M27.5146 15.2525L27.4023 16.0373L25.6078 14.8039L25.2715 14.243L25.9779 13.6943L27.5146 15.2525Z" fill="white"/>
<path d="M19.7746 20.6356L17.5322 22.0929L17.6986 21.756L19.5506 19.9624L19.7746 20.6356Z" fill="white"/>
<path d="M10.2412 17.1567C10.0993 17.5139 10.1382 17.727 10.3571 17.7968L10.3535 18.0618H6.31528C6.15182 17.8192 6.11437 17.5175 6.20294 17.1567H10.2412Z" fill="white"/>
<path d="M12.4844 17.1567C12.5305 17.3007 12.488 17.4548 12.3563 17.6175C12.6357 17.7047 12.753 17.8523 12.7091 18.0618H10.3537L9.89786 17.7666C9.84746 17.4541 10.0102 17.3209 10.2421 17.1575H12.4852L12.4844 17.1567Z" fill="white"/>
<path d="M2.27741 17.1567C2.89453 17.2489 2.88949 17.9617 2.27741 18.0618H0.256836V17.1567H2.27811H2.27741Z" fill="white"/>
<path d="M14.6156 17.1567C14.6185 17.3015 14.5494 17.457 14.4075 17.6233C14.594 17.763 14.7006 17.9092 14.7279 18.0618H12.7088L12.1551 17.7666C12.0687 17.4505 12.2588 17.3245 12.4841 17.1575H14.6156V17.1567Z" fill="white"/>
<path d="M4.18414 17.1567C5.05472 17.3007 4.9287 18.0208 4.0718 18.0618H2.27734C2.57042 17.7428 2.57402 17.4764 2.27734 17.1567H4.18414Z" fill="white"/>
<path d="M6.20397 17.1567C6.48481 17.4419 6.45241 17.7061 6.31631 18.0618H4.07324C4.63779 17.8264 4.71193 17.5088 4.18555 17.1567H6.20468H6.20397Z" fill="white"/>
<path d="M14.6151 17.1567H15.966V18.0618H14.7267C14.0801 17.9387 13.9742 17.4044 14.6144 17.1567H14.6151Z" fill="white"/>
<path d="M27.8516 29.944L28.1626 29.5264L28.3031 22.4831L27.9667 21.6998C27.9667 21.6998 29.3717 21.573 29.646 21.5327C29.5754 21.8776 29.3076 22.3708 29.3076 22.3708C29.3076 22.3708 29.5034 27.0574 29.304 29.2203C29.2759 29.5645 29.7584 29.9432 29.7584 29.9432H27.8516V29.944Z" fill="white"/>
<path d="M12.26 24.2241C12.4357 23.7964 13.0276 21.9518 13.0276 21.9518L12.821 21.5327H14.6154L14.4095 21.9532L15.1757 24.1125L15.0576 24.4761C15.0576 24.4761 14.9344 25.3769 14.6147 25.3466C14.3267 24.6792 14.0437 24.0024 13.7744 23.3284C13.2782 24.1233 12.5963 25.9075 12.5963 25.9075H12.4321C12.4321 25.9075 12.1794 24.8477 12.26 24.2256V24.2241Z" fill="white"/>
<path d="M12.5969 25.9066C12.3787 26.43 11.9236 27.4755 11.9236 27.4755L14.279 27.4769L14.1199 27.7433C14.1199 27.7433 13.232 27.8261 12.7863 27.8168C12.8345 28.2416 12.6588 28.4648 12.2599 28.4864C11.9531 28.5109 11.727 28.4878 11.475 28.711C11.192 28.8234 11.0379 28.4043 11.0379 28.4043L11.0264 27.0284C11.0264 27.0284 11.8797 25.1527 12.2599 24.2246C12.648 24.7704 12.3333 25.3918 12.5962 25.9066H12.5969Z" fill="white"/>
<path d="M16.2982 26.8041C16.5589 27.3902 17.6549 29.5409 17.6549 29.5409L18.2051 29.9441H16.0736C16.0736 29.9441 16.0851 28.7467 15.8489 28.1498C15.7748 27.8783 16.1794 26.6694 16.1794 26.6694C16.1794 26.6694 16.2644 26.7486 16.2975 26.8041H16.2982Z" fill="white"/>
<path d="M15.1764 24.1123C15.5437 24.9994 15.9088 25.9289 16.2983 26.8037C15.8094 26.7728 16.1226 27.8413 15.8497 28.1494C15.4789 27.2091 15.0173 26.276 14.6162 25.3457C14.9712 24.9929 14.6061 24.1325 15.1772 24.1123H15.1764Z" fill="white"/>
<path d="M11.4752 28.711C11.0971 29.0451 11.3629 29.9444 11.3629 29.9444H9.34375C9.34375 29.9444 10.5722 28.0493 11.0259 27.0283C11.5018 27.4711 10.9639 28.3474 11.4745 28.7103L11.4752 28.711Z" fill="white"/>
<path d="M12.2598 28.4863C12.6738 28.2559 12.5615 27.952 12.3721 27.5898C13.0519 27.5833 14.2789 27.4768 14.2789 27.4768L14.8838 27.2399C14.8838 27.2399 15.0026 26.9094 15.1747 26.9166C15.3922 29.0558 13.6359 28.3761 12.2598 28.4863Z" fill="white"/>
<path d="M22.1304 29.9442C21.496 29.9392 20.858 29.9485 20.2236 29.9428C20.5181 29.5907 20.6773 28.9959 20.6773 28.9959L20.6744 22.371L20.3353 21.5322H22.2421L21.679 22.4834C21.679 22.4834 21.5731 27.5163 21.7934 28.9347C22.1146 29.0226 22.2269 29.3595 22.1297 29.9442H22.1304Z" fill="white"/>
<path d="M24.3738 28.9348C24.8642 29.3697 24.6705 29.9975 23.9252 29.9442C23.3289 29.9478 22.1307 29.9442 22.1307 29.9442L21.793 29.829C21.793 29.829 21.8391 29.2257 21.7937 28.9348C22.6506 28.9146 23.5169 28.9629 24.3738 28.9348Z" fill="white"/>
<path d="M25.272 28.9349C25.5391 28.891 25.9438 28.5986 25.9438 28.5986L25.9453 29.9451C25.9453 29.9451 25.3454 29.9372 25.0473 29.9451C24.8435 29.3791 24.9184 29.0422 25.272 28.9356V28.9349Z" fill="white"/>
<path d="M25.2713 28.9348C24.9502 29.3207 25.4665 29.7937 25.0467 29.9442C24.6744 29.9536 24.2978 29.9421 23.9248 29.9442C24.6168 29.8132 24.3317 29.5489 24.3734 28.9348C24.6535 28.9254 25.0172 28.9765 25.2706 28.9348H25.2713Z" fill="white"/>
<path d="M0.707231 28.0373C-0.227444 26.5425 -0.244007 24.9355 0.707231 23.4393C1.086 23.3637 1.15944 23.9512 1.15152 24.2565C0.779234 25.2278 0.840433 26.1156 1.08886 27.1078C1.18968 27.6888 1.06295 27.9991 0.707231 28.0373Z" fill="white"/>
<path d="M5.41817 29.0472C5.82646 28.9651 5.85742 29.6599 5.75445 29.9443C4.74848 30.2475 3.71011 30.2086 2.72575 29.832C2.57741 29.6203 2.43556 28.6483 2.83809 28.8226C3.52577 29.1804 4.66568 29.256 5.41817 29.0472Z" fill="white"/>
<path d="M5.75415 21.5331C5.6339 21.7966 5.66703 22.3164 5.66703 22.3164L5.41788 22.4302C5.41788 22.4302 3.68679 22.292 3.06247 22.5425C2.75283 22.7009 2.4396 21.8247 2.7262 21.6454C3.73 21.2551 4.72517 21.2335 5.75489 21.5331H5.75415Z" fill="white"/>
<path d="M1.7166 23.551C1.53441 24.1479 0.94106 25.4108 0.94106 25.4108C0.94106 25.4108 1.18733 26.6024 1.26798 27.2519C1.57042 27.6428 1.65682 28.5746 1.04331 28.4853C0.892809 28.3024 0.843128 28.2549 0.707031 28.0367C1.14917 27.2778 0.813603 25.6203 0.813603 25.6203C0.813603 25.6203 1.12468 24.1803 0.707031 23.4387C1.02603 22.9368 1.16356 22.8158 1.60426 22.4292C2.19185 22.4314 2.07232 23.2335 1.7166 23.551Z" fill="white"/>
<path d="M5.7543 21.5327C6.44414 21.7336 7.66039 22.4853 7.66039 22.4853L6.54063 23.5509C6.54063 23.5509 5.88392 22.5587 5.41802 22.4299C5.55124 22 5.1487 21.6911 5.7543 21.5327Z" fill="white"/>
<path d="M5.75424 29.9445C5.45613 29.7011 5.62391 29.3094 5.41797 29.0473C5.92707 28.9055 6.70766 28.04 6.70766 28.04L7.65889 28.9912C7.65889 28.9912 6.39512 29.7515 5.75424 29.9445Z" fill="white"/>
<path d="M3.06267 22.5422C3.06267 22.5422 2.11216 23.2665 1.71683 23.5516C1.85509 23.0987 1.83564 22.8554 1.60449 22.4298C1.99262 22.0893 2.7264 21.645 2.7264 21.645L3.06267 22.5422Z" fill="white"/>
<path d="M2.83874 28.8222L2.76599 28.8726C2.76599 28.8726 2.90929 29.5343 2.72711 29.8316C2.28137 29.661 2.06606 29.445 1.71754 29.1584C1.47775 28.8589 1.42447 28.1605 1.82988 28.0366C1.98254 28.2044 2.83944 28.8214 2.83944 28.8214L2.83874 28.8222Z" fill="white"/>
<path d="M1.8286 28.0377L1.71626 29.1595C1.71626 29.1595 1.28348 28.7787 1.04297 28.4863C1.34181 28.2502 1.31229 27.6115 1.26764 27.2529C1.56936 27.3955 1.8286 28.0377 1.8286 28.0377Z" fill="white"/>
<path d="M28.6358 3.47656L28.8928 6.18959L28.6358 6.50424L27.0811 5.53941L27.9056 3.58745L28.6358 3.47656Z" fill="white"/>
<path d="M26.1688 4.0362L26.8162 4.02539L26.8414 5.158L26.8291 5.36535L25.0469 5.158V4.14853L26.1688 4.0362Z" fill="white"/>
<path d="M30.3181 3.92513L30.4484 4.15481L30.3152 6.43296L30.0935 6.61657L29.5332 6.95281V3.47656L30.3181 3.92513Z" fill="white"/>
<path d="M30.6545 6.729L30.7698 9.36644L30.5422 9.86901L30.0936 9.30811L29.9697 7.14878L30.2059 6.95294L30.6545 6.729Z" fill="white"/>
<path d="M30.2058 6.95264L30.0935 9.30781L29.5332 7.17727L30.2058 6.95264Z" fill="white"/>
<path d="M28.6357 3.4761V6.50378L29.1967 6.84074L29.309 3.36377L28.6357 3.4761Z" fill="white"/>
<path d="M26.1689 4.03641L27.4017 3.9248L26.8415 5.1582L26.6176 4.03641H26.1689Z" fill="white"/>
<path d="M25.0468 4.14893V5.15839L24.2598 4.98846L25.0468 4.14893Z" fill="white"/>
<path d="M24.0382 4.59789L22.6924 4.70805L23.0827 4.59717L24.0382 4.59789Z" fill="white"/>
<path d="M18.009 33.4486C17.1852 34.2421 19.6868 34.0498 20.0065 34.5913C20.8375 35.9982 18.1839 36.4215 17.4199 35.4949C17.5279 34.9275 18.1544 35.5381 18.5354 35.6158C19.0689 35.7246 19.8315 35.6396 19.7552 34.9606C19.663 34.1485 17.4502 34.9275 17.5208 33.702C17.5762 32.7372 19.3908 32.797 19.8906 33.3629C20.0137 33.5019 19.9633 33.62 19.8293 33.6459C19.5859 33.6934 18.5512 32.9273 18.0097 33.4486H18.009Z" fill="white"/>
<path d="M30.0946 32.9727V33.3089H28.3563C28.141 33.3089 28.1763 34.0253 28.1878 34.2068H29.4228V34.5423H28.1878V35.5525H30.1508C30.2242 35.5525 30.3661 35.793 30.3193 35.8887H27.8516V33.1411C27.8516 33.1289 28.0078 32.9727 28.0201 32.9727H30.0953H30.0946Z" fill="white"/>
<path d="M16.9706 32.9727V33.3089H15.2323C15.017 33.3089 15.0523 34.0253 15.0638 34.2068H16.2988V34.5423H15.0638V35.5525H17.0829V35.8887H14.7275V32.9727H16.9706Z" fill="white"/>
<path d="M27.7386 32.9727V33.3089H26.5051V35.8887H26.1688V33.4774C26.1688 33.2189 25.1592 33.3262 24.9346 33.3089V32.9727H27.7393H27.7386Z" fill="white"/>
<path d="M22.9154 32.9727V33.3089C22.6915 33.3269 21.6819 33.2189 21.6819 33.4774V35.8887H21.3456V33.3089H20.1121C20.0459 33.2456 20.2101 32.9727 20.2799 32.9727H22.9154Z" fill="white"/>
<path d="M24.172 33.2303C24.1014 33.1216 24.0445 32.9315 23.8703 32.9725C23.691 33.015 22.5871 35.5401 22.3545 35.8871C23.0011 36.1255 22.8326 35.2521 23.2135 35.121C23.4375 35.044 24.594 35.0598 24.7668 35.2139C25.039 35.4559 24.859 36.0758 25.4948 35.8871C25.0001 35.0843 24.6739 34.0036 24.1713 33.2303H24.172ZM23.3648 34.7661C23.3129 34.7193 23.7155 33.8992 23.786 33.7897C23.8566 33.681 23.7738 33.5888 24.0359 33.6457L24.486 34.7661H23.3655H23.3648Z" fill="white"/>
<path d="M6.54025 33.3089H4.68961C4.50887 33.3089 4.45199 33.9303 4.5708 34.1017C4.71914 34.3155 5.48387 34.1629 5.75607 34.2068V34.5423H4.52112V35.5525H6.4848C6.55825 35.5525 6.7001 35.793 6.65329 35.8887H4.18555V33.1411C4.18555 33.1289 4.34183 32.9727 4.35407 32.9727H6.3732C6.44665 32.9727 6.5885 33.2132 6.54169 33.3089H6.54025Z" fill="white"/>
<path d="M10.6898 35.5519H12.4843V35.8882H10.2412V33.1406C10.2412 32.9469 10.6898 32.9476 10.6898 33.1406V35.5519Z" fill="white"/>
<path d="M8.58093 33.3438C8.50028 33.2192 8.3541 32.9305 8.16832 32.973C8.0459 33.3035 6.64679 35.7774 6.76488 35.8883C7.11052 36.2116 7.40791 35.1518 7.45543 35.1222C7.53536 35.0726 8.77104 35.0776 8.93018 35.1258C9.21317 35.2108 9.47672 36.1843 9.79284 35.8883C9.89581 35.7918 8.7127 33.5461 8.58093 33.3438ZM7.66211 34.7658L8.2245 33.5339L8.89635 34.7658H7.66281H7.66211Z" fill="white"/>
<path d="M2.95697 34.7217C2.98865 34.5957 3.32348 34.5143 3.42861 34.2933C3.75338 33.6129 3.35732 33.0743 2.66964 32.9728C2.17926 32.9008 1.55207 33.0253 1.04297 32.9728V35.8888H1.37924V34.6547C1.71841 34.7015 2.30171 34.5345 2.55878 34.7663C2.68767 34.883 3.17013 36.2071 3.51001 35.8888C3.65907 35.7491 2.90802 34.9154 2.95627 34.7224L2.95697 34.7217ZM1.37924 34.3192V33.309C3.80306 33.0023 3.86283 34.6648 1.37924 34.3192Z" fill="white"/>
</svg>
