<svg width="101" height="36" viewBox="0 0 101 36" fill="none" xmlns="http://www.w3.org/2000/svg">
<path d="M82.9217 7.4103L75.2088 21.8193L72.0361 7.53342C72.1917 7.28141 72.4041 7.4931 72.5791 7.48518C72.8203 7.47366 73.9113 7.29437 74.0229 7.45853L76.1169 16.4659L80.9033 7.57807C80.9414 7.53271 81.1913 7.4103 81.2302 7.4103H82.921H82.9217Z" fill="white"/>
<path d="M61.643 21.8193C62.0512 21.2749 63.0522 18.9968 63.6657 18.8571C63.8702 18.8103 64.2144 18.7707 64.1172 19.1019C63.1659 20.6276 61.3081 23.6272 60.8746 25.2919C60.65 26.1552 61.7142 25.8953 61.5551 26.4612C61.4485 26.8407 60.7011 26.2114 60.4959 26.3554C60.3526 26.4562 59.6411 29.4572 59.4914 29.553C59.0132 29.8582 59.3733 28.8286 59.397 28.6753C59.4496 28.3383 59.4431 27.9833 59.5216 27.6464C59.6001 27.3094 59.9681 26.5195 59.9817 26.2898C59.9947 26.0731 59.0391 26.0191 58.8109 26.0242C57.9907 26.0443 55.3415 26.7715 54.7964 27.3756C54.1692 28.0704 54.9505 28.465 55.6 28.5514C56.7032 28.6976 57.7458 28.3556 58.8382 28.4067C58.8685 28.5788 58.7245 28.6443 58.5927 28.6961C57.7005 29.0432 55.7779 29.2793 54.859 29.0453C54.0043 28.8279 53.686 28.0431 54.1202 27.2777C54.8007 26.0782 58.0886 25.3445 59.374 25.4431C59.5699 25.4582 60.048 25.6627 60.1625 25.5734L61.643 21.8193Z" fill="white"/>
<path d="M40.3634 26.6773C40.5996 27.0272 40.5722 27.4052 40.1156 27.0891C38.7921 26.3093 37.9691 25.8492 36.3331 26.2359C35.6562 26.3957 33.8336 27.2813 34.4176 28.1871C34.6056 28.4787 36.4605 28.4442 36.8573 28.4053C37.7422 28.3189 39.6663 27.5233 40.4448 27.8725C40.7162 27.9941 40.9502 28.7163 40.9236 29C40.7414 30.9081 38.4516 33.8392 36.7349 34.6637C36.153 35.1821 35.2507 35.0654 36.2978 34.5081L36.4051 34.3346C37.7408 33.4339 39.4085 31.6367 39.9558 30.0988C40.0609 29.8021 40.4527 28.5514 40.0638 28.4182C39.6563 28.2778 37.5572 28.9604 36.9293 29.0547C35.6367 29.2484 33.529 29.4018 33.7631 27.5405C33.9237 26.2625 36.1674 25.4784 37.2735 25.4417C38.2002 25.4115 39.7859 25.927 40.3627 26.678L40.3634 26.6773Z" fill="white"/>
<path d="M13.0628 26.4306C12.4701 26.9605 11.3727 28.8376 10.7585 29.0291C9.50195 29.4201 9.54014 27.957 9.59487 27.1269C9.61359 26.8475 9.91602 25.4953 10.1486 25.4391C10.2919 25.4046 10.5108 25.4658 10.6707 25.4427C10.5598 26.0447 10.2379 26.5955 10.1767 27.2133C10.1126 27.8613 10.0701 29.0061 10.878 28.1601C11.426 27.5862 12.5919 25.6199 13.286 25.4593C14.3625 25.2102 14.467 26.0209 14.382 26.882C14.3049 27.6561 13.5942 28.5568 15.002 28.4056C15.8466 28.3149 16.5588 27.4523 17.2695 27.1708C17.5554 27.0433 17.8168 26.864 18.0544 26.6322C18.7047 26.5667 17.8528 27.4026 17.5993 27.5005C16.8425 28.2544 15.5068 29.2775 14.3827 29.0651C14.0925 28.9946 13.888 28.8124 13.7231 28.5712C13.6518 28.443 13.5942 28.3005 13.5582 28.1593L13.538 27.6755C14.0039 26.0022 13.8455 25.5874 13.0635 26.4299L13.0628 26.4306Z" fill="white"/>
<path d="M47.374 27.3354C47.7348 27.0712 48.0775 26.7803 48.4008 26.4635C49.3672 25.8285 49.1425 26.5247 48.6111 27.0064C47.5281 28.4104 44.6607 29.8994 43.0463 28.6509C42.2016 27.9979 42.0727 26.7652 42.0951 25.7708C42.2614 25.7852 42.6236 25.7125 42.7208 25.8493C42.7554 25.8983 42.7251 26.843 42.7618 27.0402C42.8814 27.6868 43.2522 28.1822 43.8917 28.3823C45.1468 28.7762 46.3796 28.0029 47.374 27.3347V27.3354Z" fill="white"/>
<path d="M52.403 25.3631C52.1992 26.0529 51.8485 26.7225 51.6231 27.4195C51.5021 27.7931 51.3999 28.6449 51.235 28.9257C50.8612 29.5608 50.8209 28.4649 50.8397 28.2014C50.8685 27.7852 51.5122 25.5489 51.7801 25.3537C51.9889 25.2018 52.1833 25.3026 52.403 25.3631Z" fill="white"/>
<path d="M19.3312 25.1124C19.9684 24.4831 20.0325 24.8819 19.5789 25.4414C19.1576 26.2132 18.3633 27.0629 17.5993 27.4999C17.7549 27.3451 17.9723 27.1694 18.0897 27.0427C18.1934 26.9318 18.2352 26.9189 18.094 26.7986C17.729 26.7187 17.7909 27.0391 17.7153 27.0953C17.5922 27.186 17.3595 27.1349 17.2695 27.1702C17.8002 26.7497 18.2798 26.2939 18.7565 25.8137C18.951 25.6178 19.1194 25.2837 19.3319 25.1116L19.3312 25.1124Z" fill="white"/>
<path d="M49.6833 25.1123C50.0527 24.7984 50.1809 25.095 49.931 25.4414C49.5443 26.0008 49.1555 26.5862 48.6111 27.006C48.7285 26.8533 48.8617 26.5437 49.023 26.3882C48.4505 26.2427 48.0322 26.939 47.5785 27.2551C47.4986 27.3105 47.4064 27.3134 47.374 27.3357C48.1748 26.62 48.9258 25.8727 49.6833 25.1123Z" fill="white"/>
<path d="M71.7627 27.8457C72.3575 27.84 72.1998 29.0957 71.2594 28.9797C70.3441 28.8667 71.384 27.8493 71.7627 27.8457Z" fill="white"/>
<path d="M76.0059 28.8884C75.7186 28.4312 76.8333 27.5384 77.1076 27.9942C77.5325 28.6991 76.2291 29.2448 76.0059 28.8884Z" fill="white"/>
<path d="M74.0734 27.9267C74.3233 27.8525 74.6552 28.0296 74.6783 28.2874C74.715 28.6978 73.8711 29.2119 73.4383 28.8584C73.1906 28.6553 73.9064 27.9764 74.0734 27.9267Z" fill="white"/>
<path d="M36.734 34.6638C36.5194 34.9258 36.1601 35.0864 35.8562 35.2283C35.4861 35.4011 34.9986 35.5004 34.6724 35.6516C34.2835 35.8669 34.0214 35.6912 34.4247 35.4047C35.1152 35.1094 35.782 34.7538 36.4042 34.334C36.5633 34.7113 35.8396 34.6429 35.9498 34.8279C36.1205 35.1145 36.4164 34.7336 36.5453 34.6796C36.6145 34.6508 36.7044 34.6774 36.734 34.663V34.6638Z" fill="white"/>
<path d="M2.17598 14.491C2.53314 14.3794 2.83629 14.4514 2.42368 14.7379C2.40712 14.9215 2.42584 15.126 2.42368 15.3139C2.64835 15.4975 2.65051 15.7078 2.42368 15.8899C2.4208 16.0267 2.43232 16.1657 2.42368 16.3018C2.82549 16.5617 2.4748 16.7856 2.09388 16.6308C2.16012 16.2392 1.97005 14.6947 2.17672 14.4902L2.17598 14.491Z" fill="white"/>
<path d="M52.5494 23.8971C53.5835 23.622 52.8454 25.1341 52.1145 24.5379C51.8387 24.3133 52.3262 23.9561 52.5494 23.8971Z" fill="white"/>
<path d="M34.4248 35.4045L34.3427 35.6508H34.6725C34.4954 35.7336 34.3082 35.9748 34.2837 35.9813C34.0705 36.0396 33.6795 35.9395 33.4354 35.9798C33.4325 35.861 33.4023 35.7696 33.5168 35.6918C33.5737 35.6529 34.2563 35.4765 34.4248 35.4038V35.4045Z" fill="white"/>
<path d="M13.0628 26.4304C13.0477 26.1554 13.6137 25.8191 13.7973 25.9437C14.112 26.6976 13.43 27.3794 13.5575 28.1592C13.3559 27.3686 13.8103 26.8862 13.7224 26.1007C13.4401 26.0445 13.2536 26.2598 13.0628 26.4304Z" fill="white"/>
<path d="M2.42335 15.3149L3.16576 15.3977C3.2925 15.9176 2.75099 15.7066 2.42335 15.8917C2.42695 15.7002 2.42119 15.5072 2.42335 15.3157V15.3149Z" fill="white"/>
<path d="M2.42355 16.3022C2.64174 16.4844 3.49003 16.2252 3.24304 16.6248C3.18615 16.717 2.14776 16.7947 2.09375 16.6313H2.42429C2.43005 16.5226 2.41637 16.411 2.42429 16.3022H2.42355Z" fill="white"/>
<path d="M2.17551 14.4907C2.36345 14.3043 2.96255 14.4547 3.24699 14.4087C3.28587 15.0135 2.75663 14.4958 2.42251 14.7377C2.43115 14.6448 2.48085 14.5764 2.50461 14.4915H2.1748L2.17551 14.4907Z" fill="white"/>
<path d="M49.9303 24.7837C50.3084 24.5533 50.6 24.5476 50.2601 25.0307C50.1572 25.2949 50.0175 25.3158 49.9303 25.4425C49.9354 25.1574 50.0045 25.0682 49.6826 25.1135C49.7683 25.0271 49.8446 24.8745 49.9303 24.7845V24.7837Z" fill="white"/>
<path d="M19.3311 25.1125C19.4938 24.9073 19.6868 24.5855 19.9906 24.6186C20.0252 24.9354 19.8214 25.2507 19.5788 25.4416C19.6623 25.2889 19.7508 25.0333 19.8257 24.8655C19.8056 24.8454 19.357 25.0909 19.3311 25.1118V25.1125Z" fill="white"/>
<path d="M92.2416 8.5629C92.0673 8.54562 91.9046 8.67307 91.7534 8.94379C91.3148 9.1706 90.8194 9.25628 90.2678 9.20084L88.217 9.11875C87.5156 9.03019 86.905 9.12019 86.3851 9.3866C86.2231 9.85245 85.8069 12.1579 85.804 12.6432C85.804 12.7354 85.8472 12.9269 85.9315 12.9269H91.3335C91.1658 13.4158 91.232 14.2409 91.07 14.6809C91.0297 14.7903 90.944 14.8306 90.8424 14.8659L85.472 14.9386C85.13 16.4975 84.8974 18.0988 84.6641 19.6684C84.7563 19.6562 84.8981 19.7613 84.942 19.7613H90.468C90.63 19.7613 90.5155 20.3856 90.4975 20.5317C90.4752 20.7146 90.2908 21.8198 90.1382 21.8198H82.6327C82.6039 21.8198 82.5031 21.7233 82.4297 21.7313V21.6225L84.8578 7.49081L92.2833 7.41016C92.6369 7.46416 92.2963 8.2857 92.2416 8.5629Z" fill="white"/>
<path d="M96.8614 7.41016L94.8892 19.2379C94.8099 19.3754 94.9691 19.7606 95.0886 19.7606H100.037C100.103 19.7606 100.191 19.9579 100.164 20.045L99.988 21.7298L92.6641 21.727C92.829 20.5735 92.9809 19.4085 93.1703 18.2586C93.706 15.0049 94.2086 11.7022 94.8229 8.46355C94.8553 8.29074 95.008 7.41016 95.17 7.41016H96.8607H96.8614Z" fill="white"/>
<path d="M86.3867 9.38608C86.5142 9.01887 86.8821 9.02392 87.2681 8.98288C88.4843 8.854 90.1513 9.16503 91.2891 8.96919C91.9191 8.86047 91.8464 8.3219 92.0379 8.23406C92.2417 8.14045 92.1049 8.53503 92.2432 8.56239C92.1899 8.83311 92.1359 9.10599 92.1611 9.38608C90.9801 9.38536 89.7949 9.38608 88.6139 9.38608C87.9054 9.32992 87.1637 9.29176 86.4695 9.38608H86.3867Z" fill="white"/>
<path d="M88.6131 9.38606H86.4688C86.5544 9.24998 86.782 9.30398 86.9209 9.30254C87.4603 9.29678 88.104 9.24062 88.6131 9.38606Z" fill="white"/>
<path d="M50.2614 25.0302C50.2859 24.9668 50.3673 24.7235 50.3435 24.7011L49.9316 24.7832C50.3918 24.2972 50.7511 24.6119 50.2614 25.0302Z" fill="white"/>
<path d="M40.363 26.6772C40.5812 26.9609 40.8706 27.4225 40.2521 27.2374C40.1469 27.2057 40.134 27.0999 40.1152 27.0891C40.4861 27.2626 40.4832 26.9761 40.363 26.6772Z" fill="white"/>
<path d="M14.3823 29.0647C14.2426 29.0381 14.1828 29.0914 14.0085 28.987C13.8199 28.8739 13.8055 28.7206 13.7227 28.5708L14.3823 29.0647Z" fill="white"/>
<path d="M2.09299 18.3609C2.5452 18.1967 2.65466 18.4156 2.42279 19.0197C2.33062 20.2257 1.03014 22.6017 0.312219 23.6234C-1.6745 26.4524 -4.80832 28.4799 -8.19488 29.2108C-8.31802 29.2374 -8.49805 29.3022 -8.45556 29.1157C-8.38283 28.7989 -7.97598 27.549 -7.8046 27.3358C-7.03051 27.1112 -6.28809 26.8088 -5.57736 26.4301C-3.08443 25.2334 -0.956586 22.8415 0.153786 20.3359C0.302124 20.0018 0.515264 19.1075 0.688084 18.8929C0.860905 18.6784 1.8107 18.3882 2.09369 18.3609H2.09299Z" fill="white"/>
<path d="M-2.85576 4.364C0.0973132 6.66589 1.46621 8.72659 2.50529 12.3504C2.71628 12.9365 2.42537 13.0532 1.99044 12.7032L1.43308 12.5974C1.21201 12.5146 0.880044 12.5499 0.687781 12.3123C0.563206 12.1582 0.195968 10.909 0.04547 10.5655C-0.396663 9.55317 -0.997919 8.63082 -1.70288 7.78264C-2.09677 7.30815 -2.87949 6.68606 -3.18553 6.25693L-3.41309 6.05604C-3.33172 5.44403 -3.22082 4.83705 -3.08184 4.23584L-2.85576 4.36256V4.364Z" fill="white"/>
<path d="M2.09254 18.3609L2.66931 18.1968C2.73267 18.2645 2.53899 18.9197 2.42234 19.0198C2.4389 18.803 2.41082 18.5784 2.42234 18.3609C2.31361 18.3667 2.20053 18.3509 2.0918 18.3609H2.09254Z" fill="white"/>
<path d="M2.50581 12.3506C2.5483 12.4982 2.74632 12.6919 2.67071 12.9266C2.21922 12.9957 1.83108 12.7466 1.43359 12.5975C1.61866 12.6235 1.86709 12.5565 2.03631 12.5954C2.10904 12.6119 2.49933 13.3269 2.50581 12.3506Z" fill="white"/>
<path d="M50.3429 7.41016L50.0015 9.3758C49.8402 9.47876 47.5439 9.32035 47.0809 9.38299C46.9081 9.40675 46.7943 9.42621 46.7345 9.61413L44.7759 21.5736C44.7586 21.6391 44.6492 21.8198 44.6103 21.8198H43.0434C43.0146 21.8198 42.9138 21.7233 42.8403 21.7313C43.515 17.7107 44.1314 13.6707 44.8947 9.66237C44.9343 9.57525 44.8385 9.3866 44.7752 9.3866H41.5996C41.6507 9.12595 41.8891 7.41016 42.0532 7.41016H50.3421H50.3429Z" fill="white"/>
<path d="M59.4986 15.2322C59.2437 15.7744 58.6676 16.1502 58.1787 16.467C58.2867 16.3302 59.1573 15.3445 59.2509 15.2703C59.3366 15.2019 59.4698 15.2495 59.4986 15.2322Z" fill="white"/>
<path d="M56.5735 7.40711C56.0989 7.37831 52.6613 7.34519 52.4856 7.45032C52.3639 7.52304 52.2948 7.90175 52.2624 8.0508C51.3097 12.4386 50.9424 17.1302 50.0171 21.5439C49.9775 21.631 50.0733 21.8197 50.1367 21.8197H51.9102C52.1839 21.181 52.3408 17.9841 52.6519 17.6609C52.8665 17.4384 54.1922 17.5593 54.5897 17.537C55.0937 17.5089 55.6475 17.3642 56.1616 17.3678L57.3951 21.8197H59.2508C58.9383 20.3501 58.504 18.9115 58.1397 17.4535C58.0684 17.1676 57.83 16.9416 57.9726 16.6305C58.0165 16.5355 58.1447 16.5103 58.1786 16.4671C58.6286 16.0595 59.0686 15.6477 59.4985 15.2323C60.0789 14.8823 60.7507 13.0556 60.8177 12.3911C61.1165 9.41811 59.5201 7.58639 56.5742 7.40711H56.5735ZM58.7121 13.0074C58.4652 13.8815 57.0552 15.7269 56.0752 15.7269H53.0235C52.9702 15.7111 52.891 15.6009 52.9039 15.5296L53.9106 9.53187C53.9336 9.44187 53.9725 9.31011 54.0532 9.26259C54.1749 9.19131 56.4237 9.19274 56.7341 9.22298C58.5566 9.40227 59.1492 11.4601 58.7121 13.0074Z" fill="white"/>
<path d="M37.9713 21.8198H35.9507C35.9421 21.8198 35.8269 21.7053 35.8269 21.6959V13.0507C35.8269 13.0363 35.6958 12.9052 35.6634 12.9268L30.2196 21.9839L27.8915 13.15L27.6618 13.0089L24.8376 21.7168C24.667 21.9184 22.9791 21.819 22.6299 21.7362L27.9499 5.92828L28.073 5.84621C28.9299 8.82995 29.7011 11.8461 30.5897 14.8205C30.7366 15.3122 30.8864 15.9264 31.088 16.3851C31.1327 16.4866 31.0844 16.586 31.2486 16.5492L37.8474 5.7627L37.9713 21.819V21.8198Z" fill="white"/>
<path d="M17.9282 5.76367L9.10352 21.8193H11.1241C11.1651 21.8193 11.2976 21.7264 11.3343 21.6774L13.3499 17.9485L13.594 17.8628L18.3458 17.9038L19.2898 21.8193H21.3932L17.9282 5.76367ZM14.4646 15.7251L16.9798 11.1991L17.9289 15.7265C16.7609 15.6761 15.6232 15.8439 14.4646 15.7251Z" fill="white"/>
<path d="M69.0008 24.724C67.7061 24.3085 64.8538 25.1646 63.9984 26.2705C63.8709 26.4354 63.832 26.7213 63.6556 26.8336C63.49 26.9387 62.9053 26.956 62.8757 27.0525C62.7303 27.5241 63.3388 27.3059 63.5454 27.5356C63.6556 27.658 63.7478 28.0699 63.8839 28.2686C64.5413 29.2334 66.6548 29.2384 67.6982 29.0577C67.9552 29.0131 68.2879 28.9029 68.406 28.6538C67.4267 28.7215 66.4373 28.7834 65.4652 28.5832C64.9129 28.4695 64.2468 28.1937 64.2029 27.55C64.2677 27.329 64.9122 27.4406 65.139 27.4089C66.2256 27.2591 68.9547 26.5744 69.6453 25.732C70.0176 25.2776 69.4048 24.8528 69.0008 24.7232V24.724ZM68.8618 25.6096C68.5075 25.984 66.1356 26.5874 65.5199 26.7191C65.2319 26.781 63.9501 27.1691 64.4945 26.5189C65.0403 25.8666 67.0566 25.4317 67.8933 25.3835C68.1374 25.3691 68.7128 25.2949 68.9014 25.3993C69.0418 25.4764 68.9309 25.5361 68.8618 25.6096Z" fill="white"/>
<path d="M70.7151 16.4675C70.5754 16.1773 70.4738 15.8144 70.4061 15.4991C70.2376 14.7099 70.1289 13.8876 69.9727 13.0913C70.3622 14.1778 70.481 15.3435 70.7151 16.4675Z" fill="white"/>
<path d="M71.8544 21.5539C71.4721 19.8597 71.0689 18.1676 70.7146 16.4677C70.446 15.3617 70.199 14.2363 69.9722 13.0915C69.6805 11.604 69.4155 10.0214 69.0245 8.56191C68.9619 8.32718 68.797 7.61005 68.7177 7.46893C68.658 7.36237 68.6277 7.30045 68.488 7.32853L60.7363 21.6964C60.7478 21.8901 61.4687 21.8044 61.6415 21.8196L61.8626 21.7879L62.8951 19.9706C63.2595 19.1836 63.6664 18.8941 64.1157 19.1022C64.2626 18.8668 64.5917 18.2425 64.8185 18.1986L69.0656 18.2368L70.0125 21.8196H71.7443C71.8041 21.8196 71.9041 21.641 71.853 21.5539H71.8544ZM68.6119 16.3849H65.8079C65.6207 16.3849 65.7748 16.0551 65.8093 15.9745C66.0679 15.3776 66.5366 14.7764 66.7563 14.1615C66.9521 13.6128 67.1429 12.9979 67.4972 12.4702C67.5563 12.3816 67.6556 12.3204 67.7456 12.2678C67.7694 12.2541 67.755 12.1512 67.8681 12.1858L67.9754 12.3269L68.7394 16.1768C68.743 16.2452 68.6566 16.3842 68.6119 16.3842V16.3849Z" fill="white"/>
<path d="M25.5514 24.6255C24.189 24.4447 21.7716 25.1957 20.8982 26.3067C20.7837 26.4521 20.6606 26.8294 20.5691 26.8842C20.3912 26.9907 19.8015 26.8201 19.7482 27.1398C19.6949 27.4594 20.3451 27.3954 20.4676 27.5185C20.5425 27.5948 20.5634 27.8864 20.6469 28.0398C21.3266 29.289 23.4185 29.2343 24.6441 29.0579C24.8939 29.0219 25.2151 28.9384 25.2698 28.654C24.2523 28.682 23.1355 28.8152 22.1382 28.5272C21.6176 28.3775 21.0083 28.0383 21.0645 27.4184C21.0883 27.3925 21.2662 27.4868 21.3518 27.4847C22.4197 27.4508 25.6097 26.6451 26.3831 25.9352C27.1204 25.2584 26.2412 24.7169 25.5521 24.6255H25.5514ZM25.4347 25.7717C24.8226 26.1785 22.841 26.6372 22.0539 26.8021C21.5952 26.8978 20.7938 27.1297 21.475 26.4709C22.1231 25.8444 23.7296 25.4744 24.6102 25.4427C25.1633 25.3383 26.3715 25.3203 25.4347 25.7717Z" fill="white"/>
<path d="M24.6101 25.4417C25.1084 25.1782 26.689 25.4352 25.4346 25.7708C25.5455 25.6973 25.7068 25.5641 25.7644 25.4424C25.3813 25.4511 24.9925 25.4273 24.6094 25.4417H24.6101Z" fill="white"/>
</svg>
