<svg width="30" height="36" viewBox="0 0 30 36" fill="none" xmlns="http://www.w3.org/2000/svg">
<path d="M0 25.0586H7.02868V27.2589H2.62827V29.7033H6.90699V31.9036H2.62827C2.7046 33.152 2.5253 34.52 2.62827 35.7534C2.62971 35.7735 2.62467 35.7951 2.62827 35.8146L0 35.8758V25.0586Z" fill="white"/>
<path d="M15.7685 25.0586V27.2589H11.1543C11.1478 27.2589 11.0628 27.3438 11.0628 27.3503V29.1834C11.0628 29.1899 11.1478 29.2749 11.1543 29.2749H15.6469V31.414C15.5669 31.4457 15.5597 31.4708 15.4402 31.4795C14.0447 31.5767 12.5318 31.3981 11.1241 31.4752V33.6143H15.7692V35.8146H8.43457V25.1198L15.7692 25.0586H15.7685Z" fill="white"/>
<path d="M35.3274 25.0586C35.3584 25.0651 35.3713 25.0982 35.3886 25.1198V27.2589C35.3569 27.2783 35.3317 27.3186 35.3274 27.3201H32.4543V35.7534C32.4572 35.7735 32.4507 35.7951 32.4543 35.8146L29.826 35.8758V27.3201C28.8842 27.2754 27.8883 27.3806 26.9536 27.3201C26.9335 27.3186 26.9126 27.3208 26.8924 27.3201V27.2589C26.8946 27.2186 26.8917 27.1775 26.8924 27.1365C26.9068 26.4863 26.8816 25.8311 26.8924 25.181C26.9119 25.1342 26.932 25.1011 26.9536 25.0586H35.3274Z" fill="white"/>
<path d="M35.2658 12.1021C35.2975 12.128 35.3659 12.1402 35.3883 12.1633V14.3636C34.5004 14.4521 33.4087 14.2512 32.5432 14.3621C32.4943 14.3686 32.4518 14.365 32.4546 14.4247V22.9192H29.7652V14.5162C29.7652 14.5061 29.8703 14.3636 29.7349 14.3636H26.8928C26.9497 13.6925 26.8172 12.9056 26.8892 12.2489C26.8957 12.1899 26.8871 12.1301 26.954 12.1028H35.2666L35.2658 12.1021Z" fill="white"/>
<path d="M0.0601726 0.0629883L2.68915 0.0932311L4.67512 4.27855L6.73236 0.0730692L9.28937 0.0629883C9.31313 0.0730682 9.33114 0.114835 9.35058 0.124195L5.98926 7.0606V10.6966H3.45244C3.43371 10.6966 3.40563 10.7736 3.36098 10.7578V7.0606C2.25063 4.81494 1.22453 2.52464 0.0601726 0.307788C0.054412 0.193309 -0.032717 0.182507 0.0601726 0.0629883Z" fill="white"/>
<path d="M29.7044 3.36305C29.7498 4.5352 29.2918 5.80815 28.36 6.5411C27.9416 6.87014 27.7213 6.93566 27.228 7.09046C27.1575 7.11278 27.1207 7.0451 27.138 7.1819L29.0326 10.5133C29.0362 10.5349 29.0268 10.5594 29.0326 10.5745L26.2185 10.5464L24.2649 5.44095H25.7015C25.8376 5.44095 26.1955 5.23287 26.3114 5.13423C27.1157 4.44952 27.2151 2.79426 26.0269 2.48826C25.6885 2.40114 23.2669 2.30394 23.1949 2.44074L23.1654 9.22955C22.3243 9.16115 21.4106 9.59819 21.0131 10.3499C20.9792 10.4139 20.9742 10.5529 20.9584 10.5673C20.9137 10.6069 20.6322 10.5558 20.5371 10.5745V0.0633205C22.3114 0.14684 24.1857 -0.0475524 25.9485 0.0604465C27.9287 0.182125 29.6216 1.21387 29.7051 3.36305H29.7044Z" fill="white"/>
<path d="M18.4577 0.0629177C18.4822 0.0758776 18.5693 0.0262002 18.583 0.101079L18.5801 2.26322H13.8737V4.21872H18.3965C18.3339 4.8804 18.48 5.6875 18.3979 6.33046C18.3915 6.37942 18.3951 6.4219 18.3353 6.41902H13.8737V8.49692H18.488C18.4944 8.49692 18.5794 8.58188 18.5794 8.58836V10.6965H13.7816C13.7607 10.6965 13.5612 10.451 13.5065 10.3912C13.4856 10.3682 13.4784 10.2631 13.3884 10.1752C12.8548 9.65466 11.9742 9.37171 11.2455 9.53587C11.2476 9.51571 11.244 9.49482 11.2455 9.47466V0.0629177H18.4577Z" fill="white"/>
<path d="M26.0369 17.7863C26.0714 17.7632 26.1831 17.7726 26.222 17.6992L27.1055 16.748C27.2135 16.8006 27.3071 17.4248 27.3193 17.5732C27.5692 20.6353 25.2592 22.945 22.3825 23.4519C22.0138 23.5167 20.0344 23.719 19.8723 23.462C19.8032 23.3518 19.8867 23.1646 20.0171 23.1646H21.7589C21.7669 23.0214 21.7798 23.0566 21.6682 23.0422C21.1893 22.981 20.591 23.0487 20.0783 22.981C19.7578 22.9385 19.3049 22.9746 19.3748 22.5541L21.5141 22.6145C21.5069 22.3229 21.288 22.5066 21.1202 22.4958C21.0151 22.4886 20.9164 22.4389 20.8106 22.4324C20.2439 22.3957 19.6873 22.405 19.1307 22.2488C19.1148 22.225 19.0752 22.2034 19.0695 22.1876C19.0954 22.094 18.9852 21.9543 19.1595 21.9428C19.8882 21.8938 20.6471 22.1322 21.4263 22.0688C21.5336 22.0602 21.6264 22.081 21.6977 21.973C21.7265 21.8247 21.5789 21.8866 21.4846 21.8823C20.982 21.8607 20.4844 21.8996 19.9832 21.7945C19.8248 21.7614 19.4669 21.6973 19.6203 21.4546C19.7002 21.3286 20.1848 21.4547 20.3209 21.4575C20.82 21.4683 21.3218 21.4446 21.8209 21.4546C22.0484 21.2574 20.794 21.194 20.8466 20.8815C20.8581 20.8146 20.9863 20.7303 21.0605 20.7203C21.2585 20.6929 21.9706 20.9881 22.2867 21.0198C23.4561 21.1378 24.6508 20.6519 24.9712 19.4408C25.1224 18.8699 24.9395 18.8044 25.445 18.3565C25.7402 18.0952 25.7626 18.1585 26.0376 17.7877L26.0369 17.7863Z" fill="white"/>
<path d="M16.5822 17.4623C16.3489 17.1736 16.8198 16.1771 16.9804 15.8495C17.5802 14.6277 19.2091 12.9141 20.6348 12.7773C21.0222 12.7406 21.0417 13.0624 21.2706 13.2928C21.9972 14.025 23.1666 14.2216 24.1048 13.8054C24.3403 13.7011 24.529 13.444 24.817 13.5326C24.9581 13.5758 25.8619 14.3836 26.0073 14.5456C26.1528 14.7076 26.7461 15.5104 26.7713 15.6818C26.821 16.0295 25.8878 17.0685 25.6105 17.3276C25.5421 17.391 25.136 17.7272 25.0899 17.7272C24.9185 17.7287 24.8833 17.3565 24.8077 17.2117C23.8795 15.4391 21.5608 14.8955 19.9572 16.1361C19.091 16.8064 18.7547 17.7719 18.2384 18.6978C18.0879 18.7331 16.84 17.5854 16.5822 17.4623Z" fill="white"/>
<path d="M17.052 14.608C16.8518 14.9118 16.63 15.1321 16.4587 15.5116C16.2873 15.891 16.216 16.2726 16.0439 16.6232C14.4057 14.6245 11.3454 14.9831 10.3438 17.403C10.2632 17.5981 10.2372 17.8379 10.1595 18.015C10.1357 18.0683 10.1631 18.1251 10.0608 18.0863C9.83902 18.0013 9.02821 17.3152 8.82947 17.1164C8.72001 17.0077 8.16341 16.3669 8.14037 16.2726C8.02731 15.8097 9.40191 13.9247 9.93549 13.6878C10.3877 13.9204 10.7902 14.2451 11.3389 14.302C11.7213 14.3409 12.4241 14.2667 12.7603 14.0766C12.8619 14.0198 12.8144 13.9845 12.8352 13.9355C13.299 13.7872 13.5222 13.4733 13.7684 13.0629C13.9974 12.6813 13.8095 12.479 14.387 12.5358C15.146 12.6114 16.2477 13.2112 16.8367 13.6921C17.3112 14.0795 17.4228 14.0449 17.052 14.6073V14.608Z" fill="white"/>
<path d="M23.0465 13.6321C24.1358 13.6321 25.0188 12.7492 25.0188 11.66C25.0188 10.5709 24.1358 9.68799 23.0465 9.68799C21.9573 9.68799 21.0742 10.5709 21.0742 11.66C21.0742 12.7492 21.9573 13.6321 23.0465 13.6321Z" fill="white"/>
<path d="M11.6839 13.8459C12.766 13.8459 13.6433 12.9688 13.6433 11.8868C13.6433 10.8049 12.766 9.92773 11.6839 9.92773C10.6018 9.92773 9.72461 10.8049 9.72461 11.8868C9.72461 12.9688 10.6018 13.8459 11.6839 13.8459Z" fill="white"/>
<path d="M8.55617 17.6021C8.6937 17.816 8.83338 17.952 9.05013 18.1169C9.22079 18.2472 10.0813 18.7116 10.1137 18.7642C10.1785 18.8686 10.1879 19.2142 10.2368 19.3747C10.3873 19.8744 10.6055 20.3258 11.062 20.5966C11.2997 21.3619 13.0372 21.4814 13.691 21.3007C13.9956 21.2165 14.7956 20.7946 14.9123 20.5354C14.9864 20.4936 15.0822 20.4871 15.1708 20.4144C15.3897 20.2359 15.6295 19.7347 16.0147 19.891C16.3279 20.0991 15.484 20.6182 15.4005 20.7492C15.3487 20.8299 15.34 20.8903 15.4329 20.9026C15.5258 20.9148 16.4021 20.4691 16.5634 20.3842C16.8212 20.2481 17.3101 19.77 17.6032 19.9536C17.6838 20.004 17.6594 20.0393 17.6378 20.1127C17.56 20.3763 16.2963 21.0062 15.9924 21.1603C15.8505 21.2323 15.7778 21.1445 15.7677 21.3C15.7619 21.3929 15.7562 21.408 15.8592 21.3922C16.23 21.3353 17.2518 20.7327 17.6003 20.503C17.6817 20.4497 17.6903 20.3467 17.7724 20.2935C17.946 20.1804 18.5378 20.0508 18.3657 20.4137C18.2829 20.5887 17.264 21.2078 17.0307 21.3403C16.8997 21.4152 16.2862 21.6672 16.2566 21.6974C16.2156 21.7392 16.23 21.835 16.3467 21.8184C16.9119 21.7406 17.7256 20.9242 18.2124 20.8047C18.4658 20.7427 18.6322 20.8853 18.4601 21.12C18.4248 21.1682 18.1526 21.349 18.0727 21.4044C17.5053 21.8026 16.845 22.0394 16.2559 22.3994C16.8738 22.5585 17.7522 21.6586 18.2412 21.6334C18.5479 21.6175 18.1649 22.0351 18.0489 22.1143C16.135 23.4182 12.5346 23.7458 10.45 22.7357C8.63684 21.8573 7.62798 19.5814 7.75832 17.6302C7.7648 17.533 7.83611 16.8569 7.9434 16.9304C8.06581 17.1572 8.31496 17.5337 8.55546 17.6028L8.55617 17.6021Z" fill="white"/>
<path d="M17.6018 29.2752C17.6429 28.9649 17.4427 28.3047 17.4773 27.8367C17.7235 24.5096 22.296 24.3966 24.5707 25.6371C24.6643 25.6882 25.2137 26.0101 25.2332 26.0439C25.2656 26.0993 25.2418 26.167 25.2101 26.2181L24.0177 27.9915C23.1205 27.3831 22.2269 27.0253 21.1165 27.1368C20.4915 27.1995 19.9399 27.6668 20.215 28.3428C20.4612 28.9498 22.188 29.2241 22.7943 29.43C24.0875 29.8699 25.321 30.5568 25.4787 32.063C25.8517 35.6392 22.5127 36.3571 19.6656 35.8589C18.8144 35.7098 17.8531 35.3383 17.1748 34.8062C17.6673 34.2691 17.9914 33.5858 18.5005 33.0725C18.6128 33.0437 19.1953 33.3936 19.3754 33.4606C20.135 33.7428 21.6342 33.9581 22.363 33.5779C22.9671 33.2625 23.0218 32.4792 22.4515 32.0962C21.7617 31.6325 20.2265 31.4115 19.3329 30.9975C18.8922 30.7937 18.579 30.4963 18.2124 30.3149C18.0972 30.0838 17.9727 29.9635 17.8459 29.7648C17.8056 29.7015 17.7653 29.6655 17.7235 29.5812C17.6738 29.4804 17.6846 29.4235 17.6623 29.3364C17.6551 29.3098 17.627 29.2867 17.6011 29.2752H17.6018Z" fill="white"/>
<path d="M7.02868 12.1023C6.97899 12.8576 7.0654 13.6632 7.02868 14.4243H2.62827V16.747H6.90699C6.8537 17.4223 6.97754 18.1992 6.91057 18.8616C6.90193 18.9473 6.90554 18.9487 6.84577 19.0077H2.62827V22.9187H0V12.1016H7.02868V12.1023Z" fill="white"/>
</svg>
