<svg width="98" height="36" viewBox="0 0 98 36" fill="none" xmlns="http://www.w3.org/2000/svg">
<path d="M78.2448 24.2935L79.8513 24.282L81.6724 27.1641L83.5828 24.3252C83.8478 24.2899 85.3174 24.0832 85.3174 24.3489V32.5735H83.6598V27.1641C83.3941 27.1058 83.4812 27.2088 83.4128 27.3081C83.006 27.9021 82.1887 29.885 81.2591 29.1189C81.1129 28.9987 80.0652 27.0352 79.9032 27.1641L79.7916 32.5735H78.2441V24.2935H78.2448Z" fill="white"/>
<path d="M95.9276 7.84416V2.65583C96.4663 2.49167 97.0466 2.49167 97.5853 2.65583V10.9358H95.9276L92.7226 5.74755V10.9358C92.3856 10.8682 91.1953 11.1065 91.0801 10.7551L91.1679 2.59466L92.6715 2.64578L95.9269 7.8449L95.9276 7.84416Z" fill="white"/>
<path d="M71.8359 2.71032C71.9202 2.43816 73.2228 2.49074 73.4626 2.6873C74.38 4.0985 75.1641 5.67026 76.0995 7.0613C76.2442 7.27658 76.4336 7.76543 76.6986 7.73303V2.65488C77.0169 2.55552 78.2317 2.382 78.3447 2.72832L78.2568 10.8686C78.1683 10.9889 76.8469 10.9968 76.6439 10.8233L73.8054 6.04176L73.4395 5.74512L73.4936 10.9349H71.8359V2.71032Z" fill="white"/>
<path d="M56.2546 10.9342L56.2561 2.5455L57.8813 2.68662L59.7355 5.52267C59.9241 5.52267 61.2779 2.88316 61.6062 2.647C61.828 2.48716 62.9542 2.47204 63.1717 2.64412C63.5065 2.90908 63.2199 3.45555 63.212 3.80979C63.1587 6.18219 63.261 8.56323 63.2163 10.9349H61.6689V5.52556C61.4665 5.48308 61.4521 5.58604 61.3564 5.70988C61.0532 6.10084 60.3828 7.53003 59.9609 7.57179C59.8039 7.58763 59.3041 7.50411 59.1731 7.41123C59.0032 7.29099 58.3025 5.98059 58.0541 5.66523C57.9835 5.57523 58.0584 5.46364 57.8013 5.52556V10.9349H56.2539L56.2546 10.9342Z" fill="white"/>
<path d="M63.7695 24.3488C63.8207 24.1717 64.6228 24.1746 64.8173 24.1782C65.5921 24.1926 67.2209 24.1962 67.8884 24.3193C68.9274 24.5116 69.7592 25.5088 69.8528 26.552C69.9327 27.4434 69.9557 29.7568 69.798 30.5913C69.6605 31.3177 69.0887 32.0061 68.4119 32.2977C68.2736 32.3574 67.5644 32.5734 67.4722 32.5734H63.7703V24.3488H63.7695ZM67.3606 25.6182C66.8435 25.5066 65.9881 25.7003 65.4264 25.6182V31.1377H67.3606C67.7199 31.1377 68.1051 30.5077 68.1642 30.1737C68.2844 29.4954 68.2513 27.7242 68.1944 26.9934C68.1548 26.4844 67.941 25.7435 67.3613 25.6182H67.3606Z" fill="white"/>
<path d="M55.647 13.3638H58.9623C59.0494 13.3638 59.7104 13.5322 59.853 13.5783C60.6545 13.8354 61.4545 14.5258 61.5618 15.4035C61.6748 16.3294 61.6575 18.4102 61.6086 19.3815C61.5711 20.1188 61.17 20.8337 60.5572 21.2506C60.3614 21.3838 59.475 21.7546 59.2935 21.7546H55.647L55.4814 21.589V13.5301L55.647 13.3645V13.3638ZM57.1383 20.3182C58.1407 20.2246 59.5074 20.7661 59.9077 19.4967C60.0805 18.9488 60.0957 16.4756 59.9862 15.8729C59.9207 15.5115 59.439 14.7987 59.0724 14.7987H57.1383V20.3182Z" fill="white"/>
<path d="M52.4411 2.54517C54.3565 2.72949 55.4575 4.36819 54.6532 6.18979C54.3874 6.79171 53.388 7.2626 53.3822 7.45052C53.3606 8.15612 54.8591 10.0634 54.9268 10.9353H53.2692L51.806 7.54052C51.6519 7.36196 50.5883 7.28636 50.3961 7.56788V10.9353H48.8486L48.9041 2.54517C50.0447 2.62509 51.3178 2.43717 52.4404 2.54517H52.4411ZM50.3968 6.18834H52.552C52.9826 6.18834 53.3145 5.31933 53.2792 4.91829C53.249 4.57341 52.7421 3.98085 52.4411 3.98085H50.3968V6.18908V6.18834Z" fill="white"/>
<path d="M53.4297 14.3072C54.35 15.3195 54.2873 17.8071 54.1534 19.1586C53.789 22.8219 48.3409 22.7348 47.8837 19.3515C47.7512 18.3716 47.7534 15.7882 48.1422 14.9199C49.0207 12.9572 52.0601 12.8002 53.4297 14.3072ZM52.1271 20.0607C52.3309 19.8498 52.4627 19.4523 52.4965 19.16C52.5736 18.4832 52.5807 16.4197 52.4475 15.7868C52.1314 14.282 49.82 14.3806 49.5384 15.763C49.4247 16.3203 49.4441 18.8756 49.5622 19.4422C49.8005 20.5834 51.3825 20.8311 52.1278 20.0614L52.1271 20.0607Z" fill="white"/>
<path d="M40.3398 10.935L42.9004 2.72914L43.066 2.55997C43.4549 2.63701 44.9145 2.41163 45.0916 2.73779L47.6328 10.935H46.0306L45.546 9.6757L42.5094 9.62532L41.942 10.935H40.3398ZM45.0916 8.28541C44.7611 7.25869 44.5429 5.87413 44.1015 4.91509C44.0511 4.80565 44.0338 4.65589 43.8776 4.64365L42.8824 8.28612H45.0923L45.0916 8.28541Z" fill="white"/>
<path d="M40.3398 32.5736L42.9069 24.3167C42.9919 24.2065 44.8425 24.2137 45.0981 24.3649L47.6335 32.5736H46.0313L45.5467 31.3144L42.5094 31.2633L41.9428 32.5736H40.3406H40.3398ZM43.1582 29.924C43.7105 29.919 44.2635 29.924 44.8158 29.924C44.8468 29.924 44.9037 30.0623 44.9814 29.9831C45.1255 29.8816 45.0888 29.8189 45.0693 29.6735C44.9339 28.6489 44.2146 27.3421 44.041 26.2801C43.8207 26.2355 43.8805 26.3615 43.8264 26.5019C43.5802 27.1434 42.9876 29.0457 42.904 29.6735C42.8846 29.8189 42.8479 29.8808 42.9919 29.9831C43.0704 30.0623 43.1258 29.9248 43.1575 29.924H43.1582Z" fill="white"/>
<path d="M62.6636 32.573H60.8958L60.5595 31.2533L57.3465 31.3123L57.0276 32.573H55.2598L57.9593 24.2815L59.8308 24.2109L60 24.3564L62.6636 32.5737V32.573ZM59.0157 26.2802C58.7241 26.2471 58.8414 26.286 58.7939 26.4429C58.4439 27.5957 58.1264 28.7642 57.8009 29.9227C58.4324 30.0696 59.123 29.765 59.7624 30.0127L60.0029 29.8535L59.0157 26.2802Z" fill="white"/>
<path d="M89.9597 10.935H88.1919L87.8729 9.67427L84.6657 9.62098L84.3236 10.935H82.666L85.174 2.79465L85.3432 2.61754L87.2018 2.60889L87.3926 2.84507L89.9597 10.935ZM86.2037 4.64289L85.1085 8.23353L85.3159 8.36744L87.3083 8.34154L87.3731 8.06145C86.9447 7.09665 86.8281 5.86329 86.4299 4.91145C86.383 4.79985 86.3506 4.65514 86.203 4.64218L86.2037 4.64289Z" fill="white"/>
<path d="M66.4213 3.98011V5.91187C66.4213 6.19051 67.0715 5.96659 67.2458 5.96155C67.5504 5.95363 68.9416 5.91833 69.0805 6.01481L69.1842 7.40155H66.4213V9.44416C66.5041 9.5572 66.5178 9.56371 66.6467 9.56443C67.3034 9.56659 70.188 9.33403 70.556 9.59755C70.656 9.97987 70.7324 10.643 70.4544 10.9346H64.9293L64.7637 10.769V2.71002L64.9293 2.54443H70.4544C70.7238 2.85619 70.7187 3.67985 70.4544 3.97937H66.4206L66.4213 3.98011Z" fill="white"/>
<path d="M68.742 14.7987H64.7082L64.5426 14.9643V16.6203C65.043 16.9472 65.8617 16.7427 66.481 16.7816C66.7957 16.801 67.0953 16.9249 67.415 16.8975C67.3617 17.323 67.5719 17.9019 67.2501 18.2216H64.7082L64.5426 18.3872V20.1534L64.7082 20.3189H68.5757C68.9077 20.6696 68.678 21.296 68.7413 21.7539H62.9951V13.3638H68.5757C68.9077 13.7144 68.678 14.3408 68.7413 14.7987H68.742Z" fill="white"/>
<path d="M71.1729 24.293L77.0307 24.2944L76.919 25.6178H72.8305V27.5495L72.9961 27.7151H75.5934V29.0399H72.8305V31.138H76.919V32.573H71.1729V24.293Z" fill="white"/>
<path d="M46.7499 16.1232L45.0922 16.2326C45.3529 14.5773 42.6534 14.0884 42.2703 15.568C42.1277 16.1188 42.1457 18.6259 42.2185 19.2696C42.3351 20.3028 43.2877 20.6196 44.2102 20.3762C45.0843 20.1458 45.0368 18.9528 45.2514 18.911L46.7492 18.9931C46.8219 22.6118 40.9828 22.9012 40.5723 19.3675C40.4737 18.5193 40.4766 16.7042 40.5615 15.8474C40.9129 12.2978 46.783 12.4785 46.7499 16.1225V16.1232Z" fill="white"/>
<path d="M52.9435 27.0484C53.0731 25.4485 50.7415 24.9114 50.133 26.2924C49.8666 26.8972 49.8803 29.2365 49.9847 29.95C50.2655 31.8695 52.8297 31.6434 53.045 29.7477L54.4916 29.865C54.6371 29.9536 54.483 30.652 54.4326 30.8089C53.5628 33.5118 48.7419 33.2519 48.4077 30.3107C48.3084 29.4381 48.3206 27.4422 48.4092 26.5581C48.7462 23.2022 54.4506 23.3469 54.5809 26.7698C54.4931 27.1218 53.2445 27.0642 52.9435 27.0484Z" fill="white"/>
<path d="M88.9648 29.3163L86.4258 24.3476C86.4337 24.1482 87.8926 24.1021 88.1446 24.2843C88.514 24.5514 89.3298 26.9698 89.6841 27.4954C89.8649 27.5206 89.9081 27.3601 89.9801 27.2391C90.487 26.3867 90.8701 25.2231 91.3086 24.3159L92.7797 24.1784L93.0541 24.3512L90.6476 29.2306L90.5741 32.4692L88.9648 32.5729V29.3163Z" fill="white"/>
<path d="M81.4498 2.54004H79.7871V10.941H81.4498V2.54004Z" fill="white"/>
<path d="M36.0362 0H0V36H36.0362V0ZM15.2555 9.22394C15.1216 9.65594 13.6001 8.94169 13.1003 10.0512C12.6193 11.119 13.0888 14.4194 12.9232 15.8357C12.8224 16.6954 12.4508 17.3714 11.7214 17.8351C12.0073 18.0547 12.2629 18.2066 12.4739 18.5162C13.3488 19.7993 12.7814 23.3417 12.9304 25.0157C13.06 26.4751 13.8722 26.4449 15.1295 26.4067L15.2073 28.2751C15.0957 28.4357 13.4964 28.4055 13.2069 28.3824C12.3032 28.3111 11.4557 28.1023 11.0359 27.2391C10.1754 25.47 11.146 21.8563 10.6017 19.8346C10.2733 18.617 9.7808 19.0901 9.28539 18.7207C9.12697 18.6027 9.12191 17.1468 9.22632 16.9999C9.38834 16.7724 10.2186 16.9819 10.5585 16.0121C11.244 14.0566 10.1106 10.2262 11.0769 8.47079C11.7106 7.32023 13.7081 7.25976 14.8753 7.39656C15.0359 7.41528 15.1598 7.41026 15.2562 7.56794V9.22394H15.2555ZM21.0226 21.7886C22.5276 22.2574 23.913 21.7087 24.5603 20.2853C24.6662 20.0535 24.6021 19.6675 24.9139 19.6618L26.7501 20.0433C27.0468 20.2817 26.4397 21.5547 26.2446 21.8571C24.5409 24.4915 19.9043 24.5563 18.0379 22.0111C16.785 20.3018 16.7101 16.565 17.4806 14.6477C19.2023 10.3651 26.6183 11.119 26.8531 15.8969L24.7533 16.0747C24.4667 13.41 20.4336 12.8938 19.5436 15.3835C18.9466 17.0532 18.9265 21.1363 21.0233 21.7893L21.0226 21.7886Z" fill="white"/>
</svg>
