<svg width="22" height="36" viewBox="0 0 22 36" fill="none" xmlns="http://www.w3.org/2000/svg">
<path d="M20.5905 12.2161V26.3819L18.1941 28.7478C18.1523 24.4775 18.2466 20.2022 18.1962 15.9319C18.1948 15.8009 18.1336 15.6842 18.1322 15.5654C18.1315 15.5158 18.3179 14.6612 18.071 14.7655L13.366 19.5254L13.335 33.5062C13.33 33.6286 13.2522 33.6984 13.186 33.7877C12.8663 34.2175 11.7163 35.3277 11.2806 35.6935C11.2252 35.7396 10.9292 35.9945 10.8796 35.9376L10.876 19.2496L10.9523 18.4656L17.24 12.2153H20.5898L20.5905 12.2161Z" fill="white"/>
<path d="M9.71167 36.0002L7.40524 33.7892L7.2562 33.5076L7.22596 19.4628C5.7066 17.9731 4.21818 16.4475 2.70099 14.9535C2.58433 14.839 2.60956 14.6856 2.39713 14.7368V28.7485L0 26.3826V12.2168H3.34979L9.71093 18.516V36.0002H9.71167Z" fill="white"/>
<path d="M3.25788 3.91858V0.200559L3.35007 0.108398H4.76357V8.03622H3.07353L1.6298 3.18059C1.42025 3.02939 1.59882 3.30444 1.59882 3.33468V7.94406L1.50667 8.03622H0.000976562V0.108398H1.99848L3.25861 3.91858H3.25788Z" fill="white"/>
<path d="M3.62695 17.6235C3.74577 17.5954 3.74504 17.6667 3.79976 17.7272C4.53712 18.5357 5.36015 19.2399 6.08527 20.0513V32.3732C5.97941 32.397 5.96215 32.3387 5.9031 32.2789C5.14774 31.5171 4.39455 30.7612 3.62695 30.0073V17.6242V17.6235Z" fill="white"/>
<path d="M16.9644 30.0069L14.5983 32.3721C14.4132 32.3764 14.5716 31.4994 14.5709 31.3619C14.5695 31.0185 14.5068 30.6923 14.5032 30.3791C14.4614 26.9455 14.5334 23.5054 14.5399 20.0754L14.6645 19.8414L16.9644 17.6245V30.0076V30.0069Z" fill="white"/>
<path d="M17.7636 0.108398V3.24252H18.9928V0.200559L19.085 0.108398H20.5906V8.03622H19.085L18.9928 7.94406V4.59466H17.7636L17.7017 8.03622H16.2572L16.165 7.94406V0.108398H17.7636Z" fill="white"/>
<path d="M7.6714 0.00409349C8.61902 -0.0463058 9.68112 0.366971 9.98787 1.33896C10.2053 2.02799 10.1355 5.16569 10.0829 6.04264C10.0109 7.24575 9.54574 7.97942 8.26616 8.09822C6.77561 8.23646 5.77254 7.6583 5.65589 6.10097C5.58604 5.17146 5.54141 1.98118 5.81 1.21727C6.06634 0.487916 6.93404 0.0436937 7.6714 0.00481418V0.00409349ZM7.38913 1.47431C7.32505 1.53839 7.25951 1.98262 7.25015 2.10358C7.17166 3.16844 7.1594 5.04402 7.25373 6.09952C7.33222 6.98079 8.15456 7.09816 8.4786 6.34289V1.7407C8.48292 1.27847 7.59219 1.27055 7.38913 1.47431Z" fill="white"/>
<path d="M10.6035 8.03689L11.9889 0.111955L13.9771 0.105469L15.4864 7.88929C15.5 7.94041 15.4237 8.03689 15.397 8.03689H13.8914L13.6804 6.55803C13.6005 6.43923 12.511 6.49538 12.3 6.5681L12.174 7.9368C12.1668 7.96416 11.9716 8.03689 11.9558 8.03689H10.6035ZM13.0921 2.69024C12.969 2.714 12.9913 2.81984 12.9697 2.90552C12.7803 3.64783 12.727 4.43549 12.5556 5.18212C12.5801 5.3182 13.4183 5.32685 13.4543 5.17421L13.0921 2.69024Z" fill="white"/>
<path d="M15.4277 12.2168L10.8797 16.7643C10.8912 15.6144 10.8307 14.4588 10.9668 13.3169L12.0779 12.2168H15.4277Z" fill="white"/>
<path d="M9.71109 16.7643L5.16309 12.2168H8.51288C8.95572 12.5595 9.37122 12.975 9.71109 13.4149V16.7643Z" fill="white"/>
<path d="M20.222 10.2496V9.29705L20.5907 9.20489V11.0488C20.0081 11.0747 19.8605 10.295 19.5142 9.94288C19.3255 9.92776 19.4839 10.0098 19.4839 10.035V10.9566L19.1152 11.0488V9.20489C19.7273 9.11201 19.7914 9.9508 20.2213 10.2496H20.222Z" fill="white"/>
<path d="M7.74454 11.0484C7.13104 11.1384 7.31105 10.5055 6.85236 10.3125C6.71843 10.2902 6.78181 10.3341 6.76021 10.4011C6.65291 10.7301 6.9539 11.2305 6.3584 10.9908L6.38937 9.23182C6.8279 9.19366 7.57172 9.07559 7.71789 9.6343C7.83742 10.0922 7.44355 10.1505 7.43995 10.3406C7.43635 10.499 7.82951 10.9692 7.74599 11.0491L7.74454 11.0484ZM6.77677 9.98853C6.97407 10.1887 7.5343 9.9439 7.25923 9.59831C7.02449 9.30383 6.46641 9.67318 6.77677 9.98853Z" fill="white"/>
<path d="M17.3328 11.048C16.9613 11.161 16.9541 10.7895 16.7222 10.7074C16.6243 10.6729 16.2484 10.6138 16.18 10.6916C16.1137 11.0206 16.0172 11.0696 15.6745 11.048C15.637 11.0113 15.9063 10.2517 15.9517 10.1278C16.0165 9.9536 16.293 9.2257 16.4097 9.17026C16.5839 9.16162 16.6804 9.31929 16.7524 9.44745C16.8244 9.57561 17.3955 10.9904 17.3328 11.048ZM16.6567 10.3719C16.6869 10.3424 16.625 9.77865 16.473 9.75777L16.2908 10.2805C16.3758 10.4072 16.5278 10.3734 16.6567 10.3719Z" fill="white"/>
<path d="M4.51825 9.20508C4.7926 9.71411 4.05743 9.43259 3.78956 9.52115L3.71538 9.56938C3.68729 9.61834 3.68296 9.67235 3.68296 9.72707C3.68296 9.82067 3.69379 9.9049 3.78956 9.9337L4.4261 9.94235V10.2505H3.68802C3.70098 10.3859 3.62537 10.6803 3.78883 10.7336L4.54993 10.7718C4.67595 10.8582 4.57876 11.0497 4.51755 11.0497H3.41153L3.31934 10.9575V9.29796L3.41153 9.2058H4.51755L4.51825 9.20508Z" fill="white"/>
<path d="M10.8181 9.20505L10.7604 9.48512L10.0584 9.5204C9.90138 9.57224 9.96692 9.82209 9.95755 9.94232C10.0404 10.0266 10.988 9.7364 10.6855 10.2404L9.98491 10.3066C9.95683 10.3556 9.95613 10.4096 9.95253 10.4636C9.94677 10.5673 9.94603 10.6947 10.0584 10.7322L10.8181 10.7408L10.7259 11.0475H9.68106L9.58887 10.9553V9.20361H10.8181V9.20505Z" fill="white"/>
<path d="M13.3996 10.4327C13.4414 10.1699 13.5688 9.23181 13.8633 9.20157C14.0599 9.18141 14.0937 9.29445 14.0649 9.46508C14.0354 9.63932 13.761 10.3579 13.6753 10.5544C13.6062 10.7121 13.4896 11.0282 13.306 11.0483C13.2253 11.057 13.0748 11.0203 13.0309 10.9396C12.9063 10.7099 12.5981 9.67316 12.5225 9.37148C12.5067 9.30956 12.444 9.30165 12.5376 9.23253C13.0194 8.95965 13.0734 10.0468 13.2289 10.3276C13.2728 10.4075 13.2966 10.4529 13.4003 10.4327H13.3996Z" fill="white"/>
<path d="M0.412876 9.28468C0.530968 9.38116 0.700903 10.0601 0.86004 9.94204C0.992534 9.62237 1.09193 9.11045 1.53694 9.20477C1.36772 9.81532 0.877329 10.2646 0.975259 10.9471C0.41576 11.3431 0.626759 10.5929 0.524509 10.2473C0.474823 10.0788 -0.0263435 9.29117 0.0622257 9.20477C0.181758 9.20117 0.314945 9.20404 0.412876 9.28396V9.28468Z" fill="white"/>
<path d="M14.9483 33.8349C14.7633 33.7276 14.7705 33.2711 15.1219 33.3813C15.6086 33.5332 15.2407 34.0041 14.9483 33.8349Z" fill="white"/>
<path d="M16.2857 32.6835C16.2209 33.4445 15.4728 32.5157 15.7745 32.4927L16.2857 32.6835Z" fill="white"/>
<path d="M21.0209 28.1323C20.7883 28.1661 20.8978 27.8133 20.7509 27.696C20.6392 27.6067 20.4751 27.6456 20.3447 27.6405L20.6486 27.3583C20.7883 27.323 21.0432 27.9868 21.0201 28.133L21.0209 28.1323Z" fill="white"/>
<path d="M20.0777 28.7072C20.1093 28.7411 20.2332 28.9232 20.2224 28.9304C20.0748 29.037 19.4606 28.515 19.5462 28.4394C19.7241 28.3984 19.9624 28.5841 20.0777 28.7065V28.7072Z" fill="white"/>
<path d="M18.7823 29.2444C18.8867 29.2077 18.989 29.2365 19.0523 29.3316C18.8233 29.4576 18.9271 29.6872 18.7773 29.8528C18.5937 29.7693 18.644 29.2927 18.7823 29.2444Z" fill="white"/>
<path d="M16.6335 31.9056C16.0178 31.38 16.8977 31.7904 17.0857 32.0352C16.9006 32.2497 16.7473 32.0028 16.6335 31.9056Z" fill="white"/>
<path d="M19.2902 29.8447L18.9316 29.9765L19.116 29.4847C19.3212 29.4682 19.3284 29.7 19.2895 29.8447H19.2902Z" fill="white"/>
<path d="M17.7017 30.5299C17.6736 30.3319 17.7535 30.1483 17.9767 30.1613C18.2151 30.3686 17.9393 30.5789 17.7017 30.5299Z" fill="white"/>
<path d="M18.3749 30.5942C18.4325 30.8621 18.2857 30.8887 18.0718 30.9593C17.9753 30.6814 18.0538 30.4733 18.3749 30.5942Z" fill="white"/>
</svg>
