<svg width="92" height="36" viewBox="0 0 92 36" fill="none" xmlns="http://www.w3.org/2000/svg">
<path d="M6.58694 4.22157V2.11061C6.58694 2.07174 6.13692 1.63543 6.00444 1.60087V3.71183C6.00444 3.86734 5.78052 4.19997 5.56738 4.07614V0.290527L7.1385 1.70382C7.0161 2.17684 7.35954 3.72838 7.29833 3.99189C7.23497 4.26404 6.82457 4.23813 6.58624 4.22157H6.58694Z" fill="white"/>
<path d="M48.9592 0.582929C49.1896 1.47929 48.8418 1.32593 48.1743 1.00626C48.3198 1.05666 48.2413 1.15818 47.9396 1.31153C47.9266 1.80327 47.8474 3.02146 47.9619 3.40017C48.134 3.9675 48.9865 3.09346 49.2493 3.35121C49.3235 3.42393 49.1781 3.98263 49.0067 4.0899C48.7439 4.25478 47.9108 4.30876 47.6465 4.15253C47.1857 3.8811 46.8185 -0.669818 48.9592 0.584371V0.582929Z" fill="white"/>
<path d="M3.67491 4.22204C3.48554 4.19685 3.2047 4.31419 3.07726 4.13635C2.7482 3.67629 3.07223 1.91093 2.94334 1.23992C2.87709 0.89217 2.53219 0.748182 2.50987 0.652426C2.40187 0.185165 3.58563 0.231965 3.87148 0.311882C4.4072 0.462355 3.67417 1.0081 3.67417 1.09089V4.22132L3.67491 4.22204Z" fill="white"/>
<path d="M14.741 4.0767C14.849 3.97734 14.8972 3.88014 14.8864 3.78583C15.1672 3.64687 15.1636 3.58279 15.1874 3.28976C15.2306 2.76562 14.9901 0.568281 15.3984 0.439406C15.5755 0.383248 15.9053 0.533002 15.9053 0.655397V3.71311C15.9053 4.31572 15.1571 4.24661 14.7402 4.07742L14.741 4.0767Z" fill="white"/>
<path d="M42.8436 1.09206C42.853 1.00639 42.9941 0.351933 43.0143 0.318094C43.0575 0.248257 43.73 -0.0771572 43.7228 0.367065C43.712 0.984799 43.4816 1.77245 43.4276 2.40386C43.4002 2.72425 43.491 4.15986 43.4254 4.22321C43.4045 4.24337 42.8436 4.25129 42.8436 4.22321C42.8436 3.25485 42.7428 2.0201 42.8436 1.09278V1.09206Z" fill="white"/>
<path d="M56.6755 2.83877C56.7043 3.07348 57.1666 4.17361 57.1119 4.22113C56.9132 4.19161 56.5524 4.29097 56.4055 4.20169C56.1686 4.05698 56.052 1.22245 56.0858 0.793343C56.1593 -0.126059 56.6755 0.148252 56.6755 0.363523C56.6755 1.12165 56.5877 2.12312 56.6755 2.83877Z" fill="white"/>
<path d="M32.2145 4.22232L31.3418 4.15032C31.7601 3.65786 31.6147 1.10051 32.5752 1.31003C33.0015 1.4029 32.4319 2.012 32.3736 2.27047C32.2311 2.90261 32.1936 3.57435 32.2145 4.22232Z" fill="white"/>
<path d="M10.0782 3.70992C8.98443 4.22038 9.79735 3.10658 9.78583 2.83875C9.77287 2.54212 9.1925 2.10727 9.71597 1.60257C10.1818 1.82792 9.93055 2.63501 10.5167 2.62061L10.372 1.60185C9.99609 1.24258 8.91602 1.05395 8.91602 1.52913V4.00439C8.91602 4.28086 9.99969 4.25855 10.2265 4.22255L10.516 3.34921C10.3244 3.37729 10.2416 3.63432 10.0782 3.71064V3.70992Z" fill="white"/>
<path d="M29.3015 1.81996C29.3987 1.27854 30.2945 1.18206 30.3175 1.52765C30.3204 1.5766 29.9416 2.10074 29.8934 2.41105C29.8416 2.74368 29.9496 4.15987 29.884 4.22251C29.8632 4.24267 29.3022 4.25059 29.3022 4.22251C29.3022 3.54934 29.1957 2.41465 29.3022 1.81996H29.3015Z" fill="white"/>
<path d="M21.5836 4.07596C20.4409 4.13644 20.9039 3.93269 20.8549 3.42583C20.7966 2.81817 20.4459 1.97436 20.9305 1.45742C21.7679 1.19391 21.3121 3.55974 21.5836 4.07596Z" fill="white"/>
<path d="M53.9092 1.60205H54.6364C54.4903 2.4005 54.3102 3.27095 54.779 4.00604C54.6501 4.35595 53.9092 4.24363 53.9092 4.0046V1.60205Z" fill="white"/>
<path d="M17.9445 1.45574C18.5947 1.11952 18.9619 1.61054 18.2354 1.89277C18.2052 2.61706 18.257 3.35216 18.2354 4.07645C18.0971 4.20244 17.8394 4.23556 17.6536 4.22116C17.7839 3.42199 17.3426 1.99284 17.9438 1.45574H17.9445Z" fill="white"/>
<path d="M63.2246 1.5323C63.0511 1.35879 62.6975 1.36599 62.5139 1.07872C62.3267 0.78641 62.4772 -0.00987345 61.9905 0.00308602C61.7075 0.0110057 61.8342 0.440832 61.8414 0.582666C61.8738 1.1968 61.9365 1.78645 61.9242 2.40778C61.9149 2.88656 61.6297 3.61374 61.7723 4.07596C61.9472 4.03637 62.4743 4.17459 62.5031 3.99171C62.614 3.28254 62.357 2.45674 62.5723 1.74757C63.4356 2.08884 63.077 3.44455 62.9373 4.2214C63.1526 4.19116 63.6084 4.2113 63.6386 4.00827C63.3297 3.32718 63.7682 2.0766 63.2253 1.53158L63.2246 1.5323Z" fill="white"/>
<path d="M52.3064 1.56503C52.1616 1.25904 51.6396 1.40592 51.4646 1.28136C51.2515 1.12945 51.4049 0.349002 51.0679 0.14669C50.7165 0.0768532 50.8591 0.429641 50.8512 0.652832C50.818 1.53912 50.8771 4.02302 50.8512 3.96974L51.577 3.89989C51.4243 3.24471 51.1953 2.22237 51.5057 1.64135C52.2322 2.15901 51.9831 2.97976 51.9665 3.71989C51.9614 3.95532 52.356 4.22893 52.4525 4.22245C52.536 4.11157 52.4374 1.84366 52.3056 1.56431L52.3064 1.56503Z" fill="white"/>
<path d="M19.1094 1.45585C19.3765 2.29893 19.2138 3.20466 19.2541 4.07583C18.8732 4.10895 19.0129 4.09526 18.9683 3.85695C18.8703 3.33138 19.0172 1.34929 18.2352 1.89215C18.2417 1.73088 18.3461 1.60632 18.3807 1.45657L17.9443 1.45513C18.3771 1.0685 18.6435 1.11314 19.1094 1.45513V1.45585Z" fill="white"/>
<path d="M14.7405 4.07653C14.6664 4.04629 14.5296 4.0794 14.4468 4.00884C14.1055 3.71797 14.4057 1.06201 14.3049 0.437077C14.7679 0.316122 14.5807 0.864009 14.5951 1.16424C14.6383 2.03972 14.6865 2.91377 14.7405 3.78494C14.765 3.80726 14.8428 3.7655 14.886 3.78494C15.0278 3.84902 15.1437 3.96277 15.3216 3.93182C15.3734 4.19245 14.9875 4.04413 14.7398 4.07581L14.7405 4.07653Z" fill="white"/>
<path d="M48.959 0.58252C49.2413 0.748113 49.0663 1.2924 49.103 1.60127C48.7286 1.45512 48.3909 0.952574 47.9395 1.3104C47.9575 0.601229 48.221 0.753876 48.7409 1.1621C48.9468 1.01739 48.9885 0.82515 48.959 0.58252Z" fill="white"/>
<path d="M23.625 2.32977C23.6588 2.32257 23.6876 2.31176 23.7136 2.29808C23.6876 2.27432 23.661 2.24193 23.6329 2.19873C23.6394 2.23833 23.6387 2.28153 23.625 2.32977Z" fill="white"/>
<path d="M24.4967 1.31027C24.3635 1.33259 24.1583 1.27499 24.0603 1.31099C24.2346 2.36143 23.7918 3.92233 23.4778 1.89345C23.4029 1.67674 23.5469 1.25987 23.0415 1.31171C22.9313 1.4449 23.3569 4.13977 23.4793 4.22256C24.2792 4.76254 24.524 1.77321 24.4959 1.31027H24.4967Z" fill="white"/>
<path d="M21.2926 0.146193C21.5518 0.405382 20.9398 1.30607 20.7288 0.637218C20.5337 0.0187632 21.1594 0.0122785 21.2926 0.146193Z" fill="white"/>
<path d="M14.7405 3.78574C14.4532 3.52151 14.6231 1.72806 14.595 1.16504C14.9262 1.94549 14.6555 2.9513 14.7405 3.78574Z" fill="white"/>
<path d="M54.4911 0.145949C54.5854 0.240265 54.4868 0.953042 54.1303 0.872406C53.5723 0.746411 54.1591 -0.186677 54.4911 0.145949Z" fill="white"/>
<path d="M35.5629 3.49405C35.3951 3.47101 34.5303 4.02755 34.5462 3.56677C34.5476 3.52069 35.1208 3.04696 35.1006 2.83673C35.0826 2.64593 33.8585 2.21754 34.9055 1.7474C35.2028 1.95979 35.1877 2.33706 35.3533 2.61785C35.4369 2.75969 35.6975 2.75031 35.7083 2.76615C36.1648 1.73371 35.4671 0.745198 34.3978 1.45581C34.1214 2.21538 34.0731 3.04047 34.2524 3.93108C34.2726 3.98507 34.2106 4.11538 34.2848 4.19026C34.3582 4.26441 34.49 4.20179 34.544 4.22267C35.0588 4.25147 35.6421 4.11251 35.5636 3.49477L35.5629 3.49405Z" fill="white"/>
<path d="M60.0138 0.298898C59.4248 -0.0654075 59.6876 0.828075 59.4572 1.10814C59.2239 1.39253 58.596 1.22118 58.4506 1.70284C58.3418 2.06139 58.3714 3.70146 58.5788 3.99305C58.8581 4.38688 59.9857 4.35736 60.1405 3.8289C60.2529 3.44587 60.2017 0.415533 60.0138 0.298898ZM59.3672 3.78499C58.7717 3.91026 59.0712 2.10026 59.0057 1.74819C59.8943 1.4242 59.6674 3.72235 59.3672 3.78499Z" fill="white"/>
<path d="M72.936 0.169977C72.3722 0.190856 72.6213 0.820816 72.3254 1.16352C72.1475 1.36943 71.8321 1.36584 71.7083 1.49111C71.2892 1.91589 71.3418 4.01965 71.92 4.19244C73.6351 4.70506 73.1261 2.05197 73.1203 0.937459C73.1189 0.620672 73.4335 0.151257 72.936 0.169977ZM72.3988 3.63951C71.6672 4.10173 71.7925 2.2658 71.8192 1.89214C72.8453 1.43568 72.5925 3.51711 72.3988 3.63951Z" fill="white"/>
<path d="M27.5332 1.47628C27.3308 1.15085 26.227 1.19764 26.0182 1.88521C25.646 3.11204 25.9894 4.61608 27.5548 4.22225C27.2934 3.68588 27.693 1.73403 27.5332 1.47628ZM26.8254 2.76646H26.3897V1.60155C27.0133 1.59147 26.8059 2.33664 26.8254 2.76646Z" fill="white"/>
<path d="M66.5779 1.67492C66.5779 1.36894 65.302 0.937667 65.0413 1.74043C64.8455 2.34305 64.8491 4.37121 65.7527 4.33161C65.819 4.32873 66.5541 4.11347 66.5779 4.07747C66.6448 3.97812 66.5779 2.04139 66.5779 1.67492ZM65.8485 3.64117H65.4129V1.74836C66.1912 1.81388 65.7354 3.07815 65.8485 3.64117Z" fill="white"/>
<path d="M40.5189 1.22355C39.212 1.0162 39.6131 4.04655 39.801 4.20638C39.8802 4.27406 40.6708 4.24238 40.8472 4.19199C41.6601 3.96015 41.748 1.41866 40.5189 1.22355ZM40.2352 3.6261C40.0703 3.51306 39.7909 1.66202 40.5844 1.89457C40.9567 2.0148 41.1784 4.27047 40.2352 3.6261Z" fill="white"/>
<path d="M69.9267 2.10891C69.8677 1.56965 69.7777 1.35509 69.1988 1.31046C68.9749 1.29318 68.5234 1.25719 68.388 1.44654C68.2548 1.63445 68.2094 4.0226 68.491 4.20187C68.5666 4.25011 69.3514 4.25371 69.4897 4.22203C70.0909 4.0838 69.9836 2.63161 69.9267 2.10819V2.10891ZM69.3442 3.78572C68.5472 4.00315 68.6962 2.12475 68.9072 1.89292C69.9656 1.81156 69.3536 3.23351 69.3442 3.78572Z" fill="white"/>
<path d="M-7.60999 0C-3.28398 0.583896 -0.326759 6.08304 -2.23703 10.0314C-3.1054 11.827 -4.82991 12.9573 -6.02446 14.421C-3.3063 17.5622 -2.00446 21.7798 1.19685 24.5344C1.60367 24.8843 3.51105 25.8369 3.07831 26.4856C2.85582 26.8189 -2.0887 26.8585 -2.7893 26.7735C-3.99177 26.6281 -4.71111 25.9283 -5.41675 25.0326C-7.15853 22.8216 -9.32155 18.8114 -10.7703 16.2627C-11.0835 15.7112 -12.0707 14.2072 -11.8345 13.6902C-11.3182 12.5585 -10.007 13.5218 -9.49002 13.1164C-9.2416 12.9213 -9.2272 12.3842 -9.05655 12.0948C-8.87222 11.7823 -8.20186 11.3676 -8.13561 11.1084C-8.05713 10.8024 -8.48483 10.508 -8.54964 10.112C-8.6454 9.52808 -8.61876 7.97296 -8.56331 7.3473C-8.45099 6.09095 -7.20604 5.37818 -8.65476 4.39254C-10.38 3.21899 -13.2508 2.83308 -15.0653 3.90296C-18.0809 5.68056 -17.3032 7.90743 -15.6651 10.3834C-14.6419 11.9292 -13.8909 11.8334 -14.4864 13.9451C-14.8651 15.2886 -15.5578 16.4124 -15.8012 17.8725C-16.2418 20.5199 -15.8357 23.214 -16.1266 25.7008C-16.1497 25.8966 -16.3146 26.4985 -16.4939 26.4985H-20.7897C-20.9301 20.1239 -20.6046 13.719 -20.7824 7.34586C-20.794 6.93116 -20.925 6.58197 -20.9409 6.19391C-20.9726 5.42426 -20.768 3.5077 -21.0726 2.97708C-21.159 2.82589 -21.7279 2.32838 -21.9057 2.20814C-22.3932 1.8784 -23.6352 1.58033 -23.8462 1.38234C-24.1256 1.12099 -24.2862 0 -23.9197 0H-7.61144H-7.60999Z" fill="white"/>
<path d="M72.9834 26.2067H67.596C67.5147 23.1793 67.7026 20.1288 67.6018 17.1013C67.5686 16.0998 67.5449 14.7232 67.4484 13.7606C67.205 11.3415 64.214 9.9275 62.7552 12.122C62.5154 12.482 61.917 13.8218 61.917 14.1962V26.3529C60.068 26.6488 58.1188 26.4775 56.3022 26.2168C55.9637 22.3405 56.534 18.1798 56.2445 14.3359C56.1524 13.1098 55.8773 12.2516 54.8549 11.5035C52.7768 9.98293 50.9746 12.6202 50.7463 14.5281C50.6325 15.4813 50.5886 16.8479 50.5541 17.8299C50.4533 20.663 50.6412 23.5198 50.5598 26.3529H45.027C44.9802 23.9043 45.0875 21.4441 45.0328 18.9948C44.9939 17.2374 44.9816 15.3719 44.8873 13.608C44.8679 13.2408 44.708 11.5445 44.6051 11.4157C44.1968 10.9031 42.6444 11.2364 42.2959 10.8865C42.0273 10.6165 42.1029 9.73381 42.3319 9.46383C42.6322 9.11032 49.2047 9.41991 50.1767 9.33855C50.6152 9.48759 50.5303 11.1464 50.5591 11.5791C50.5735 11.7965 50.4482 11.9996 50.7765 11.9391C52.2397 9.43072 54.402 8.43355 57.2937 9.06496C58.5257 9.33423 59.4862 10.0758 60.3193 10.9902C60.5043 11.1939 61.0357 12.0644 61.1185 12.0852C61.3122 12.1342 62.7494 9.99301 63.2678 9.86846C66.6664 7.67687 71.5923 9.21761 72.871 13.145C73.442 14.8982 73.2368 21.7696 73.1353 23.9576C73.1022 24.6775 72.861 25.4421 72.9834 26.2082V26.2067Z" fill="white"/>
<path d="M33.0887 20.5286C33.3732 20.741 33.7008 19.8806 33.793 19.7064C35.5513 16.3758 36.6875 12.6752 38.4739 9.39065C38.7375 9.26322 39.8082 9.27834 40.1516 9.31866C40.3518 9.34241 40.4137 9.24162 40.3518 9.51953C39.9666 11.246 38.3508 13.7774 37.5717 15.478C34.9796 21.1406 32.5725 27.1718 29.7643 32.7134C28.9845 34.2527 28.2998 35.6523 26.4248 35.9252C25.403 36.0742 25.0595 36.1073 24.9587 34.9755C24.9033 34.3549 25.979 34.3607 26.4917 34.0993C27.7395 33.4622 28.6382 31.2194 29.1818 29.9458C29.4669 29.2784 30.1071 28.1337 30.0264 27.459C28.5323 24.0241 27.2082 20.5034 25.6874 17.0821C24.976 15.4823 23.7102 12.0668 22.2161 11.2352C21.7272 10.9631 20.2144 10.6974 20.1445 10.6139C20.0783 10.5354 20.1013 9.72689 20.1913 9.59945C20.2957 9.45258 21.2527 9.33307 21.5061 9.31291C22.3544 9.24595 28.8304 9.19124 29.1587 9.38851L33.0895 20.5286H33.0887Z" fill="white"/>
<path d="M81.4288 10.6279C80.8218 11.0772 79.9664 11.435 79.4422 11.9901C78.9929 12.4653 78.9353 13.2709 78.221 13.186C77.4139 13.0895 77.3181 12.8966 77.4974 12.2299C77.4088 13.0924 77.8984 12.4869 78.1922 12.4127C78.4298 12.3522 78.6819 12.4221 78.8482 12.376C78.9036 12.3609 79.3666 11.7295 79.6345 11.5272C80.2962 11.0268 80.6598 10.8691 81.4288 10.6279Z" fill="white"/>
<path d="M86.6713 25.6244C86.9888 25.5387 86.9478 25.8865 87.1386 25.9621C87.7327 26.1961 90.664 26.0881 91.3746 25.9182C91.6029 25.5812 91.7692 24.6417 91.7721 24.2342C91.7923 21.8446 91.5374 19.3607 91.6151 16.956C91.6648 15.4376 92.0032 14.2402 91.7015 12.652C91.6828 12.5534 91.0096 11.418 90.9592 11.3625C90.7568 11.1422 90.4134 11.112 90.2297 10.9277C90.0425 10.7398 90.0404 10.4561 89.8647 10.2732C89.5277 9.92402 88.7285 9.48268 88.272 9.3178C85.4854 8.3084 78.4499 8.69 77.4973 12.2294C77.3 12.8327 77.7118 12.9839 78.7343 12.6822C79.445 11.6908 80.3256 11.0933 81.4287 10.6282C84.9144 9.53525 86.4215 10.1098 86.6677 13.9055C86.7102 14.5599 86.7923 15.0711 86.1219 15.3929C84.8618 15.9984 82.8681 16.213 81.4741 16.7155C78.4456 17.8063 75.0419 20.085 76.325 23.8115C77.3633 26.8268 81.8744 27.2069 84.4406 26.2335C85.0779 25.9916 86.0053 25.1003 86.4524 25.0398C86.8146 24.9908 86.6591 25.366 86.6706 25.6237L86.6713 25.6244ZM86.6771 21.918C86.4755 24.2075 82.9458 25.9729 81.9673 22.9757C80.8498 19.5522 83.4246 17.3995 86.5244 16.889C86.7044 17.0654 86.7275 21.3391 86.6764 21.918H86.6771Z" fill="white"/>
<path d="M17.0699 25.333C14.9781 26.9587 11.563 27.3669 9.06152 26.4979C12.1411 26.7823 14.4194 26.719 17.0699 25.333Z" fill="white"/>
<path d="M18.6992 13.004C16.5787 8.37247 10.2503 7.8548 6.39587 10.5101C1.86392 13.6326 0.989045 20.6832 5.19985 24.4638C6.07254 25.2471 7.91082 26.3919 9.06217 26.4984C11.7681 27.0751 14.7008 26.8462 17.0705 25.3335C17.9086 24.8951 19.0196 24.0844 18.8007 23.0203C18.3723 22.5328 16.5031 23.8806 15.9026 24.093C13.5826 24.9138 10.9523 24.4041 9.59211 22.2564C8.64814 20.766 8.54445 18.8963 8.47893 17.1799L19.3789 17.1597C19.9053 16.8285 18.97 13.5966 18.6985 13.004H18.6992ZM8.54084 15.2964C8.40187 15.1042 8.90593 13.0775 9.02114 12.6981C9.45893 11.2588 9.83837 10.0666 11.6082 10.1926C12.2642 10.2394 12.6401 10.3754 13.0627 10.8513C13.9009 11.7952 14.1298 14.1574 14.3055 15.4325C13.5019 15.5182 8.862 15.737 8.54158 15.2964H8.54084Z" fill="white"/>
</svg>
