<svg width="304" height="92" viewBox="0 0 304 92" fill="none" xmlns="http://www.w3.org/2000/svg">
<path d="M192.849 28.5984L190.015 43.104L157.714 43.1497L156.287 51.0949H185.816L182.957 65.1073L153.025 65.1785L151.597 74.0609H183.94C182.935 79.3133 182.372 85.0991 180.424 89.997H129.567L142.224 28.6002H192.847L192.849 28.5984Z" fill="white"/>
<path d="M219.099 29.0663L224.953 45.4737C228.372 39.6733 232.412 34.2711 236.676 29.0663H258.941L234.197 57.9625L248.629 89.9954H227.771L220.742 72.1867C216.562 78.6503 211.773 84.6937 206.677 90.4631H183.944L212.461 58.2913L198.473 29.0663H219.098H219.099Z" fill="white"/>
<path d="M63.9473 90.463L76.6236 29.0881C82.1305 29.565 88.856 28.3793 94.2076 29.0406C94.7228 29.1046 95.249 29.0114 95.5943 29.5284L107.306 64.2232L114.337 29.5357H131.913L119.235 89.9716C113.876 89.5112 107.33 90.664 102.122 90.0209C101.607 89.957 101.081 90.0502 100.736 89.5332L89.0241 55.3079L82.2273 90.463H63.9473Z" fill="white"/>
<path d="M33.3844 26.861C75.0421 25.5256 68.4572 82.3734 37.4314 89.9587C-12.958 102.279 -10.6394 28.2714 33.3844 26.861ZM33.3971 41.8325C16.5459 42.461 12.2668 81.65 32.0835 75.7052C43.7988 72.1902 49.8337 41.2187 33.3971 41.8325Z" fill="white"/>
<path d="M274.407 23.9069C274.355 23.8521 274.219 22.8857 274.709 22.9368L293.866 7.51593L294.802 5.64518L268.036 20.6349C267.465 20.7537 266.964 20.5637 266.427 20.4212C265.563 20.1928 256.754 16.3344 256.336 15.9745C254.096 14.0526 256.92 12.697 258.57 12.0631C271.663 7.04276 287.672 5.05326 301.006 0.109654C302.921 -0.168036 303.603 -0.04381 303.371 1.98954C302.817 6.8144 297.968 24.2431 296.11 28.9784C295.459 30.6373 294.57 31.8394 292.565 31.326C287.793 29.1648 282.94 27.1972 278.14 25.1017C277.338 24.751 274.541 24.0513 274.406 23.9088L274.407 23.9069ZM295.505 5.62691C296.192 5.78037 296.484 5.4296 296.899 4.92355C296.433 4.72259 295.05 5.40768 295.505 5.62691Z" fill="white"/>
<path d="M272.07 33.2845C272.733 34.0043 272.918 33.2279 272.998 32.5848C273.15 31.3699 273.274 25.9769 273.908 25.5147C275.043 24.6889 280.133 27.5681 281.425 28.3573C281.465 28.9566 274.475 37.4864 273.93 37.7367C271.712 38.7579 271.053 36.3793 270.258 34.8556C267.893 30.3194 266.346 25.2333 264.099 20.6313L267.806 22.3103L272.07 33.2845Z" fill="white"/>
<path d="M295.505 5.6266C295.05 5.4092 296.433 4.72227 296.899 4.92323C296.484 5.42929 296.192 5.78006 295.505 5.6266Z" fill="white"/>
</svg>
