<svg  viewBox="0 0 24 24" fill="none" xmlns="http://www.w3.org/2000/svg">
<g clip-path="url(#clip0_1_4888)">
<path d="M9.66667 4.80012C9.46039 4.80012 9.26256 4.88441 9.11669 5.03444C8.97083 5.18447 8.88889 5.38795 8.88889 5.60012C8.88889 5.8123 8.97083 6.01578 9.11669 6.16581C9.26256 6.31584 9.46039 6.40012 9.66667 6.40012H14.3333C14.5396 6.40012 14.7374 6.31584 14.8833 6.16581C15.0292 6.01578 15.1111 5.8123 15.1111 5.60012C15.1111 5.38795 15.0292 5.18447 14.8833 5.03444C14.7374 4.88441 14.5396 4.80012 14.3333 4.80012H9.66667ZM8.11111 13.6001C8.11111 14.0245 7.94722 14.4314 7.6555 14.7315C7.36378 15.0316 6.96811 15.2001 6.55556 15.2001C6.143 15.2001 5.74734 15.0316 5.45561 14.7315C5.16389 14.4314 5 14.0245 5 13.6001C5 13.1758 5.16389 12.7688 5.45561 12.4688C5.74734 12.1687 6.143 12.0001 6.55556 12.0001C6.96811 12.0001 7.36378 12.1687 7.6555 12.4688C7.94722 12.7688 8.11111 13.1758 8.11111 13.6001ZM8.11111 19.2001C8.11111 19.6245 7.94722 20.0314 7.6555 20.3315C7.36378 20.6316 6.96811 20.8001 6.55556 20.8001C6.143 20.8001 5.74734 20.6316 5.45561 20.3315C5.16389 20.0314 5 19.6245 5 19.2001C5 18.7758 5.16389 18.3688 5.45561 18.0688C5.74734 17.7687 6.143 17.6001 6.55556 17.6001C6.96811 17.6001 7.36378 17.7687 7.6555 18.0688C7.94722 18.3688 8.11111 18.7758 8.11111 19.2001ZM12 15.2001C12.4126 15.2001 12.8082 15.0316 13.0999 14.7315C13.3917 14.4314 13.5556 14.0245 13.5556 13.6001C13.5556 13.1758 13.3917 12.7688 13.0999 12.4688C12.8082 12.1687 12.4126 12.0001 12 12.0001C11.5874 12.0001 11.1918 12.1687 10.9001 12.4688C10.6083 12.7688 10.4444 13.1758 10.4444 13.6001C10.4444 14.0245 10.6083 14.4314 10.9001 14.7315C11.1918 15.0316 11.5874 15.2001 12 15.2001ZM13.5556 19.2001C13.5556 19.6245 13.3917 20.0314 13.0999 20.3315C12.8082 20.6316 12.4126 20.8001 12 20.8001C11.5874 20.8001 11.1918 20.6316 10.9001 20.3315C10.6083 20.0314 10.4444 19.6245 10.4444 19.2001C10.4444 18.7758 10.6083 18.3688 10.9001 18.0688C11.1918 17.7687 11.5874 17.6001 12 17.6001C12.4126 17.6001 12.8082 17.7687 13.0999 18.0688C13.3917 18.3688 13.5556 18.7758 13.5556 19.2001ZM17.4444 15.2001C17.857 15.2001 18.2527 15.0316 18.5444 14.7315C18.8361 14.4314 19 14.0245 19 13.6001C19 13.1758 18.8361 12.7688 18.5444 12.4688C18.2527 12.1687 17.857 12.0001 17.4444 12.0001C17.0319 12.0001 16.6362 12.1687 16.3445 12.4688C16.0528 12.7688 15.8889 13.1758 15.8889 13.6001C15.8889 14.0245 16.0528 14.4314 16.3445 14.7315C16.6362 15.0316 17.0319 15.2001 17.4444 15.2001Z" fill="#FFA719"/>
<path fill-rule="evenodd" clip-rule="evenodd" d="M6.13333 0C6.32783 0 6.51435 0.0766233 6.65188 0.213013C6.78941 0.349404 6.86667 0.534388 6.86667 0.727273V2.18182H17.1333V0.727273C17.1333 0.534388 17.2106 0.349404 17.3481 0.213013C17.4856 0.0766233 17.6722 0 17.8667 0C18.0612 0 18.2477 0.0766233 18.3852 0.213013C18.5227 0.349404 18.6 0.534388 18.6 0.727273V2.18618C18.9588 2.18909 19.2786 2.2017 19.5592 2.224C20.0945 2.26764 20.5639 2.35927 20.998 2.57745C21.6877 2.92639 22.2484 3.48292 22.5996 4.16727C22.8211 4.59782 22.9135 5.06327 22.9575 5.59273C23 6.10909 23 6.74473 23 7.53309V18.6487C23 19.4371 23 20.0742 22.9575 20.5876C22.9135 21.1185 22.8211 21.584 22.5996 22.0145C22.2481 22.6984 21.6875 23.2544 20.998 23.6029C20.5639 23.8225 20.0945 23.9142 19.5607 23.9578C19.04 24 18.3991 24 17.6056 24H6.39587C5.60093 24 4.95853 24 4.4408 23.9578C3.90547 23.9142 3.43613 23.8225 3.002 23.6029C2.31194 23.2546 1.75078 22.6986 1.39893 22.0145C1.17893 21.584 1.08653 21.1185 1.04253 20.5891C1 20.0727 1 19.4356 1 18.6473V7.53455C1 6.84364 1 6.272 1.02933 5.79345L1.04253 5.59564C1.08653 5.06473 1.17893 4.59927 1.39893 4.16873C1.75053 3.48415 2.31172 2.9276 3.002 2.57891C3.43613 2.36073 3.90547 2.26909 4.43933 2.22545C4.72191 2.20315 5.04213 2.19055 5.4 2.18764V0.727273C5.4 0.534388 5.47726 0.349404 5.61479 0.213013C5.75232 0.0766233 5.93884 0 6.13333 0ZM5.4 4.36364V3.64073C5.11958 3.64302 4.8393 3.65418 4.5596 3.67418C4.11667 3.70909 3.86147 3.776 3.66787 3.87345C3.25354 4.0827 2.91672 4.41674 2.70573 4.82764C2.60747 5.01964 2.54 5.27273 2.5048 5.712C2.46667 6.16146 2.46667 6.73745 2.46667 7.56364V8.36364H21.5333V7.56364C21.5333 6.73745 21.5333 6.16146 21.4952 5.712C21.46 5.27273 21.3925 5.01964 21.2943 4.82764C21.0833 4.41674 20.7465 4.0827 20.3321 3.87345C20.1385 3.776 19.8833 3.70909 19.4404 3.67418C19.1607 3.65418 18.8804 3.64302 18.6 3.64073V4.36364C18.6 4.55652 18.5227 4.74151 18.3852 4.8779C18.2477 5.01429 18.0612 5.09091 17.8667 5.09091C17.6722 5.09091 17.4856 5.01429 17.3481 4.8779C17.2106 4.74151 17.1333 4.55652 17.1333 4.36364V3.63636H6.86667V4.36364C6.86667 4.55652 6.78941 4.74151 6.65188 4.8779C6.51435 5.01429 6.32783 5.09091 6.13333 5.09091C5.93884 5.09091 5.75232 5.01429 5.61479 4.8779C5.47726 4.74151 5.4 4.55652 5.4 4.36364ZM21.5333 9.81818H2.46667V18.6182C2.46667 19.4444 2.46667 20.0218 2.5048 20.4698C2.54 20.9091 2.60747 21.1622 2.70573 21.3542C2.91672 21.7651 3.25354 22.0991 3.66787 22.3084C3.86147 22.4058 4.11667 22.4727 4.5596 22.5076C5.0128 22.5455 5.5936 22.5455 6.42667 22.5455H17.5733C18.4064 22.5455 18.9887 22.5455 19.4404 22.5076C19.8833 22.4727 20.1385 22.4058 20.3321 22.3084C20.7465 22.0991 21.0833 21.7651 21.2943 21.3542C21.3925 21.1622 21.46 20.9091 21.4952 20.4698C21.5333 20.0218 21.5333 19.4444 21.5333 18.6182V9.81818Z" fill="#FFA719"/>
</g>
<defs>
<clipPath id="clip0_1_4888">
<rect width="24" height="24" fill="white"/>
</clipPath>
</defs>
</svg>
