<svg width="118" height="115" viewBox="0 0 118 115" fill="none" xmlns="http://www.w3.org/2000/svg">
<circle cx="58.5" cy="57.5" r="57.5" fill="#050927"/>
<path fill-rule="evenodd" clip-rule="evenodd" d="M55.3893 67.3207C55.1624 68.0655 53.5295 69.9282 53.0542 70.4215L50.279 73.1198C46.6432 76.5554 40.3813 79.8526 35.1001 79.9135C31.3228 79.9557 29.2876 78.8602 26.2915 77.7507C26.4422 78.5558 28.2708 79.9632 29.0168 80.4554C34.4472 84.0453 45.3266 86.0276 51.7453 84.6096C54.8434 83.9257 57.1834 83.1841 59.901 81.6284C62.2953 80.2573 64.3776 78.794 66.3027 76.9595C67.0701 76.2286 68.2557 74.8758 68.8137 73.9948C70.0552 72.0381 70.1051 69.6709 68.5369 67.7612C68.1126 67.2449 67.7273 66.7746 67.1616 66.396C64.9581 64.9236 61.119 63.6385 58.4841 64.8072C58.1766 64.9433 57.8937 65.1232 57.6515 65.2791C57.4728 65.3929 57.4525 65.4137 57.2585 65.5471C56.0871 66.349 56.1879 66.3101 55.3893 67.3207Z" fill="#FFA008"/>
<path fill-rule="evenodd" clip-rule="evenodd" d="M26.8215 36.2319C30.0117 35.0739 31.5837 34.1358 35.5429 34.2811C41.6771 34.5053 47.4621 38.3461 51.657 42.3096C52.1635 42.788 52.5209 43.2434 52.9961 43.7052C53.5618 44.2562 54.9568 45.8771 55.3251 46.6838C55.9138 47.3378 56.2603 48.3986 58.2757 49.2507C59.9618 49.9635 61.1019 50.0451 62.982 49.5337C65.7107 48.7905 68.254 47.8434 69.4133 44.9193C69.6419 44.3411 69.8562 43.3678 69.7132 42.6006C69.637 42.1981 69.2659 40.9119 69.0696 40.5697C67.9136 38.5612 66.5603 37.5159 65.162 36.1747L61.8463 33.6836C61.6566 33.5656 61.7871 33.6473 61.6413 33.5624L58.4528 31.7963C57.6026 31.3618 55.4243 30.3965 54.4936 30.2422C53.667 30.1061 53.0021 29.8092 52.2391 29.6581C47.5515 28.7276 44.3306 28.986 39.7049 29.8578C36.3689 30.4846 32.1768 31.6298 29.4082 33.4658C29.1083 33.6655 28.9247 33.8123 28.6358 33.9954L27.0791 35.297C26.8632 35.5165 26.6423 35.8416 26.4126 36.0915C26.6006 36.2746 26.2882 36.226 26.8215 36.2324V36.2319Z" fill="#FFA008"/>
<path fill-rule="evenodd" clip-rule="evenodd" d="M36.8885 38.0018C38.5061 37.7551 40.8707 38.0018 41.9385 38.8192C42.6237 39.3445 42.5804 40.36 41.8546 40.8319C40.9502 41.4192 35.4902 41.7854 34.1369 40.5869C33.4035 39.9393 33.9675 39.0888 34.5704 38.7102C35.215 38.3029 35.9907 38.1385 36.8885 38.0018ZM27.8952 37.0333C28.9877 36.6836 30.5707 37.1438 31.104 37.8203C31.9246 38.8661 30.95 39.7935 29.8581 40.0583C26.3155 40.9147 25.0011 37.9591 27.8958 37.0333H27.8952ZM26.8214 36.2314C25.7849 36.7189 25.723 36.7295 24.8745 37.3606C23.8862 38.0963 19.5855 41.5815 22.6074 42.2051C24.2293 42.5393 26.5649 41.9659 28.3348 41.9552C29.1335 41.9509 30.4912 42.0065 31.1923 42.267C31.918 42.5377 32.6125 43.6092 31.8029 44.2221C30.2758 45.3828 22.5904 44.8126 20.2427 44.7229C18.8428 44.67 12.6105 44.1917 12.2421 46.0288C12.0152 47.1622 12.7629 47.6059 13.7073 47.7527C17.1534 48.2871 22.2018 48.1403 25.7849 48.0325C29.3708 47.9251 33.8288 48.0218 36.9039 46.702C39.69 45.5077 42.6933 43.63 46.1816 43.4859C49.3964 43.354 53.2328 44.9477 55.302 46.8606L55.3256 46.6823C54.9573 45.8756 53.5623 44.2547 52.9966 43.7037C52.5214 43.2419 52.164 42.7865 51.6575 42.3081C47.4621 38.3445 41.6776 34.5038 35.5434 34.2795C31.5842 34.1343 30.0121 35.0723 26.822 36.2303L26.8214 36.2314Z" fill="#746EB2"/>
<path fill-rule="evenodd" clip-rule="evenodd" d="M31.3385 75.931C31.0337 76.8162 29.631 77.3613 28.4405 77.2598C27.3574 77.1675 26.1268 76.3581 26.3521 75.1958C26.7204 73.2904 32.0889 73.7447 31.3379 75.9315L31.3385 75.931ZM33.8045 74.419C33.6587 72.8766 36.7831 72.7997 38.2017 72.8072C39.6997 72.8131 42.7123 72.7661 42.4218 74.6235C42.0754 76.8343 34.0331 76.8482 33.8045 74.419ZM26.2923 77.7515C29.2879 78.8609 31.3237 79.9565 35.1009 79.9143C40.3822 79.854 46.6441 76.5562 50.2799 73.1206L53.0551 70.4223C53.5303 69.929 55.1638 68.0657 55.3901 67.3215C55.1572 67.447 55.2241 67.4288 55.0158 67.5804C54.848 67.7032 54.7252 67.7758 54.5542 67.889C52.132 69.5115 49.7378 70.7357 46.5153 70.7026C41.7591 70.6514 37.9879 67.384 34.9271 66.8116C30.9636 66.0733 15.0605 65.6857 12.977 66.5906C12.6772 66.7209 12.3494 67.0871 12.2622 67.4197C11.1698 71.5979 26.1701 68.0129 31.2119 69.6701C32.1393 69.976 32.5449 70.599 31.7803 71.512C30.6292 72.883 25.2498 71.7693 23.3434 71.8814C18.3279 72.1767 25.264 77.2678 26.2923 77.7521V77.7515Z" fill="#746EB2"/>
<path fill-rule="evenodd" clip-rule="evenodd" d="M60.3735 61.7019L62.0283 61.6805C62.3144 61.2614 62.6263 59.2866 62.7897 58.6085L63.3334 56.3251C63.3756 55.9466 63.357 55.7805 63.6113 55.4517C63.7029 55.7197 65.8828 61.2769 66.2451 61.6688L68.0118 61.6778L68.5352 59.341C68.7282 58.5952 68.9003 57.6534 69.0264 56.915C69.227 55.733 70.041 53.2237 69.9615 52.125L68.305 52.1266C68.0299 52.4854 67.4165 55.9359 67.1753 56.9572C67.0805 57.3582 67.0865 58.3176 66.7357 58.4617L66.153 56.906C65.9168 56.3598 65.7414 55.8814 65.4991 55.3353L64.1863 52.1512L62.224 52.133L61.7937 54.4698C61.5142 55.646 60.3253 61.1119 60.3735 61.7024V61.7019Z" fill="#FFA008"/>
<path fill-rule="evenodd" clip-rule="evenodd" d="M92.3723 56.3098C92.2835 55.4759 92.7171 54.7482 92.7621 53.7824C93.4006 53.7023 94.1357 53.7536 94.7896 53.7493C95.7702 53.7434 95.6535 53.7296 96.4022 54.0371C97.0485 56.5416 94.151 56.4903 92.3718 56.3104L92.3723 56.3098ZM89.2228 61.6599L91.1231 61.6765L91.9464 57.8069C94.3423 57.3723 94.7041 59.0327 95.6847 61.6738L97.7359 61.6786C97.7046 61.2216 97.0397 59.9611 96.855 59.5703C96.3858 58.5746 95.8311 58.0418 95.693 57.6681C96.2444 57.4123 96.8347 57.5997 97.7857 56.7647C98.5997 56.0504 98.8765 54.4765 98.3542 53.4338C98.2533 53.2341 98.1788 53.0889 98.062 52.9512L97.6394 52.5988C96.6061 51.8588 92.6749 52.1178 91.1791 52.1343L90.1365 56.871C89.9858 57.4444 89.1499 61.1613 89.2228 61.661V61.6599Z" fill="#FFA008"/>
<path fill-rule="evenodd" clip-rule="evenodd" d="M52.5957 52.1448L52.0969 54.6055C51.9402 55.527 50.5835 61.0826 50.5978 61.6458L58.1911 61.6837C58.2985 61.4221 58.5129 60.4216 58.4876 60.0767L52.9235 60.057C52.9082 59.5728 53.3121 57.8958 53.5933 57.5798C54.4512 57.5648 58.0354 57.7175 58.5123 57.4767C58.6537 57.206 58.8154 56.2477 58.7595 55.898L53.8915 55.9028C53.9288 55.2611 54.0998 54.235 54.3498 53.7491L59.4787 53.7582C59.659 53.4512 59.8048 52.5746 59.8141 52.1752C57.4106 52.077 55.0004 52.1133 52.5952 52.1448H52.5957Z" fill="#FFA008"/>
<path fill-rule="evenodd" clip-rule="evenodd" d="M79.4229 61.6565L87.0255 61.6853L87.3314 60.0842L81.7502 60.057C81.7376 59.6016 82.1898 58.0533 82.3346 57.5627H87.3346C87.4574 57.3523 87.7057 56.2338 87.6608 55.922L82.7385 55.9007C82.7665 55.3406 82.9655 54.4677 83.0773 53.8094L88.3164 53.7459C88.5323 53.3855 88.6474 52.629 88.5932 52.1234L81.7349 52.1191C81.3342 52.1629 81.4351 52.1421 81.3435 52.4977C81.2361 52.9109 81.1868 53.3722 81.064 53.8249L79.4234 61.6565H79.4229Z" fill="#FFA008"/>
<path fill-rule="evenodd" clip-rule="evenodd" d="M97.2823 66.2209C97.239 67.1514 96.0671 71.7947 95.9257 72.7316C95.6039 74.8821 95.1829 77.243 92.5661 77.2702C91.2177 77.2841 90.3643 76.9221 90.1204 75.6616C90.0025 75.053 91.9506 67.444 92.1106 66.2577C91.4704 66.144 89.8792 66.1141 89.2675 66.2593C89.0033 70.0729 85.7561 76.3444 88.9413 78.6252C91.2161 80.2552 96.9293 80.4879 98.3166 74.5469L100.065 66.1931L97.2818 66.2219L97.2823 66.2209Z" fill="#FFA008"/>
<path fill-rule="evenodd" clip-rule="evenodd" d="M6.33349 55.5158C4.4627 55.9712 4.74992 57.8815 6.02872 58.2387C6.91725 58.4869 9.76537 58.5488 10.8205 58.5884C13.445 58.6866 18.0658 58.9044 20.5116 58.3689C21.1655 58.2253 21.638 57.9498 21.82 57.2793C22.4476 54.9547 18.3969 55.4208 16.2515 55.401C14.589 55.3872 12.9265 55.392 11.264 55.4026C10.0553 55.4117 7.31739 55.2772 6.33404 55.5164L6.33349 55.5158Z" fill="#746EB2"/>
<path fill-rule="evenodd" clip-rule="evenodd" d="M105.099 72.0575C105.079 71.5732 105.592 68.9428 105.743 68.4009C107.676 68.1799 110.835 67.9679 110.07 70.3912C109.481 72.2529 107.068 72.2118 105.099 72.0575ZM104.573 74.3639C106.276 74.1487 107.745 74.3868 109.54 74.067C113.044 73.4435 114.484 67.8077 110.997 66.4698C109.762 65.9963 104.709 66.181 103.46 66.181C103.417 66.8361 103.267 67.3491 103.151 67.8804L102.093 72.6747C101.883 73.4936 100.769 78.7919 100.794 79.2804H103.33C103.743 78.699 104.277 75.4503 104.573 74.3633V74.3639Z" fill="#FFA008"/>
<path fill-rule="evenodd" clip-rule="evenodd" d="M16.0912 50.0184C15.1944 50.6313 14.3371 51.2896 15.3205 52.446C15.6559 52.8411 15.4712 52.6062 15.9218 52.8229C17.0498 53.3675 21.9085 53.1422 23.2356 53.1406C24.3916 53.1406 26.4909 53.2372 27.5439 53.1011C28.7246 52.95 29.082 51.2229 28.2181 50.5753C27.334 49.9154 25.9669 49.9666 24.5653 49.9442C23.6209 49.9277 16.386 49.8155 16.0912 50.0184Z" fill="#FFA008"/>
<path fill-rule="evenodd" clip-rule="evenodd" d="M19.9109 63.9462C21.592 63.9446 24.4478 64.0204 25.8433 63.7828C26.5828 63.6558 27.0739 63.7994 27.7558 63.4983C29.1448 62.8854 28.6772 61.6291 28.0107 61.1283C27.588 60.8123 26.0187 60.9057 25.4377 60.8619C23.357 60.706 20.9611 60.7333 18.8014 60.7333C17.2025 60.7333 14.2968 60.6409 15.0648 62.7263C15.4189 63.6905 15.8837 63.7054 17.0348 63.7738C18.3492 63.8512 18.0697 63.9462 19.9109 63.9462Z" fill="#FFA008"/>
<path fill-rule="evenodd" clip-rule="evenodd" d="M71.7584 53.733L74.487 53.7544C74.613 54.9028 72.9051 60.6116 72.9566 61.6724C76.064 61.8209 74.6131 61.6452 75.7811 57.7057L76.5578 54.0496C76.5655 54.0266 76.5765 53.9983 76.5841 53.9786C76.7908 53.4036 78.5339 53.9076 79.446 53.7063C79.5408 53.308 79.7628 52.5184 79.7255 52.1778L72.5115 52.1143C71.9195 52.1356 72.056 52.1687 71.9475 52.732C71.8976 52.9834 71.7627 53.4629 71.7578 53.7341L71.7584 53.733Z" fill="#FFA008"/>
<path fill-rule="evenodd" clip-rule="evenodd" d="M33.8043 74.4189C34.0329 76.848 42.0751 76.8342 42.4215 74.6233C42.712 72.7665 39.6995 72.8135 38.2014 72.8071C36.7829 72.7996 33.6579 72.8765 33.8043 74.4189Z" fill="#FFA008"/>
<path fill-rule="evenodd" clip-rule="evenodd" d="M36.8888 38.0025C35.9909 38.1386 35.2153 38.3036 34.5707 38.7109C33.9678 39.0894 33.4037 39.9399 34.1371 40.5875C35.4905 41.7861 40.9505 41.4199 41.8549 40.8326C42.5806 40.3606 42.6239 39.3452 41.9388 38.8198C40.8715 38.0025 38.5063 37.7558 36.8888 38.0025Z" fill="#FFA008"/>
<path fill-rule="evenodd" clip-rule="evenodd" d="M27.8954 37.0341C25.0007 37.9604 26.3151 40.916 29.8577 40.0591C30.9502 39.7943 31.9242 38.8664 31.1036 37.8211C30.5708 37.1446 28.9873 36.6844 27.8948 37.0341H27.8954Z" fill="#FFA008"/>
<path fill-rule="evenodd" clip-rule="evenodd" d="M31.3385 75.9305C32.0889 73.7437 26.7204 73.2899 26.3526 75.1948C26.1273 76.3571 27.3579 77.167 28.441 77.2588C29.631 77.3603 31.0343 76.8152 31.339 75.93L31.3385 75.9305Z" fill="#FFA008"/>
</svg>
