<svg viewBox="0 0 36 36" fill="none" xmlns="http://www.w3.org/2000/svg">
<g clip-path="url(#clip0_2157_1408)">
<path d="M27 1.5H9C4.85786 1.5 1.5 4.85786 1.5 9V27C1.5 31.1421 4.85786 34.5 9 34.5H27C31.1421 34.5 34.5 31.1421 34.5 27V9C34.5 4.85786 31.1421 1.5 27 1.5Z" stroke="currentColor" stroke-width="3"/>
<path d="M22.7683 10.5C23.8975 10.5 24.9767 10.5674 25.5 10.614V13.4804H24.1969C23.1112 13.4804 22.4669 13.7305 22.1267 14.2105C21.9628 14.4418 21.8874 14.704 21.8516 14.9624C21.8158 15.2188 21.817 15.4907 21.817 15.7446V17.5375C21.817 17.7976 22.0381 18.0087 22.3117 18.0089H25.4224L24.5078 21.4902H22.3117C22.0381 21.4904 21.817 21.701 21.817 21.9611V33.75H18.157V21.9611C18.157 21.701 17.9358 21.4904 17.6623 21.4902H15V18.0089H17.6623C17.9358 18.0087 18.157 17.7976 18.157 17.5375V14.9435C18.157 13.4773 18.644 12.3736 19.4452 11.6365C20.2481 10.8977 21.3954 10.5 22.7683 10.5Z" fill="currentColor" stroke="currentColor" stroke-width="0.5" stroke-linejoin="round"/>
</g>
<defs>
<clipPath id="clip0_2157_1408">
<rect width="36" height="36" fill="currentColor"/>
</clipPath>
</defs>
</svg>
