<svg viewBox="0 0 27 27" fill="none" xmlns="http://www.w3.org/2000/svg">
<path d="M13.3333 26.6667C11.5111 26.6667 9.78889 26.3164 8.16667 25.616C6.54444 24.9156 5.128 23.96 3.91733 22.7493C2.70667 21.5387 1.75111 20.1222 1.05067 18.5C0.350222 16.8778 0 15.1556 0 13.3333C0 11.4889 0.350222 9.76133 1.05067 8.15067C1.75111 6.54 2.70667 5.12889 3.91733 3.91733C5.128 2.70578 6.54444 1.75022 8.16667 1.05067C9.78889 0.351111 11.5111 0.000888889 13.3333 0C15.1778 0 16.9058 0.350222 18.5173 1.05067C20.1289 1.75111 21.5396 2.70667 22.7493 3.91733C23.9591 5.128 24.9147 6.53911 25.616 8.15067C26.3173 9.76222 26.6676 11.4898 26.6667 13.3333C26.6667 15.1556 26.3164 16.8778 25.616 18.5C24.9156 20.1222 23.96 21.5391 22.7493 22.7507C21.5387 23.9622 20.1276 24.9178 18.516 25.6173C16.9044 26.3169 15.1769 26.6667 13.3333 26.6667ZM13.3333 23.9333C13.9111 23.1333 14.4111 22.3 14.8333 21.4333C15.2556 20.5667 15.6 19.6444 15.8667 18.6667H10.8C11.0667 19.6444 11.4111 20.5667 11.8333 21.4333C12.2556 22.3 12.7556 23.1333 13.3333 23.9333ZM9.86667 23.4C9.46667 22.6667 9.11689 21.9053 8.81733 21.116C8.51778 20.3267 8.26756 19.5102 8.06667 18.6667H4.13333C4.77778 19.7778 5.58356 20.7444 6.55067 21.5667C7.51778 22.3889 8.62311 23 9.86667 23.4ZM16.8 23.4C18.0444 23 19.1502 22.3889 20.1173 21.5667C21.0844 20.7444 21.8898 19.7778 22.5333 18.6667H18.6C18.4 19.5111 18.1502 20.328 17.8507 21.1173C17.5511 21.9067 17.2009 22.6676 16.8 23.4ZM3 16H7.53333C7.46667 15.5556 7.41689 15.1169 7.384 14.684C7.35111 14.2511 7.33422 13.8009 7.33333 13.3333C7.33244 12.8658 7.34933 12.416 7.384 11.984C7.41867 11.552 7.46844 11.1129 7.53333 10.6667H3C2.88889 11.1111 2.80578 11.5502 2.75067 11.984C2.69556 12.4178 2.66756 12.8676 2.66667 13.3333C2.66578 13.7991 2.69378 14.2493 2.75067 14.684C2.80756 15.1187 2.89067 15.5573 3 16ZM10.2 16H16.4667C16.5333 15.5556 16.5836 15.1169 16.6173 14.684C16.6511 14.2511 16.6676 13.8009 16.6667 13.3333C16.6658 12.8658 16.6489 12.416 16.616 11.984C16.5831 11.552 16.5333 11.1129 16.4667 10.6667H10.2C10.1333 11.1111 10.0836 11.5502 10.0507 11.984C10.0178 12.4178 10.0009 12.8676 10 13.3333C9.99911 13.7991 10.016 14.2493 10.0507 14.684C10.0853 15.1187 10.1351 15.5573 10.2 16ZM19.1333 16H23.6667C23.7778 15.5556 23.8613 15.1169 23.9173 14.684C23.9733 14.2511 24.0009 13.8009 24 13.3333C23.9991 12.8658 23.9716 12.416 23.9173 11.984C23.8631 11.552 23.7796 11.1129 23.6667 10.6667H19.1333C19.2 11.1111 19.2502 11.5502 19.284 11.984C19.3178 12.4178 19.3342 12.8676 19.3333 13.3333C19.3324 13.7991 19.3156 14.2493 19.2827 14.684C19.2498 15.1187 19.2 15.5573 19.1333 16ZM18.6 8H22.5333C21.8889 6.88889 21.0836 5.92222 20.1173 5.1C19.1511 4.27778 18.0453 3.66667 16.8 3.26667C17.2 4 17.5502 4.76133 17.8507 5.55067C18.1511 6.34 18.4009 7.15644 18.6 8ZM10.8 8H15.8667C15.6 7.02222 15.2556 6.1 14.8333 5.23333C14.4111 4.36667 13.9111 3.53333 13.3333 2.73333C12.7556 3.53333 12.2556 4.36667 11.8333 5.23333C11.4111 6.1 11.0667 7.02222 10.8 8ZM4.13333 8H8.06667C8.26667 7.15556 8.51689 6.33867 8.81733 5.54933C9.11778 4.76 9.46756 3.99911 9.86667 3.26667C8.62222 3.66667 7.51644 4.27778 6.54933 5.1C5.58222 5.92222 4.77689 6.88889 4.13333 8Z" fill="currentColor"/>
</svg>
