<svg viewBox="0 0 36 36" fill="none" xmlns="http://www.w3.org/2000/svg">
<path fill-rule="evenodd" clip-rule="evenodd" d="M5.25 7.5C4.85218 7.5 4.47064 7.65804 4.18934 7.93934C3.90804 8.22064 3.75 8.60218 3.75 9C3.75 9.39782 3.90804 9.77936 4.18934 10.0607C4.47064 10.342 4.85218 10.5 5.25 10.5H30.75C31.1478 10.5 31.5294 10.342 31.8107 10.0607C32.092 9.77936 32.25 9.39782 32.25 9C32.25 8.60218 32.092 8.22064 31.8107 7.93934C31.5294 7.65804 31.1478 7.5 30.75 7.5H5.25ZM3.75 18C3.75 17.6022 3.90804 17.2206 4.18934 16.9393C4.47064 16.658 4.85218 16.5 5.25 16.5H30.75C31.1478 16.5 31.5294 16.658 31.8107 16.9393C32.092 17.2206 32.25 17.6022 32.25 18C32.25 18.3978 32.092 18.7794 31.8107 19.0607C31.5294 19.342 31.1478 19.5 30.75 19.5H5.25C4.85218 19.5 4.47064 19.342 4.18934 19.0607C3.90804 18.7794 3.75 18.3978 3.75 18ZM3.75 27.0015C3.75 26.6037 3.90804 26.2221 4.18934 25.9408C4.47064 25.6595 4.85218 25.5015 5.25 25.5015H30.75C31.1478 25.5015 31.5294 25.6595 31.8107 25.9408C32.092 26.2221 32.25 26.6037 32.25 27.0015C32.25 27.3993 32.092 27.7809 31.8107 28.0622C31.5294 28.3435 31.1478 28.5015 30.75 28.5015H5.25C4.85218 28.5015 4.47064 28.3435 4.18934 28.0622C3.90804 27.7809 3.75 27.3993 3.75 27.0015Z" fill="currentColor"/>
</svg>
