<svg viewBox="0 0 36 36" fill="none" xmlns="http://www.w3.org/2000/svg">
<g clip-path="url(#clip0_2157_1412)">
<path d="M27 1.5H9C4.85786 1.5 1.5 4.85786 1.5 9V27C1.5 31.1421 4.85786 34.5 9 34.5H27C31.1421 34.5 34.5 31.1421 34.5 27V9C34.5 4.85786 31.1421 1.5 27 1.5Z" stroke="currentColor" stroke-width="3"/>
<path d="M9 15.8858C9 15.4414 9.17722 15.0151 9.49185 14.7008C9.80655 14.3865 10.2337 14.21 10.6789 14.21C11.1242 14.21 11.5513 14.3865 11.866 14.7008C12.1813 15.0151 12.3579 15.4414 12.3579 15.8858V26.7789C12.3579 27.2234 12.1813 27.6497 11.866 27.9639C11.5513 28.2782 11.1242 28.4548 10.6789 28.4548C10.2337 28.4548 9.80655 28.2782 9.49185 27.9639C9.17722 27.6497 9 27.2234 9 26.7789V15.8858Z" fill="currentColor"/>
<path d="M10.6789 10.8517C11.6061 10.8517 12.3579 10.1014 12.3579 9.17587C12.3579 8.2503 11.6061 7.5 10.6789 7.5C9.7518 7.5 9 8.2503 9 9.17587C9 10.1014 9.7518 10.8517 10.6789 10.8517Z" fill="currentColor"/>
<path d="M27.8781 20.2801V26.7824C27.8781 27.2269 27.7015 27.6531 27.3862 27.9674C27.0716 28.2817 26.6444 28.4583 26.1991 28.4583C25.7539 28.4583 25.3267 28.2817 25.012 27.9674C24.6974 27.6531 24.5202 27.2269 24.5202 26.7824V20.2801C24.5202 19.5623 24.2347 18.8738 23.7261 18.3662C23.2174 17.8587 22.5278 17.5736 21.809 17.5736C21.0895 17.5736 20.3999 17.8587 19.8913 18.3662C19.3826 18.8738 19.0972 19.5623 19.0972 20.2801V26.7824C19.0972 27.2269 18.9205 27.6531 18.6053 27.9674C18.2906 28.2817 17.8634 28.4583 17.4182 28.4583C16.9729 28.4583 16.5457 28.2817 16.2311 27.9674C15.9165 27.6531 15.7393 27.2269 15.7393 26.7824V15.8894C15.7461 15.447 15.9252 15.0248 16.2386 14.7119C16.552 14.3992 16.9748 14.2204 17.4182 14.2135C17.7024 14.2057 17.9841 14.2748 18.2322 14.4134C18.4803 14.552 18.6868 14.7551 18.8285 15.0011C19.752 14.4788 20.796 14.2076 21.8575 14.2146C22.9183 14.2217 23.9593 14.5067 24.8752 15.0411C25.7912 15.5756 26.5511 16.3408 27.0778 17.2601C27.6051 18.1795 27.8806 19.2209 27.8781 20.2801Z" fill="currentColor"/>
</g>
<defs>
<clipPath id="clip0_2157_1412">
<rect width="36" height="36" fill="currentColor"/>
</clipPath>
</defs>
</svg>
