<svg width="96" height="52" viewBox="0 0 96 52" fill="none" xmlns="http://www.w3.org/2000/svg">
<g clip-path="url(#clip0_184_2546)">
<path fill-rule="evenodd" clip-rule="evenodd" d="M44.7907 35.5179C44.589 36.2094 43.1375 37.9391 42.715 38.3972L40.2482 40.9027C37.0163 44.0928 31.4502 47.1546 26.7557 47.2111C23.3981 47.2502 21.589 46.233 18.9258 45.2028C19.0598 45.9504 20.6852 47.2572 21.3483 47.7143C26.1754 51.0477 35.846 52.8884 41.5515 51.5717C44.3054 50.9366 46.3854 50.248 48.8011 48.8034C50.9294 47.5303 52.7804 46.1715 54.4915 44.4681C55.1737 43.7894 56.2275 42.5332 56.7236 41.7152C57.8271 39.8983 57.8715 37.7001 56.4775 35.9269C56.1004 35.4475 55.7579 35.0107 55.255 34.6592C53.2963 33.292 49.8837 32.0987 47.5416 33.1839C47.2683 33.3103 47.0169 33.4774 46.8015 33.6221C46.6427 33.7277 46.6246 33.747 46.4521 33.871C45.4109 34.6156 45.5006 34.5794 44.7907 35.5179Z" fill="#FFA008"/>
<path fill-rule="evenodd" clip-rule="evenodd" d="M19.3967 6.64955C22.2324 5.57427 23.6298 4.70324 27.1491 4.83808C32.6017 5.0463 37.744 8.61271 41.4728 12.2931C41.923 12.7373 42.2407 13.1602 42.6631 13.589C43.166 14.1006 44.406 15.6057 44.7334 16.3548C45.2567 16.9621 45.5646 17.9471 47.3562 18.7384C48.8549 19.4002 49.8684 19.476 51.5396 19.0011C53.9651 18.311 56.2258 17.4316 57.2563 14.7164C57.4595 14.1795 57.65 13.2757 57.5229 12.5633C57.4551 12.1895 57.1253 10.9953 56.9508 10.6775C55.9233 8.8125 54.7203 7.84182 53.4773 6.5965L50.53 4.28334C50.3615 4.17378 50.4774 4.24963 50.3478 4.17081L47.5136 2.53087C46.7579 2.12733 44.8216 1.23102 43.9943 1.08775C43.2595 0.961334 42.6685 0.685699 41.9903 0.545402C37.8234 -0.318687 34.9604 -0.0787448 30.8487 0.730812C27.8833 1.31282 24.157 2.3762 21.6959 4.08108C21.4294 4.26649 21.2662 4.40282 21.0094 4.57286L19.6257 5.78149C19.4337 5.98524 19.2374 6.28715 19.0332 6.51916C19.2003 6.68921 18.9226 6.64409 19.3967 6.65004V6.64955Z" fill="#FFA008"/>
<path fill-rule="evenodd" clip-rule="evenodd" d="M28.3458 8.29341C29.7837 8.06437 31.8856 8.29341 32.8347 9.0524C33.4438 9.54021 33.4053 10.4831 32.7602 10.9214C31.9562 11.4667 27.1029 11.8068 25.8999 10.6938C25.248 10.0925 25.7493 9.30275 26.2853 8.95126C26.8583 8.57301 27.5477 8.42032 28.3458 8.29341ZM20.3517 7.39412C21.3228 7.0694 22.7299 7.49674 23.204 8.12485C23.9334 9.09602 23.0671 9.95714 22.0965 10.203C18.9475 10.9982 17.7791 8.25375 20.3522 7.39412H20.3517ZM19.3973 6.64951C18.4759 7.10212 18.4208 7.11204 17.6666 7.69801C16.7881 8.38115 12.9653 11.6174 15.6514 12.1964C17.0931 12.5068 19.1692 11.9743 20.7425 11.9644C21.4524 11.9605 22.6593 12.012 23.2825 12.2539C23.9276 12.5053 24.5449 13.5002 23.8253 14.0694C22.4678 15.1471 15.6363 14.6177 13.5495 14.5344C12.3051 14.4853 6.76519 14.0411 6.43777 15.747C6.23605 16.7995 6.90064 17.2114 7.74015 17.3477C10.8034 17.844 15.2908 17.7077 18.4759 17.6075C21.6634 17.5079 25.6261 17.5976 28.3595 16.3721C30.8361 15.2631 33.5056 13.5196 36.6064 13.3857C39.464 13.2633 42.8742 14.7431 44.7135 16.5194L44.7345 16.3538C44.407 15.6047 43.167 14.0996 42.6642 13.588C42.2418 13.1592 41.9241 12.7363 41.4739 12.2921C37.7446 8.61168 32.6028 5.04527 27.1501 4.83705C23.6308 4.70221 22.2335 5.57324 19.3977 6.64851L19.3973 6.64951Z" fill="#746EB2"/>
<path fill-rule="evenodd" clip-rule="evenodd" d="M23.4114 43.5123C23.1405 44.3342 21.8937 44.8404 20.8354 44.7462C19.8727 44.6604 18.7788 43.9089 18.9791 42.8296C19.3065 41.0603 24.0785 41.4822 23.411 43.5128L23.4114 43.5123ZM25.6035 42.1083C25.4739 40.6761 28.2512 40.6047 29.5121 40.6117C30.8437 40.6171 33.5216 40.5735 33.2633 42.2982C32.9554 44.3511 25.8067 44.364 25.6035 42.1083ZM18.926 45.2028C21.5887 46.2329 23.3983 47.2502 26.7558 47.2111C31.4503 47.155 37.0165 44.0928 40.2484 40.9027L42.7152 38.3971C43.1377 37.9391 44.5896 36.2089 44.7909 35.5178C44.5838 35.6343 44.6432 35.6175 44.4581 35.7583C44.309 35.8723 44.1998 35.9397 44.0478 36.0448C41.8947 37.5514 39.7665 38.6882 36.902 38.6574C32.6743 38.6098 29.3221 35.5758 26.6014 35.0444C23.0782 34.3588 8.94202 33.9989 7.09004 34.8392C6.82352 34.9601 6.53215 35.3002 6.45468 35.6091C5.48362 39.4888 18.8173 36.1598 23.2989 37.6986C24.1233 37.9827 24.4839 38.5612 23.8042 39.409C22.781 40.682 17.9992 39.6479 16.3046 39.752C11.8464 40.0262 18.0119 44.7536 18.926 45.2033V45.2028Z" fill="#746EB2"/>
<path fill-rule="evenodd" clip-rule="evenodd" d="M49.221 30.3L50.692 30.2801C50.9463 29.891 51.2235 28.0572 51.3687 27.4276L51.8521 25.3073C51.8896 24.9558 51.873 24.8016 52.0991 24.4962C52.1805 24.7451 54.1182 29.9053 54.4403 30.2692L56.0106 30.2776L56.4759 28.1078C56.6474 27.4152 56.8004 26.5407 56.9125 25.8551C57.0908 24.7575 57.8144 22.4275 57.7437 21.4072L56.2713 21.4087C56.0267 21.7419 55.4815 24.9459 55.2671 25.8942C55.1828 26.2665 55.1882 27.1574 54.8763 27.2913L54.3584 25.8466C54.1484 25.3395 53.9925 24.8953 53.7771 24.3882L52.6102 21.4315L50.8659 21.4147L50.4834 23.5846C50.2349 24.6767 49.1781 29.7522 49.221 30.3005V30.3Z" fill="#FFA008"/>
<path fill-rule="evenodd" clip-rule="evenodd" d="M77.665 25.2931C77.586 24.5188 77.9714 23.8431 78.0114 22.9462C78.579 22.8719 79.2324 22.9195 79.8137 22.9155C80.6853 22.9101 80.5816 22.8972 81.2471 23.1827C81.8216 25.5083 79.2461 25.4607 77.6645 25.2936L77.665 25.2931ZM74.8653 30.261L76.5546 30.2764L77.2864 26.6832C79.4161 26.2797 79.7377 27.8214 80.6093 30.2739L82.4326 30.2784C82.4048 29.854 81.8138 28.6835 81.6496 28.3207C81.2325 27.3961 80.7394 26.9013 80.6167 26.5543C81.1068 26.3168 81.6316 26.4908 82.4769 25.7155C83.2005 25.0522 83.4465 23.5907 82.9822 22.6225C82.8925 22.4371 82.8263 22.3023 82.7225 22.1744L82.3468 21.8472C81.4284 21.1601 77.9339 21.4005 76.6043 21.4159L75.6775 25.8141C75.5436 26.3466 74.8005 29.798 74.8653 30.262V30.261Z" fill="#FFA008"/>
<path fill-rule="evenodd" clip-rule="evenodd" d="M42.3073 21.4256L41.8639 23.7105C41.7246 24.5662 40.5187 29.7249 40.5313 30.2479L47.281 30.2831C47.3765 30.0402 47.567 29.1112 47.5446 28.7909L42.5987 28.7726C42.585 28.3229 42.9441 26.7658 43.1941 26.4723C43.9566 26.4584 47.1426 26.6002 47.5665 26.3766C47.6922 26.1253 47.836 25.2354 47.7863 24.9107L43.4591 24.9152C43.4923 24.3193 43.6443 23.3665 43.8665 22.9153L48.4255 22.9238C48.5858 22.6387 48.7154 21.8247 48.7237 21.4539C46.5872 21.3626 44.4448 21.3964 42.3068 21.4256H42.3073Z" fill="#FFA008"/>
<path fill-rule="evenodd" clip-rule="evenodd" d="M66.1543 30.2579L72.9123 30.2847L73.1841 28.7979L68.2231 28.7726C68.2119 28.3498 68.6139 26.9121 68.7425 26.4565H73.1871C73.2962 26.2612 73.5169 25.2226 73.477 24.9331L69.1016 24.9132C69.1264 24.3932 69.3033 23.5827 69.4027 22.9714L74.0597 22.9124C74.2517 22.5778 74.354 21.8753 74.3057 21.4058L68.2095 21.4019C67.8533 21.4425 67.9429 21.4232 67.8616 21.7533C67.7661 22.137 67.7222 22.5654 67.6131 22.9858L66.1548 30.2579H66.1543Z" fill="#FFA008"/>
<path fill-rule="evenodd" clip-rule="evenodd" d="M82.0292 34.4964C81.9907 35.3605 80.949 39.672 80.8233 40.542C80.5373 42.5389 80.1631 44.7311 77.837 44.7564C76.6384 44.7693 75.8798 44.4332 75.663 43.2627C75.5582 42.6976 77.2899 35.6322 77.4321 34.5306C76.8631 34.425 75.4486 34.3972 74.9049 34.5321C74.67 38.0732 71.7836 43.8968 74.615 46.0146C76.637 47.5281 81.7154 47.7443 82.9486 42.2276L84.5024 34.4706L82.0287 34.4974L82.0292 34.4964Z" fill="#FFA008"/>
<path fill-rule="evenodd" clip-rule="evenodd" d="M1.18533 24.5554C-0.477604 24.9783 -0.222293 26.7521 0.914427 27.0838C1.70424 27.3143 4.23591 27.3718 5.17384 27.4085C7.50672 27.4997 11.6141 27.702 13.7882 27.2047C14.3694 27.0714 14.7894 26.8156 14.9512 26.1929C15.5091 24.0344 11.9084 24.4672 10.0014 24.4489C8.52358 24.436 7.0458 24.4404 5.56801 24.4503C4.49366 24.4588 2.05992 24.3338 1.18582 24.5559L1.18533 24.5554Z" fill="#746EB2"/>
<path fill-rule="evenodd" clip-rule="evenodd" d="M88.977 39.9164C88.959 39.4668 89.415 37.0242 89.549 36.521C91.267 36.3158 94.0749 36.119 93.3953 38.3692C92.872 40.0978 90.7267 40.0597 88.977 39.9164ZM88.5088 42.058C90.0226 41.8582 91.3289 42.0793 92.9241 41.7824C96.0385 41.2034 97.319 35.9702 94.2197 34.7279C93.1214 34.2882 88.6301 34.4597 87.5197 34.4597C87.4812 35.068 87.3482 35.5444 87.2449 36.0377L86.3045 40.4895C86.1179 41.25 85.1278 46.1698 85.1498 46.6234H87.4037C87.7711 46.0835 88.2462 43.0669 88.5088 42.0575V42.058Z" fill="#FFA008"/>
<path fill-rule="evenodd" clip-rule="evenodd" d="M9.85827 19.4512C9.06115 20.0204 8.29911 20.6316 9.17321 21.7054C9.4714 22.0723 9.3072 21.8541 9.70771 22.0554C10.7104 22.5611 15.0293 22.3519 16.2089 22.3504C17.2365 22.3504 19.1026 22.4401 20.0386 22.3137C21.0881 22.1734 21.4057 20.5697 20.6379 19.9683C19.852 19.3556 18.6368 19.4032 17.3909 19.3823C16.5514 19.367 10.1204 19.2629 9.85827 19.4512Z" fill="#FFA008"/>
<path fill-rule="evenodd" clip-rule="evenodd" d="M13.2534 32.3845C14.7477 32.383 17.2862 32.4534 18.5267 32.2328C19.184 32.1148 19.6206 32.2482 20.2267 31.9686C21.4613 31.3995 21.0457 30.233 20.4532 29.768C20.0776 29.4745 18.6826 29.5612 18.1662 29.5206C16.3166 29.3758 14.1869 29.4011 12.2672 29.4011C10.8459 29.4011 8.2631 29.3153 8.94571 31.2517C9.26047 32.1471 9.67364 32.1609 10.6968 32.2244C11.8652 32.2963 11.6167 32.3845 13.2534 32.3845Z" fill="#FFA008"/>
<path fill-rule="evenodd" clip-rule="evenodd" d="M59.3413 22.9001L61.7668 22.9199C61.8788 23.9863 60.3606 29.2873 60.4064 30.2724C63.1685 30.4102 61.8788 30.2471 62.9171 26.5889L63.6075 23.1941C63.6144 23.1727 63.6241 23.1465 63.6309 23.1281C63.8146 22.5942 65.364 23.0622 66.1748 22.8753C66.2591 22.5055 66.4564 21.7723 66.4233 21.456L60.0108 21.397C59.4846 21.4168 59.6059 21.4475 59.5094 21.9706C59.4651 22.2041 59.3452 22.6492 59.3408 22.9011L59.3413 22.9001Z" fill="#FFA008"/>
<path fill-rule="evenodd" clip-rule="evenodd" d="M25.604 42.1084C25.8072 44.364 32.9559 44.3511 33.2639 42.2982C33.5221 40.574 30.8442 40.6177 29.5126 40.6117C28.2517 40.6048 25.4739 40.6762 25.604 42.1084Z" fill="#FFA008"/>
<path fill-rule="evenodd" clip-rule="evenodd" d="M28.3457 8.29329C27.5476 8.41971 26.8582 8.5729 26.2852 8.95115C25.7492 9.30264 25.2479 10.0924 25.8998 10.6937C27.1028 11.8067 31.9561 11.4666 32.7601 10.9213C33.4052 10.483 33.4437 9.5401 32.8346 9.05228C31.886 8.29329 29.7836 8.06426 28.3457 8.29329Z" fill="#FFA008"/>
<path fill-rule="evenodd" clip-rule="evenodd" d="M20.3516 7.3942C17.7785 8.25432 18.9469 10.9988 22.0959 10.2031C23.0669 9.95722 23.9328 9.09561 23.2034 8.12493C22.7298 7.49682 21.3222 7.06949 20.3511 7.3942H20.3516Z" fill="#FFA008"/>
<path fill-rule="evenodd" clip-rule="evenodd" d="M23.4119 43.5125C24.0789 41.482 19.3069 41.0606 18.98 42.8294C18.7797 43.9086 19.8736 44.6607 20.8364 44.746C21.8942 44.8402 23.1415 44.334 23.4124 43.512L23.4119 43.5125Z" fill="#FFA008"/>
</g>
<defs>
<clipPath id="clip0_184_2546">
<rect width="96" height="52" fill="white"/>
</clipPath>
</defs>
</svg>
