<svg viewBox="0 0 28 28" fill="none" xmlns="http://www.w3.org/2000/svg">
<path d="M9.41737 19.1398C9.22111 19.0265 9.03133 18.902 8.84803 18.7662C8.66428 18.6302 8.4952 18.4817 8.34078 18.3207C8.24415 18.2248 8.18858 18.1089 8.17406 17.973C8.15954 17.8371 8.18572 17.7112 8.25261 17.5953C8.29306 17.5253 8.34279 17.466 8.40182 17.4174C8.4611 17.3684 8.53262 17.3349 8.61639 17.3168C9.66666 17.0071 10.6209 16.5246 11.4791 15.8693C12.3382 15.2134 13.0412 14.4119 13.588 13.4648C14.1347 12.5178 14.473 11.5096 14.6027 10.4404C14.7322 9.37153 14.6738 8.30615 14.4273 7.24422C14.4033 7.16391 14.3977 7.08584 14.4105 7.01C14.4228 6.93506 14.4493 6.86234 14.49 6.79184C14.5626 6.66611 14.6606 6.57538 14.7839 6.51968C14.9073 6.46397 15.0349 6.45411 15.1667 6.4901C15.3853 6.54507 15.5995 6.61811 15.8091 6.70923C16.0179 6.79983 16.2207 6.90192 16.4174 7.01549C17.2525 7.49764 17.9453 8.10959 18.4958 8.85134C19.0463 9.59308 19.4359 10.3937 19.6645 11.2531C19.8932 12.1126 19.9527 13.0023 19.843 13.9221C19.7334 14.8419 19.437 15.7213 18.9539 16.5602C18.4707 17.399 17.8573 18.0956 17.1134 18.6499C16.3709 19.2049 15.5705 19.5987 14.712 19.8311C13.8536 20.0636 12.9652 20.1269 12.0469 20.0212C11.1285 19.9155 10.252 19.6217 9.41737 19.1398Z" fill="currentColor"/>
</svg>
