<svg viewBox="0 0 36 36" fill="none" xmlns="http://www.w3.org/2000/svg">
<path d="M18 4.50439C17.4096 4.50439 16.8251 4.62067 16.2796 4.84659C15.7342 5.07251 15.2386 5.40365 14.8212 5.8211C14.4038 6.23854 14.0726 6.73412 13.8467 7.27954C13.6208 7.82496 13.5045 8.40954 13.5045 8.99989C13.5045 9.59025 13.6208 10.1748 13.8467 10.7202C14.0726 11.2657 14.4038 11.7612 14.8212 12.1787C15.2386 12.5961 15.7342 12.9273 16.2796 13.1532C16.8251 13.3791 17.4096 13.4954 18 13.4954C19.1923 13.4954 20.3357 13.0218 21.1788 12.1787C22.0219 11.3356 22.4955 10.1922 22.4955 8.99989C22.4955 7.80761 22.0219 6.66417 21.1788 5.8211C20.3357 4.97803 19.1923 4.50439 18 4.50439ZM28.125 6.74989C27.2299 6.74989 26.3714 7.10547 25.7385 7.73841C25.1056 8.37134 24.75 9.22979 24.75 10.1249C24.75 11.02 25.1056 11.8784 25.7385 12.5114C26.3714 13.1443 27.2299 13.4999 28.125 13.4999C29.0201 13.4999 29.8786 13.1443 30.5115 12.5114C31.1444 11.8784 31.5 11.02 31.5 10.1249C31.5 9.22979 31.1444 8.37134 30.5115 7.73841C29.8786 7.10547 29.0201 6.74989 28.125 6.74989ZM7.875 6.74989C6.9799 6.74989 6.12145 7.10547 5.48851 7.73841C4.85558 8.37134 4.5 9.22979 4.5 10.1249C4.5 11.02 4.85558 11.8784 5.48851 12.5114C6.12145 13.1443 6.9799 13.4999 7.875 13.4999C8.77011 13.4999 9.62855 13.1443 10.2615 12.5114C10.8944 11.8784 11.25 11.02 11.25 10.1249C11.25 9.22979 10.8944 8.37134 10.2615 7.73841C9.62855 7.10547 8.77011 6.74989 7.875 6.74989ZM11.25 17.9841C11.2542 17.3901 11.493 16.8219 11.9146 16.4033C12.3361 15.9848 12.906 15.7499 13.5 15.7499H22.5C23.0967 15.7499 23.669 15.9869 24.091 16.4089C24.5129 16.8309 24.75 17.4032 24.75 17.9999V24.7499C24.7506 25.4581 24.6397 26.1619 24.4215 26.8356C23.9233 28.3627 22.897 29.6622 21.5269 30.5007C20.1568 31.3391 18.5327 31.6617 16.9462 31.4105C15.3596 31.1593 13.9146 30.3507 12.8706 29.1299C11.8266 27.9092 11.252 26.3562 11.25 24.7499V17.9841ZM9 17.9999C9 17.1786 9.21825 16.4114 9.603 15.7499H4.5C3.90326 15.7499 3.33097 15.9869 2.90901 16.4089C2.48705 16.8309 2.25 17.4032 2.25 17.9999V23.6249C2.24969 24.5458 2.47551 25.4528 2.90761 26.266C3.33972 27.0793 3.9649 27.774 4.72825 28.2892C5.49159 28.8044 6.36976 29.1243 7.28563 29.2208C8.20149 29.3173 9.12705 29.1874 9.981 28.8426C9.33478 27.5744 8.99858 26.171 9 24.7476V17.9999ZM27 17.9999V24.7499C27 26.2236 26.6467 27.6141 26.019 28.8426C26.873 29.1874 27.7985 29.3173 28.7144 29.2208C29.6302 29.1243 30.5084 28.8044 31.2718 28.2892C32.0351 27.774 32.6603 27.0793 33.0924 26.266C33.5245 25.4528 33.7503 24.5458 33.75 23.6249V17.9999C33.75 17.4032 33.5129 16.8309 33.091 16.4089C32.669 15.9869 32.0967 15.7499 31.5 15.7499H26.397C26.7795 16.4114 27 17.1786 27 17.9999Z" fill="currentColor"/>
</svg>
