<svg viewBox="0 0 36 36" fill="none" xmlns="http://www.w3.org/2000/svg">
<g clip-path="url(#clip0_2157_1417)">
<path d="M27 1.5H9C4.85786 1.5 1.5 4.85786 1.5 9V27C1.5 31.1421 4.85786 34.5 9 34.5H27C31.1421 34.5 34.5 31.1421 34.5 27V9C34.5 4.85786 31.1421 1.5 27 1.5Z" stroke="currentColor" stroke-width="3"/>
<path d="M25.9126 9.89796C25.9126 9.89796 27.6985 9.17256 27.5494 10.9341C27.5002 11.6596 27.0538 14.1986 26.7061 16.9447L25.5153 25.0798C25.5153 25.0798 25.4158 26.2715 24.5229 26.4789C23.6299 26.6857 22.2904 25.7535 22.0423 25.5461C21.8434 25.3905 18.3213 23.0587 17.0807 21.9191C16.7332 21.6079 16.3364 20.9864 17.1304 20.2609L22.3402 15.0792C22.9353 14.4568 23.531 13.006 21.0499 14.768L14.104 19.6902C14.104 19.6902 13.3099 20.2088 11.8219 19.7424L8.59642 18.7058C8.59642 18.7058 7.4056 17.9286 9.43964 17.1515C14.4019 14.7163 20.5045 12.2293 25.912 9.89744" fill="currentColor"/>
</g>
<defs>
<clipPath id="clip0_2157_1417">
<rect width="36" height="36" fill="currentColor"/>
</clipPath>
</defs>
</svg>
