<svg viewBox="0 0 36 36" fill="none" xmlns="http://www.w3.org/2000/svg">
<path fill-rule="evenodd" clip-rule="evenodd" d="M11.152 5.84757C11.1681 5.37342 11.3673 4.92394 11.7078 4.59359C12.0483 4.26324 12.5036 4.07774 12.978 4.07607C13.4524 4.07441 13.909 4.25671 14.2518 4.58466C14.5946 4.91262 14.797 5.36069 14.8163 5.83471V5.86043C14.797 6.33446 14.5946 6.78253 14.2518 7.11048C13.909 7.43843 13.4524 7.62073 12.978 7.61907C12.5036 7.6174 12.0483 7.4319 11.7078 7.10155C11.3673 6.7712 11.1681 6.32172 11.152 5.84757ZM18.3392 7.77614C17.9416 8.87754 17.2142 9.82957 16.2559 10.5025C15.2976 11.1754 14.1551 11.5365 12.9842 11.5365C11.8132 11.5365 10.6708 11.1754 9.71248 10.5025C8.7542 9.82957 8.02672 8.87754 7.62918 7.77614H2.95689C2.4454 7.77614 1.95486 7.57295 1.59319 7.21128C1.23151 6.8496 1.02832 6.35906 1.02832 5.84757C1.02832 5.33608 1.23151 4.84554 1.59319 4.48386C1.95486 4.12219 2.4454 3.919 2.95689 3.919H7.63175C8.02929 2.8176 8.75677 1.86557 9.71505 1.19266C10.6733 0.519751 11.8158 0.158691 12.9867 0.158691C14.1577 0.158691 15.3002 0.519751 16.2584 1.19266C17.2167 1.86557 17.9442 2.8176 18.3417 3.919H27.0898C29.1807 3.919 31.186 4.74963 32.6646 6.22817C34.1431 7.70671 34.9738 9.71203 34.9738 11.803C34.9738 13.894 34.1431 15.8993 32.6646 17.3778C31.186 18.8564 29.1807 19.687 27.0898 19.687H25.8632C25.4663 20.7887 24.7392 21.7411 23.781 22.4143C22.8229 23.0875 21.6805 23.4487 20.5095 23.4487C19.3385 23.4487 18.196 23.0875 17.2379 22.4143C16.2798 21.7411 15.5527 20.7887 15.1558 19.687H8.90975C7.94743 19.6866 7.01679 20.0309 6.28638 20.6574C5.55596 21.284 5.07407 22.1514 4.92798 23.1025C4.78188 24.0537 4.98125 25.0257 5.48996 25.8426C5.99868 26.6595 6.7831 27.2671 7.70118 27.5556C8.12949 26.4837 8.87365 25.5674 9.8349 24.9283C10.7961 24.2892 11.929 23.9575 13.0832 23.9773C14.2373 23.9972 15.3581 24.3675 16.2969 25.0392C17.2356 25.7109 17.9479 26.6522 18.3392 27.7381H26.9998V24.4287C26.9998 24.1746 27.0751 23.9262 27.2163 23.7149C27.3574 23.5036 27.558 23.3389 27.7926 23.2415C28.0273 23.1441 28.2856 23.1184 28.5349 23.1677C28.7842 23.217 29.0132 23.339 29.1932 23.5184L34.336 28.6613C34.4558 28.7807 34.5508 28.9226 34.6156 29.0788C34.6804 29.235 34.7138 29.4025 34.7138 29.5716C34.7138 29.7407 34.6804 29.9081 34.6156 30.0643C34.5508 30.2205 34.4558 30.3624 34.336 30.4819L29.1932 35.6247C29.0132 35.8041 28.7842 35.9262 28.5349 35.9754C28.2856 36.0247 28.0273 35.9991 27.7926 35.9017C27.558 35.8043 27.3574 35.6395 27.2163 35.4282C27.0751 35.2169 26.9998 34.9685 26.9998 34.7144V31.5953H18.3392C17.9385 32.7062 17.2023 33.6649 16.2325 34.3388C15.2627 35.0127 14.1074 35.3683 12.9266 35.3565C11.7457 35.3446 10.5978 34.9658 9.64172 34.2726C8.68569 33.5794 7.96889 32.606 7.59061 31.4873C5.64394 31.154 3.89319 30.1024 2.68449 28.5404C1.47579 26.9785 0.897131 25.0199 1.06291 23.0519C1.22869 21.0838 2.12684 19.2496 3.5798 17.9119C5.03276 16.5742 6.93475 15.8303 8.90975 15.8273H15.1532C15.5501 14.7256 16.2772 13.7732 17.2353 13.1C18.1934 12.4268 19.3359 12.0655 20.5069 12.0655C21.6779 12.0655 22.8204 12.4268 23.7785 13.1C24.7366 13.7732 25.4637 14.7256 25.8606 15.8273H27.0872C27.6278 15.8466 28.1667 15.7568 28.6718 15.5633C29.1769 15.3698 29.6379 15.0764 30.0271 14.7008C30.4164 14.3252 30.726 13.8751 30.9375 13.3772C31.1489 12.8793 31.2579 12.3439 31.2579 11.803C31.2579 11.2621 31.1489 10.7267 30.9375 10.2288C30.726 9.73093 30.4164 9.28075 30.0271 8.90516C29.6379 8.52956 29.1769 8.23624 28.6718 8.0427C28.1667 7.84917 27.6278 7.75939 27.0872 7.77871L18.3392 7.77614ZM18.6735 17.7687V17.7481C18.6762 17.2628 18.8713 16.7983 19.2159 16.4566C19.5605 16.1148 20.0266 15.9236 20.512 15.925C20.9974 15.9264 21.4624 16.1201 21.8051 16.4638C22.1478 16.8075 22.3403 17.2731 22.3403 17.7584C22.3403 18.2438 22.1478 18.7094 21.8051 19.053C21.4624 19.3967 20.9974 19.5905 20.512 19.5918C20.0266 19.5932 19.5605 19.4021 19.2159 19.0603C18.8713 18.7185 18.6762 18.2541 18.6735 17.7687ZM12.9855 27.8359C13.9935 27.8359 14.8112 28.6484 14.8163 29.6539V29.6796C14.8143 30.0419 14.705 30.3954 14.5022 30.6956C14.2994 30.9958 14.0122 31.2292 13.6768 31.3663C13.3415 31.5034 12.973 31.5381 12.618 31.466C12.263 31.3939 11.9372 31.2182 11.682 30.9612C11.4267 30.7041 11.2533 30.3772 11.1837 30.0216C11.114 29.6661 11.1513 29.2979 11.2908 28.9635C11.4302 28.6292 11.6656 28.3436 11.9672 28.1429C12.2689 27.9422 12.6232 27.8354 12.9855 27.8359Z" fill="currentColor"/>
</svg>
